<?xml version="1.0" standalone="no"?>
<!DOCTYPE svg PUBLIC "-//W3C//DTD SVG 1.1//EN" "http://www.w3.org/Graphics/SVG/1.1/DTD/svg11.dtd" >
<svg xmlns="http://www.w3.org/2000/svg" xmlns:xlink="http://www.w3.org/1999/xlink" version="1.1">
<metadata>
Created by FontForge 20170731 at Tue Jan  3 13:06:36 2023
 By Aleksey,,,
Copyright (c) 1989 Adobe Systems Incorporated.  All Rights Reserved.ITC Berkeley Oldstyle is a trademark of International Typeface Corporation.
</metadata>
<defs>
<font id="Berkeley-Book" horiz-adv-x="1062" >
  <font-face 
    font-family="Berkeley"
    font-weight="500"
    font-stretch="normal"
    units-per-em="2048"
    panose-1="0 0 0 0 0 0 0 0 0 0"
    ascent="1638"
    descent="-410"
    x-height="872"
    cap-height="1300"
    bbox="-176 -524 2175 1722"
    underline-thickness="102"
    underline-position="-307"
    unicode-range="U+0020-FB02"
  />
<missing-glyph horiz-adv-x="530" 
 />
    <glyph glyph-name=".notdef" horiz-adv-x="530" 
 />
    <glyph glyph-name=".null" horiz-adv-x="0" 
 />
    <glyph glyph-name="nonmarkingreturn" horiz-adv-x="682" 
 />
    <glyph glyph-name="space" unicode=" " horiz-adv-x="530" 
d="M0 0z" />
    <glyph glyph-name="exclam" unicode="!" horiz-adv-x="569" 
d="M295 -27q-37 0 -60.5 22t-23.5 60t23.5 60t60.5 22t60.5 -22t23.5 -60t-23.5 -60t-60.5 -22zM315 326h-53l-69 974h69q32 0 44.5 -2t25 -15.5t15.5 -41.5t3 -82q0 -34 -35 -833z" />
    <glyph glyph-name="quotedbl" unicode="&#x22;" horiz-adv-x="720" 
d="M563 1174l-35 -418q-7 -64 -28 -64q-22 0 -29 64l-35 418q-13 165 64 165q22 0 36 -13t20 -29.5t8 -43.5t1.5 -41.5t-2.5 -37.5zM285 1174l-35 -418q-7 -64 -29 -64q-21 0 -28 64l-35 418q-2 23 -2.5 37.5t1.5 41.5t8 43.5t20 29.5t36 13q77 0 64 -165z" />
    <glyph glyph-name="numbersign" unicode="#" 
d="M662 489l71 322h-330l-73 -322h332zM647 55h-86l72 318h-330l-72 -318h-86l72 318h-215l53 116h189l73 322h-213l54 117h186l72 317h86l-72 -317h332l72 317h86l-72 -317h215l-53 -117h-191l-71 -322h210l-53 -116h-186z" />
    <glyph glyph-name="dollar" unicode="$" 
d="M502 743v506q-101 -15 -173.5 -78.5t-72.5 -160.5q0 -106 64 -167.5t182 -99.5zM559 602v-547q107 15 184.5 95.5t77.5 187.5q0 57 -20.5 101t-59.5 74.5t-81.5 50.5t-100.5 38zM502 -143v143q-80 0 -145 12.5t-104.5 31.5t-66 42.5t-37 44.5t-10.5 39t14.5 28.5
t34.5 10.5q81 0 144 -133q17 -13 47 -19t53.5 -7t69.5 -1v569q-61 19 -106 37.5t-94 48t-80 63t-51.5 82.5t-20.5 107q0 74 29 135t78.5 102t111.5 67t133 36v148h57v-144q142 0 226.5 -53.5t84.5 -105.5q0 -17 -11 -27t-28 -10q-79 0 -151 123q-42 24 -121 24v-526
q109 -32 183 -70.5t114 -83.5t56 -91t16 -103q0 -100 -52 -179t-133.5 -125.5t-183.5 -64.5v-151h-57z" />
    <glyph glyph-name="percent" unicode="%" horiz-adv-x="1630" 
d="M430 637q-86 0 -151.5 47.5t-98.5 120.5t-33 158q0 158 92.5 267t247.5 109q86 0 151.5 -47t98.5 -120t33 -158q0 -158 -92.5 -267.5t-247.5 -109.5zM467 692q99 0 151 73t52 198q0 28 -3.5 58.5t-11.5 68.5t-24.5 71t-39.5 61.5t-59 45t-81 16.5q-99 0 -151 -72.5
t-52 -197.5q0 -35 4.5 -72.5t19 -83.5t37.5 -81.5t64 -60t94 -24.5zM1143 -39q-86 0 -151.5 47.5t-98.5 120.5t-33 158q0 158 92.5 267.5t247.5 109.5q86 0 151.5 -47.5t98.5 -120.5t33 -158q0 -158 -92.5 -267.5t-247.5 -109.5zM1180 16q99 0 150.5 73t51.5 198
q0 28 -3.5 58.5t-11.5 68.5t-24.5 71t-39.5 61.5t-59 45t-81 16.5q-99 0 -150.5 -72.5t-51.5 -197.5q0 -35 4.5 -72.5t19 -83.5t37.5 -81.5t64 -60t94 -24.5zM1202 1386h78q-105 -118 -251 -382t-270.5 -562t-166.5 -497l-109 -41q25 159 166.5 481.5t302.5 612t250 388.5z
" />
    <glyph glyph-name="ampersand" unicode="&#x26;" horiz-adv-x="1669" 
d="M735 29q175 0 318 92l-607 637h-28q-66 1 -115.5 -43t-72.5 -105t-23 -125q0 -66 18.5 -130t60 -123.5t102 -104t150 -71.5t197.5 -27zM879 815l-27 35q67 86 209 86q19 0 41.5 -2.5t39 -5t44 -7.5t43.5 -8q134 -22 174 -22q64 0 106 14t59 34.5t25.5 40.5t15.5 34t19 14
q19 0 19 -37v-106q0 -17 -8 -34t-26.5 -35t-57 -29t-91.5 -11q-60 0 -176 29l-4 -4q88 -98 88 -240q0 -107 -45 -207.5t-123 -177.5q124 -98 221 -98q81 0 142 55l28 -37q-179 -135 -233 -135q-78 0 -258 123q-170 -123 -436 -123q-89 0 -171 16t-157 51.5t-130.5 88
t-88.5 130.5t-33 173q0 147 89.5 253t234.5 142q-101 142 -101 238q0 81 50.5 148.5t126.5 102.5t157 35q123 0 182 -47l-22 -104q-4 -19 -6.5 -27.5t-8.5 -17t-14 -8.5q-14 0 -14 18q0 35 -33 59t-70.5 32.5t-72.5 8.5q-78 0 -131.5 -40t-53.5 -126q0 -60 87.5 -188
t209 -261t250 -253.5t209.5 -173.5q61 54 93 133t32 164q0 91 -30 169.5t-96.5 131.5t-158.5 53q-34 0 -59.5 -11t-58.5 -36z" />
    <glyph glyph-name="quotesingle" unicode="'" horiz-adv-x="378" 
d="M254 1174l-35 -418q-7 -64 -29 -64q-21 0 -28 64l-35 418q-2 23 -2.5 37.5t1.5 41.5t8 43.5t20 29.5t36 13q77 0 64 -165z" />
    <glyph glyph-name="parenleft" unicode="(" horiz-adv-x="681" 
d="M596 1458l16 -53q-108 -62 -187.5 -158t-120.5 -203.5t-60 -208.5t-19 -200q0 -86 13 -181t44.5 -200.5t77.5 -195.5t119 -163.5t162 -107.5l-20 -53q-108 31 -197 107t-144 169.5t-93 201.5t-53 201t-15 171q0 111 27.5 230.5t82.5 240t150 228t217 175.5z" />
    <glyph glyph-name="parenright" unicode=")" horiz-adv-x="681" 
d="M86 -266l-16 53q108 62 187.5 158t120.5 203.5t60 208.5t19 200q0 86 -13 181t-44.5 200.5t-77.5 195.5t-119 163.5t-162 107.5l20 53q108 -31 197 -107t144 -169.5t93 -201.5t53 -201t15 -171q0 -111 -27.5 -230.5t-82.5 -240t-150 -228t-217 -175.5z" />
    <glyph glyph-name="asterisk" unicode="*" horiz-adv-x="1024" 
d="M188 899q46 2 158.5 38t112.5 64t-113 64.5t-158 38.5q24 71 74 127q28 -39 107 -111.5t108 -72.5q21 0 21 30q0 97 -58 256q9 1 25.5 2.5t28.5 2.5t18 1t18 -1t28.5 -2.5t25.5 -2.5q-58 -159 -58 -256q0 -30 21 -30q29 0 108 72.5t107 111.5q50 -56 74 -127
q-45 -2 -158 -38.5t-113 -64.5t112.5 -64t158.5 -38q-24 -71 -74 -127q-28 39 -107 111.5t-108 72.5q-21 0 -21 -30q0 -97 58 -256q-11 -1 -37.5 -4.5t-34.5 -3.5t-34.5 3.5t-37.5 4.5q58 159 58 256q0 30 -21 30q-29 0 -108 -72.5t-107 -111.5q-50 56 -74 127z" />
    <glyph glyph-name="plus" unicode="+" 
d="M479 489v383h107v-383h383v-106h-383v-383h-107v383h-385v106h385z" />
    <glyph glyph-name="comma" unicode="," horiz-adv-x="530" 
d="M244 -326l-27 29q49 41 83 97t34 112q0 60 -39 70q-27 -9 -39 -9q-33 0 -53.5 20.5t-20.5 53.5t23 54.5t57 21.5q68 0 107 -59.5t39 -131.5q0 -81 -44.5 -147t-119.5 -111z" />
    <glyph glyph-name="hyphen" unicode="-" horiz-adv-x="681" 
d="M137 489h342q39 0 68.5 4.5t44.5 8.5t18 4q4 -4 4 -6t-0.5 -4.5t-2 -6.5t-3 -7.5t-4.5 -9.5t-6 -11t-8.5 -14.5t-10 -17.5t-12 -21t-14.5 -25h-408q-33 0 -50 -7t-19 -7q-6 0 -6 6q0 8 67 114z" />
    <glyph glyph-name="period" unicode="." horiz-adv-x="530" 
d="M266 -27q-37 0 -60.5 22t-23.5 60t23.5 60t60.5 22t60.5 -22t23.5 -60t-23.5 -60t-60.5 -22z" />
    <glyph glyph-name="slash" unicode="/" horiz-adv-x="569" 
d="M616 1339l-548 -1378h-115l549 1378h114z" />
    <glyph glyph-name="zero" unicode="0" 
d="M506 -39q-94 0 -168.5 43.5t-120 111.5t-76 157.5t-42 174.5t-11.5 170q0 154 39.5 290.5t105 229.5t151 147t175.5 54q94 0 168 -43.5t119.5 -111t75.5 -157.5t41.5 -175t11.5 -170q0 -155 -39.5 -291t-104.5 -229t-150 -147t-175 -54zM217 721q0 -51 3.5 -105.5
t13 -123.5t24.5 -131t41 -123t60 -105t83.5 -71t108.5 -27q41 0 80.5 16t79 56t69 100.5t48 157t18.5 217.5q0 51 -3.5 105.5t-13 123t-24.5 130.5t-41 122.5t-60 104.5t-83.5 71t-108.5 27q-41 0 -80.5 -16t-79 -55.5t-69 -99.5t-48 -156.5t-18.5 -217.5z" />
    <glyph glyph-name="one" unicode="1" 
d="M483 76v786q0 152 -2 225t-14.5 112.5t-25 44.5t-46.5 5h-151v56q131 0 246 17t118 17v-985q0 -141 8.5 -207.5t20.5 -79t39 -12.5h184v-55h-616v55h198q41 0 41 21z" />
    <glyph glyph-name="two" unicode="2" 
d="M254 113q120 3 181.5 5.5t305.5 8.5q74 2 109 10t57 37q9 12 19 12q16 0 16 -18q0 -21 -63 -168h-773q-30 0 -30 10q0 11 175 205.5t218 237.5q102 105 161.5 230.5t59.5 238.5q0 162 -74 243.5t-213 81.5q-161 0 -280 -96l-25 39q71 67 165.5 108t187.5 41
q170 0 271 -98t101 -268q0 -63 -14.5 -125t-45.5 -122.5t-61.5 -109.5t-80.5 -108.5t-82.5 -95.5t-87.5 -93z" />
    <glyph glyph-name="three" unicode="3" 
d="M150 1122l-33 37q74 83 179 131.5t214 48.5q134 0 230 -69t96 -197q0 -178 -224 -307v-4q149 -15 238.5 -103.5t89.5 -236.5q0 -102 -49 -190.5t-128 -146.5t-175.5 -91t-194.5 -33q-79 0 -163.5 23t-147.5 65l22 53q165 -79 281 -79q171 0 293.5 116t122.5 287
q0 37 -8 73t-30.5 75t-57.5 68t-93 48t-133 19h-78v55q128 0 219 74.5t91 191.5q0 102 -69 159.5t-173 57.5q-88 0 -173 -33t-146 -92z" />
    <glyph glyph-name="four" unicode="4" 
d="M754 1339v-710q59 0 90.5 1.5t71 10.5t57.5 27q10 10 20 10q15 0 15 -14q0 -5 -52 -142h-202v-524q-92 -47 -111 -47q-14 0 -14 22q0 7 6 143t6 173v233h-600v19q295 397 678 798h35zM641 629v551q-18 -20 -67 -75t-66.5 -74.5t-57.5 -65.5t-63.5 -74.5t-60 -73t-71 -90
t-73.5 -98.5h459z" />
    <glyph glyph-name="five" unicode="5" 
d="M315 1210l-71 -315q140 18 184 18q99 0 186 -24t158 -71.5t112.5 -128t41.5 -185.5q0 -72 -23 -146t-72 -145.5t-118 -127.5t-169 -90t-216 -34q-114 0 -222 51l19 51q57 -22 106 -31t129 -9q37 0 87 13t110.5 46t110.5 80.5t84 125t34 171.5q0 189 -111.5 277.5
t-305.5 88.5q-65 0 -122 -9t-65 -9q-14 0 -14 16q0 10 15 75t47 197.5t49 204.5q193 -40 339 -40q209 0 236 40q10 17 23 17q14 0 14 -19t-27 -106q-77 -51 -219 -51q-158 0 -330 69z" />
    <glyph glyph-name="six" unicode="6" 
d="M889 1339v-55q-243 0 -420 -149t-215 -390q196 156 336 156q89 0 163.5 -38.5t122 -102t73.5 -143t26 -164.5q0 -119 -43 -216.5t-110 -155.5t-142.5 -89t-147.5 -31q-43 0 -89.5 10t-108.5 46.5t-109 96t-80.5 170t-33.5 255.5q0 181 59 332t162.5 253t247 158.5
t309.5 56.5zM539 803q-142 0 -293 -125l-10 -135q0 -81 17 -166.5t53 -169.5t103 -137.5t156 -53.5q23 0 51.5 5.5t73.5 29.5t79.5 62.5t60.5 114t26 175.5q0 59 -11.5 115.5t-36.5 108.5t-61 91t-89.5 62t-118.5 23z" />
    <glyph glyph-name="seven" unicode="7" 
d="M840 1219q-278 -64 -465 -64q-97 0 -167.5 9t-70.5 28q0 8 17 127q140 -45 333 -45q119 0 252 15t222 46q8 4 24 4q10 0 10 -10q0 -4 -10 -14q-5 -5 -10 -15q-80 -97 -166.5 -254.5t-161.5 -338.5t-123.5 -379.5t-48.5 -356.5q0 -20 -20 -20q-22 0 -125 47
q116 617 510 1221z" />
    <glyph glyph-name="eight" unicode="8" 
d="M416 666q-97 -26 -154 -108t-57 -185q0 -153 91 -255t243 -102q139 0 228 82.5t89 218.5q0 58 -15 103t-39 75.5t-64.5 55.5t-81 41t-99.5 33zM612 741q87 30 138 94t51 154q0 125 -82 210t-207 85q-116 0 -193 -67.5t-77 -182.5q0 -119 101 -197.5t269 -95.5zM123 991
q0 59 28.5 119.5t80 112t134.5 84t181 32.5q160 0 266.5 -90.5t106.5 -240.5q0 -186 -246 -293v-4q28 -7 47.5 -13t53.5 -20t58 -29.5t53 -42t47 -57.5t30 -75.5t12 -96.5q0 -120 -64.5 -216.5t-169 -148t-225.5 -51.5q-180 0 -305 103t-125 280q0 124 68.5 207.5
t191.5 140.5q-102 42 -162.5 118.5t-60.5 180.5z" />
    <glyph glyph-name="nine" unicode="9" 
d="M174 -39v55q243 0 420 149t215 390q-196 -156 -336 -156q-89 0 -163.5 38.5t-122 102.5t-73.5 143.5t-26 164.5q0 96 28.5 178.5t74 139t104 96.5t118.5 58.5t117 18.5q29 0 60.5 -5t74 -20.5t81 -40t77 -69.5t66.5 -103.5t45.5 -145.5t17.5 -193q0 -181 -59 -332
t-162.5 -253.5t-247 -159t-309.5 -56.5zM524 498q142 0 293 125q1 7 3.5 37t4.5 56.5t2 41.5q0 81 -17 166.5t-53 169t-103 137t-156 53.5q-23 0 -51.5 -5.5t-73.5 -29.5t-79.5 -62.5t-60.5 -114t-26 -175.5q0 -59 11.5 -115.5t36.5 -108.5t61 -90.5t89.5 -61.5t118.5 -23z
" />
    <glyph glyph-name="colon" unicode=":" horiz-adv-x="530" 
d="M266 741q-37 0 -60.5 22t-23.5 60t23.5 60t60.5 22t60.5 -22t23.5 -60t-23.5 -60t-60.5 -22zM266 -27q-37 0 -60.5 22t-23.5 60t23.5 60t60.5 22t60.5 -22t23.5 -60t-23.5 -60t-60.5 -22z" />
    <glyph glyph-name="semicolon" unicode=";" horiz-adv-x="530" 
d="M244 -326l-27 29q49 41 83 97t34 112q0 60 -39 70q-27 -9 -39 -9q-33 0 -53.5 20.5t-20.5 53.5t23 54.5t57 21.5q68 0 107 -59.5t39 -131.5q0 -81 -44.5 -147t-119.5 -111zM266 741q-37 0 -60.5 22t-23.5 60t23.5 60t60.5 22t60.5 -22t23.5 -60t-23.5 -60t-60.5 -22z" />
    <glyph glyph-name="less" unicode="&#x3c;" 
d="M61 489l940 429v-115l-804 -367l804 -366v-115l-940 428v106z" />
    <glyph glyph-name="equal" unicode="=" 
d="M94 537v106h875v-106h-875zM94 229v107h875v-107h-875z" />
    <glyph glyph-name="greater" unicode="&#x3e;" 
d="M61 918l940 -429v-106l-940 -428v115l805 366l-805 367v115z" />
    <glyph glyph-name="question" unicode="?" horiz-adv-x="757" 
d="M246 1229q-55 0 -86.5 -10t-39 -22t-14.5 -22t-18 -10q-6 0 -11 5t-5 12q0 5 7.5 22t24 52t23.5 51q78 32 158 32q152 0 258 -86t106 -235q0 -54 -18 -105t-53 -96t-65.5 -76.5t-74.5 -70.5q-9 -8 -27.5 -24.5t-27.5 -24.5t-20 -20t-16 -21t-5 -17q0 -18 22 -54.5
t46 -66.5q8 -10 21.5 -13t21.5 -5.5t8 -13.5q0 -6 -12.5 -16.5t-59.5 -44.5q-7 -5 -11.5 -8t-11.5 -8.5t-14 -10.5q-78 83 -125 227q123 102 188.5 177t87 130t21.5 123q0 121 -77.5 185.5t-200.5 64.5zM342 -27q-37 0 -60.5 22t-23.5 60t23.5 60t60.5 22t60.5 -22t23.5 -60
t-23.5 -60t-60.5 -22z" />
    <glyph glyph-name="at" unicode="@" horiz-adv-x="1638" 
d="M420 565q0 91 38 187t103.5 177t167 133t217.5 52q12 0 36.5 -2t37.5 -2q38 -1 54 17t32 20q20 0 20 -14q0 -7 -21 -98t-42 -213t-21 -204q0 -85 13.5 -128.5t39 -57.5t74.5 -14q54 0 104 28t92 81.5t67.5 143t25.5 201.5q0 45 -4.5 87.5t-19 95.5t-38 98.5t-65.5 90.5
t-96.5 76.5t-135.5 51t-179 19.5q-77 0 -160 -22t-164 -63.5t-154 -106.5t-128.5 -144t-88 -183.5t-32.5 -218.5q0 -39 4.5 -81t21.5 -105t44.5 -119.5t79 -115t119 -101t171 -69.5t229.5 -27q98 2 182.5 19t143.5 44t100 51.5t79 52.5t54 36l29 -60
q-161 -112 -305.5 -161.5t-296.5 -49.5q-153 0 -282.5 40.5t-218.5 107t-152 154t-92 181t-29 187.5q0 174 69.5 328.5t186 261.5t270.5 169t320 62q142 0 256.5 -34.5t188 -91t122.5 -134t69.5 -157.5t20.5 -167q0 -80 -23.5 -160t-70 -153t-110 -129t-150 -89.5
t-183.5 -33.5q-21 0 -37 3.5t-28.5 8t-21.5 16.5t-15.5 22t-10.5 32.5t-6.5 39t-3.5 50.5t-1.5 59t-0.5 72l-4 4q-24 -49 -52.5 -93.5t-68 -91.5t-89.5 -75t-101 -28q-92 0 -136 69t-44 168zM979 1065h-72q-69 0 -129.5 -30t-101.5 -78t-70.5 -107t-43 -117t-13.5 -108
q0 -27 4.5 -53.5t17 -60.5t42 -54.5t73.5 -20.5q62 0 127.5 93t111.5 240t54 296z" />
    <glyph glyph-name="A" unicode="A" horiz-adv-x="1251" 
d="M819 498h-481q-123 -304 -123 -392q0 -51 51 -51h82h51v-55h-415v55q74 0 90 5.5t28 35.5l519 1229q74 23 106 23q12 0 12 -15q0 -10 -17 -24.5t-17 -38.5q0 -57 149 -493.5t215 -592.5q19 -45 29.5 -66.5t30 -42t40.5 -20.5h76v-55h-422v55h103q25 0 32 4t7 17
q0 19 -146 422zM793 565l-189 578q-140 -324 -239 -578h428z" />
    <glyph glyph-name="B" unicode="B" horiz-adv-x="1099" 
d="M371 700v-346q0 -74 1 -121t6 -80.5t8.5 -49.5t16 -24.5t21.5 -9.5t31 -1h110q80 0 141 19.5t96 49t57 69t29 74t7 70.5q0 46 -9 89t-36.5 92t-71 85t-120.5 60t-177 24h-110zM238 76v895q0 93 -1.5 142t-8.5 81.5t-17.5 41.5t-30.5 9h-121v55h519q69 0 125 -12t93 -30
t64.5 -44.5t42.5 -51.5t23.5 -54.5t11 -50t2.5 -41.5q0 -99 -64 -171.5t-163 -113.5v-4q140 -32 227.5 -123t87.5 -227q0 -74 -28.5 -139.5t-84.5 -119.5t-151 -86t-217 -32h-434v55h84q41 0 41 21zM371 1212v-450q125 0 174 -3.5t100 -15.5q58 36 90.5 64.5t56 75
t23.5 106.5q0 59 -23 107.5t-57 77t-69 44t-64 15.5h-156q-75 0 -75 -21z" />
    <glyph glyph-name="C" unicode="C" horiz-adv-x="1327" 
d="M782 -39q-201 0 -352.5 73t-237.5 218.5t-86 347.5q0 162 63 301.5t170.5 234.5t251 149t302.5 54q171 0 336 -65l-10 -121q-2 -25 -6.5 -34t-18.5 -9q-10 0 -12.5 7t-5.5 36q-5 37 -97 78t-213 41q-188 0 -329.5 -83.5t-216 -230t-74.5 -333.5q0 -134 45.5 -246.5
t123.5 -188.5t183 -118.5t223 -42.5q84 0 171 23t153 69.5t74 103.5q5 35 22 35q9 0 13 -3.5t5 -8t1 -12.5q0 -39 -11 -170q-215 -105 -467 -105z" />
    <glyph glyph-name="D" unicode="D" horiz-adv-x="1402" 
d="M238 76v895q0 93 -1.5 142t-8.5 81.5t-17.5 41.5t-30.5 9h-121v55h619q152 0 274.5 -51.5t199 -139.5t117 -200t40.5 -237q0 -59 -10 -120.5t-33 -128t-58 -127t-89.5 -115t-122 -94.5t-160.5 -63.5t-201 -23.5h-522v55h84q41 0 41 21zM371 1212v-858q0 -74 1 -121
t6 -80.5t8.5 -49.5t16 -24.5t21.5 -9.5t31 -1h168q46 0 86.5 3t98.5 16t104.5 35.5t96.5 64.5t83.5 99t55 144t21.5 195t-24.5 198.5t-63 151.5t-90 109t-102 75t-102 44.5t-87 23.5t-61.5 6h-193q-75 0 -75 -21z" />
    <glyph glyph-name="E" unicode="E" horiz-adv-x="1138" 
d="M59 1245v55h963l-21 -141q0 -2 -1 -7q-4 -25 -11 -27l-6 -1q-16 0 -20 25q-3 23 -18 34.5t-44 20.5q-92 29 -303 29h-152q-75 0 -75 -21v-467h194q141 0 209 8.5t82 21t14 38.5v82h52v-340h-52v76q0 29 -11 37q-22 15 -166 16h-62h-260v-330q0 -74 1 -121t6 -80.5
t8.5 -49.5t16 -24.5t21.5 -9.5t31 -1h131q405 0 446 100q8 20 23 20q14 0 14 -14q0 -12 -51 -174h-905v55h84q41 0 41 21v895q0 93 -1.5 142t-8.5 81.5t-17.5 41.5t-30.5 9h-121z" />
    <glyph glyph-name="F" unicode="F" horiz-adv-x="1099" 
d="M238 76v895q0 93 -1.5 142t-8.5 81.5t-17.5 41.5t-30.5 9h-121v55h963l-21 -141q0 -2 -1 -7q-4 -25 -11 -27l-6 -1q-16 0 -20 25q-3 23 -18 34.5t-44 20.5q-92 29 -303 29h-152q-75 0 -75 -21v-467h194q141 0 209 8.5t82 21t14 38.5v82h52v-340h-52v76q0 29 -11 37
q-22 15 -166 16h-62h-260v-330q0 -141 8.5 -207.5t20 -79t38.5 -12.5h115v-55h-440v55h84q41 0 41 21z" />
    <glyph glyph-name="G" unicode="G" horiz-adv-x="1402" 
d="M889 543v55h477v-55h-82q-27 0 -37 -3.5t-10 -17.5v-364q0 -26 12.5 -39.5t12.5 -22.5q0 -5 -2 -8.5t-6.5 -6.5l-7.5 -5t-9 -4.5t-8 -3.5q-110 -47 -247.5 -77t-252.5 -30q-193 0 -335.5 85.5t-215 234t-72.5 340.5q0 134 42.5 250t117.5 201t176 145.5t220.5 91
t248.5 30.5q218 0 351 -77l-25 -127q-5 -37 -25 -37q-7 0 -12.5 6t-5.5 14q0 5 2 14.5t2 14.5q0 17 -25 39t-67 42.5t-107 35t-135 14.5q-47 0 -96.5 -7t-111.5 -26t-118 -48.5t-110.5 -80t-94 -115t-63.5 -158t-24 -204.5q0 -155 47 -275t126.5 -191.5t176.5 -107.5
t205 -36q162 0 303 63v146q0 122 -1.5 177.5t-12.5 88t-22.5 36t-43.5 3.5h-135z" />
    <glyph glyph-name="H" unicode="H" horiz-adv-x="1478" 
d="M1104 678h-733v-324q0 -141 8.5 -207.5t20 -79t38.5 -12.5h115v-55h-440v55h84q41 0 41 21v895q0 93 -1.5 142t-8.5 81.5t-17.5 41.5t-30.5 9h-121v55h441v-55h-82q-16 0 -24 -0.5t-15.5 -5.5t-7.5 -14v-480h733v226q0 94 -1.5 142t-8 81t-17 42t-30.5 9h-121v55h440v-55
h-82q-16 0 -24 -0.5t-15.5 -5.5t-7.5 -14v-871q0 -141 8.5 -207.5t20.5 -79t39 -12.5h114v-55h-440v55h84q41 0 41 21v602z" />
    <glyph glyph-name="I" unicode="I" horiz-adv-x="645" 
d="M389 1225v-871q0 -141 8.5 -207.5t20.5 -79t39 -12.5h114v-55h-440v55h84q41 0 41 21v895q0 94 -1.5 142t-8 81t-17 42t-30.5 9h-121v55h440v-55h-82q-16 0 -24 -0.5t-15.5 -5.5t-7.5 -14z" />
    <glyph glyph-name="J" unicode="J" horiz-adv-x="645" 
d="M291 53v918q0 93 -1.5 142t-8.5 81.5t-17.5 41.5t-30.5 9h-120v55h440v-55h-82q-16 0 -24 -0.5t-15.5 -5.5t-7.5 -14v-1174q0 -201 -123.5 -317.5t-337.5 -116.5q-62 0 -104 12q-5 29 -12.5 61.5t-12 51t-4.5 22.5q0 19 20 19q18 0 23 -19q4 -21 21 -37t40 -25t45.5 -13
t43.5 -4q119 0 193.5 92.5t74.5 275.5z" />
    <glyph glyph-name="K" unicode="K" horiz-adv-x="1290" 
d="M387 1143v-565q264 246 404 382.5t187.5 192.5t47.5 78q0 14 -27 14h-153v55h420v-55h-72q-16 0 -23 -4t-24 -22l-518 -514q127 -147 249.5 -297t181 -219t99.5 -107q20 -19 39 -23t88 -4v-55h-223q-20 1 -30.5 9t-31.5 34q-4 5 -173 228.5t-287 353.5l-154 -131v-140
q0 -141 8.5 -207.5t20.5 -79t39 -12.5h114v-55h-440v55h84q41 0 41 21v895q0 94 -1.5 142t-8 81t-17 42t-30.5 9h-121v55h440v-55h-82q-16 0 -24 -0.5t-15.5 -5.5t-7.5 -14v-82z" />
    <glyph glyph-name="L" unicode="L" 
d="M59 1245v55h441v-55h-82q-16 0 -24 -0.5t-15.5 -5.5t-7.5 -14v-871q0 -74 1 -121t6 -80.5t8.5 -49.5t16 -24.5t21.5 -9.5t31 -1h131q405 0 446 100q8 20 23 20q14 0 14 -14q0 -12 -51 -174h-905v55h84q41 0 41 21v895q0 93 -1.5 142t-8.5 81.5t-17.5 41.5t-30.5 9h-121z
" />
    <glyph glyph-name="M" unicode="M" horiz-adv-x="1669" 
d="M242 76v1018q0 151 -90 151h-93v55h295l494 -1077l442 1077h266v-55h-81q-16 0 -24 -0.5t-16 -5.5t-8 -14v-871q0 -141 8.5 -207.5t20.5 -79t39 -12.5h115v-55h-441v55h84q41 0 41 21v1046l-4 4l-467 -1112q-4 -12 -10 -12q-7 0 -14 18l-486 1080h-4v-746
q0 -141 8.5 -207.5t20.5 -79t39 -12.5h115v-55h-375v55h84q41 0 41 21z" />
    <glyph glyph-name="N" unicode="N" horiz-adv-x="1478" 
d="M319 1300l859 -1069h4v715q0 141 -8.5 207.5t-20.5 79t-39 12.5h-115v55h375v-55h-84q-41 0 -41 -20v-1211q0 -11 -0.5 -16t-3.5 -9.5t-10 -4.5q-6 0 -14 8l-908 1130h-4v-768q0 -141 8.5 -207.5t20.5 -79t39 -12.5h115v-55h-375v55h84q41 0 41 21v1018q0 151 -90 151
h-93v55h260z" />
    <glyph glyph-name="O" unicode="O" horiz-adv-x="1517" 
d="M106 631q0 142 48 270.5t134 225.5t213 154.5t275 57.5q205 0 350.5 -87t216 -236t70.5 -346q0 -142 -48 -270.5t-134 -226t-213 -155t-275 -57.5q-154 0 -276 50t-200.5 139.5t-119.5 211.5t-41 269zM1280 631q0 134 -30.5 244t-82.5 183.5t-122 124t-146.5 73
t-159.5 22.5q-66 0 -130.5 -17t-132.5 -61t-119 -110t-84 -175t-33 -245q0 -134 30.5 -244t82 -183.5t121.5 -124t146.5 -73t159.5 -22.5q66 0 130.5 17t132.5 61t119.5 110t84.5 175t33 245z" />
    <glyph glyph-name="P" unicode="P" 
d="M371 618v-264q0 -141 8.5 -207.5t20 -79t38.5 -12.5h115v-55h-440v55h84q41 0 41 21v895q0 93 -1.5 142t-8.5 81.5t-17.5 41.5t-30.5 9h-121v55h541q189 0 296.5 -99.5t107.5 -237.5q0 -90 -38 -162.5t-102.5 -117t-143.5 -68t-165 -23.5q-99 0 -184 26zM371 1212v-538
q82 -27 172 -27q142 0 234.5 71.5t92.5 209.5q0 31 -6 64t-27 78t-55 79.5t-98.5 59t-148.5 24.5h-89q-75 0 -75 -21z" />
    <glyph glyph-name="Q" unicode="Q" horiz-adv-x="1517" 
d="M834 72l36 -43q111 26 193 85.5t128.5 142t68 175.5t20.5 199q0 134 -30.5 244t-82.5 183.5t-122 124t-146.5 73t-159.5 22.5q-66 0 -130.5 -17t-132.5 -61t-119 -110t-84 -175t-33 -245q0 -113 22 -208.5t57 -160t82 -115.5t93 -80.5t95.5 -48.5t83.5 -26t62 -8
q52 8 99 49zM106 631q0 142 48 270.5t134 225.5t213 154.5t275 57.5q205 0 350.5 -87t216 -236t70.5 -346q0 -247 -134 -436.5t-364 -251.5q253 -271 431 -271q52 0 127 35l20 -41q-199 -94 -283 -94q-120 0 -436 350h-31q-154 0 -276 50t-200.5 139.5t-119.5 211.5t-41 269
z" />
    <glyph glyph-name="R" unicode="R" horiz-adv-x="1175" 
d="M238 76v895q0 93 -1.5 142t-8.5 81.5t-17.5 41.5t-30.5 9h-121v55h541q189 0 296.5 -99.5t107.5 -237.5q0 -144 -92 -233.5t-240 -117.5q315 -451 418 -534q20 -16 40.5 -19.5t75.5 -3.5v-55h-211q-32 0 -92 78t-364 510h-168v-234q0 -141 8.5 -207.5t20 -79t38.5 -12.5
h115v-55h-440v55h84q41 0 41 21zM371 1212v-569h114q58 0 110 8t103.5 28.5t88.5 51.5t60 82t23 115q0 31 -6 64t-27 78t-55 79.5t-98.5 59t-148.5 24.5h-89q-75 0 -75 -21z" />
    <glyph glyph-name="S" unicode="S" horiz-adv-x="985" 
d="M807 1300v-139q0 -24 -19 -24q-11 0 -14.5 6.5t-5.5 21.5q-4 29 -34 51.5t-70.5 33.5t-76.5 16.5t-63 5.5q-75 0 -133.5 -24t-92 -61.5t-50.5 -79.5t-17 -83q0 -57 23 -101.5t62 -74.5t89.5 -54.5t106 -45.5t111 -43.5t106 -53t89.5 -68.5t62 -95.5t23 -129.5
q0 -93 -40.5 -169.5t-108.5 -125.5t-153.5 -75.5t-178.5 -26.5q-73 0 -158 15t-149 40q-29 181 -29 183q0 22 20 22q22 0 27 -37q9 -41 47 -72.5t89 -48.5t99 -25.5t87 -8.5q90 0 166.5 29t127 91t50.5 146q0 64 -23 113.5t-61.5 82t-88.5 58.5t-105 46.5t-110 42.5
t-105 51.5t-88.5 67t-61.5 95t-23 131.5q0 101 65.5 184t169 127.5t218.5 44.5q138 0 221 -39z" />
    <glyph glyph-name="T" unicode="T" horiz-adv-x="1175" 
d="M870 55v-55h-536v55h147q41 0 41 21v1161q-49 0 -74 -0.5t-82 -2.5t-93 -8.5t-79.5 -17t-70 -29t-37.5 -42.5q-14 -27 -27 -27q-20 0 -20 16q0 20 55 174h989q56 -157 56 -174q0 -16 -21 -16q-2 0 -4 0.5t-3.5 1t-3 2t-3 2.5t-2.5 3t-2 3.5t-2.5 3.5t-2 3.5t-2 4
t-1.5 3.5q-11 24 -37.5 42.5t-70 29t-79.5 17t-93.5 8.5t-82.5 2.5t-74 0.5v-883q0 -141 8.5 -207.5t20.5 -79t39 -12.5h147z" />
    <glyph glyph-name="U" unicode="U" horiz-adv-x="1402" 
d="M954 1245v55h375v-55h-84q-41 0 -41 -20v-746q0 -113 -31.5 -203.5t-82.5 -148t-121.5 -96t-143.5 -54.5t-153 -16q-62 0 -121.5 11t-125.5 41.5t-115 78.5t-81 130t-32 188v561q0 93 -1.5 142t-8.5 81.5t-17.5 41.5t-30.5 9h-121v55h441v-55h-82q-16 0 -24 -0.5
t-15.5 -5.5t-7.5 -14v-785q0 -73 14.5 -133.5t38 -101t56.5 -71.5t66 -48.5t72 -28.5t69 -14.5t61 -3.5q34 0 66.5 3t77 14.5t82.5 30.5t77 54t66 81t44 115.5t17 154.5v454q0 141 -8.5 207.5t-20.5 79t-39 12.5h-115z" />
    <glyph glyph-name="V" unicode="V" horiz-adv-x="1251" 
d="M1255 1300v-55h-94q-8 0 -12 -4t-10 -18q-10 -32 -71.5 -189.5t-184 -468t-205.5 -522.5q-3 -7 -8 -20q-8 -20 -11.5 -28.5t-8.5 -18t-8.5 -12.5t-8.5 -3q-12 0 -21 29q-10 39 -45 132t-96.5 242.5t-108.5 262.5t-127 303t-106 252q-19 45 -36 54t-66 9h-43v55h403v-55
h-96q-41 0 -41 -12q0 -5 58 -146.5t180.5 -435.5t183.5 -442q368 873 368 999q0 18 -8.5 26t-19 9.5t-33.5 1.5h-111v55h387z" />
    <glyph glyph-name="W" unicode="W" horiz-adv-x="1933" 
d="M666 231l288 775l-71 176q-19 45 -36 54t-67 9h-69v55h430v-55h-97q-40 0 -40 -12q0 -6 58.5 -155t162 -413t174.5 -448q225 610 282.5 776.5t57.5 214.5q0 18 -9 26t-19.5 9.5t-33.5 1.5h-110v55h362v-55h-74q-6 0 -8.5 -0.5t-6 -5.5t-7.5 -16l-440 -1207
q-19 -55 -31 -55q-11 0 -21 25q-3 8 -14.5 41.5t-33 92t-57 153t-101.5 263t-152 382.5l-326 -902q-11 -33 -17 -44t-13 -11q-11 0 -21 25q-394 1044 -467 1196q-15 31 -27.5 44.5t-22 16t-32.5 2.5h-67v55h413v-55h-106q-41 0 -41 -12q0 -9 57.5 -150.5t173 -419
t179.5 -432.5z" />
    <glyph glyph-name="X" unicode="X" horiz-adv-x="1251" 
d="M686 727l352 -514q60 -89 91.5 -123.5t54.5 -34.5h76v-55h-435v55h107q23 0 33 3t10 14q0 10 -58.5 97.5t-166.5 243.5t-152 222q-108 -122 -188.5 -248.5t-112 -200.5t-31.5 -102q0 -13 8.5 -20t16.5 -8t24 -1h115v-55h-393v55h45q27 0 37.5 1.5t21.5 10t21 27.5
q169 319 401 590q-38 56 -100.5 150t-98 146.5t-77.5 112.5t-68 92t-41 42q-20 13 -37 15.5t-84 2.5v55h428v-55h-131q-12 0 -12 -8q0 -3 3.5 -10t12 -20.5t18.5 -29t27.5 -40.5t34 -49t42.5 -61.5t50 -71t59 -83.5t66 -94q31 38 69 84t62 75.5t53 64.5t46.5 57.5t37 47.5
t30.5 41t20.5 32t13.5 26.5t4 18.5q0 14 -7 17t-38 3h-121v55h375v-55q-71 0 -87 -2t-23 -14t-75 -96t-175 -216t-154 -190z" />
    <glyph glyph-name="Y" unicode="Y" horiz-adv-x="1099" 
d="M971 1184l-334 -617v-213q0 -141 8.5 -207.5t20.5 -79t39 -12.5h114v-55h-440v55h84q41 0 41 21v350v139q-53 88 -140 234.5t-137 229.5t-88 142q-34 53 -49 63.5t-51 10.5h-70v55h420v-55h-94q-24 0 -29.5 -1t-5.5 -7q0 -8 55 -104t154 -263.5t137 -234.5
q230 432 268 519q21 48 21 63q0 20 -7 24t-24 4h-131v55h367v-55h-70q-6 0 -11 -1.5t-9.5 -5t-7.5 -6t-7.5 -9t-6.5 -10.5t-8 -14z" />
    <glyph glyph-name="Z" unicode="Z" horiz-adv-x="1138" 
d="M1055 0h-977q-29 0 -29 12q0 6 37 64l776 1157h-110q-52 0 -100.5 -1t-138.5 -7t-156.5 -16.5t-125 -32.5t-73.5 -52q-12 -24 -25 -24q-18 0 -18 18q0 6 49 182h852q22 0 22 -8q0 -7 -14 -28l-793 -1196h222q65 0 113 1t124 4.5t132 12.5t112.5 22.5t91.5 37t45 53.5
q2 7 3 9t4 7t6.5 6.5t9.5 1.5q16 0 16 -16q0 -13 -55 -207z" />
    <glyph glyph-name="bracketleft" unicode="[" horiz-adv-x="681" 
d="M262 1444h299v-55h-129q-28 0 -36.5 -4.5t-8.5 -26.5v-1208q0 -85 2 -145.5t7 -98t9.5 -59.5t15 -31t17.5 -11t21 -2h102v-55h-280v1321q0 245 -19 375z" />
    <glyph glyph-name="backslash" unicode="\" horiz-adv-x="569" 
d="M68 1339l548 -1378h-114l-549 1378h115z" />
    <glyph glyph-name="bracketright" unicode="]" horiz-adv-x="681" 
d="M420 -252h-299v55h129q28 0 36.5 4.5t8.5 26.5v1208q0 85 -2 145.5t-7 98t-9.5 59.5t-15 31t-17.5 11t-21 2h-102v55h280v-1321q0 -245 19 -375z" />
    <glyph glyph-name="asciicircum" unicode="^" 
d="M231 553h-127l375 747h107l375 -747h-127l-302 604z" />
    <glyph glyph-name="underscore" unicode="_" horiz-adv-x="1024" 
d="M1024 -256h-1024v102h1024v-102z" />
    <glyph glyph-name="grave" unicode="`" horiz-adv-x="530" 
d="M358 1030l-26 -37q-205 132 -303 176q0 1 8 13t12 17.5t11.5 14.5t13.5 13t12 4q27 0 134 -82.5t138 -118.5z" />
    <glyph glyph-name="a" unicode="a" horiz-adv-x="872" 
d="M573 233v261q-69 -25 -111.5 -42t-99 -46.5t-89 -58t-55.5 -69.5t-23 -88q0 -58 29.5 -91t86.5 -33q75 0 145.5 48t116.5 119zM573 549v137q0 21 -1 33.5t-8.5 36.5t-22 38t-44.5 25.5t-73 11.5q-53 0 -108 -16t-91 -47q0 -70 -26.5 -124t-71.5 -54q-18 0 -30.5 13.5
t-12.5 29.5q0 59 39.5 111.5t99.5 86.5t127.5 54t126.5 20q45 0 79 -7.5t57 -18t38 -32t23.5 -39t12.5 -51t4.5 -55.5t0.5 -63v-326q0 -35 0.5 -53.5t3 -47t8 -44.5t16 -36t25.5 -32t38 -23t53 -18l-66 -92q-60 0 -120.5 58.5t-69.5 136.5q-65 -74 -160 -134.5t-174 -60.5
q-83 0 -130.5 52.5t-47.5 138.5q0 30 8.5 58t20.5 51.5t37.5 47.5t47 42t61 40.5t68.5 37.5t81 38t85.5 37t95.5 39z" />
    <glyph glyph-name="b" unicode="b" 
d="M293 688v-586q102 -79 223 -79q110 0 188 56.5t113 145.5t35 201q0 75 -17.5 141.5t-52.5 121t-95 86.5t-138 32q-74 0 -132 -29.5t-124 -89.5zM174 233v932q0 87 -8 128t-17.5 48t-31.5 7h-109v49q142 9 285 47v-692q113 83 183.5 118t152.5 35q87 0 156 -39.5
t109.5 -104.5t61.5 -142t21 -160q0 -133 -50.5 -243.5t-152 -179.5t-237.5 -69q-167 0 -299 109l-41 -101h-35q12 84 12 258z" />
    <glyph glyph-name="c" unicode="c" horiz-adv-x="872" 
d="M801 158l26 -33q-64 -75 -156.5 -116.5t-191.5 -41.5q-129 0 -222.5 61.5t-139 163t-45.5 230.5q0 116 40.5 211t105.5 152.5t141 88.5t153 31q67 0 123.5 -21t89 -51.5t50.5 -60t18 -51.5q0 -23 -15 -37t-39 -14q-46 0 -81.5 54.5t-47.5 109.5q-35 22 -98 22
q-33 0 -69 -8t-81.5 -33t-81 -65t-61.5 -110.5t-29 -162.5q0 -116 38.5 -209.5t120.5 -152t194 -58.5q154 0 258 101z" />
    <glyph glyph-name="d" unicode="d" horiz-adv-x="1099" 
d="M770 184v586q-103 80 -223 80q-83 0 -148.5 -32.5t-106 -88.5t-61 -128t-20.5 -155q0 -75 17.5 -141t52.5 -120.5t95 -86.5t138 -32q74 0 132 29.5t124 88.5zM770 834v331q0 87 -8 128t-17.5 48t-31.5 7h-109v49q142 9 285 47v-1086q0 -82 0.5 -130.5t5 -86.5t8.5 -54
t16.5 -26t22.5 -11t33 -1h82v-49q-22 0 -144 -16q-130 -17 -143 -17v154q-114 -84 -184 -119t-152 -35q-70 0 -128.5 26t-98.5 70t-68 102t-40.5 120.5t-12.5 128.5q0 133 50.5 243.5t152 179t237.5 68.5q135 0 244 -71z" />
    <glyph glyph-name="e" unicode="e" horiz-adv-x="872" 
d="M786 162l29 -31q-155 -164 -375 -164q-92 0 -165 36.5t-117.5 99.5t-68 141t-23.5 166q0 89 24.5 175t70.5 158.5t122 117t170 44.5q62 0 116 -23t95 -65.5t71 -87.5t60 -104q-334 -107 -611 -170q4 -84 23.5 -152.5t58 -125.5t104.5 -88.5t154 -31.5q151 0 262 105z
M184 508l461 123q-32 87 -91 153t-136 66q-69 0 -124 -54.5t-82.5 -131.5t-27.5 -156z" />
    <glyph glyph-name="f" unicode="f" horiz-adv-x="569" 
d="M328 823v-465q0 -82 0.5 -130.5t5 -86.5t8.5 -54t16.5 -26t22.5 -11t33 -1h82v-49h-402v49h76q39 0 39 21v753h-123v49h123v258q0 85 22 148.5t52.5 96.5t72 53t71 25t58.5 5q22 0 52.5 -6.5t62 -18.5t53 -33t21.5 -46q0 -18 -15 -28.5t-34 -10.5q-63 0 -131 84
q-12 4 -35 4q-58 0 -94.5 -49.5t-36.5 -157.5v-324h166v-49h-166z" />
    <glyph glyph-name="g" unicode="g" horiz-adv-x="948" 
d="M479 326q96 0 145.5 70.5t49.5 170.5q0 70 -24.5 132.5t-78 106.5t-125.5 44q-97 0 -144.5 -67.5t-47.5 -168.5q0 -70 23.5 -134t76.5 -109t125 -45zM416 -35q-96 -8 -174 -69t-78 -152q0 -46 21 -82.5t53.5 -58.5t76.5 -36t85 -19t83 -5q151 0 258 61t107 158
q0 78 -63.5 131.5t-196.5 61.5zM592 66q33 -2 52.5 -3.5t61.5 -9t69 -17.5t62.5 -31t57 -48t36.5 -69.5t15 -94.5q0 -64 -32 -116.5t-83.5 -86.5t-119 -58t-136.5 -34t-139 -10q-52 0 -99 5t-98.5 20.5t-88 40t-60.5 67.5t-24 100q0 97 60.5 158t166.5 109q-125 38 -125 121
q0 10 2.5 20t8.5 22.5t11 22t15 23.5t16 22t19 23.5t18 21t19 21.5t16 18q-158 84 -158 252q0 147 98.5 248.5t243.5 101.5q17 0 34.5 -2.5t40.5 -7t34 -6.5q100 -21 176 -21q47 0 73.5 8t31.5 17t11 17t17 8q16 0 16 -17q0 -16 -10 -41q-2 -7 -6.5 -21.5t-6 -18.5t-6.5 -12
t-11 -10.5t-16.5 -4.5t-25.5 -2q-11 0 -110 12q74 -82 74 -207q0 -140 -100 -233t-242 -93q-41 0 -107 15q-25 -25 -50.5 -65t-25.5 -64t12.5 -38.5t52 -25t97 -15.5t162.5 -11z" />
    <glyph glyph-name="h" unicode="h" horiz-adv-x="1099" 
d="M907 651v-293q0 -82 0.5 -130.5t5 -86.5t8.5 -54t16.5 -26t22.5 -11t33 -1h82v-49h-401v49h76q38 0 38 21v534q0 209 -170 209q-85 0 -157.5 -35t-149.5 -100v-320q0 -82 0.5 -130.5t5 -86.5t8.5 -54t16.5 -26t22.5 -11t33 -1h82v-49h-401v49h76q39 0 39 21v1095
q0 66 -3.5 105t-13 55t-17 19.5t-24.5 3.5h-108v49q140 9 284 47v-703q95 79 176 121.5t172 42.5q70 0 120.5 -22t77 -59.5t38.5 -80t12 -92.5z" />
    <glyph glyph-name="i" unicode="i" horiz-adv-x="530" 
d="M324 905v-547q0 -82 0.5 -130.5t5 -86.5t8.5 -54t16.5 -26t22.5 -11t33 -1h82v-49h-402v49h76q39 0 39 21v571q0 66 -3.5 105t-13 55t-17 19t-24.5 3h-108v49q4 0 143 17q126 16 142 16zM176 1204q0 31 22.5 53.5t53.5 22.5t53.5 -22.5t22.5 -53.5q0 -32 -22.5 -55
t-53.5 -23t-53.5 23t-22.5 55z" />
    <glyph glyph-name="j" unicode="j" horiz-adv-x="530" 
d="M49 823v49q5 0 144 17q126 16 141 16v-1057q0 -68 -14.5 -124t-37 -92t-54 -64t-61 -42.5t-61.5 -23.5t-52.5 -11.5t-37.5 -2.5q-30 0 -64.5 7.5t-66.5 29.5t-32 53q0 20 16 30.5t39 10.5q67 0 123 -74q16 -8 28 -8q32 0 57.5 14t41.5 33.5t27.5 53t17 60t8.5 68t3.5 63
t0.5 58.5v754q0 66 -3.5 105t-12.5 55t-16.5 19t-24.5 3h-109zM186 1204q0 31 22.5 53.5t53.5 22.5t53.5 -22.5t22.5 -53.5q0 -32 -22.5 -55t-53.5 -23t-53.5 23t-22.5 55z" />
    <glyph glyph-name="k" unicode="k" 
d="M209 70v1095q0 87 -8 128t-17.5 48t-31.5 7h-109v49q142 9 285 47v-1034q96 62 173.5 121t123.5 102.5t77.5 80.5t43.5 58.5t12 32.5q0 18 -19 18h-139v49h387v-49h-29q-31 0 -47.5 -7t-42.5 -30l-299 -270q150 -192 243 -297t134.5 -137.5t69.5 -32.5h37v-49h-197
q-17 0 -66 58.5t-309 387.5l-153 -102q0 -78 0.5 -124.5t5 -82.5t8.5 -51.5t16.5 -25t22.5 -10.5t33 -1h82v-49h-402v49h76q39 0 39 21z" />
    <glyph glyph-name="l" unicode="l" horiz-adv-x="530" 
d="M205 70v1095q0 66 -3.5 105t-13 55t-17 19.5t-24.5 3.5h-108v49q142 9 285 47v-1086q0 -82 0.5 -130.5t5 -86.5t8.5 -54t16.5 -26t22.5 -11t33 -1h82v-49h-402v49h76q39 0 39 21z" />
    <glyph glyph-name="m" unicode="m" horiz-adv-x="1630" 
d="M39 823v49q4 0 143 17q126 16 142 16v-164q21 15 59.5 44.5t62 46t57 36t67 28.5t69.5 9q88 0 149 -46t76 -128q4 3 40.5 31.5t64.5 47t69 43.5t80 38.5t72 13.5q70 0 120.5 -22t77 -59.5t38.5 -80t12 -92.5v-293q0 -82 0.5 -130.5t5 -86.5t8.5 -54t16.5 -26t22.5 -11
t33 -1h82v-49h-402v49h76q39 0 39 21v534q0 209 -172 209q-25 -1 -47 -4.5t-45 -13.5t-37 -16t-38 -23.5t-32 -23t-35 -28t-32 -26.5v-320q0 -82 0.5 -130.5t5 -86.5t8.5 -54t16.5 -26t22.5 -11t33 -1h82v-49h-402v49h76q39 0 39 21v534q0 209 -172 209q-25 -1 -47 -4.5
t-45 -13.5t-37 -16t-38 -23.5t-32 -23t-35 -28t-32 -26.5v-320q0 -82 0.5 -130.5t5 -86.5t8.5 -54t16.5 -26t22.5 -11t33 -1h82v-49h-402v49h76q39 0 39 21v571q0 66 -3.5 105t-13 55t-17 19t-24.5 3h-108z" />
    <glyph glyph-name="n" unicode="n" horiz-adv-x="1099" 
d="M311 678v-320q0 -82 0.5 -130.5t5 -86.5t8.5 -54t16.5 -26t22.5 -11t33 -1h82v-49h-401v49h76q39 0 39 21v571q0 66 -3.5 105t-13 55t-17 19t-24.5 3h-108v49q4 0 143 17q126 16 141 16v-164q95 79 176 121.5t172 42.5q70 0 120.5 -22t77 -59.5t38.5 -80t12 -92.5v-293
q0 -82 0.5 -130.5t5 -86.5t8.5 -54t16.5 -26t22.5 -11t33 -1h82v-49h-401v49h76q38 0 38 21v534q0 209 -170 209q-85 0 -157.5 -35t-149.5 -100z" />
    <glyph glyph-name="o" unicode="o" horiz-adv-x="1024" 
d="M86 408q0 106 31.5 193t80.5 142t110.5 93t119 53.5t109.5 15.5q182 0 291.5 -124t109.5 -316q0 -106 -31.5 -193t-80.5 -142t-110.5 -93t-119 -54t-109.5 -16q-182 0 -291.5 124.5t-109.5 316.5zM215 446q0 -77 18 -148.5t54.5 -133t99 -98.5t143.5 -37q80 0 137.5 35
t87 95t42 125.5t12.5 141.5q0 77 -18 149t-54.5 133.5t-99 98.5t-143.5 37q-80 0 -137.5 -35t-87 -95.5t-42 -125.5t-12.5 -142z" />
    <glyph glyph-name="p" unicode="p" horiz-adv-x="1099" 
d="M330 688v-586q102 -79 223 -79q110 0 188 56.5t113 145.5t35 201q0 75 -17.5 141.5t-52.5 121t-95 86.5t-138 32q-74 0 -132 -29.5t-124 -89.5zM211 -436v1077q0 66 -3.5 105t-12.5 55t-16.5 19t-24.5 3h-109v49q4 0 143 17q126 16 142 16v-153q113 83 183.5 118
t152.5 35q87 0 156 -39.5t109.5 -104.5t61.5 -142t21 -160q0 -133 -50.5 -243.5t-152.5 -179.5t-238 -69q-133 0 -243 72v-186q0 -82 0.5 -130.5t5 -86.5t8.5 -54.5t16.5 -26.5t22.5 -11t33 -1h82v-49h-402v49h76q39 0 39 21z" />
    <glyph glyph-name="q" unicode="q" 
d="M86 414q0 133 50.5 243.5t152 179t237.5 68.5q168 0 299 -108l41 100h35q-12 -84 -12 -258v-885q0 -66 3.5 -105t12.5 -55t16.5 -19t24.5 -3h109v-49q-142 -9 -285 -47v645q-114 -84 -184 -119t-152 -35q-70 0 -128.5 26t-98.5 70t-68 102t-40.5 120.5t-12.5 128.5z
M770 184v586q-103 80 -223 80q-83 0 -148.5 -32.5t-106 -88.5t-61 -128t-20.5 -155q0 -75 17.5 -141t52.5 -120.5t95 -86.5t138 -32q74 0 132 29.5t124 88.5z" />
    <glyph glyph-name="r" unicode="r" horiz-adv-x="720" 
d="M219 70v571q0 66 -3.5 105t-12.5 55t-16.5 19t-24.5 3h-109v49q5 0 144 17q126 16 141 16v-176q117 105 171 140.5t101 35.5q61 0 97 -45q-11 -65 -18.5 -94.5t-12 -36t-12.5 -6.5q-10 0 -17 9.5t-13 21t-29 21t-60 9.5q-50 0 -96 -26t-111 -94v-306q0 -82 0.5 -130.5
t5 -86.5t8.5 -54t16.5 -26t22.5 -11t33 -1h82v-49h-402v49h76q39 0 39 21z" />
    <glyph glyph-name="s" unicode="s" horiz-adv-x="757" 
d="M381 838q-74 0 -139.5 -43.5t-65.5 -116.5q0 -44 29 -75t75 -48.5t102 -32.5t112 -34.5t102 -46t75 -74t29 -113.5q0 -73 -36 -130.5t-94 -90.5t-124 -49.5t-135 -16.5q-122 0 -229 39q-27 175 -27 176q0 19 23 19q3 0 5.5 -1t4.5 -2.5t3.5 -4t3 -4.5t2.5 -6t1.5 -5.5
l2 -6t1.5 -5.5q10 -54 95.5 -92.5t169.5 -38.5q88 0 160.5 50t72.5 138q0 48 -28.5 81t-73.5 50.5t-100 31.5t-110 31t-100 41.5t-73.5 70t-28.5 110.5q0 106 94 186t228 80q137 0 229 -43q12 -110 12 -139q0 -14 -14 -14q-7 0 -11.5 3.5t-5.5 4.5t-6 10q-23 36 -42 53
q-67 58 -189 58z" />
    <glyph glyph-name="t" unicode="t" horiz-adv-x="606" 
d="M279 1067v-195h223q-3 -22 -8 -33.5t-9.5 -13.5t-13.5 -2h-192v-585q0 -33 2 -56t10 -50.5t23 -44.5t42.5 -28.5t65.5 -11.5q60 0 139 33l19 -41q-49 -29 -119.5 -50.5t-122.5 -21.5q-86 0 -132 51.5t-46 137.5v667h-45q-34 0 -43 2.5t-9 12.5q0 11 21 32l166 197h29z
" />
    <glyph glyph-name="u" unicode="u" horiz-adv-x="1099" 
d="M27 823v49q4 0 143 17q126 16 141 16v-547q0 -39 0.5 -59.5t2.5 -54t7 -51t13.5 -41.5t22.5 -37t33 -25.5t46.5 -18t61.5 -5.5q73 0 146 37t128 96v442q0 66 -3.5 105t-12.5 55t-16.5 19t-24.5 3h-109v49q5 0 144 17q126 16 141 16v-592q0 -42 1 -62.5t4.5 -53
t12.5 -49.5t24.5 -37t41.5 -32t61 -20l-65 -92q-72 9 -122.5 59t-66.5 119q-92 -85 -170 -131.5t-168 -46.5q-41 0 -74.5 9.5t-58 23t-44 39.5t-31.5 47.5t-21 59.5t-13 63.5t-6 70.5t-2.5 69.5t-0.5 72.5v2v217q0 66 -3.5 105t-13 55t-17 19t-24.5 3h-108z" />
    <glyph glyph-name="v" unicode="v" horiz-adv-x="948" 
d="M6 823v49h373v-49h-100q-33 0 -33 -12q0 -7 9 -32.5t33 -83.5t50.5 -121t76 -182t95.5 -230q112 236 171.5 400t59.5 229q0 12 -4 19t-13 9.5t-15 3t-19 0.5h-94v49h348v-49h-67q-10 0 -15 -1.5t-11 -8t-13 -20.5q-107 -223 -346 -811q-10 -21 -23 -21q-5 0 -8 1.5
t-8.5 11.5t-14.5 30q-16 56 -122.5 323t-155.5 371q-35 76 -53.5 100.5t-45.5 24.5h-55z" />
    <glyph glyph-name="w" unicode="w" horiz-adv-x="1441" 
d="M1438 872v-49h-62q-18 0 -25.5 -8t-27.5 -47q-9 -21 -54.5 -129t-121 -292.5t-143.5 -356.5q-13 -29 -23 -29q-9 0 -14.5 7t-14.5 30l-219 584l-244 -584q-13 -32 -20 -35q-3 -2 -8 -2q-10 0 -15.5 8t-13.5 31l-270 698q-35 76 -53.5 100.5t-45.5 24.5h-55v49h373v-49
h-100q-33 0 -33 -12q0 -17 90 -241q87 -217 156 -392q43 84 76 155.5t76.5 174t60.5 141.5q-27 70 -39.5 101t-26 50t-21.5 21t-28 2h-53v49h368v-49h-106q-33 0 -33 -12q0 -11 35 -101.5t112.5 -282.5t100.5 -249q159 375 195 473t36 140q0 20 -9.5 26t-33.5 6h-90v49h324z
" />
    <glyph glyph-name="x" unicode="x" horiz-adv-x="985" 
d="M43 823v49h395v-49h-86q-39 0 -39 -16q0 -8 39 -60.5t100.5 -130.5t69.5 -88q66 60 149 150.5t83 124.5q0 9 -6 14t-12 5.5t-19 0.5h-107v49h336v-49q-45 0 -56.5 -2t-19.5 -8q-29 -28 -138.5 -142t-180.5 -186q44 -58 100 -132.5t89.5 -118.5t67 -87.5t52 -65
t25.5 -24.5q18 -8 96 -8v-49h-389v49h94q25 0 25 10q0 7 -14.5 30.5t-43 62.5t-55.5 76t-66.5 90.5t-62.5 84.5q-50 -36 -149 -163t-99 -170q0 -21 35 -21h111v-49h-342v49h47q24 0 38 10.5t29 38.5q131 191 299 348q-142 189 -205.5 267t-84.5 94t-46 16h-59z" />
    <glyph glyph-name="y" unicode="y" horiz-adv-x="948" 
d="M4 823v49h373v-49h-101q-32 0 -32 -12q0 -7 19 -56t54.5 -133t65.5 -155.5t73.5 -172t57.5 -134.5q234 501 234 631q0 16 -7.5 23t-15.5 8t-27 1h-92v49h342v-49h-69h-13t-8.5 -2t-6.5 -3t-5 -7.5t-5.5 -11.5t-7 -18.5t-10.5 -24.5q-47 -116 -141 -340.5t-232 -534
t-178 -362.5q-105 -27 -211 -27q-10 0 -17 7t-7 18t33 24q3 2 26.5 12.5t33.5 16.5t37 25t45 38.5t48.5 56.5t57 80.5t61.5 108t70 141.5l-291 678q-32 74 -51.5 99.5t-47.5 25.5h-55z" />
    <glyph glyph-name="z" unicode="z" horiz-adv-x="872" 
d="M139 872h637q23 0 23 -12q0 -3 -1 -5.5t-3 -6t-4 -6.5t-6 -8t-7 -8.5t-8.5 -10t-9.5 -10.5l-576 -705q78 3 117 5.5t82.5 3t230.5 2.5q70 1 106.5 6t45.5 10.5t16 17.5q10 17 23 17q16 0 16 -17q0 -19 -59 -145h-682q-47 0 -47 20q0 8 15.5 27.5t71.5 84.5q50 58 85 99
q11 12 84 96t103.5 120t86.5 104.5t93 120.5t63 98h-309q-49 -1 -75.5 -3t-63.5 -13t-52 -31q-1 -1 -3.5 -5t-4.5 -6l-4.5 -4.5t-6 -4t-7.5 -1.5q-7 0 -13 6t-6 13q0 4 49 151z" />
    <glyph glyph-name="braceleft" unicode="{" horiz-adv-x="681" 
d="M297 850v283q0 97 19 160.5t57.5 95.5t83.5 43.5t110 11.5v-25q-92 -25 -128 -89.5t-36 -184.5v-262q0 -129 -32.5 -193t-132.5 -92v-4q100 -28 132.5 -92t32.5 -193v-262q0 -120 36 -184.5t128 -89.5v-25q-65 0 -110 11.5t-83.5 43.5t-57.5 95.5t-19 160.5v283
q0 112 -32 168t-124 86q92 30 124 86t32 168z" />
    <glyph glyph-name="bar" unicode="|" horiz-adv-x="454" 
d="M174 -205v1649h107v-1649h-107z" />
    <glyph glyph-name="braceright" unicode="}" horiz-adv-x="681" 
d="M385 342v-283q0 -97 -19 -160.5t-57.5 -95.5t-83.5 -43.5t-110 -11.5v25q92 25 128 89.5t36 184.5v262q0 129 32.5 193t132.5 92v4q-100 28 -132.5 92t-32.5 193v262q0 120 -36 184.5t-128 89.5v25q65 0 110 -11.5t83.5 -43.5t57.5 -95.5t19 -160.5v-283q0 -112 32 -168
t124 -86q-92 -30 -124 -86t-32 -168z" />
    <glyph glyph-name="asciitilde" unicode="~" 
d="M133 301l-74 86q92 176 256 176q76 0 234 -69q8 -3 26 -11.5t26.5 -12t24.5 -10t25 -10t22.5 -8.5t22.5 -7.5t19.5 -5.5t19.5 -4t17 -1q29 0 55 11.5t49.5 36t38 44.5t37.5 55l74 -86q-23 -32 -38.5 -52t-41 -46.5t-49.5 -41t-57 -25.5t-70 -11q-36 0 -78 12.5t-62.5 22
t-72.5 35.5q-43 22 -71.5 34.5t-73 24t-87.5 11.5q-61 0 -101.5 -41t-70.5 -107z" />
    <glyph glyph-name="exclamdown" unicode="&#xa1;" horiz-adv-x="569" 
d="M276 905q37 0 60.5 -22t23.5 -60t-23.5 -60t-60.5 -22t-60 22t-23 60t23 60t60 22zM256 553h53l70 -975h-70q-32 0 -44.5 2t-25 15.5t-15.5 41.5t-3 82q0 35 35 834z" />
    <glyph glyph-name="cent" unicode="&#xa2;" 
d="M578 1067v-786q29 -5 59 -5q152 0 252 97l26 -33q-62 -70 -151.5 -112t-185.5 -42v-225h-56v225q-174 17 -268 142.5t-94 304.5q0 177 96.5 308t265.5 169v229h56v-223q82 0 145.5 -22t95.5 -54.5t47 -60t15 -47.5t-15 -34.5t-37 -14.5q-46 0 -83 54.5t-48 109.5
q-34 20 -120 20zM522 291v770q-122 -36 -182.5 -140.5t-60.5 -240.5q0 -135 61.5 -244t181.5 -145z" />
    <glyph glyph-name="sterling" unicode="&#xa3;" 
d="M254 745v129q0 203 106 334t252 131q57 0 116.5 -32t59.5 -86q0 -21 -14.5 -32t-36.5 -11q-40 0 -75.5 31t-51.5 71q-18 6 -37 6q-67 0 -113.5 -60t-64.5 -148t-14 -191l6 -142h188v-55h-186q6 -117 6 -127q0 -133 -37 -234t-135 -192l4 -4q90 41 181 41t258 -55
q127 -43 161 -43q47 0 85 29.5t38 78.5q0 25 -10 38.5t-21.5 16t-21.5 6t-10 11.5t30.5 15.5t49.5 7.5q8 0 22 -10.5t27.5 -37.5t13.5 -61q0 -45 -23 -85.5t-57.5 -67t-72.5 -41.5t-70 -15q-22 0 -52 6t-71.5 19.5t-64 21.5t-70.5 26t-49 19q-3 1 -25.5 10t-29.5 11.5
t-27.5 10t-31.5 10t-28 7t-31 6t-28 1.5q-62 0 -132.5 -33.5t-129.5 -81.5l-27 43q58 30 102 69t70.5 84.5t43.5 89.5t24.5 96.5t9 93t0.5 91.5l-4 129h-166v55h164z" />
    <glyph glyph-name="currency" unicode="&#xa4;" 
d="M76 268l100 103q-100 108 -100 278q0 171 100 279l-100 102l71 72l105 -98q113 98 280 98q168 0 281 -98l105 98l71 -72l-100 -102q100 -108 100 -279q0 -170 -100 -278l100 -103l-71 -71l-105 98q-113 -98 -281 -98q-167 0 -280 98l-105 -98zM188 649q0 -145 100 -246.5
t244 -101.5t244.5 101.5t100.5 246.5t-100.5 246.5t-244.5 101.5t-244 -101.5t-100 -246.5z" />
    <glyph glyph-name="yen" unicode="&#xa5;" 
d="M973 446v-55h-346q0 -163 8 -236.5t19.5 -86.5t39.5 -13h115v-55h-426v55h84q41 0 41 21v315h-344v55h344v164h-344v56h309q-269 446 -307 505q-34 53 -49 63.5t-51 10.5h-72v55h405v-55h-94q-24 0 -29.5 -1t-5.5 -7q0 -5 22.5 -46t64.5 -112t79 -133.5t88.5 -149
t71.5 -120.5q220 411 255 496q13 33 13 45q0 20 -6.5 24t-23.5 4h-132v55h367v-55h-70q-20 -1 -30.5 -14t-28.5 -47l-281 -518h314v-56h-346v-164h346z" />
    <glyph glyph-name="brokenbar" unicode="&#xa6;" horiz-adv-x="454" 
d="M174 -205v660h107v-660h-107zM174 784v660h107v-660h-107z" />
    <glyph glyph-name="section" unicode="&#xa7;" horiz-adv-x="1024" 
d="M567 819q-126 0 -211 -55t-84 -156q-3 -142 193 -200q69 -3 133.5 18.5t110.5 72.5t45 122q3 141 -187 198zM766 1051h-59q18 30 18 71q0 78 -64.5 120t-146.5 42q-80 0 -143 -39.5t-62 -114.5q-1 -38 22.5 -71.5t67 -60.5t88 -47t103.5 -40q48 -16 78.5 -28.5t71.5 -36
t65.5 -50t42 -67t18.5 -90.5q-1 -65 -48 -122.5t-109 -91t-129 -50.5v-4q52 -16 92 -33t84.5 -45.5t69.5 -69.5t26 -92q-1 -84 -56 -149t-133 -97t-161 -32q-75 0 -135 21t-94.5 54.5t-52 70t-17.5 71.5q0 62 51 96h51q-24 -34 -24 -82q0 -55 36 -96.5t86 -60.5t103 -19
q87 0 160.5 49.5t72.5 132.5q1 79 -48.5 119.5t-188.5 83.5q-46 14 -77 25t-75.5 29.5t-74 39t-58 47.5t-43 61.5t-14.5 75.5q1 59 26 107.5t69 82.5t91.5 56.5t104.5 38.5v4q-49 18 -86.5 37t-79 48.5t-64.5 70t-24 88.5q1 59 31.5 105.5t79.5 74t104 41.5t110 14
q137 0 217 -61.5t80 -130.5q0 -50 -53 -96z" />
    <glyph glyph-name="dieresis" unicode="&#xa8;" horiz-adv-x="530" 
d="M156 1038q-29 0 -48.5 19.5t-19.5 48.5t19.5 49.5t48.5 20.5t48 -20t19 -50q0 -29 -19 -48.5t-48 -19.5zM377 1038q-29 0 -48.5 19.5t-19.5 48.5t19.5 49.5t48.5 20.5t48 -20t19 -50q0 -29 -19 -48.5t-48 -19.5z" />
    <glyph glyph-name="copyright" unicode="&#xa9;" horiz-adv-x="1638" 
d="M440 647q0 95 38.5 175.5t100 131.5t136 79t149.5 28q147 0 260 -45q-6 -76 -9.5 -93.5t-14.5 -17.5q-9 0 -12.5 5.5t-6.5 21.5q-8 28 -57.5 54t-132.5 26q-75 0 -135.5 -32t-97 -84t-55.5 -114t-19 -127q0 -84 32.5 -159.5t102 -127t162.5 -51.5q67 0 143 36t86 91
q4 21 18 21q15 0 15 -12q0 -5 -1.5 -21.5t-4 -46t-4.5 -57.5q-126 -60 -287 -60q-181 0 -293.5 97.5t-112.5 281.5zM1518 649q0 -188 -93 -346t-254 -250t-352 -92q-143 0 -272.5 54.5t-222.5 146.5t-148 219.5t-55 267.5q0 141 55 268.5t148 220t222.5 147t272.5 54.5
q191 0 352 -92.5t254 -251t93 -346.5zM1415 649q0 165 -78.5 303.5t-216 219.5t-301.5 81q-120 0 -230 -48t-190.5 -128.5t-128 -192.5t-47.5 -235t47.5 -234.5t128 -192t190.5 -128t230 -47.5q164 0 301.5 80.5t216 218.5t78.5 303z" />
    <glyph glyph-name="ordfeminine" unicode="&#xaa;" horiz-adv-x="665" 
d="M410 932v147q-52 -18 -87.5 -33.5t-72 -37t-55.5 -47.5t-19 -56q0 -35 17.5 -53t46.5 -18q53 0 99.5 28t70.5 70zM410 1122v70q0 16 -2 27.5t-10 28.5t-29 26.5t-54 9.5q-86 0 -135 -41q0 -39 -19.5 -70.5t-54.5 -31.5q-13 0 -21.5 7.5t-8.5 18.5q0 48 46.5 89t111.5 62
t128 21q45 0 75 -9.5t45.5 -21.5t23.5 -38.5t9 -44t1 -54.5v-198q0 -31 0.5 -46t5.5 -38t15 -35t29 -23.5t48 -17.5l-61 -65q-47 0 -90 37.5t-49 88.5q-39 -45 -102.5 -85.5t-116.5 -40.5q-57 0 -96.5 37.5t-39.5 91.5q0 38 22.5 70t68.5 59t95 48.5t121 50.5q29 11 44 17z
" />
    <glyph glyph-name="guillemotleft" unicode="&#xab;" horiz-adv-x="985" 
d="M745 834l56 -29q-69 -217 -201 -369q133 -153 201 -368l-56 -29q-42 119 -123.5 221.5t-189.5 175.5q108 73 189.5 176t123.5 222zM442 834l56 -29q-69 -217 -201 -369q133 -153 201 -368l-56 -29q-42 119 -123.5 221.5t-189.5 175.5q108 73 189.5 176t123.5 222z" />
    <glyph glyph-name="logicalnot" unicode="&#xac;" 
d="M94 537v106h875v-502h-107v396h-768z" />
    <glyph glyph-name="registered" unicode="&#xae;" horiz-adv-x="1638" 
d="M1518 649q0 -188 -93 -346t-254 -250t-352 -92q-143 0 -272.5 54.5t-222.5 146.5t-148 219.5t-55 267.5q0 141 55 268.5t148 220t222.5 147t272.5 54.5q191 0 352 -92.5t254 -251t93 -346.5zM1415 649q0 165 -78.5 303.5t-216 219.5t-301.5 81q-120 0 -230 -48
t-190.5 -128.5t-128 -192.5t-47.5 -235t47.5 -234.5t128 -192t190.5 -128t230 -47.5q164 0 301.5 80.5t216 218.5t78.5 303zM954 831q0 23 -9 51.5t-28 58t-55.5 49.5t-83.5 20q-51 0 -51 -21v-309h55q70 0 121 37t51 114zM535 295v45h53q12 0 16 3.5t4 14.5v490
q0 80 -4.5 113t-12.5 41t-30 8h-53v45h317q123 0 187.5 -61t64.5 -146q0 -75 -44.5 -124t-117.5 -65q156 -257 228 -319h39v-45h-168q-24 0 -99.5 126.5t-117.5 213.5h-70v-135q0 -116 6.5 -138t36.5 -22h55v-45h-290z" />
    <glyph glyph-name="macron" unicode="&#xaf;" horiz-adv-x="530" 
d="M496 1153v-82h-461v82h461z" />
    <glyph glyph-name="degree" unicode="&#xb0;" horiz-adv-x="716" 
d="M358 819q90 0 153.5 68t63.5 160t-63.5 159.5t-153.5 67.5t-153.5 -67.5t-63.5 -159.5t63.5 -160t153.5 -68zM358 754q-123 0 -207.5 85t-84.5 208t84.5 207.5t207.5 84.5t208 -84.5t85 -207.5t-85 -208t-208 -85z" />
    <glyph glyph-name="plusminus" unicode="&#xb1;" 
d="M969 584v-107h-383v-289h-107v289h-385v107h385v288h107v-288h383zM94 0v106h875v-106h-875z" />
    <glyph glyph-name="twosuperior" unicode="&#xb2;" horiz-adv-x="634" 
d="M68 1212l-17 41q45 39 108.5 62.5t129.5 23.5q120 0 193 -57.5t73 -159.5q0 -47 -19.5 -97.5t-44.5 -89t-66 -83.5t-65.5 -68t-60.5 -55l-131 -106l4 -5q29 7 244 7q58 0 80 1t46.5 7.5t35.5 21.5q10 13 16 13q8 0 8 -13q0 -8 -43 -118h-500q-22 0 -22 8q0 3 9.5 14.5
t29.5 32t39 40t49 50t49 49.5q132 132 173.5 207t41.5 158q0 80 -45.5 128t-124.5 48q-108 0 -190 -60z" />
    <glyph glyph-name="threesuperior" unicode="&#xb3;" horiz-adv-x="634" 
d="M80 1204l-23 29q48 48 116.5 77t139.5 29q95 0 161.5 -40.5t66.5 -118.5q0 -63 -51.5 -113t-108.5 -72v-4q103 -8 167 -59.5t64 -138.5q0 -124 -108 -200.5t-266 -76.5q-118 0 -203 51l14 39q76 -35 182 -35t180 63t74 161q0 45 -18 78t-46 49.5t-54 24t-50 7.5h-73v47
q76 0 129 42.5t53 111.5q0 56 -39 86.5t-100 30.5q-130 0 -207 -68z" />
    <glyph glyph-name="acute" unicode="&#xb4;" horiz-adv-x="530" 
d="M168 993l-27 37q31 36 138.5 118.5t134.5 82.5q6 0 12 -4t13.5 -13t11.5 -14.5t12 -17.5t8 -13q-98 -44 -303 -176z" />
    <glyph glyph-name="mu" unicode="&#xb5;" horiz-adv-x="1099" 
d="M1047 59l-66 -92q-72 9 -122 59t-66 119q-92 -85 -170 -131.5t-168 -46.5q-76 4 -156 58v-160q0 -29 42 -116.5t42 -108.5q0 -35 -19.5 -60.5t-58.5 -25.5q-61 0 -81.5 57t-20.5 205v825q0 66 -3.5 105t-13 55t-17 19t-24.5 3h-108v49q4 0 143 17q126 16 142 16v-547
v-53.5t2 -48t5 -46.5t9.5 -40t15.5 -36t23 -27.5t32.5 -23t43 -12.5t55.5 -5q73 0 146 37t128 96v442q0 66 -3.5 105t-12.5 55t-16.5 19t-24.5 3h-109v49q5 0 144 17q126 16 141 16v-592q0 -41 1 -62t4.5 -53t13 -49.5t25 -37.5t41.5 -32t61 -20z" />
    <glyph glyph-name="paragraph" unicode="&#xb6;" horiz-adv-x="1024" 
d="M-27 971q0 61 23 118.5t66.5 105t115.5 76.5t162 29h573v-55h-82q-16 0 -24 -0.5t-15.5 -5.5t-7.5 -14v-1018q0 -141 8.5 -207.5t20.5 -79t39 -12.5h115v-55h-275v1392h-78v-1392h-217v55h84q41 0 41 20v772q-97 -59 -198 -59q-154 0 -252.5 89t-98.5 241zM522 768v477
h-157q-131 0 -205 -79t-74 -218q0 -110 68 -178t178 -68q88 0 190 66z" />
    <glyph glyph-name="periodcentered" unicode="&#xb7;" horiz-adv-x="530" 
d="M182 436q0 38 23.5 60t60.5 22t60.5 -22t23.5 -60t-23.5 -60t-60.5 -22t-60.5 22t-23.5 60z" />
    <glyph glyph-name="cedilla" unicode="&#xb8;" horiz-adv-x="530" 
d="M313 0h56q-6 -9 -21.5 -29.5t-26 -35.5t-10.5 -19q0 -10 16 -17t64 -14q16 -3 34 -7.5t46 -15t46 -29t18 -42.5q0 -43 -34 -73t-75 -42t-80 -12q-17 0 -37.5 3.5t-43 10.5t-37.5 21t-15 33q0 13 10 19.5t23 6.5q44 0 78 -55q15 -6 34 -6q35 0 66 19t31 51q0 47 -119 67
q-56 9 -77 19t-21 28q0 31 75 119z" />
    <glyph glyph-name="onesuperior" unicode="&#xb9;" horiz-adv-x="634" 
d="M362 1339v-645q0 -54 6.5 -79t15 -29t28.5 -4h116v-45h-430v45h115q41 0 41 12v379q0 115 -1.5 174.5t-8.5 88.5t-14 33.5t-25 4.5h-107v45q79 0 172 10z" />
    <glyph glyph-name="ordmasculine" unicode="&#xba;" horiz-adv-x="716" 
d="M342 748q-134 0 -211.5 77.5t-77.5 198.5q0 67 21.5 122t55.5 90t77.5 59t85.5 34t82 10q136 0 213.5 -78t77.5 -200q0 -66 -21.5 -121t-55.5 -89.5t-78 -58.5t-86.5 -34t-82.5 -10zM371 797q52 0 89.5 21.5t56.5 58t27.5 75.5t8.5 84q0 62 -20.5 118t-69.5 96t-117 40
q-52 0 -89 -21.5t-56 -58t-27 -76t-8 -85.5q0 -98 52.5 -175t152.5 -77z" />
    <glyph glyph-name="guillemotright" unicode="&#xbb;" horiz-adv-x="985" 
d="M240 39l-56 29q68 215 201 368q-132 152 -201 369l56 29q42 -119 123.5 -222t189.5 -176q-108 -73 -189.5 -175.5t-123.5 -221.5zM543 39l-56 29q68 215 201 368q-132 152 -201 369l56 29q42 -119 123.5 -222t189.5 -176q-108 -73 -189.5 -175.5t-123.5 -221.5z" />
    <glyph glyph-name="onequarter" unicode="&#xbc;" horiz-adv-x="1587" 
d="M1219 279h-381v26q66 86 200.5 232.5t241.5 250.5h41v-430h41q30 0 52 4.5t30.5 10t14.5 10t9 4.5q11 0 11 -8q0 -9 -43 -100h-115v-295q-93 -33 -94 -33q-15 0 -15 14q0 22 3 95t4 94v125zM1219 358v304q-166 -174 -275 -304h275zM1153 1391h78q-105 -118 -251 -382.5
t-270.5 -562.5t-166.5 -497l-109 -41q25 159 166.5 481.5t302.5 612.5t250 389zM379 1339v-645q0 -54 6.5 -79t14.5 -29t28 -4h117v-45h-430v45h114q41 0 41 12v379q0 115 -1.5 174.5t-8.5 88.5t-14 33.5t-25 4.5h-106v45q79 0 171 10t93 10z" />
    <glyph glyph-name="onehalf" unicode="&#xbd;" horiz-adv-x="1587" 
d="M1153 1391h78q-105 -118 -251 -382.5t-270.5 -562.5t-166.5 -497l-109 -41q25 159 166.5 481.5t302.5 612.5t250 389zM377 1339v-645q0 -54 6.5 -79t14.5 -29t28 -4h117v-45h-430v45h114q41 0 41 12v379q0 115 -1.5 174.5t-8.5 88.5t-14 33.5t-25 4.5h-106v45
q79 0 171 10zM969 682l-17 41q45 39 108.5 62.5t129.5 23.5q120 0 193 -57.5t73 -159.5q0 -47 -19.5 -97.5t-44.5 -89t-66 -83.5t-65.5 -68t-60.5 -55l-131 -107l4 -4q25 6 244 6q55 0 79 1t48 8t35 22q9 12 16 12q8 0 8 -12q0 -9 -43 -119h-499q-23 0 -23 8q0 3 9.5 14
t30 33t38 40t49.5 50.5t49 49.5q132 132 173.5 207t41.5 157q0 80 -45.5 128t-124.5 48q-110 0 -190 -59z" />
    <glyph glyph-name="threequarters" unicode="&#xbe;" horiz-adv-x="1587" 
d="M1249 270h-381v27q66 85 200.5 231.5t242.5 251.5h41v-430h41q30 0 52 4.5t30.5 10t14.5 10t9 4.5q10 0 10 -8q0 -10 -43 -101h-114v-295q-90 -32 -95 -32q-14 0 -14 14q0 17 1 48.5t2.5 75t2.5 64.5v125zM1249 358v304q-158 -165 -274 -304h274zM100 1204l-22 29
q48 48 116.5 77t139.5 29q95 0 161 -40.5t66 -118.5q0 -63 -51.5 -113t-108.5 -72v-4q103 -8 167.5 -59.5t64.5 -138.5q0 -124 -108.5 -200.5t-266.5 -76.5q-118 0 -203 51l15 39q76 -35 182 -35t180 63t74 161q0 45 -18 78t-46 49.5t-54 24t-50 7.5h-74v47q76 0 129 42.5
t53 111.5q0 56 -39 86.5t-100 30.5q-130 0 -207 -68zM1184 1391h78q-106 -118 -252 -382.5t-270.5 -562.5t-166.5 -497l-108 -41q25 159 166.5 481.5t302.5 612.5t250 389z" />
    <glyph glyph-name="questiondown" unicode="&#xbf;" horiz-adv-x="757" 
d="M510 -350q55 0 86.5 10t39 21.5t14.5 21.5t18 10q16 0 16 -16q0 -5 -7.5 -22t-24 -52t-23.5 -51q-81 -33 -158 -33q-152 0 -258.5 86.5t-106.5 235.5q0 54 18 105t53 96t65.5 76.5t74.5 70.5q10 9 27.5 24.5t27.5 24.5t21 20t16 20t5 17q0 18 -22 54.5t-46 66.5
q-7 8 -16.5 12t-16.5 4.5t-12.5 4.5t-5.5 12q0 6 14 18t68 51q17 12 26 19q78 -83 125 -227q-123 -102 -188.5 -177t-87 -130t-21.5 -123q0 -121 78 -185.5t201 -64.5zM414 905q37 0 60.5 -22t23.5 -60t-23.5 -60t-60.5 -22t-60.5 22t-23.5 60t23.5 60t60.5 22z" />
    <glyph glyph-name="Agrave" unicode="&#xc0;" horiz-adv-x="1251" 
d="M819 498h-481q-123 -304 -123 -392q0 -51 51 -51h82h51v-55h-415v55q74 0 90 5.5t28 35.5l519 1229q74 23 106 23q12 0 12 -15q0 -10 -17 -24.5t-17 -38.5q0 -57 149 -493.5t215 -592.5q19 -45 29.5 -66.5t30 -42t40.5 -20.5h76v-55h-422v55h103q25 0 32 4t7 17
q0 19 -146 422zM793 565l-189 578q-140 -324 -239 -578h428zM719 1458l-27 -37q-205 132 -303 176q0 1 8 13t12 17.5t11.5 14.5t13.5 13t12 4q27 0 134.5 -82.5t138.5 -118.5z" />
    <glyph glyph-name="Aacute" unicode="&#xc1;" horiz-adv-x="1251" 
d="M819 498h-481q-123 -304 -123 -392q0 -51 51 -51h82h51v-55h-415v55q74 0 90 5.5t28 35.5l519 1229q74 23 106 23q12 0 12 -15q0 -10 -17 -24.5t-17 -38.5q0 -57 149 -493.5t215 -592.5q19 -45 29.5 -66.5t30 -42t40.5 -20.5h76v-55h-422v55h103q25 0 32 4t7 17
q0 19 -146 422zM793 565l-189 578q-140 -324 -239 -578h428zM590 1421l-27 37q31 36 138.5 118.5t134.5 82.5q6 0 12 -4t13.5 -13t11.5 -14.5t12 -17.5t8 -13q-98 -44 -303 -176z" />
    <glyph glyph-name="Acircumflex" unicode="&#xc2;" horiz-adv-x="1251" 
d="M819 498h-481q-123 -304 -123 -392q0 -51 51 -51h82h51v-55h-415v55q74 0 90 5.5t28 35.5l519 1229q74 23 106 23q12 0 12 -15q0 -10 -17 -24.5t-17 -38.5q0 -57 149 -493.5t215 -592.5q19 -45 29.5 -66.5t30 -42t40.5 -20.5h76v-55h-422v55h103q25 0 32 4t7 17
q0 19 -146 422zM793 565l-189 578q-140 -324 -239 -578h428zM371 1460q192 79 276 199q83 -118 275 -199q-51 -39 -56 -39q-35 0 -113 43t-106 74q-28 -31 -106 -74t-113 -43q-2 0 -5 1.5t-8 5l-10 7t-15 11t-19 14.5z" />
    <glyph glyph-name="Atilde" unicode="&#xc3;" horiz-adv-x="1251" 
d="M819 498h-481q-123 -304 -123 -392q0 -51 51 -51h82h51v-55h-415v55q74 0 90 5.5t28 35.5l519 1229q74 23 106 23q12 0 12 -15q0 -10 -17 -24.5t-17 -38.5q0 -57 149 -493.5t215 -592.5q19 -45 29.5 -66.5t30 -42t40.5 -20.5h76v-55h-422v55h103q25 0 32 4t7 17
q0 19 -146 422zM793 565l-189 578q-140 -324 -239 -578h428zM854 1612l35 -13q-8 -62 -40.5 -99.5t-92.5 -37.5q-48 0 -127 31q-95 37 -113 37q-49 0 -78 -57l-35 10q8 56 41.5 89.5t87.5 33.5q47 0 123 -31q82 -31 113 -31q33 0 52 17t34 51z" />
    <glyph glyph-name="Adieresis" unicode="&#xc4;" horiz-adv-x="1251" 
d="M819 498h-481q-123 -304 -123 -392q0 -51 51 -51h82h51v-55h-415v55q74 0 90 5.5t28 35.5l519 1229q74 23 106 23q12 0 12 -15q0 -10 -17 -24.5t-17 -38.5q0 -57 149 -493.5t215 -592.5q19 -45 29.5 -66.5t30 -42t40.5 -20.5h76v-55h-422v55h103q25 0 32 4t7 17
q0 19 -146 422zM793 565l-189 578q-140 -324 -239 -578h428zM557 1466q-29 0 -48.5 19.5t-19.5 48.5t19.5 49.5t48.5 20.5t48.5 -20.5t19.5 -49.5t-19.5 -48.5t-48.5 -19.5zM778 1466q-29 0 -48 19.5t-19 48.5q0 30 19 50t48 20t48.5 -20.5t19.5 -49.5t-19.5 -48.5
t-48.5 -19.5z" />
    <glyph glyph-name="Aring" unicode="&#xc5;" horiz-adv-x="1251" 
d="M819 498h-481q-123 -304 -123 -392q0 -51 51 -51h82h51v-55h-415v55q74 0 90 5.5t28 35.5l519 1229q74 23 106 23q12 0 12 -15q0 -10 -17 -24.5t-17 -38.5q0 -57 149 -493.5t215 -592.5q19 -45 29.5 -66.5t30 -42t40.5 -20.5h76v-55h-422v55h103q25 0 32 4t7 17
q0 19 -146 422zM793 565l-189 578q-140 -324 -239 -578h428zM817 1542q0 -75 -52.5 -127.5t-127.5 -52.5t-127.5 52.5t-52.5 127.5t52.5 127.5t127.5 52.5t127.5 -52.5t52.5 -127.5zM762 1542q0 52 -36 88.5t-89 36.5t-89 -36.5t-36 -88.5t36 -88.5t89 -36.5t89 36.5
t36 88.5z" />
    <glyph glyph-name="AE" unicode="&#xc6;" horiz-adv-x="1781" 
d="M518 731h363v291q0 223 -31 223h-8q-80 -125 -324 -514zM881 76v594h-402q-202 -360 -251.5 -457.5t-49.5 -128.5q0 -20 13 -24.5t42 -4.5h127v-55h-421v55h96q17 0 26 21q25 48 62 114.5t89 154t97.5 164t115 189.5t112.5 182.5t119 192.5t106 172h-156v55h1059
l-20 -141q-3 -22 -6 -28.5t-13 -6.5q-16 0 -20 25q-3 23 -18 34.5t-44 20.5q-92 29 -303 29h-151q-76 0 -76 -21v-467h194q141 0 209 8.5t82 21t14 38.5v82h52v-340h-52v76q0 29 -11 37q-22 15 -166 16h-62h-260v-330q0 -74 1 -121t6 -80.5t8.5 -49.5t16 -24.5t21.5 -9.5
t31 -1h131q405 0 446 100q8 20 23 20q14 0 14 -14q0 -12 -51 -174h-905v55h84q41 0 41 21z" />
    <glyph glyph-name="Ccedilla" unicode="&#xc7;" horiz-adv-x="1327" 
d="M782 -39q-201 0 -352.5 73t-237.5 218.5t-86 347.5q0 162 63 301.5t170.5 234.5t251 149t302.5 54q171 0 336 -65l-10 -121q-2 -25 -6.5 -34t-18.5 -9q-10 0 -12.5 7t-5.5 36q-5 37 -97 78t-213 41q-188 0 -329.5 -83.5t-216 -230t-74.5 -333.5q0 -134 45.5 -246.5
t123.5 -188.5t183 -118.5t223 -42.5q84 0 171 23t153 69.5t74 103.5q5 35 22 35q9 0 13 -3.5t5 -8t1 -12.5q0 -39 -11 -170q-215 -105 -467 -105zM733 0h55q-6 -9 -21 -29.5t-25.5 -35.5t-10.5 -19q0 -10 16 -17t64 -14q16 -3 34 -7.5t46 -15t45.5 -29t17.5 -42.5
q0 -43 -33.5 -73t-74.5 -42t-80 -12q-17 0 -37.5 3.5t-43 10.5t-37.5 21t-15 33q0 13 10 19.5t23 6.5q43 0 77 -55q15 -6 35 -6q35 0 65.5 18.5t30.5 51.5q0 48 -118 67q-57 9 -78 19t-21 28q0 30 76 119z" />
    <glyph glyph-name="Egrave" unicode="&#xc8;" horiz-adv-x="1138" 
d="M59 1245v55h963l-21 -141q0 -2 -1 -7q-4 -25 -11 -27l-6 -1q-16 0 -20 25q-3 23 -18 34.5t-44 20.5q-92 29 -303 29h-152q-75 0 -75 -21v-467h194q141 0 209 8.5t82 21t14 38.5v82h52v-340h-52v76q0 29 -11 37q-22 15 -166 16h-62h-260v-330q0 -74 1 -121t6 -80.5
t8.5 -49.5t16 -24.5t21.5 -9.5t31 -1h131q405 0 446 100q8 20 23 20q14 0 14 -14q0 -12 -51 -174h-905v55h84q41 0 41 21v895q0 93 -1.5 142t-8.5 81.5t-17.5 41.5t-30.5 9h-121zM684 1458l-27 -37q-205 132 -303 176q1 2 5.5 9t7.5 11.5t8.5 11.5t9.5 11.5t9 9t9.5 7
t8.5 2.5q27 0 134 -82.5t138 -118.5z" />
    <glyph glyph-name="Eacute" unicode="&#xc9;" horiz-adv-x="1138" 
d="M59 1245v55h963l-21 -141q0 -2 -1 -7q-4 -25 -11 -27l-6 -1q-16 0 -20 25q-3 23 -18 34.5t-44 20.5q-92 29 -303 29h-152q-75 0 -75 -21v-467h194q141 0 209 8.5t82 21t14 38.5v82h52v-340h-52v76q0 29 -11 37q-22 15 -166 16h-62h-260v-330q0 -74 1 -121t6 -80.5
t8.5 -49.5t16 -24.5t21.5 -9.5t31 -1h131q405 0 446 100q8 20 23 20q14 0 14 -14q0 -12 -51 -174h-905v55h84q41 0 41 21v895q0 93 -1.5 142t-8.5 81.5t-17.5 41.5t-30.5 9h-121zM555 1421l-27 37q31 36 138.5 118.5t134.5 82.5q6 0 12 -4t13.5 -13t11.5 -14.5t12 -17.5
t8 -13q-98 -44 -303 -176z" />
    <glyph glyph-name="Ecircumflex" unicode="&#xca;" horiz-adv-x="1138" 
d="M59 1245v55h963l-21 -141q0 -2 -1 -7q-4 -25 -11 -27l-6 -1q-16 0 -20 25q-3 23 -18 34.5t-44 20.5q-92 29 -303 29h-152q-75 0 -75 -21v-467h194q141 0 209 8.5t82 21t14 38.5v82h52v-340h-52v76q0 29 -11 37q-22 15 -166 16h-62h-260v-330q0 -74 1 -121t6 -80.5
t8.5 -49.5t16 -24.5t21.5 -9.5t31 -1h131q405 0 446 100q8 20 23 20q14 0 14 -14q0 -12 -51 -174h-905v55h84q41 0 41 21v895q0 93 -1.5 142t-8.5 81.5t-17.5 41.5t-30.5 9h-121zM336 1460q192 79 276 199q83 -118 275 -199q-51 -39 -56 -39q-35 0 -113 43t-106 74
q-28 -31 -106 -74t-113 -43q-2 0 -5 1.5t-8 5l-10 7t-15 11t-19 14.5z" />
    <glyph glyph-name="Edieresis" unicode="&#xcb;" horiz-adv-x="1138" 
d="M59 1245v55h963l-21 -141q0 -2 -1 -7q-4 -25 -11 -27l-6 -1q-16 0 -20 25q-3 23 -18 34.5t-44 20.5q-92 29 -303 29h-152q-75 0 -75 -21v-467h194q141 0 209 8.5t82 21t14 38.5v82h52v-340h-52v76q0 29 -11 37q-22 15 -166 16h-62h-260v-330q0 -74 1 -121t6 -80.5
t8.5 -49.5t16 -24.5t21.5 -9.5t31 -1h131q405 0 446 100q8 20 23 20q14 0 14 -14q0 -12 -51 -174h-905v55h84q41 0 41 21v895q0 93 -1.5 142t-8.5 81.5t-17.5 41.5t-30.5 9h-121zM481 1466q-29 0 -48 19.5t-19 48.5q0 30 19 50t48 20t48.5 -20.5t19.5 -49.5t-19.5 -48.5
t-48.5 -19.5zM702 1466q-29 0 -48 19.5t-19 48.5q0 30 19 50t48 20t48.5 -20.5t19.5 -49.5t-19.5 -48.5t-48.5 -19.5z" />
    <glyph glyph-name="Igrave" unicode="&#xcc;" horiz-adv-x="645" 
d="M389 1225v-871q0 -141 8.5 -207.5t20.5 -79t39 -12.5h114v-55h-440v55h84q41 0 41 21v895q0 94 -1.5 142t-8 81t-17 42t-30.5 9h-121v55h440v-55h-82q-16 0 -24 -0.5t-15.5 -5.5t-7.5 -14zM354 1458l-26 -37q-205 132 -303 176q0 1 8 13t12 17.5t11.5 14.5t13.5 13t12 4
q27 0 134 -82.5t138 -118.5z" />
    <glyph glyph-name="Iacute" unicode="&#xcd;" horiz-adv-x="645" 
d="M389 1225v-871q0 -141 8.5 -207.5t20.5 -79t39 -12.5h114v-55h-440v55h84q41 0 41 21v895q0 94 -1.5 142t-8 81t-17 42t-30.5 9h-121v55h440v-55h-82q-16 0 -24 -0.5t-15.5 -5.5t-7.5 -14zM266 1421l-26 37q31 36 138 118.5t134 82.5q6 0 12 -4t13.5 -13t11.5 -14.5
t12 -17.5t8 -13q-98 -44 -303 -176z" />
    <glyph glyph-name="Icircumflex" unicode="&#xce;" horiz-adv-x="645" 
d="M389 1225v-871q0 -141 8.5 -207.5t20.5 -79t39 -12.5h114v-55h-440v55h84q41 0 41 21v895q0 94 -1.5 142t-8 81t-17 42t-30.5 9h-121v55h440v-55h-82q-16 0 -24 -0.5t-15.5 -5.5t-7.5 -14zM27 1460q192 79 276 199q83 -118 275 -199q-51 -39 -56 -39q-35 0 -113 43
t-106 74q-28 -31 -106 -74t-113 -43q-2 0 -5 1.5t-8 5l-10 7t-15 11t-19 14.5z" />
    <glyph glyph-name="Idieresis" unicode="&#xcf;" horiz-adv-x="645" 
d="M389 1225v-871q0 -141 8.5 -207.5t20.5 -79t39 -12.5h114v-55h-440v55h84q41 0 41 21v895q0 94 -1.5 142t-8 81t-17 42t-30.5 9h-121v55h440v-55h-82q-16 0 -24 -0.5t-15.5 -5.5t-7.5 -14zM193 1466q-29 0 -48.5 19.5t-19.5 48.5t19.5 49.5t48.5 20.5t48 -20t19 -50
q0 -29 -19 -48.5t-48 -19.5zM414 1466q-29 0 -48.5 19.5t-19.5 48.5t19.5 49.5t48.5 20.5t48 -20t19 -50q0 -29 -19 -48.5t-48 -19.5z" />
    <glyph glyph-name="Eth" unicode="&#xd0;" horiz-adv-x="1402" 
d="M371 1212v-467h331v-67h-331v-324q0 -74 1 -121t6 -80.5t8.5 -49.5t16 -24.5t21.5 -9.5t31 -1h168q46 0 86.5 3t98.5 16t104.5 35.5t96.5 64.5t83.5 99t55 144t21.5 195t-24.5 198.5t-63 151.5t-90 109t-102 75t-102 44.5t-87 23.5t-61.5 6h-193q-75 0 -75 -21zM35 678
v67h203v226q0 93 -1.5 142t-8.5 81.5t-17.5 41.5t-30.5 9h-121v55h619q152 0 274.5 -51.5t199 -139.5t117 -200t40.5 -237q0 -59 -10 -120.5t-33 -128t-58 -127t-89.5 -115t-122 -94.5t-160.5 -63.5t-201 -23.5h-522v55h84q41 0 41 21v602h-203z" />
    <glyph glyph-name="Ntilde" unicode="&#xd1;" horiz-adv-x="1478" 
d="M319 1300l859 -1069h4v715q0 141 -8.5 207.5t-20.5 79t-39 12.5h-115v55h375v-55h-84q-41 0 -41 -20v-1211q0 -11 -0.5 -16t-3.5 -9.5t-10 -4.5q-6 0 -14 8l-908 1130h-4v-768q0 -141 8.5 -207.5t20.5 -79t39 -12.5h115v-55h-375v55h84q41 0 41 21v1018q0 151 -90 151
h-93v55h260zM969 1612l35 -13q-8 -62 -41 -99.5t-93 -37.5q-48 0 -127 31q-11 4 -31.5 12.5t-28 11l-19.5 6.5t-19 5.5t-14 1.5q-49 0 -78 -57l-35 10q8 56 41.5 89.5t87.5 33.5q47 0 123 -31q82 -31 113 -31q33 0 52 17t34 51z" />
    <glyph glyph-name="Ograve" unicode="&#xd2;" horiz-adv-x="1517" 
d="M106 631q0 142 48 270.5t134 225.5t213 154.5t275 57.5q205 0 350.5 -87t216 -236t70.5 -346q0 -142 -48 -270.5t-134 -226t-213 -155t-275 -57.5q-154 0 -276 50t-200.5 139.5t-119.5 211.5t-41 269zM1280 631q0 134 -30.5 244t-82.5 183.5t-122 124t-146.5 73
t-159.5 22.5q-66 0 -130.5 -17t-132.5 -61t-119 -110t-84 -175t-33 -245q0 -134 30.5 -244t82 -183.5t121.5 -124t146.5 -73t159.5 -22.5q66 0 130.5 17t132.5 61t119.5 110t84.5 175t33 245zM852 1458l-27 -37q-205 132 -303 176q1 2 5.5 9t7.5 11.5t8.5 11.5t9.5 11.5t9 9
t9.5 7t8.5 2.5q27 0 134 -82.5t138 -118.5z" />
    <glyph glyph-name="Oacute" unicode="&#xd3;" horiz-adv-x="1517" 
d="M106 631q0 142 48 270.5t134 225.5t213 154.5t275 57.5q205 0 350.5 -87t216 -236t70.5 -346q0 -142 -48 -270.5t-134 -226t-213 -155t-275 -57.5q-154 0 -276 50t-200.5 139.5t-119.5 211.5t-41 269zM1280 631q0 134 -30.5 244t-82.5 183.5t-122 124t-146.5 73
t-159.5 22.5q-66 0 -130.5 -17t-132.5 -61t-119 -110t-84 -175t-33 -245q0 -134 30.5 -244t82 -183.5t121.5 -124t146.5 -73t159.5 -22.5q66 0 130.5 17t132.5 61t119.5 110t84.5 175t33 245zM723 1421l-27 37q31 36 138.5 118.5t134.5 82.5q6 0 12 -4t13.5 -13t11.5 -14.5
t12 -17.5t8 -13q-98 -44 -303 -176z" />
    <glyph glyph-name="Ocircumflex" unicode="&#xd4;" horiz-adv-x="1517" 
d="M106 631q0 142 48 270.5t134 225.5t213 154.5t275 57.5q205 0 350.5 -87t216 -236t70.5 -346q0 -142 -48 -270.5t-134 -226t-213 -155t-275 -57.5q-154 0 -276 50t-200.5 139.5t-119.5 211.5t-41 269zM1280 631q0 134 -30.5 244t-82.5 183.5t-122 124t-146.5 73
t-159.5 22.5q-66 0 -130.5 -17t-132.5 -61t-119 -110t-84 -175t-33 -245q0 -134 30.5 -244t82 -183.5t121.5 -124t146.5 -73t159.5 -22.5q66 0 130.5 17t132.5 61t119.5 110t84.5 175t33 245zM483 1460q193 80 277 199q83 -119 274 -199q-8 -7 -18 -14.5t-14.5 -11t-9.5 -7
t-8 -5t-5 -1.5q-35 0 -113 43t-106 74q-28 -31 -106 -74t-113 -43q-5 0 -58 39z" />
    <glyph glyph-name="Otilde" unicode="&#xd5;" horiz-adv-x="1517" 
d="M106 631q0 142 48 270.5t134 225.5t213 154.5t275 57.5q205 0 350.5 -87t216 -236t70.5 -346q0 -142 -48 -270.5t-134 -226t-213 -155t-275 -57.5q-154 0 -276 50t-200.5 139.5t-119.5 211.5t-41 269zM1280 631q0 134 -30.5 244t-82.5 183.5t-122 124t-146.5 73
t-159.5 22.5q-66 0 -130.5 -17t-132.5 -61t-119 -110t-84 -175t-33 -245q0 -134 30.5 -244t82 -183.5t121.5 -124t146.5 -73t159.5 -22.5q66 0 130.5 17t132.5 61t119.5 110t84.5 175t33 245zM967 1612l34 -13q-8 -62 -40.5 -99.5t-92.5 -37.5q-48 0 -127 31
q-11 4 -31.5 12.5t-28 11l-19.5 6.5t-19 5.5t-14 1.5q-49 0 -78 -57l-35 10q8 56 41.5 89.5t87.5 33.5q47 0 123 -31q82 -31 113 -31q33 0 52 17t34 51z" />
    <glyph glyph-name="Odieresis" unicode="&#xd6;" horiz-adv-x="1517" 
d="M106 631q0 142 48 270.5t134 225.5t213 154.5t275 57.5q205 0 350.5 -87t216 -236t70.5 -346q0 -142 -48 -270.5t-134 -226t-213 -155t-275 -57.5q-154 0 -276 50t-200.5 139.5t-119.5 211.5t-41 269zM1280 631q0 134 -30.5 244t-82.5 183.5t-122 124t-146.5 73
t-159.5 22.5q-66 0 -130.5 -17t-132.5 -61t-119 -110t-84 -175t-33 -245q0 -134 30.5 -244t82 -183.5t121.5 -124t146.5 -73t159.5 -22.5q66 0 130.5 17t132.5 61t119.5 110t84.5 175t33 245zM649 1466q-29 0 -48 19.5t-19 48.5q0 30 19 50t48 20t48.5 -20.5t19.5 -49.5
t-19.5 -48.5t-48.5 -19.5zM870 1466q-29 0 -48 19.5t-19 48.5q0 30 19 50t48 20t48.5 -20.5t19.5 -49.5t-19.5 -48.5t-48.5 -19.5z" />
    <glyph glyph-name="multiply" unicode="&#xd7;" 
d="M457 436l-361 361l76 75l360 -360l361 360l76 -75l-361 -361l361 -360l-76 -76l-361 360l-364 -362l-74 76z" />
    <glyph glyph-name="Oslash" unicode="&#xd8;" horiz-adv-x="1517" 
d="M451 137l573 1057q-122 84 -285 84q-66 0 -130.5 -17t-132.5 -61t-119 -110t-84 -175t-33 -245q0 -187 56.5 -321.5t154.5 -211.5zM1073 1161l-575 -1059q121 -79 282 -79q66 0 130.5 17t132.5 61t119.5 110t84.5 175t33 245q0 358 -207 530zM451 18l-89 -161h-63
l102 188q-144 81 -219.5 233t-75.5 353q0 142 48 270.5t134 225.5t213 154.5t275 57.5q165 0 295 -59l88 164h68l-103 -191q141 -81 215 -232.5t74 -350.5q0 -142 -48 -270.5t-134 -226t-213 -155t-275 -57.5q-166 0 -292 57z" />
    <glyph glyph-name="Ugrave" unicode="&#xd9;" horiz-adv-x="1402" 
d="M954 1245v55h375v-55h-84q-41 0 -41 -20v-746q0 -113 -31.5 -203.5t-82.5 -148t-121.5 -96t-143.5 -54.5t-153 -16q-62 0 -121.5 11t-125.5 41.5t-115 78.5t-81 130t-32 188v561q0 93 -1.5 142t-8.5 81.5t-17.5 41.5t-30.5 9h-121v55h441v-55h-82q-16 0 -24 -0.5
t-15.5 -5.5t-7.5 -14v-785q0 -73 14.5 -133.5t38 -101t56.5 -71.5t66 -48.5t72 -28.5t69 -14.5t61 -3.5q34 0 66.5 3t77 14.5t82.5 30.5t77 54t66 81t44 115.5t17 154.5v454q0 141 -8.5 207.5t-20.5 79t-39 12.5h-115zM774 1458l-26 -37q-202 130 -304 176q1 2 5.5 9
t7.5 11.5t8.5 11.5t9.5 11.5t9 9t9.5 7t8.5 2.5q27 0 134 -82.5t138 -118.5z" />
    <glyph glyph-name="Uacute" unicode="&#xda;" horiz-adv-x="1402" 
d="M954 1245v55h375v-55h-84q-41 0 -41 -20v-746q0 -113 -31.5 -203.5t-82.5 -148t-121.5 -96t-143.5 -54.5t-153 -16q-62 0 -121.5 11t-125.5 41.5t-115 78.5t-81 130t-32 188v561q0 93 -1.5 142t-8.5 81.5t-17.5 41.5t-30.5 9h-121v55h441v-55h-82q-16 0 -24 -0.5
t-15.5 -5.5t-7.5 -14v-785q0 -73 14.5 -133.5t38 -101t56.5 -71.5t66 -48.5t72 -28.5t69 -14.5t61 -3.5q34 0 66.5 3t77 14.5t82.5 30.5t77 54t66 81t44 115.5t17 154.5v454q0 141 -8.5 207.5t-20.5 79t-39 12.5h-115zM686 1421l-27 37q31 36 138.5 118.5t134.5 82.5
q6 0 12 -4t13.5 -13t11.5 -14.5t12 -17.5t8 -13q-98 -44 -303 -176z" />
    <glyph glyph-name="Ucircumflex" unicode="&#xdb;" horiz-adv-x="1402" 
d="M954 1245v55h375v-55h-84q-41 0 -41 -20v-746q0 -113 -31.5 -203.5t-82.5 -148t-121.5 -96t-143.5 -54.5t-153 -16q-62 0 -121.5 11t-125.5 41.5t-115 78.5t-81 130t-32 188v561q0 93 -1.5 142t-8.5 81.5t-17.5 41.5t-30.5 9h-121v55h441v-55h-82q-16 0 -24 -0.5
t-15.5 -5.5t-7.5 -14v-785q0 -73 14.5 -133.5t38 -101t56.5 -71.5t66 -48.5t72 -28.5t69 -14.5t61 -3.5q34 0 66.5 3t77 14.5t82.5 30.5t77 54t66 81t44 115.5t17 154.5v454q0 141 -8.5 207.5t-20.5 79t-39 12.5h-115zM426 1460q192 79 276 199q83 -118 275 -199
q-8 -7 -18 -14.5t-14.5 -11t-9.5 -7t-8 -5t-5 -1.5q-35 0 -113.5 43t-106.5 74q-28 -31 -106 -74t-113 -43q-2 0 -5 1.5t-8 5l-10 7t-15 11t-19 14.5z" />
    <glyph glyph-name="Udieresis" unicode="&#xdc;" horiz-adv-x="1402" 
d="M954 1245v55h375v-55h-84q-41 0 -41 -20v-746q0 -113 -31.5 -203.5t-82.5 -148t-121.5 -96t-143.5 -54.5t-153 -16q-62 0 -121.5 11t-125.5 41.5t-115 78.5t-81 130t-32 188v561q0 93 -1.5 142t-8.5 81.5t-17.5 41.5t-30.5 9h-121v55h441v-55h-82q-16 0 -24 -0.5
t-15.5 -5.5t-7.5 -14v-785q0 -73 14.5 -133.5t38 -101t56.5 -71.5t66 -48.5t72 -28.5t69 -14.5t61 -3.5q34 0 66.5 3t77 14.5t82.5 30.5t77 54t66 81t44 115.5t17 154.5v454q0 141 -8.5 207.5t-20.5 79t-39 12.5h-115zM612 1466q-29 0 -48 19.5t-19 48.5q0 30 19 50t48 20
t48.5 -20.5t19.5 -49.5t-19.5 -48.5t-48.5 -19.5zM834 1466q-29 0 -48.5 19.5t-19.5 48.5t19.5 49.5t48.5 20.5t48 -20t19 -50q0 -29 -19 -48.5t-48 -19.5z" />
    <glyph glyph-name="Yacute" unicode="&#xdd;" horiz-adv-x="1099" 
d="M971 1184l-334 -617v-213q0 -141 8.5 -207.5t20.5 -79t39 -12.5h114v-55h-440v55h84q41 0 41 21v350v139q-53 88 -140 234.5t-137 229.5t-88 142q-34 53 -49 63.5t-51 10.5h-70v55h420v-55h-94q-24 0 -29.5 -1t-5.5 -7q0 -8 55 -104t154 -263.5t137 -234.5
q230 432 268 519q21 48 21 63q0 20 -7 24t-24 4h-131v55h367v-55h-70q-6 0 -11 -1.5t-9.5 -5t-7.5 -6t-7.5 -9t-6.5 -10.5t-8 -14zM535 1421l-27 37q31 36 138 118.5t134 82.5q4 0 8.5 -2.5t9.5 -7t9 -9t9.5 -11.5t8.5 -11.5t7.5 -11.5t5.5 -9q-98 -44 -303 -176z" />
    <glyph glyph-name="Thorn" unicode="&#xde;" 
d="M238 76v895q0 93 -1.5 142t-8.5 81.5t-17.5 41.5t-30.5 9h-121v55h441v-55h-82q-16 0 -24 -0.5t-15.5 -5.5t-7.5 -14v-129h229q189 0 296.5 -100t107.5 -238q0 -90 -38 -162.5t-102.5 -117t-143.5 -68t-165 -23.5q-95 0 -184 27v-60q0 -141 8.5 -207.5t20 -79t38.5 -12.5
h115v-55h-440v55h84q41 0 41 21zM371 1008v-539q82 -27 172 -27q142 0 234.5 71.5t92.5 209.5q0 31 -6 64t-27 78t-55 79.5t-98.5 59t-148.5 24.5h-89q-19 0 -29 -0.5t-22.5 -2t-18 -6t-5.5 -11.5z" />
    <glyph glyph-name="germandbls" unicode="&#xdf;" horiz-adv-x="1138" 
d="M209 872v183q0 74 17 135.5t47 104.5t67.5 75.5t81 51t85.5 27.5t83 9q151 0 254.5 -109.5t103.5 -261.5q-52 -7 -92.5 -16t-86.5 -27.5t-76.5 -43.5t-51 -66.5t-20.5 -93.5q0 -58 25.5 -104.5t66 -78.5t90 -60.5t99 -57.5t90 -62t66 -82.5t25.5 -111.5
q0 -135 -99 -225.5t-232 -90.5q-45 0 -98.5 14.5t-98.5 50t-45 81.5q0 20 13 31.5t32 11.5q45 0 76.5 -32t62.5 -89q30 -12 62 -12q90 0 155.5 60t65.5 150q0 49 -25 90t-64.5 70t-87.5 56.5t-95.5 58t-87 66t-64.5 88t-25 116.5q0 127 83 218.5t210 125.5q0 74 -21.5 131
t-58.5 90t-81.5 49.5t-94.5 16.5q-108 0 -172.5 -71t-64.5 -193v-787q0 -82 0.5 -130.5t5 -86.5t8.5 -54t16.5 -26t22.5 -11t33 -1h82v-49h-402v49h76q39 0 39 21v753h-123v49h123z" />
    <glyph glyph-name="agrave" unicode="&#xe0;" horiz-adv-x="872" 
d="M573 233v261q-69 -25 -111.5 -42t-99 -46.5t-89 -58t-55.5 -69.5t-23 -88q0 -58 29.5 -91t86.5 -33q75 0 145.5 48t116.5 119zM573 549v137q0 21 -1 33.5t-8.5 36.5t-22 38t-44.5 25.5t-73 11.5q-53 0 -108 -16t-91 -47q0 -70 -26.5 -124t-71.5 -54q-18 0 -30.5 13.5
t-12.5 29.5q0 59 39.5 111.5t99.5 86.5t127.5 54t126.5 20q45 0 79 -7.5t57 -18t38 -32t23.5 -39t12.5 -51t4.5 -55.5t0.5 -63v-326q0 -35 0.5 -53.5t3 -47t8 -44.5t16 -36t25.5 -32t38 -23t53 -18l-66 -92q-60 0 -120.5 58.5t-69.5 136.5q-65 -74 -160 -134.5t-174 -60.5
q-83 0 -130.5 52.5t-47.5 138.5q0 30 8.5 58t20.5 51.5t37.5 47.5t47 42t61 40.5t68.5 37.5t81 38t85.5 37t95.5 39zM530 1030l-26 -37q-205 132 -303 176q0 1 8 13t12 17.5t11.5 14.5t13.5 13t12 4q27 0 134 -82.5t138 -118.5z" />
    <glyph glyph-name="aacute" unicode="&#xe1;" horiz-adv-x="872" 
d="M573 233v261q-69 -25 -111.5 -42t-99 -46.5t-89 -58t-55.5 -69.5t-23 -88q0 -58 29.5 -91t86.5 -33q75 0 145.5 48t116.5 119zM573 549v137q0 21 -1 33.5t-8.5 36.5t-22 38t-44.5 25.5t-73 11.5q-53 0 -108 -16t-91 -47q0 -70 -26.5 -124t-71.5 -54q-18 0 -30.5 13.5
t-12.5 29.5q0 59 39.5 111.5t99.5 86.5t127.5 54t126.5 20q45 0 79 -7.5t57 -18t38 -32t23.5 -39t12.5 -51t4.5 -55.5t0.5 -63v-326q0 -35 0.5 -53.5t3 -47t8 -44.5t16 -36t25.5 -32t38 -23t53 -18l-66 -92q-60 0 -120.5 58.5t-69.5 136.5q-65 -74 -160 -134.5t-174 -60.5
q-83 0 -130.5 52.5t-47.5 138.5q0 30 8.5 58t20.5 51.5t37.5 47.5t47 42t61 40.5t68.5 37.5t81 38t85.5 37t95.5 39zM340 993l-27 37q31 36 138.5 118.5t134.5 82.5q6 0 12 -4t13.5 -13t11.5 -14.5t12 -17.5t8 -13q-98 -44 -303 -176z" />
    <glyph glyph-name="acircumflex" unicode="&#xe2;" horiz-adv-x="872" 
d="M573 233v261q-69 -25 -111.5 -42t-99 -46.5t-89 -58t-55.5 -69.5t-23 -88q0 -58 29.5 -91t86.5 -33q75 0 145.5 48t116.5 119zM573 549v137q0 21 -1 33.5t-8.5 36.5t-22 38t-44.5 25.5t-73 11.5q-53 0 -108 -16t-91 -47q0 -70 -26.5 -124t-71.5 -54q-18 0 -30.5 13.5
t-12.5 29.5q0 59 39.5 111.5t99.5 86.5t127.5 54t126.5 20q45 0 79 -7.5t57 -18t38 -32t23.5 -39t12.5 -51t4.5 -55.5t0.5 -63v-326q0 -35 0.5 -53.5t3 -47t8 -44.5t16 -36t25.5 -32t38 -23t53 -18l-66 -92q-60 0 -120.5 58.5t-69.5 136.5q-65 -74 -160 -134.5t-174 -60.5
q-83 0 -130.5 52.5t-47.5 138.5q0 30 8.5 58t20.5 51.5t37.5 47.5t47 42t61 40.5t68.5 37.5t81 38t85.5 37t95.5 39zM162 1032q192 79 276 199q83 -118 275 -199q-51 -39 -56 -39q-35 0 -113 43t-106 74q-28 -31 -106 -74t-113 -43q-2 0 -5 1.5t-8 5l-10 7t-15 11t-19 14.5z
" />
    <glyph glyph-name="atilde" unicode="&#xe3;" horiz-adv-x="872" 
d="M573 233v261q-69 -25 -111.5 -42t-99 -46.5t-89 -58t-55.5 -69.5t-23 -88q0 -58 29.5 -91t86.5 -33q75 0 145.5 48t116.5 119zM573 549v137q0 21 -1 33.5t-8.5 36.5t-22 38t-44.5 25.5t-73 11.5q-53 0 -108 -16t-91 -47q0 -70 -26.5 -124t-71.5 -54q-18 0 -30.5 13.5
t-12.5 29.5q0 59 39.5 111.5t99.5 86.5t127.5 54t126.5 20q45 0 79 -7.5t57 -18t38 -32t23.5 -39t12.5 -51t4.5 -55.5t0.5 -63v-326q0 -35 0.5 -53.5t3 -47t8 -44.5t16 -36t25.5 -32t38 -23t53 -18l-66 -92q-60 0 -120.5 58.5t-69.5 136.5q-65 -74 -160 -134.5t-174 -60.5
q-83 0 -130.5 52.5t-47.5 138.5q0 30 8.5 58t20.5 51.5t37.5 47.5t47 42t61 40.5t68.5 37.5t81 38t85.5 37t95.5 39zM645 1184l35 -13q-8 -62 -40.5 -99.5t-92.5 -37.5q-48 0 -127 31q-95 37 -113 37q-48 0 -78 -58l-34 11q8 56 41.5 89.5t87.5 33.5q46 0 122 -31
q82 -31 113 -31q33 0 52 17t34 51z" />
    <glyph glyph-name="adieresis" unicode="&#xe4;" horiz-adv-x="872" 
d="M573 233v261q-69 -25 -111.5 -42t-99 -46.5t-89 -58t-55.5 -69.5t-23 -88q0 -58 29.5 -91t86.5 -33q75 0 145.5 48t116.5 119zM573 549v137q0 21 -1 33.5t-8.5 36.5t-22 38t-44.5 25.5t-73 11.5q-53 0 -108 -16t-91 -47q0 -70 -26.5 -124t-71.5 -54q-18 0 -30.5 13.5
t-12.5 29.5q0 59 39.5 111.5t99.5 86.5t127.5 54t126.5 20q45 0 79 -7.5t57 -18t38 -32t23.5 -39t12.5 -51t4.5 -55.5t0.5 -63v-326q0 -35 0.5 -53.5t3 -47t8 -44.5t16 -36t25.5 -32t38 -23t53 -18l-66 -92q-60 0 -120.5 58.5t-69.5 136.5q-65 -74 -160 -134.5t-174 -60.5
q-83 0 -130.5 52.5t-47.5 138.5q0 30 8.5 58t20.5 51.5t37.5 47.5t47 42t61 40.5t68.5 37.5t81 38t85.5 37t95.5 39zM328 1038q-29 0 -48.5 19.5t-19.5 48.5t19.5 49.5t48.5 20.5t48 -20t19 -50q0 -29 -19 -48.5t-48 -19.5zM549 1038q-29 0 -48.5 19.5t-19.5 48.5t19.5 49.5
t48.5 20.5t48 -20t19 -50q0 -29 -19 -48.5t-48 -19.5z" />
    <glyph glyph-name="aring" unicode="&#xe5;" horiz-adv-x="872" 
d="M573 233v261q-69 -25 -111.5 -42t-99 -46.5t-89 -58t-55.5 -69.5t-23 -88q0 -58 29.5 -91t86.5 -33q75 0 145.5 48t116.5 119zM573 549v137q0 21 -1 33.5t-8.5 36.5t-22 38t-44.5 25.5t-73 11.5q-53 0 -108 -16t-91 -47q0 -70 -26.5 -124t-71.5 -54q-18 0 -30.5 13.5
t-12.5 29.5q0 59 39.5 111.5t99.5 86.5t127.5 54t126.5 20q45 0 79 -7.5t57 -18t38 -32t23.5 -39t12.5 -51t4.5 -55.5t0.5 -63v-326q0 -35 0.5 -53.5t3 -47t8 -44.5t16 -36t25.5 -32t38 -23t53 -18l-66 -92q-60 0 -120.5 58.5t-69.5 136.5q-65 -74 -160 -134.5t-174 -60.5
q-83 0 -130.5 52.5t-47.5 138.5q0 30 8.5 58t20.5 51.5t37.5 47.5t47 42t61 40.5t68.5 37.5t81 38t85.5 37t95.5 39zM618 1145q0 -75 -52.5 -127.5t-127.5 -52.5t-127.5 52.5t-52.5 127.5t52.5 127.5t127.5 52.5t127.5 -52.5t52.5 -127.5zM563 1145q0 53 -36.5 89t-88.5 36
t-88.5 -36t-36.5 -89t36.5 -89t88.5 -36t88.5 36t36.5 89z" />
    <glyph glyph-name="ae" unicode="&#xe6;" horiz-adv-x="1366" 
d="M573 233v261q-69 -25 -111.5 -42t-99 -46.5t-89 -58t-55.5 -69.5t-23 -88q0 -58 29.5 -91t86.5 -33q75 0 145.5 48t116.5 119zM692 508l461 123q-32 87 -91 153t-136 66q-69 0 -124 -54.5t-82.5 -131.5t-27.5 -156zM1294 162l29 -31q-155 -164 -375 -164q-120 0 -205 61
t-133 169q-71 -89 -172 -159.5t-192 -70.5q-83 0 -130.5 52.5t-47.5 138.5q0 30 8.5 58t20.5 51.5t37.5 47.5t47 42t61 40.5t68.5 37.5t81 38t85.5 37t95.5 39v137q0 21 -1 33.5t-8.5 36.5t-22 38t-44.5 25.5t-73 11.5q-53 0 -108 -16t-91 -47q0 -70 -26.5 -124t-71.5 -54
q-18 0 -30.5 13.5t-12.5 29.5q0 59 39.5 111.5t99.5 86.5t127.5 54t126.5 20q41 0 72 -5.5t61.5 -20.5t47 -46.5t16.5 -78.5h4q105 151 283 151q62 0 116 -23t95 -65.5t71 -87.5t60 -104q-334 -107 -611 -170q4 -84 23.5 -152.5t58 -125.5t104.5 -88.5t154 -31.5
q151 0 262 105z" />
    <glyph glyph-name="ccedilla" unicode="&#xe7;" horiz-adv-x="872" 
d="M801 158l26 -33q-64 -75 -156.5 -116.5t-191.5 -41.5q-129 0 -222.5 61.5t-139 163t-45.5 230.5q0 116 40.5 211t105.5 152.5t141 88.5t153 31q67 0 123.5 -21t89 -51.5t50.5 -60t18 -51.5q0 -23 -15 -37t-39 -14q-46 0 -81.5 54.5t-47.5 109.5q-35 22 -98 22
q-33 0 -69 -8t-81.5 -33t-81 -65t-61.5 -110.5t-29 -162.5q0 -116 38.5 -209.5t120.5 -152t194 -58.5q154 0 258 101zM444 0h56q-6 -9 -21.5 -29.5t-26 -35.5t-10.5 -19q0 -10 16 -17t64 -14q16 -3 34 -7.5t46 -15t46 -29t18 -42.5q0 -43 -34 -73t-75 -42t-80 -12
q-17 0 -37.5 3.5t-43 10.5t-37.5 21t-15 33q0 13 10 19.5t23 6.5q44 0 78 -55q15 -6 34 -6q35 0 66 19t31 51q0 47 -119 67q-56 9 -77 19t-21 28q0 31 75 119z" />
    <glyph glyph-name="egrave" unicode="&#xe8;" horiz-adv-x="872" 
d="M786 162l29 -31q-155 -164 -375 -164q-92 0 -165 36.5t-117.5 99.5t-68 141t-23.5 166q0 89 24.5 175t70.5 158.5t122 117t170 44.5q62 0 116 -23t95 -65.5t71 -87.5t60 -104q-334 -107 -611 -170q4 -84 23.5 -152.5t58 -125.5t104.5 -88.5t154 -31.5q151 0 262 105z
M184 508l461 123q-32 87 -91 153t-136 66q-69 0 -124 -54.5t-82.5 -131.5t-27.5 -156zM489 1030l-26 -37q-205 132 -303 176q0 1 8 13t12 17.5t11.5 14.5t13.5 13t12 4q27 0 134 -82.5t138 -118.5z" />
    <glyph glyph-name="eacute" unicode="&#xe9;" horiz-adv-x="872" 
d="M786 162l29 -31q-155 -164 -375 -164q-92 0 -165 36.5t-117.5 99.5t-68 141t-23.5 166q0 89 24.5 175t70.5 158.5t122 117t170 44.5q62 0 116 -23t95 -65.5t71 -87.5t60 -104q-334 -107 -611 -170q4 -84 23.5 -152.5t58 -125.5t104.5 -88.5t154 -31.5q151 0 262 105z
M184 508l461 123q-32 87 -91 153t-136 66q-69 0 -124 -54.5t-82.5 -131.5t-27.5 -156zM360 993l-26 37q31 36 138 118.5t134 82.5q4 0 8.5 -2.5t9.5 -7t9 -9t9.5 -11.5t8.5 -11.5t7.5 -11.5t5.5 -9q-102 -46 -304 -176z" />
    <glyph glyph-name="ecircumflex" unicode="&#xea;" horiz-adv-x="872" 
d="M786 162l29 -31q-155 -164 -375 -164q-92 0 -165 36.5t-117.5 99.5t-68 141t-23.5 166q0 89 24.5 175t70.5 158.5t122 117t170 44.5q62 0 116 -23t95 -65.5t71 -87.5t60 -104q-334 -107 -611 -170q4 -84 23.5 -152.5t58 -125.5t104.5 -88.5t154 -31.5q151 0 262 105z
M184 508l461 123q-32 87 -91 153t-136 66q-69 0 -124 -54.5t-82.5 -131.5t-27.5 -156zM162 1032q192 79 276 199q83 -118 275 -199q-51 -39 -56 -39q-35 0 -113 43t-106 74q-28 -31 -106 -74t-113 -43q-2 0 -5 1.5t-8 5l-10 7t-15 11t-19 14.5z" />
    <glyph glyph-name="edieresis" unicode="&#xeb;" horiz-adv-x="872" 
d="M786 162l29 -31q-155 -164 -375 -164q-92 0 -165 36.5t-117.5 99.5t-68 141t-23.5 166q0 89 24.5 175t70.5 158.5t122 117t170 44.5q62 0 116 -23t95 -65.5t71 -87.5t60 -104q-334 -107 -611 -170q4 -84 23.5 -152.5t58 -125.5t104.5 -88.5t154 -31.5q151 0 262 105z
M184 508l461 123q-32 87 -91 153t-136 66q-69 0 -124 -54.5t-82.5 -131.5t-27.5 -156zM328 1038q-29 0 -48.5 19.5t-19.5 48.5t19.5 49.5t48.5 20.5t48 -20t19 -50q0 -29 -19 -48.5t-48 -19.5zM549 1038q-29 0 -48.5 19.5t-19.5 48.5t19.5 49.5t48.5 20.5t48 -20t19 -50
q0 -29 -19 -48.5t-48 -19.5z" />
    <glyph glyph-name="igrave" unicode="&#xec;" horiz-adv-x="530" 
d="M324 905v-547q0 -82 0.5 -130.5t5 -86.5t8.5 -54t16.5 -26t22.5 -11t33 -1h82v-49h-402v49h76q39 0 39 21v571q0 66 -3.5 105t-13 55t-17 19t-24.5 3h-108v49q4 0 143 17q126 16 142 16zM338 1030l-27 -37q-205 132 -303 176q1 2 5.5 9t7.5 11.5t8.5 11.5t9.5 11.5t9 9
t9.5 7t8.5 2.5q27 0 134 -82.5t138 -118.5z" />
    <glyph glyph-name="iacute" unicode="&#xed;" horiz-adv-x="530" 
d="M324 905v-547q0 -82 0.5 -130.5t5 -86.5t8.5 -54t16.5 -26t22.5 -11t33 -1h82v-49h-402v49h76q39 0 39 21v571q0 66 -3.5 105t-13 55t-17 19t-24.5 3h-108v49q4 0 143 17q126 16 142 16zM168 993l-27 37q31 36 138.5 118.5t134.5 82.5q6 0 12 -4t13.5 -13t11.5 -14.5
t12 -17.5t8 -13q-98 -44 -303 -176z" />
    <glyph glyph-name="icircumflex" unicode="&#xee;" horiz-adv-x="530" 
d="M324 905v-547q0 -82 0.5 -130.5t5 -86.5t8.5 -54t16.5 -26t22.5 -11t33 -1h82v-49h-402v49h76q39 0 39 21v571q0 66 -3.5 105t-13 55t-17 19t-24.5 3h-108v49q4 0 143 17q126 16 142 16zM-61 1032q192 79 276 199q83 -119 274 -199q-8 -7 -18 -14.5t-14.5 -11t-9.5 -7
t-8 -5t-5 -1.5q-35 0 -113 43t-106 74q-28 -31 -106 -74t-113 -43q-2 0 -5 1.5t-8 5l-10 7t-15 11t-19 14.5z" />
    <glyph glyph-name="idieresis" unicode="&#xef;" horiz-adv-x="530" 
d="M324 905v-547q0 -82 0.5 -130.5t5 -86.5t8.5 -54t16.5 -26t22.5 -11t33 -1h82v-49h-402v49h76q39 0 39 21v571q0 66 -3.5 105t-13 55t-17 19t-24.5 3h-108v49q4 0 143 17q126 16 142 16zM115 1038q-29 0 -48.5 19.5t-19.5 48.5t19.5 49.5t48.5 20.5t48 -20t19 -50
q0 -29 -19 -48.5t-48 -19.5zM336 1038q-29 0 -48.5 19.5t-19.5 48.5t19.5 49.5t48.5 20.5t48 -20t19 -50q0 -29 -19 -48.5t-48 -19.5z" />
    <glyph glyph-name="eth" unicode="&#xf0;" horiz-adv-x="1021" 
d="M215 446q0 -77 18 -148.5t54.5 -133t99 -98.5t143.5 -37q80 0 137.5 35t87 95t42 125.5t12.5 141.5q0 77 -18 149t-54.5 133.5t-99 98.5t-143.5 37q-80 0 -137.5 -35t-87 -95.5t-42 -125.5t-12.5 -142zM846 1417l-193 -149q84 -79 144 -178t88.5 -193.5t40.5 -169.5
t12 -141q0 -303 -121.5 -458t-329.5 -161q-182 0 -291.5 124.5t-109.5 316.5q0 106 31.5 193t80.5 142t110.5 93t119 53.5t109.5 15.5q135 0 229 -98l4 4q-55 234 -195 395l-223 -172l-41 45l224 172q-121 124 -267 162l74 45q159 -53 266 -149l197 153z" />
    <glyph glyph-name="ntilde" unicode="&#xf1;" horiz-adv-x="1099" 
d="M311 678v-320q0 -82 0.5 -130.5t5 -86.5t8.5 -54t16.5 -26t22.5 -11t33 -1h82v-49h-401v49h76q39 0 39 21v571q0 66 -3.5 105t-13 55t-17 19t-24.5 3h-108v49q4 0 143 17q126 16 141 16v-164q95 79 176 121.5t172 42.5q70 0 120.5 -22t77 -59.5t38.5 -80t12 -92.5v-293
q0 -82 0.5 -130.5t5 -86.5t8.5 -54t16.5 -26t22.5 -11t33 -1h82v-49h-401v49h76q38 0 38 21v534q0 209 -170 209q-85 0 -157.5 -35t-149.5 -100zM758 1184l35 -13q-8 -62 -41 -99.5t-93 -37.5q-48 0 -127 31q-11 4 -31.5 12.5t-28 11l-19.5 6.5t-19 5.5t-14 1.5
q-48 0 -78 -58l-35 11q8 56 41.5 89.5t87.5 33.5q47 0 123 -31q82 -31 113 -31q33 0 52 17t34 51z" />
    <glyph glyph-name="ograve" unicode="&#xf2;" horiz-adv-x="1024" 
d="M86 408q0 106 31.5 193t80.5 142t110.5 93t119 53.5t109.5 15.5q182 0 291.5 -124t109.5 -316q0 -106 -31.5 -193t-80.5 -142t-110.5 -93t-119 -54t-109.5 -16q-182 0 -291.5 124.5t-109.5 316.5zM215 446q0 -77 18 -148.5t54.5 -133t99 -98.5t143.5 -37q80 0 137.5 35
t87 95t42 125.5t12.5 141.5q0 77 -18 149t-54.5 133.5t-99 98.5t-143.5 37q-80 0 -137.5 -35t-87 -95.5t-42 -125.5t-12.5 -142zM606 1030l-26 -37q-202 130 -304 176q1 2 5.5 9t7.5 11.5t8.5 11.5t9.5 11.5t9 9t9.5 7t8.5 2.5q27 0 134 -82.5t138 -118.5z" />
    <glyph glyph-name="oacute" unicode="&#xf3;" horiz-adv-x="1024" 
d="M86 408q0 106 31.5 193t80.5 142t110.5 93t119 53.5t109.5 15.5q182 0 291.5 -124t109.5 -316q0 -106 -31.5 -193t-80.5 -142t-110.5 -93t-119 -54t-109.5 -16q-182 0 -291.5 124.5t-109.5 316.5zM215 446q0 -77 18 -148.5t54.5 -133t99 -98.5t143.5 -37q80 0 137.5 35
t87 95t42 125.5t12.5 141.5q0 77 -18 149t-54.5 133.5t-99 98.5t-143.5 37q-80 0 -137.5 -35t-87 -95.5t-42 -125.5t-12.5 -142zM457 993l-27 37q31 36 138 118.5t134 82.5q4 0 8.5 -2.5t9.5 -7t9 -9t9.5 -11.5t8.5 -11.5t7.5 -11.5t5.5 -9q-98 -44 -303 -176z" />
    <glyph glyph-name="ocircumflex" unicode="&#xf4;" horiz-adv-x="1024" 
d="M86 408q0 106 31.5 193t80.5 142t110.5 93t119 53.5t109.5 15.5q182 0 291.5 -124t109.5 -316q0 -106 -31.5 -193t-80.5 -142t-110.5 -93t-119 -54t-109.5 -16q-182 0 -291.5 124.5t-109.5 316.5zM215 446q0 -77 18 -148.5t54.5 -133t99 -98.5t143.5 -37q80 0 137.5 35
t87 95t42 125.5t12.5 141.5q0 77 -18 149t-54.5 133.5t-99 98.5t-143.5 37q-80 0 -137.5 -35t-87 -95.5t-42 -125.5t-12.5 -142zM238 1032q192 79 276 199q83 -119 274 -199q-8 -7 -18 -14.5t-14.5 -11t-9.5 -7t-8 -5t-5 -1.5q-35 0 -113 43t-106 74q-28 -31 -106 -74
t-113 -43q-2 0 -5 1.5t-8 5l-10 7t-15 11t-19 14.5z" />
    <glyph glyph-name="otilde" unicode="&#xf5;" horiz-adv-x="1024" 
d="M86 408q0 106 31.5 193t80.5 142t110.5 93t119 53.5t109.5 15.5q182 0 291.5 -124t109.5 -316q0 -106 -31.5 -193t-80.5 -142t-110.5 -93t-119 -54t-109.5 -16q-182 0 -291.5 124.5t-109.5 316.5zM215 446q0 -77 18 -148.5t54.5 -133t99 -98.5t143.5 -37q80 0 137.5 35
t87 95t42 125.5t12.5 141.5q0 77 -18 149t-54.5 133.5t-99 98.5t-143.5 37q-80 0 -137.5 -35t-87 -95.5t-42 -125.5t-12.5 -142zM721 1184l35 -13q-8 -62 -40.5 -99.5t-92.5 -37.5q-48 0 -127 31q-95 37 -113 37q-48 0 -78 -58l-35 11q8 56 41.5 89.5t87.5 33.5
q47 0 123 -31q82 -31 113 -31q33 0 52 17t34 51z" />
    <glyph glyph-name="odieresis" unicode="&#xf6;" horiz-adv-x="1024" 
d="M86 408q0 106 31.5 193t80.5 142t110.5 93t119 53.5t109.5 15.5q182 0 291.5 -124t109.5 -316q0 -106 -31.5 -193t-80.5 -142t-110.5 -93t-119 -54t-109.5 -16q-182 0 -291.5 124.5t-109.5 316.5zM215 446q0 -77 18 -148.5t54.5 -133t99 -98.5t143.5 -37q80 0 137.5 35
t87 95t42 125.5t12.5 141.5q0 77 -18 149t-54.5 133.5t-99 98.5t-143.5 37q-80 0 -137.5 -35t-87 -95.5t-42 -125.5t-12.5 -142zM403 1038q-29 0 -48 19.5t-19 48.5q0 30 19 50t48 20t48.5 -20.5t19.5 -49.5t-19.5 -48.5t-48.5 -19.5zM625 1038q-29 0 -48.5 19.5t-19.5 48.5
t19.5 49.5t48.5 20.5t48 -20t19 -50q0 -29 -19 -48.5t-48 -19.5z" />
    <glyph glyph-name="divide" unicode="&#xf7;" 
d="M969 383h-875v106h875v-106zM532 625q-37 0 -60 22t-23 60t23 59.5t60 21.5t60.5 -21.5t23.5 -59.5t-23.5 -60t-60.5 -22zM530 248q37 0 60.5 -22t23.5 -60t-23.5 -60t-60.5 -22t-60.5 22t-23.5 60t23.5 60t60.5 22z" />
    <glyph glyph-name="oslash" unicode="&#xf8;" horiz-adv-x="1024" 
d="M305 141l379 627q-73 76 -190 76q-80 0 -137.5 -35t-87 -95.5t-42 -125.5t-12.5 -142q0 -185 90 -305zM719 731l-381 -629q79 -73 192 -73q80 0 137.5 35t87 95t42 125.5t12.5 141.5q0 190 -90 305zM289 20l-76 -124h-57l92 151q-78 57 -120 151.5t-42 209.5
q0 106 31.5 193t80.5 142t110.5 93t119 53.5t109.5 15.5q115 0 200 -51l74 123h57l-90 -150q77 -60 118.5 -154t41.5 -208q0 -106 -31.5 -193t-80.5 -142t-110.5 -93t-119 -54t-109.5 -16q-115 0 -198 53z" />
    <glyph glyph-name="ugrave" unicode="&#xf9;" horiz-adv-x="1099" 
d="M27 823v49q4 0 143 17q126 16 141 16v-547q0 -39 0.5 -59.5t2.5 -54t7 -51t13.5 -41.5t22.5 -37t33 -25.5t46.5 -18t61.5 -5.5q73 0 146 37t128 96v442q0 66 -3.5 105t-12.5 55t-16.5 19t-24.5 3h-109v49q5 0 144 17q126 16 141 16v-592q0 -42 1 -62.5t4.5 -53
t12.5 -49.5t24.5 -37t41.5 -32t61 -20l-65 -92q-72 9 -122.5 59t-66.5 119q-92 -85 -170 -131.5t-168 -46.5q-41 0 -74.5 9.5t-58 23t-44 39.5t-31.5 47.5t-21 59.5t-13 63.5t-6 70.5t-2.5 69.5t-0.5 72.5v2v217q0 66 -3.5 105t-13 55t-17 19t-24.5 3h-108zM602 1030
l-27 -37q-205 132 -303 176q1 2 5.5 9t7.5 11.5t8.5 11.5t9.5 11.5t9 9t9.5 7t8.5 2.5q27 0 134 -82.5t138 -118.5z" />
    <glyph glyph-name="uacute" unicode="&#xfa;" horiz-adv-x="1099" 
d="M27 823v49q4 0 143 17q126 16 141 16v-547q0 -39 0.5 -59.5t2.5 -54t7 -51t13.5 -41.5t22.5 -37t33 -25.5t46.5 -18t61.5 -5.5q73 0 146 37t128 96v442q0 66 -3.5 105t-12.5 55t-16.5 19t-24.5 3h-109v49q5 0 144 17q126 16 141 16v-592q0 -42 1 -62.5t4.5 -53
t12.5 -49.5t24.5 -37t41.5 -32t61 -20l-65 -92q-72 9 -122.5 59t-66.5 119q-92 -85 -170 -131.5t-168 -46.5q-41 0 -74.5 9.5t-58 23t-44 39.5t-31.5 47.5t-21 59.5t-13 63.5t-6 70.5t-2.5 69.5t-0.5 72.5v2v217q0 66 -3.5 105t-13 55t-17 19t-24.5 3h-108zM455 993l-27 37
q31 36 138 118.5t134 82.5q4 0 8.5 -2.5t9.5 -7t9 -9t9.5 -11.5t8.5 -11.5t7.5 -11.5t5.5 -9q-98 -44 -303 -176z" />
    <glyph glyph-name="ucircumflex" unicode="&#xfb;" horiz-adv-x="1099" 
d="M27 823v49q4 0 143 17q126 16 141 16v-547q0 -39 0.5 -59.5t2.5 -54t7 -51t13.5 -41.5t22.5 -37t33 -25.5t46.5 -18t61.5 -5.5q73 0 146 37t128 96v442q0 66 -3.5 105t-12.5 55t-16.5 19t-24.5 3h-109v49q5 0 144 17q126 16 141 16v-592q0 -42 1 -62.5t4.5 -53
t12.5 -49.5t24.5 -37t41.5 -32t61 -20l-65 -92q-72 9 -122.5 59t-66.5 119q-92 -85 -170 -131.5t-168 -46.5q-41 0 -74.5 9.5t-58 23t-44 39.5t-31.5 47.5t-21 59.5t-13 63.5t-6 70.5t-2.5 69.5t-0.5 72.5v2v217q0 66 -3.5 105t-13 55t-17 19t-24.5 3h-108zM254 1032
q192 79 276 199q83 -118 275 -199q-8 -7 -18 -14.5t-14.5 -11t-9.5 -7t-8 -5t-5 -1.5q-35 0 -113.5 43t-106.5 74q-28 -31 -106 -74t-113 -43q-2 0 -5 1.5t-8 5l-10 7t-15 11t-19 14.5z" />
    <glyph glyph-name="udieresis" unicode="&#xfc;" horiz-adv-x="1099" 
d="M27 823v49q4 0 143 17q126 16 141 16v-547q0 -39 0.5 -59.5t2.5 -54t7 -51t13.5 -41.5t22.5 -37t33 -25.5t46.5 -18t61.5 -5.5q73 0 146 37t128 96v442q0 66 -3.5 105t-12.5 55t-16.5 19t-24.5 3h-109v49q5 0 144 17q126 16 141 16v-592q0 -42 1 -62.5t4.5 -53
t12.5 -49.5t24.5 -37t41.5 -32t61 -20l-65 -92q-72 9 -122.5 59t-66.5 119q-92 -85 -170 -131.5t-168 -46.5q-41 0 -74.5 9.5t-58 23t-44 39.5t-31.5 47.5t-21 59.5t-13 63.5t-6 70.5t-2.5 69.5t-0.5 72.5v2v217q0 66 -3.5 105t-13 55t-17 19t-24.5 3h-108zM440 1038
q-29 0 -48 19.5t-19 48.5q0 30 19 50t48 20t48.5 -20.5t19.5 -49.5t-19.5 -48.5t-48.5 -19.5zM662 1038q-29 0 -48.5 19.5t-19.5 48.5t19.5 49.5t48.5 20.5t48 -20t19 -50q0 -29 -19 -48.5t-48 -19.5z" />
    <glyph glyph-name="yacute" unicode="&#xfd;" horiz-adv-x="948" 
d="M4 823v49h373v-49h-101q-32 0 -32 -12q0 -7 19 -56t54.5 -133t65.5 -155.5t73.5 -172t57.5 -134.5q234 501 234 631q0 16 -7.5 23t-15.5 8t-27 1h-92v49h342v-49h-69h-13t-8.5 -2t-6.5 -3t-5 -7.5t-5.5 -11.5t-7 -18.5t-10.5 -24.5q-47 -116 -141 -340.5t-232 -534
t-178 -362.5q-105 -27 -211 -27q-10 0 -17 7t-7 18t33 24q3 2 26.5 12.5t33.5 16.5t37 25t45 38.5t48.5 56.5t57 80.5t61.5 108t70 141.5l-291 678q-32 74 -51.5 99.5t-47.5 25.5h-55zM418 993l-27 37q31 36 138.5 118.5t134.5 82.5q6 0 12 -4t13.5 -13t11.5 -14.5t12 -17.5
t8 -13q-98 -44 -303 -176z" />
    <glyph glyph-name="thorn" unicode="&#xfe;" horiz-adv-x="1099" 
d="M330 688v-586q102 -79 223 -79q110 0 188 56.5t113 145.5t35 201q0 75 -17.5 141.5t-52.5 121t-95 86.5t-138 32q-74 0 -132 -29.5t-124 -89.5zM330 39v-186q0 -82 0.5 -130.5t5 -86.5t8.5 -54.5t16.5 -26.5t22.5 -11t33 -1h82v-49h-402v49h76q39 0 39 21v1601
q0 87 -8 128t-17.5 48t-31.5 7h-109v49q142 9 285 47v-692q113 83 183.5 118t152.5 35q87 0 156 -39.5t109.5 -104.5t61.5 -142t21 -160q0 -133 -50.5 -243.5t-152.5 -179.5t-238 -69q-133 0 -243 72z" />
    <glyph glyph-name="ydieresis" unicode="&#xff;" horiz-adv-x="948" 
d="M4 823v49h373v-49h-101q-32 0 -32 -12q0 -7 19 -56t54.5 -133t65.5 -155.5t73.5 -172t57.5 -134.5q234 501 234 631q0 16 -7.5 23t-15.5 8t-27 1h-92v49h342v-49h-69h-13t-8.5 -2t-6.5 -3t-5 -7.5t-5.5 -11.5t-7 -18.5t-10.5 -24.5q-47 -116 -141 -340.5t-232 -534
t-178 -362.5q-105 -27 -211 -27q-10 0 -17 7t-7 18t33 24q3 2 26.5 12.5t33.5 16.5t37 25t45 38.5t48.5 56.5t57 80.5t61.5 108t70 141.5l-291 678q-32 74 -51.5 99.5t-47.5 25.5h-55zM385 1038q-29 0 -48.5 19.5t-19.5 48.5t19.5 49.5t48.5 20.5t48.5 -20.5t19.5 -49.5
t-19.5 -48.5t-48.5 -19.5zM606 1038q-29 0 -48 19.5t-19 48.5q0 30 19 50t48 20t48.5 -20.5t19.5 -49.5t-19.5 -48.5t-48.5 -19.5z" />
    <glyph glyph-name="dotlessi" unicode="&#x131;" horiz-adv-x="530" 
d="M324 905v-547q0 -82 0.5 -130.5t5 -86.5t8.5 -54t16.5 -26t22.5 -11t33 -1h82v-49h-402v49h76q39 0 39 21v571q0 66 -3.5 105t-13 55t-17 19t-24.5 3h-108v49q4 0 143 17q126 16 142 16z" />
    <glyph glyph-name="Lslash" unicode="&#x141;" 
d="M725 874l-354 -260v-260q0 -74 1 -121t6 -80.5t8.5 -49.5t16 -24.5t21.5 -9.5t31 -1h131q405 0 446 100q8 20 23 20q14 0 14 -14q0 -12 -51 -174h-905v55h84q41 0 41 21v456l-172 -126v77l172 127v361q0 93 -1.5 142t-8.5 81.5t-17.5 41.5t-30.5 9h-121v55h441v-55h-82
q-16 0 -24 -0.5t-15.5 -5.5t-7.5 -14v-535l354 260v-76z" />
    <glyph glyph-name="lslash" unicode="&#x142;" horiz-adv-x="530" 
d="M205 756v409q0 66 -3.5 105t-13 55t-17 19.5t-24.5 3.5h-108v49q142 9 285 47v-615l145 115v-76l-145 -114v-396q0 -82 0.5 -130.5t5 -86.5t8.5 -54t16.5 -26t22.5 -11t33 -1h82v-49h-402v49h76q39 0 39 21v610l-150 -119v76z" />
    <glyph glyph-name="OE" unicode="&#x152;" horiz-adv-x="2048" 
d="M1126 113v817q0 74 -1 120t-4 82.5t-7.5 54t-13.5 29.5t-19.5 14.5t-27.5 2.5h-158q-171 0 -314 -69.5t-229 -199.5t-86 -296q0 -270 158.5 -435t427.5 -165h158q78 0 97 8.5t19 36.5zM1810 895v-340h-51v76q0 29 -11 37q-22 15 -166 16h-62h-260v-330q0 -56 0.5 -95
t3 -70.5t4 -51t8 -34t10.5 -21t15 -10t18 -4t24 -0.5h132q405 0 446 100q8 20 23 20q14 0 14 -14q0 -12 -51 -174h-1149q-134 0 -243 37.5t-180 98t-119 142t-68.5 165.5t-20.5 171q0 131 45.5 243.5t123.5 192.5t182 137.5t222 85t242 27.5h969l-21 -141q0 -2 -1 -7
q-4 -25 -11 -27l-6 -1q-17 0 -21 25q-3 23 -18 34.5t-43 20.5q-92 29 -303 29h-152q-75 0 -75 -21v-467h194q141 0 209 8.5t82 21t14 38.5v82h51z" />
    <glyph glyph-name="oe" unicode="&#x153;" horiz-adv-x="1593" 
d="M86 408q0 106 31.5 193t80.5 142t110.5 93t119 53.5t109.5 15.5q112 -3 199.5 -58.5t137.5 -152.5q47 95 133 153t189 58q62 0 116 -23t95 -65.5t71 -87.5t60 -104q-337 -107 -610 -170q4 -84 23.5 -152.5t58 -125.5t104.5 -88.5t154 -31.5q151 0 262 105l29 -31
q-155 -164 -375 -164q-109 0 -197.5 57t-132.5 156q-58 -98 -154.5 -155t-212.5 -58q-182 0 -291.5 124.5t-109.5 316.5zM215 446q0 -77 18 -148.5t54.5 -133t99 -98.5t143.5 -37q80 0 137.5 35t87 95t42 125.5t12.5 141.5q0 77 -18 149t-54.5 133.5t-99 98.5t-143.5 37
q-80 0 -137.5 -35t-87 -95.5t-42 -125.5t-12.5 -142zM928 508l461 123q-31 86 -91 152.5t-137 66.5q-69 0 -124 -54.5t-82 -131.5t-27 -156z" />
    <glyph glyph-name="Scaron" unicode="&#x160;" horiz-adv-x="985" 
d="M807 1300v-139q0 -24 -19 -24q-11 0 -14.5 6.5t-5.5 21.5q-4 29 -34 51.5t-70.5 33.5t-76.5 16.5t-63 5.5q-75 0 -133.5 -24t-92 -61.5t-50.5 -79.5t-17 -83q0 -57 23 -101.5t62 -74.5t89.5 -54.5t106 -45.5t111 -43.5t106 -53t89.5 -68.5t62 -95.5t23 -129.5
q0 -93 -40.5 -169.5t-108.5 -125.5t-153.5 -75.5t-178.5 -26.5q-73 0 -158 15t-149 40q-29 181 -29 183q0 22 20 22q22 0 27 -37q9 -41 47 -72.5t89 -48.5t99 -25.5t87 -8.5q90 0 166.5 29t127 91t50.5 146q0 64 -23 113.5t-61.5 82t-88.5 58.5t-105 46.5t-110 42.5
t-105 51.5t-88.5 67t-61.5 95t-23 131.5q0 101 65.5 184t169 127.5t218.5 44.5q138 0 221 -39zM217 1620q9 7 19 14.5t15 11l10 7t8 5t5 1.5q35 0 113.5 -43t106.5 -74q28 31 106 74t113 43q2 0 5 -1.5t8 -5t9.5 -7t14.5 -11t18 -14.5q-191 -80 -274 -199q-84 119 -277 199z
" />
    <glyph glyph-name="scaron" unicode="&#x161;" horiz-adv-x="757" 
d="M381 838q-74 0 -139.5 -43.5t-65.5 -116.5q0 -44 29 -75t75 -48.5t102 -32.5t112 -34.5t102 -46t75 -74t29 -113.5q0 -73 -36 -130.5t-94 -90.5t-124 -49.5t-135 -16.5q-122 0 -229 39q-27 175 -27 176q0 19 23 19q3 0 5.5 -1t4.5 -2.5t3.5 -4t3 -4.5t2.5 -6t1.5 -5.5
l2 -6t1.5 -5.5q10 -54 95.5 -92.5t169.5 -38.5q88 0 160.5 50t72.5 138q0 48 -28.5 81t-73.5 50.5t-100 31.5t-110 31t-100 41.5t-73.5 70t-28.5 110.5q0 106 94 186t228 80q137 0 229 -43q12 -110 12 -139q0 -14 -14 -14q-7 0 -11.5 3.5t-5.5 4.5t-6 10q-23 36 -42 53
q-67 58 -189 58zM104 1192q53 39 58 39q35 0 113 -43t106 -74q28 31 106 74t113 43q2 0 5 -1.5t8 -5t9.5 -7t14.5 -11t18 -14.5q-191 -80 -274 -199q-84 119 -277 199z" />
    <glyph glyph-name="Ydieresis" unicode="&#x178;" horiz-adv-x="1099" 
d="M971 1184l-334 -617v-213q0 -141 8.5 -207.5t20.5 -79t39 -12.5h114v-55h-440v55h84q41 0 41 21v350v139q-53 88 -140 234.5t-137 229.5t-88 142q-34 53 -49 63.5t-51 10.5h-70v55h420v-55h-94q-24 0 -29.5 -1t-5.5 -7q0 -8 55 -104t154 -263.5t137 -234.5
q230 432 268 519q21 48 21 63q0 20 -7 24t-24 4h-131v55h367v-55h-70q-6 0 -11 -1.5t-9.5 -5t-7.5 -6t-7.5 -9t-6.5 -10.5t-8 -14zM461 1466q-29 0 -48.5 19.5t-19.5 48.5t19.5 49.5t48.5 20.5t48 -20t19 -50q0 -29 -19 -48.5t-48 -19.5zM682 1466q-29 0 -48.5 19.5
t-19.5 48.5t19.5 49.5t48.5 20.5t48.5 -20.5t19.5 -49.5t-19.5 -48.5t-48.5 -19.5z" />
    <glyph glyph-name="Zcaron" unicode="&#x17d;" horiz-adv-x="1138" 
d="M1055 0h-977q-29 0 -29 12q0 6 37 64l776 1157h-110q-52 0 -100.5 -1t-138.5 -7t-156.5 -16.5t-125 -32.5t-73.5 -52q-12 -24 -25 -24q-18 0 -18 18q0 6 49 182h852q22 0 22 -8q0 -7 -14 -28l-793 -1196h222q65 0 113 1t124 4.5t132 12.5t112.5 22.5t91.5 37t45 53.5
q2 7 3 9t4 7t6.5 6.5t9.5 1.5q16 0 16 -16q0 -13 -55 -207zM295 1620q9 7 19 14.5t15 11l10 7t8 5t5 1.5q35 0 113 -43t106 -74q28 31 106.5 74t113.5 43q2 0 5 -1.5t8 -5t9.5 -7t14.5 -11t18 -14.5q-192 -81 -275 -199q-84 120 -276 199z" />
    <glyph glyph-name="zcaron" unicode="&#x17e;" horiz-adv-x="872" 
d="M139 872h637q23 0 23 -12q0 -3 -1 -5.5t-3 -6t-4 -6.5t-6 -8t-7 -8.5t-8.5 -10t-9.5 -10.5l-576 -705q78 3 117 5.5t82.5 3t230.5 2.5q70 1 106.5 6t45.5 10.5t16 17.5q10 17 23 17q16 0 16 -17q0 -19 -59 -145h-682q-47 0 -47 20q0 8 15.5 27.5t71.5 84.5q50 58 85 99
q11 12 84 96t103.5 120t86.5 104.5t93 120.5t63 98h-309q-49 -1 -75.5 -3t-63.5 -13t-52 -31q-1 -1 -3.5 -5t-4.5 -6l-4.5 -4.5t-6 -4t-7.5 -1.5q-7 0 -13 6t-6 13q0 4 49 151zM162 1192q9 7 19 14.5t15 11l10 7t8 5t5 1.5q35 0 113 -43t106 -74q28 31 106 74t113 43
q5 0 56 -39q-192 -81 -275 -199q-84 120 -276 199z" />
    <glyph glyph-name="florin" unicode="&#x192;" 
d="M598 872h162v-55h-172l-154 -776q-26 -132 -71.5 -234t-96 -160.5t-109.5 -96t-106.5 -50t-93.5 -12.5q-25 0 -53 5.5t-54 23t-26 43.5t21.5 39.5t48.5 13.5q61 0 102 -70q42 5 74 16t69 41.5t65.5 80t57 133.5t51.5 200l158 803h-131v55h139q14 73 30 132.5t40.5 127.5
t57 118.5t75 93.5t100.5 65.5t127 22.5q41 0 78 -14.5t37 -49.5q0 -22 -19 -32.5t-44 -10.5q-51 0 -95 51q-54 -4 -92.5 -28.5t-65.5 -74.5t-44.5 -108t-36.5 -149z" />
    <glyph glyph-name="circumflex" unicode="&#x2c6;" horiz-adv-x="530" 
d="M-10 1032q192 79 276 199q83 -118 275 -199q-51 -39 -56 -39q-35 0 -113 43t-106 74q-28 -31 -106 -74t-113 -43q-2 0 -5 1.5t-8 5l-10 7t-15 11t-19 14.5z" />
    <glyph glyph-name="caron" unicode="&#x2c7;" horiz-adv-x="530" 
d="M-10 1192q9 7 19 14.5t15 11l10 7t8 5t5 1.5q35 0 113 -43t106 -74q28 31 106 74t113 43q5 0 56 -39q-192 -81 -275 -199q-84 120 -276 199z" />
    <glyph glyph-name="breve" unicode="&#x2d8;" horiz-adv-x="530" 
d="M39 1221h49q-1 -67 53.5 -103.5t124.5 -36.5q69 0 124 36.5t54 103.5h50q6 -98 -61 -156.5t-167 -58.5t-166.5 58.5t-60.5 156.5z" />
    <glyph glyph-name="dotaccent" unicode="&#x2d9;" horiz-adv-x="530" 
d="M266 1038q-29 0 -48 19.5t-19 48.5q0 30 19 50t48 20t48.5 -20.5t19.5 -49.5t-19.5 -48.5t-48.5 -19.5z" />
    <glyph glyph-name="ring" unicode="&#x2da;" horiz-adv-x="530" 
d="M446 1145q0 -75 -52.5 -127.5t-127.5 -52.5t-127.5 52.5t-52.5 127.5t52.5 127.5t127.5 52.5t127.5 -52.5t52.5 -127.5zM391 1145q0 53 -36.5 89t-88.5 36t-88.5 -36t-36.5 -89t36.5 -89t88.5 -36t88.5 36t36.5 89z" />
    <glyph glyph-name="ogonek" unicode="&#x2db;" horiz-adv-x="530" 
d="M303 0h80q-95 -46 -136.5 -83t-41.5 -91q0 -39 27 -64.5t67 -25.5q41 0 98 22l-18 -45q-58 -20 -113 -20q-64 0 -109.5 31t-45.5 92q0 67 58 114t134 70z" />
    <glyph glyph-name="tilde" unicode="&#x2dc;" horiz-adv-x="530" 
d="M473 1184l35 -13q-8 -62 -40.5 -99.5t-92.5 -37.5q-48 0 -127 31q-95 37 -113 37q-48 0 -78 -58l-34 11q8 56 41.5 89.5t87.5 33.5q46 0 122 -31q82 -31 113 -31q33 0 52 17t34 51z" />
    <glyph glyph-name="hungarumlaut" unicode="&#x2dd;" horiz-adv-x="530" 
d="M86 973l-37 24q18 50 93 167.5t102 117.5q17 0 67 -39q-88 -86 -225 -270zM299 973l-37 24q18 50 93 167.5t102 117.5q17 0 67 -39q-88 -86 -225 -270z" />
    <glyph glyph-name="endash" unicode="&#x2013;" horiz-adv-x="1024" 
d="M0 383v106h1024v-106h-1024z" />
    <glyph glyph-name="emdash" unicode="&#x2014;" horiz-adv-x="2048" 
d="M0 383v106h2048v-106h-2048z" />
    <glyph glyph-name="quoteleft" unicode="&#x2018;" horiz-adv-x="378" 
d="M233 1339l29 -30q-119 -103 -119 -203q0 -58 41 -74q24 8 41 8q31 0 50.5 -18.5t19.5 -48.5q0 -33 -22 -51.5t-54 -18.5q-60 0 -98.5 58t-38.5 120q0 76 42 143.5t109 114.5z" />
    <glyph glyph-name="quoteright" unicode="&#x2019;" horiz-adv-x="378" 
d="M145 903l-28 31q119 103 119 203q0 57 -41 73q-24 -8 -41 -8q-31 0 -50.5 18.5t-19.5 49.5q0 32 22 50.5t54 18.5q60 0 98.5 -58t38.5 -120q0 -76 -42.5 -143.5t-109.5 -114.5z" />
    <glyph glyph-name="quotesinglbase" unicode="&#x201a;" horiz-adv-x="378" 
d="M145 -326l-28 31q119 103 119 203q0 58 -41 74q-27 -9 -41 -9q-31 0 -50.5 18.5t-19.5 49.5q0 33 22 51.5t54 18.5q60 0 98.5 -58.5t38.5 -120.5q0 -76 -42.5 -143.5t-109.5 -114.5z" />
    <glyph glyph-name="quotedblleft" unicode="&#x201c;" horiz-adv-x="720" 
d="M563 1339l29 -30q-119 -103 -119 -203q0 -58 41 -74q24 8 41 8q31 0 50.5 -18.5t19.5 -48.5q0 -33 -22 -51.5t-54 -18.5q-60 0 -98.5 58t-38.5 120q0 76 42 143.5t109 114.5zM248 1339l28 -30q-118 -102 -118 -203q0 -58 41 -74q24 8 41 8q31 0 50 -18t19 -49
q0 -33 -22 -51.5t-54 -18.5q-60 0 -98.5 58t-38.5 120q0 76 42.5 143.5t109.5 114.5z" />
    <glyph glyph-name="quotedblright" unicode="&#x201d;" horiz-adv-x="720" 
d="M158 903l-29 31q119 103 119 203q0 57 -41 73q-24 -8 -41 -8q-31 0 -50.5 18.5t-19.5 49.5q0 32 22 50.5t54 18.5q60 0 98.5 -58t38.5 -120q0 -76 -42 -143.5t-109 -114.5zM473 903l-29 31q119 103 119 203q0 57 -41 73q-24 -8 -41 -8q-31 0 -50 18.5t-19 49.5
q0 32 21.5 50.5t53.5 18.5q60 0 99 -58t39 -120q0 -76 -42.5 -143.5t-109.5 -114.5z" />
    <glyph glyph-name="quotedblbase" unicode="&#x201e;" horiz-adv-x="720" 
d="M158 -326l-29 31q119 103 119 203q0 58 -41 74q-27 -9 -41 -9q-31 0 -50.5 18.5t-19.5 49.5q0 33 22 51.5t54 18.5q60 0 98.5 -58.5t38.5 -120.5q0 -76 -42 -143.5t-109 -114.5zM473 -326l-29 31q119 103 119 203q0 58 -41 74q-27 -9 -41 -9q-31 0 -50 18.5t-19 49.5
q0 33 21.5 51.5t53.5 18.5q60 0 99 -58.5t39 -120.5q0 -76 -42.5 -143.5t-109.5 -114.5z" />
    <glyph glyph-name="dagger" unicode="&#x2020;" horiz-adv-x="1024" 
d="M539 -135h-54q1 47 5 142t4 126q0 73 -1.5 118.5t-8.5 110t-24 119.5t-44 103q76 110 76 348q-164 -10 -293 -72q-17 53 -70 92q53 39 70 92q126 -60 293 -71q0 180 -68 289q34 15 54 31.5t34 45.5q14 -29 34 -45.5t54 -31.5q-68 -109 -68 -289q167 11 293 71
q17 -53 70 -92q-53 -39 -70 -92q-129 62 -293 72q0 -238 76 -348q-27 -48 -44 -103t-24 -119.5t-8.5 -110t-1.5 -118.5q0 -31 4 -126t5 -142z" />
    <glyph glyph-name="daggerdbl" unicode="&#x2021;" horiz-adv-x="1024" 
d="M543 -135h-62q8 20 8 65q0 241 -57 385q60 80 60 199q-166 -3 -285 -55q-16 41 -60 76q45 36 60 75q119 -52 285 -55q0 96 -14 146.5t-46 105.5q33 51 46.5 95t13.5 118q-166 -3 -285 -55q-15 39 -60 75q44 35 60 76q119 -52 285 -55q0 96 -58 207q48 28 78 71
q30 -43 78 -71q-58 -111 -58 -207q166 3 285 55q16 -41 60 -76q-45 -36 -60 -75q-119 52 -285 55q0 -74 13.5 -118t46.5 -95q-32 -55 -46 -105.5t-14 -146.5q166 3 285 55q15 -39 60 -75q-44 -35 -60 -76q-119 52 -285 55q0 -119 60 -199q-57 -144 -57 -385q0 -45 8 -65z
" />
    <glyph glyph-name="bullet" unicode="&#x2022;" horiz-adv-x="1024" 
d="M240 649q0 113 80 193t192 80t192 -80t80 -193t-80 -192.5t-192 -79.5t-192 79.5t-80 192.5z" />
    <glyph glyph-name="ellipsis" unicode="&#x2026;" horiz-adv-x="2048" 
d="M342 -27q-37 0 -60.5 22t-23.5 60t23.5 60t60.5 22t60.5 -22t23.5 -60t-23.5 -60t-60.5 -22zM1024 -27q-37 0 -60.5 22t-23.5 60t23.5 60t60.5 22t60.5 -22t23.5 -60t-23.5 -60t-60.5 -22zM1706 -27q-37 0 -60.5 22t-23.5 60t23.5 60t60.5 22t60.5 -22t23.5 -60
t-23.5 -60t-60.5 -22z" />
    <glyph glyph-name="perthousand" unicode="&#x2030;" horiz-adv-x="2275" 
d="M383 637q-86 0 -151.5 47.5t-98.5 120.5t-33 158q0 158 92.5 267t247.5 109q86 0 151.5 -47t98.5 -120t33 -158q0 -158 -92.5 -267.5t-247.5 -109.5zM420 692q99 0 151 73t52 198q0 35 -4.5 72.5t-19.5 83.5t-38 81.5t-64 59.5t-94 24q-99 0 -150.5 -72.5t-51.5 -197.5
q0 -35 4.5 -72.5t19 -83.5t37.5 -81.5t64 -60t94 -24.5zM1096 -39q-86 0 -151.5 47.5t-98.5 120.5t-33 158q0 158 92.5 267.5t247.5 109.5q86 0 151.5 -47.5t98.5 -120.5t33 -158q0 -158 -92.5 -267.5t-247.5 -109.5zM1133 16q99 0 150.5 73t51.5 198q0 28 -3.5 58.5
t-11.5 68.5t-24.5 71t-39.5 61.5t-59 45t-81 16.5q-99 0 -151 -72.5t-52 -197.5q0 -35 4.5 -72.5t19.5 -83.5t38 -81.5t64 -60t94 -24.5zM1835 -39q-86 0 -151.5 47.5t-98.5 120.5t-33 158q0 158 92.5 267.5t247.5 109.5q86 0 151.5 -47.5t98.5 -120.5t33 -158
q0 -158 -92.5 -267.5t-247.5 -109.5zM1872 16q99 0 151 73t52 198q0 35 -4.5 72.5t-19.5 83.5t-38 81.5t-64 59.5t-94 24q-99 0 -150.5 -72.5t-51.5 -197.5q0 -35 4.5 -72.5t19 -83.5t37.5 -81.5t64 -60t94 -24.5zM1155 1386h78q-105 -118 -251 -382t-270.5 -562
t-166.5 -497l-109 -41q25 159 166.5 481.5t302.5 612t250 388.5z" />
    <glyph glyph-name="guilsinglleft" unicode="&#x2039;" horiz-adv-x="681" 
d="M442 834l56 -29q-69 -217 -201 -369q133 -153 201 -368l-56 -29q-42 119 -123.5 221.5t-189.5 175.5q108 73 189.5 176t123.5 222z" />
    <glyph glyph-name="guilsinglright" unicode="&#x203a;" horiz-adv-x="681" 
d="M240 39l-56 29q68 215 201 368q-132 152 -201 369l56 29q42 -119 123.5 -222t189.5 -176q-108 -73 -189.5 -175.5t-123.5 -221.5z" />
    <glyph glyph-name="fraction" unicode="&#x2044;" horiz-adv-x="342" 
d="M547 1391h78q-105 -118 -251 -382.5t-270.5 -562.5t-166.5 -497l-109 -41q25 159 166.5 481.5t302.5 612.5t250 389z" />
    <glyph glyph-name="trademark" unicode="&#x2122;" horiz-adv-x="2027" 
d="M516 1251v-510q0 -115 6.5 -137t36.5 -22h82v-45h-354v45h86q12 0 16 3.5t4 14.5v651q-43 0 -68.5 -1t-70.5 -6.5t-74.5 -20.5t-42.5 -39q-5 -12 -7.5 -17t-6.5 -8.5t-10 -3.5q-17 0 -17 14q3 22 41 131h635q38 -109 41 -131q0 -14 -16 -14q-6 0 -10 3.5t-7.5 9
t-7.5 16.5q-13 24 -42.5 39t-74.5 20.5t-70.5 6.5t-68.5 1zM999 596v508q0 32 -0.5 49t-5 40t-12.5 34t-24 19.5t-39 8.5h-37v45h231l264 -540l228 540h213v-45h-60q-20 0 -20 -20v-487q0 -120 6.5 -143t36.5 -23h67v-45h-313v45h59q15 0 18 6.5t3 32.5v559h-4l-269 -635h-4
l-280 612h-4v-334q0 -175 6 -208t41 -33h63v-45h-243v45h57q22 0 22 14z" />
    <glyph glyph-name="minus" unicode="&#x2212;" 
d="M94 383v106h875v-106h-875z" />
    <glyph glyph-name="fi" unicode="&#xfb01;" horiz-adv-x="1099" 
d="M328 872h274q4 0 143 17q126 16 142 16v-547q0 -82 0.5 -130.5t5 -86.5t8.5 -54t16.5 -26t22.5 -11t33 -1h82v-49h-402v49h76q39 0 39 21v571q0 66 -3.5 105t-12.5 55t-16.5 19t-24.5 3h-383v-465q0 -82 0.5 -130.5t5 -86.5t8.5 -54t16.5 -26t22.5 -11t33 -1h100v-49
h-420v49h76q39 0 39 21v753h-123v49h123v218q0 84 26 150.5t66.5 106t93 66t100.5 36t95 9.5q70 0 125 -10.5t85 -26t49.5 -33.5t25.5 -31t6 -22q0 -45 -56 -45q-59 0 -114 80q-40 33 -119 33q-129 0 -196.5 -71.5t-67.5 -178.5v-281z" />
    <glyph glyph-name="fl" unicode="&#xfb02;" horiz-adv-x="1099" 
d="M86 823v49h123v293q0 58 15 104.5t37.5 76.5t55.5 52t63 33t65.5 17.5t57 8t44.5 1.5q111 0 209 -45l137 31v-1086q0 -82 0.5 -130.5t5 -86.5t8.5 -54t16.5 -26t22.5 -11t33 -1h82v-49h-402v49h76q39 0 39 21v1104q0 36 -3.5 63.5t-17.5 60.5t-39 54.5t-70.5 36
t-108.5 14.5q-28 0 -57.5 -7.5t-66 -26.5t-60 -62t-23.5 -105v-330h166v-49h-166v-465q0 -82 0.5 -130.5t5 -86.5t8.5 -54t16.5 -26t22.5 -11t33 -1h82v-49h-402v49h76q39 0 39 21v753h-123z" />
    </font>
</defs>
</svg>
