<?xml version="1.0" standalone="no"?>
<!DOCTYPE svg PUBLIC "-//W3C//DTD SVG 1.1//EN" "http://www.w3.org/Graphics/SVG/1.1/DTD/svg11.dtd" >
<svg xmlns="http://www.w3.org/2000/svg" xmlns:xlink="http://www.w3.org/1999/xlink" version="1.1">
<metadata>
Created by FontForge 20170731 at Thu Jan  5 10:09:33 2023
 By Aleksey,,,
Copyright (c) 1988, 1990, 1993, 2002 Adobe Systems Incorporated.  All Rights Reserved. (c) 1981, 2002 Heidelberger Druckmaschinen AG. All rights reserved.
</metadata>
<defs>
<font id="HelveticaNeueLTStd-Hv" horiz-adv-x="1290" >
  <font-face 
    font-family="HelveticaNeueLT Std Med"
    font-weight="750"
    font-stretch="normal"
    units-per-em="2048"
    panose-1="2 11 8 4 2 2 2 2 2 4"
    ascent="1462"
    descent="-586"
    x-height="1063"
    cap-height="1462"
    bbox="-346 -479 2245 1948"
    underline-thickness="102"
    underline-position="-307"
    unicode-range="U+0020-FB02"
  />
<missing-glyph horiz-adv-x="1024" 
d="M0 0v1434h1024v-1434h-1024zM512 809l348 522h-696zM573 717l349 -522v1044zM164 102h696l-348 523zM102 1239v-1044l349 522z" />
    <glyph glyph-name="fi" unicode="fi" horiz-adv-x="1327" 
d="M850 0v1063h348v-1063h-348zM1198 1462v-266h-348v266h348zM193 0v838h-168v225h168q0 227 89 313t314 86q3 0 168 -6v-246q-58 7 -94 7q-68 0 -98.5 -20t-30.5 -87v-47h209v-225h-209v-838h-348z" />
    <glyph glyph-name="fl" unicode="fl" horiz-adv-x="1327" 
d="M193 0v838h-168v225h168q0 227 89 313t314 86q3 0 168 -6v-246q-58 7 -94 7q-68 0 -98.5 -20t-30.5 -87v-47h209v-225h-209v-838h-348zM1198 1462v-1462h-348v1462h348z" />
    <glyph glyph-name=".notdef" horiz-adv-x="1024" 
d="M0 0v1434h1024v-1434h-1024zM512 809l348 522h-696zM573 717l349 -522v1044zM164 102h696l-348 523zM102 1239v-1044l349 522z" />
    <glyph glyph-name=".null" horiz-adv-x="0" 
 />
    <glyph glyph-name="nonmarkingreturn" horiz-adv-x="682" 
 />
    <glyph glyph-name="space" unicode=" " horiz-adv-x="645" 
 />
    <glyph glyph-name="exclam" unicode="!" horiz-adv-x="606" 
d="M483 1462v-362l-94 -617h-170l-94 617v362h358zM113 0v381h381v-381h-381z" />
    <glyph glyph-name="quotedbl" unicode="&#x22;" horiz-adv-x="1024" 
d="M602 725v737h295v-737h-295zM127 725v737h295v-737h-295z" />
    <glyph glyph-name="numbersign" unicode="#" 
d="M1087 604v-215h-157l-53 -389h-236l53 389h-166l-53 -389h-235l53 389h-152v215h183l30 225h-151v215h182l53 383h236l-53 -383h165l54 383h235l-53 -383h127v-215h-158l-30 -225h126zM756 829h-166l-31 -225h166z" />
    <glyph glyph-name="dollar" unicode="$" 
d="M707 557v-293q79 5 136.5 40t57.5 102q0 56 -48.5 90t-145.5 61zM610 936v262q-72 -2 -124 -33.5t-52 -99.5q0 -46 44.5 -75.5t131.5 -53.5zM707 1677v-186q84 -5 159.5 -25t143 -59t117 -92.5t78.5 -131t30 -169.5h-381q5 141 -147 176v-279q128 -33 151 -39
q71 -20 126 -41t113.5 -56.5t97 -78t63 -106t24.5 -139.5q0 -100 -31.5 -180t-84.5 -134t-127.5 -91.5t-156.5 -55t-175 -21.5v-184h-97v184q-126 4 -231 34.5t-189 90.5t-131.5 159t-48.5 230h381q6 -106 61.5 -158t157.5 -63v322q-71 19 -129 34q-71 20 -125.5 41
t-114.5 56t-98.5 77.5t-64 106.5t-25.5 141q0 91 32.5 166.5t86.5 126.5t127 86.5t150.5 53t160.5 20.5v184h97z" />
    <glyph glyph-name="percent" unicode="%" horiz-adv-x="2086" 
d="M393 1053q0 -29 0.5 -46t3.5 -48.5t10.5 -51.5t19 -41.5t32 -32t47.5 -10.5q23 0 41 9t29.5 22t19.5 35t12 39t6 45t2 41.5v38.5v38.5t-2 41.5t-6 44.5t-12 39t-19.5 35t-29.5 21.5t-41 9q-27 0 -47.5 -10.5t-32 -32t-19 -41t-10.5 -51t-3.5 -48.5t-0.5 -46zM154 1053
q2 176 91.5 284.5t260.5 108.5q176 0 263 -104.5t87 -288.5q0 -182 -85.5 -288.5t-264.5 -105.5q-177 -1 -263.5 106t-88.5 288zM1233 375q2 176 91.5 284.5t260.5 108.5q176 0 263 -104.5t87 -288.5q0 -182 -85.5 -288t-264.5 -105q-178 -1 -264 105.5t-88 287.5zM1473 375
q0 -30 0.5 -46t3 -48t10 -51.5t19 -41.5t32 -32.5t47.5 -10.5q23 0 41 9t29.5 22t19.5 35t12 39.5t6 44.5t2.5 41.5t0.5 38.5q0 29 -0.5 46t-3.5 48.5t-10 51t-18.5 41t-31.5 32t-47 10.5t-47.5 -10.5t-32 -32t-19 -41t-10 -51.5t-3 -48t-0.5 -46zM735 -55h-203l828 1538
h203z" />
    <glyph glyph-name="ampersand" unicode="&#x26;" horiz-adv-x="1478" 
d="M793 356l-218 256q-66 -30 -117.5 -81t-51.5 -111q0 -73 58.5 -120.5t133.5 -47.5q83 0 195 104zM1079 0l-102 123q-96 -79 -197 -116.5t-223 -37.5q-131 0 -241 54t-178 157.5t-68 235.5q0 61 18 116.5t48 100t73 84t90 69.5t102 56q-129 143 -129 280q0 109 61 195.5
t155.5 131t201.5 44.5q110 0 204 -45.5t152 -133t58 -200.5q0 -234 -250 -362l152 -183q44 65 53 144h299q-9 -98 -51.5 -191.5t-110.5 -165.5l307 -356h-424zM684 954q64 38 99.5 79.5t35.5 101.5q0 52 -34 82t-89 30q-47 0 -80.5 -31t-33.5 -77q0 -28 11.5 -56.5t21 -42.5
t36.5 -46t33 -40z" />
    <glyph glyph-name="quotesingle" unicode="'" horiz-adv-x="606" 
d="M156 725v737h295v-737h-295z" />
    <glyph glyph-name="parenleft" unicode="(" horiz-adv-x="606" 
d="M330 1493h295q-234 -484 -226 -932q-8 -433 226 -917h-295q-133 262 -192.5 464t-63.5 453q4 261 63 465t193 467z" />
    <glyph glyph-name="parenright" unicode=")" horiz-adv-x="606" 
d="M-18 1493h294q134 -263 193 -467t63 -465q-4 -251 -63.5 -453t-192.5 -464h-294q233 482 225 917q8 450 -225 932z" />
    <glyph glyph-name="asterisk" unicode="*" horiz-adv-x="909" 
d="M608 1022l158 -211l-162 -121l-153 219l-152 -219l-160 119l162 213l-250 78l64 190l237 -90v262h203v-262l238 90l63 -190z" />
    <glyph glyph-name="plus" unicode="+" horiz-adv-x="1228" 
d="M467 666v370h295v-370h368v-295h-368v-371h-295v371h-369v295h369z" />
    <glyph glyph-name="comma" unicode="," horiz-adv-x="647" 
d="M133 0v381h381v-338q0 -84 -25.5 -152t-64 -110.5t-91 -73t-101 -44.5t-99.5 -19v163q82 21 120.5 66.5t47.5 126.5h-168z" />
    <glyph glyph-name="hyphen" unicode="-" horiz-adv-x="833" 
d="M735 410h-637v295h637v-295z" />
    <glyph glyph-name="period" unicode="." horiz-adv-x="647" 
d="M133 0v381h381v-381h-381z" />
    <glyph glyph-name="slash" unicode="/" horiz-adv-x="833" 
d="M-18 -31l550 1524h320l-551 -1524h-319z" />
    <glyph glyph-name="zero" unicode="0" 
d="M645 264q48 0 85.5 16t61.5 40t41.5 64t26.5 75t14 86.5t6 85.5t1 84t-1 84t-6 85t-14 86t-26.5 74.5t-41.5 63t-61.5 39.5t-85.5 16q-46 0 -82.5 -15.5t-60.5 -40t-41.5 -63t-26.5 -74.5t-14.5 -85.5t-6.5 -85.5t-1 -84t1 -84t6.5 -86t14.5 -86.5t26.5 -75t41.5 -63
t60.5 -40.5t82.5 -16zM635 -18q-118 0 -213.5 40t-159 108t-106 162.5t-61.5 199.5t-19 223t19 222.5t61.5 199t106 162.5t159 107.5t213.5 39.5q122 0 220.5 -39.5t165 -107.5t111.5 -162t65 -199.5t20 -222.5t-20 -222.5t-65 -200t-111.5 -162.5t-165 -108t-220.5 -40z
" />
    <glyph glyph-name="one" unicode="1" 
d="M557 877h-342v256q79 -2 149.5 13t131 47.5t98.5 92.5t43 141h289v-1427h-369v877z" />
    <glyph glyph-name="two" unicode="2" 
d="M1210 0h-1144q2 137 59.5 260.5t163.5 214.5q56 48 114.5 88.5t152.5 97t106 64.5q92 61 139 116t47 122q0 83 -50 130.5t-134 47.5q-234 0 -238 -289h-326q-15 266 140 430t422 164q108 0 203 -28.5t169.5 -83t118 -142.5t43.5 -199q0 -54 -11 -102t-27 -85.5
t-46.5 -74.5t-56.5 -62.5t-70 -57t-75 -51t-83 -51.5q-8 -5 -12.5 -7.5t-11 -6.5t-12.5 -8q-133 -83 -182 -123q-37 -30 -77 -69h678v-295z" />
    <glyph glyph-name="three" unicode="3" 
d="M526 631v241q16 1 46 -1t46 -1q43 0 80 6.5t73.5 22t57.5 46.5t21 75q0 67 -58.5 105t-146.5 38q-106 0 -164 -53t-57 -149h-326q6 232 157 358.5t388 126.5q78 0 151 -13t143.5 -43t122.5 -74t84 -112.5t32 -152.5q0 -100 -53 -181.5t-146 -97.5v-4q121 -32 182.5 -116
t61.5 -212q0 -117 -50 -207.5t-133.5 -143.5t-184 -80t-210.5 -27q-128 0 -235.5 33t-189 97t-124 168t-35.5 238h326q-3 -128 60.5 -191t195.5 -63q98 0 164.5 44t66.5 132q0 57 -19.5 96.5t-56 60.5t-79.5 29.5t-99 8.5q-30 0 -92 -4z" />
    <glyph glyph-name="four" unicode="4" 
d="M1036 612h187v-295h-187v-317h-348v317h-625v326l639 784h334v-815zM334 612h364v461h-4z" />
    <glyph glyph-name="five" unicode="5" 
d="M45 442h348q1 -54 37 -95.5t87.5 -62t105.5 -20.5q103 0 170 63.5t67 166.5q0 106 -60 170.5t-165 64.5q-79 0 -133.5 -23.5t-93.5 -84.5h-316l139 806h902v-294h-633l-54 -261h5q106 103 278 103q222 0 350.5 -122.5t128.5 -342.5q0 -129 -44.5 -230.5t-123.5 -166
t-185 -98t-232 -33.5q-96 0 -178 15t-154 49t-123.5 86t-84 131t-38.5 179z" />
    <glyph glyph-name="six" unicode="6" 
d="M424 485q0 -94 62.5 -157.5t162.5 -63.5q106 0 174 64.5t68 154.5q0 104 -64.5 172t-179.5 68q-97 0 -160 -69t-63 -169zM1198 1057h-326q-16 77 -71 110q-42 23 -101 23q-58 0 -105.5 -22.5t-79 -58.5t-53.5 -84.5t-32.5 -97.5t-13.5 -100h4q92 152 334 152
q195 0 329 -137.5t134 -333.5q0 -165 -79 -286t-207 -180.5t-286 -59.5q-123 0 -221 40.5t-162 108.5t-107 162t-61 196t-18 216q0 122 23 230.5t72.5 202.5t122 162t176.5 107t230 39q197 0 331 -99.5t167 -289.5z" />
    <glyph glyph-name="seven" unicode="7" 
d="M123 1112v315h1038v-280q-53 -44 -146 -179t-159 -282q-145 -312 -149 -686h-375q7 146 53 330t135 356q66 147 155.5 270.5t131.5 151.5v4h-684z" />
    <glyph glyph-name="eight" unicode="8" 
d="M649 643q-101 0 -171 -53t-70 -152t69 -149.5t170 -50.5q100 0 169 49.5t69 150.5q0 95 -67 150t-169 55zM59 420q0 126 76.5 221t198.5 117v4q-100 24 -156.5 104.5t-56.5 186.5q0 82 32 149.5t85 111.5t123 74.5t142.5 44t147.5 13.5q96 0 185.5 -22.5t167.5 -67.5
t125 -124t47 -181q0 -101 -58 -184.5t-153 -104.5v-4q124 -25 196 -114.5t72 -223.5q0 -91 -34 -166t-90 -124.5t-132 -83.5t-158 -49t-170 -15q-89 0 -170 13t-159 45.5t-134.5 81t-91.5 125t-35 173.5zM647 1190q-95 0 -156 -40t-61 -124q0 -60 33.5 -99.5t79.5 -54
t104 -14.5q55 0 102.5 15.5t82 55t34.5 97.5q0 82 -63 123t-156 41z" />
    <glyph glyph-name="nine" unicode="9" 
d="M631 702q107 0 172 67t65 167q0 98 -64.5 162.5t-174.5 64.5q-97 0 -162.5 -66t-65.5 -157q0 -102 62.5 -170t167.5 -68zM94 371h326q12 -69 69 -101q49 -32 123 -32q68 0 119 29.5t81.5 81.5t46 114.5t18.5 136.5h-5q-44 -78 -131 -116t-188 -38q-211 0 -344 137.5
t-133 348.5q0 149 75 267.5t199.5 182.5t272.5 64q122 0 221.5 -36t168 -99.5t115 -151.5t68 -191t21.5 -220q0 -127 -21 -238t-68.5 -209t-118.5 -168t-177.5 -110.5t-239.5 -40.5q-200 0 -331 98t-167 291z" />
    <glyph glyph-name="colon" unicode=":" horiz-adv-x="647" 
d="M514 1063v-381h-381v381h381zM133 0v381h381v-381h-381z" />
    <glyph glyph-name="semicolon" unicode=";" horiz-adv-x="647" 
d="M133 0v381h381v-338q0 -85 -25 -153t-64 -111t-91.5 -73t-101 -43.5t-99.5 -18.5v163q82 21 120.5 66.5t47.5 126.5h-168zM514 1063v-381h-381v381h381z" />
    <glyph glyph-name="less" unicode="&#x3c;" horiz-adv-x="1228" 
d="M1135 -16l-1041 389v291l1041 389v-316l-629 -217v-4l629 -217v-315z" />
    <glyph glyph-name="equal" unicode="=" horiz-adv-x="1228" 
d="M1130 920v-295h-1032v295h1032zM1130 412v-295h-1032v295h1032z" />
    <glyph glyph-name="greater" unicode="&#x3e;" horiz-adv-x="1228" 
d="M94 -16v315l629 217v4l-629 217v316l1041 -389v-291z" />
    <glyph glyph-name="question" unicode="?" horiz-adv-x="1175" 
d="M422 983h-359q3 240 148.5 375t388.5 135q78 0 151.5 -16t139 -50t115 -82.5t78 -118t28.5 -151.5q0 -58 -12.5 -105.5t-30.5 -81t-54 -67.5t-68 -56.5t-87 -57.5q-83 -55 -108.5 -95t-26.5 -129h-324v103q0 57 14 102.5t42 80.5t50.5 54.5t59.5 46.5q5 3 27 18t28 19.5
t24.5 17.5t24 20t19 20t18 23t11.5 24.5t9.5 29t2.5 31.5q0 57 -38 91t-95 34q-83 0 -127 -46t-49 -130v-39zM373 0v381h381v-381h-381z" />
    <glyph glyph-name="at" unicode="@" horiz-adv-x="1638" 
d="M791 516q93 0 150.5 62.5t57.5 152.5q0 74 -44 120t-117 46q-86 0 -144.5 -65t-58.5 -148q0 -73 41.5 -120.5t114.5 -47.5zM1059 999l18 99h193l-90 -488q-26 -112 14 -112q74 0 132 79.5t58 231.5q0 239 -147.5 367.5t-388.5 128.5q-252 0 -404.5 -160.5t-152.5 -415.5
q0 -264 164 -417.5t428 -153.5q228 0 387 121h200q-109 -151 -263 -230.5t-341 -79.5q-217 0 -398 96.5t-288.5 271.5t-107.5 392q0 160 62 302.5t167 243.5t249 159.5t304 58.5q108 0 212.5 -27.5t194.5 -81.5t158.5 -128t108 -172.5t39.5 -209.5q0 -133 -41.5 -240.5
t-101.5 -171t-133 -106t-130.5 -58t-99.5 -15.5q-58 0 -92 25.5t-35 74.5h-4q-76 -102 -197 -102q-134 0 -236 109.5t-102 260.5q0 121 50 227t145.5 173t216.5 67q166 0 252 -119z" />
    <glyph glyph-name="A" unicode="A" horiz-adv-x="1441" 
d="M719 1057l-166 -512h332l-162 512h-4zM-18 0l546 1462h387l547 -1462h-397l-90 262h-510l-92 -262h-391z" />
    <glyph glyph-name="B" unicode="B" horiz-adv-x="1478" 
d="M512 641v-336h305q205 0 205 164q0 172 -205 172h-305zM131 0v1462h684q82 1 152.5 -7t141.5 -32.5t121 -64.5t81.5 -107t31.5 -155q0 -96 -52 -173.5t-140 -121.5q116 -34 184 -127.5t68 -218.5q0 -102 -29.5 -181t-80 -130t-124 -84t-155.5 -46.5t-180 -13.5h-703z
M512 1167v-280h295q37 0 70.5 12t59.5 45t26 82q0 74 -44.5 107.5t-111.5 33.5h-295z" />
    <glyph glyph-name="C" unicode="C" horiz-adv-x="1554" 
d="M1483 940h-381q-15 108 -94 166.5t-201 58.5q-71 0 -129.5 -24.5t-97 -65.5t-64.5 -97.5t-37.5 -118t-11.5 -128.5t11.5 -128.5t37.5 -118t64.5 -97.5t97 -65.5t129.5 -24.5q132 0 208 71t87 199h381q-10 -185 -99 -321.5t-236 -206.5t-333 -70q-162 0 -299.5 59.5
t-231 162.5t-146 242.5t-52.5 297.5t52.5 297.5t146 242.5t231 162.5t299.5 59.5q95 0 189.5 -23.5t179 -70.5t150.5 -112t106 -155t43 -192z" />
    <glyph glyph-name="D" unicode="D" horiz-adv-x="1554" 
d="M131 0v1462h629q337 0 527 -192.5t190 -532.5q0 -355 -190 -546t-527 -191h-629zM512 1135v-807h180q218 5 311 98.5t93 312.5q0 197 -103.5 296.5t-300.5 99.5h-180z" />
    <glyph glyph-name="E" unicode="E" horiz-adv-x="1402" 
d="M131 0v1462h1165v-305h-784v-256h717v-295h-717v-278h805v-328h-1186z" />
    <glyph glyph-name="F" unicode="F" horiz-adv-x="1251" 
d="M131 0v1462h1077v-305h-696v-299h602v-295h-602v-563h-381z" />
    <glyph glyph-name="G" unicode="G" horiz-adv-x="1593" 
d="M1481 801v-801h-246l-23 160q-70 -98 -181.5 -144.5t-225.5 -46.5q-162 0 -299.5 59.5t-231 162.5t-146 242.5t-52.5 297.5t52.5 297.5t146 242.5t231 162.5t299.5 59.5q93 0 182 -19.5t171.5 -61.5t147 -102.5t107.5 -149t53 -195.5h-381q-9 92 -89.5 146t-198.5 54
q-71 0 -129.5 -24.5t-97 -65.5t-64.5 -97.5t-37.5 -118t-11.5 -128.5t11.5 -128.5t37.5 -118t64.5 -97.5t97 -65.5t129.5 -24.5q140 0 230.5 60t105.5 161h-267v283h615z" />
    <glyph glyph-name="H" unicode="H" horiz-adv-x="1517" 
d="M127 0v1462h381v-532h502v532h381v-1462h-381v602h-502v-602h-381z" />
    <glyph glyph-name="I" unicode="I" horiz-adv-x="645" 
d="M131 0v1462h381v-1462h-381z" />
    <glyph glyph-name="J" unicode="J" horiz-adv-x="1214" 
d="M1081 1462v-999q0 -494 -512 -494q-114 0 -201.5 26t-146 73t-95.5 116.5t-53 151t-16 182.5v64h359v-136q0 -72 38 -110.5t109 -38.5q69 0 103 44t34 146v975h381z" />
    <glyph glyph-name="K" unicode="K" horiz-adv-x="1517" 
d="M131 0v1462h381v-561l481 561h473l-540 -575l608 -887h-473l-393 614l-156 -163v-451h-381z" />
    <glyph glyph-name="L" unicode="L" horiz-adv-x="1251" 
d="M131 0v1462h381v-1134h682v-328h-1063z" />
    <glyph glyph-name="M" unicode="M" horiz-adv-x="1896" 
d="M133 0v1462h561l252 -975h4l252 975h561v-1462h-358v1110h-4l-307 -1110h-291l-307 1110h-4v-1110h-359z" />
    <glyph glyph-name="N" unicode="N" horiz-adv-x="1517" 
d="M127 0v1462h391l508 -901h4v901h359v-1462h-392l-508 911h-4v-911h-358z" />
    <glyph glyph-name="O" unicode="O" horiz-adv-x="1593" 
d="M76 731q0 160 48.5 298t138.5 241.5t227.5 163t306.5 59.5t306.5 -59.5t227.5 -163t138.5 -241.5t48.5 -298t-48.5 -298t-138.5 -241.5t-227.5 -163t-306.5 -59.5t-306.5 59.5t-227.5 163t-138.5 241.5t-48.5 298zM457 731q0 -67 11.5 -128.5t37.5 -118t64.5 -97.5
t97 -65.5t129.5 -24.5t129.5 24.5t97 65.5t64.5 97.5t37.5 118t11.5 128.5t-11.5 128.5t-37.5 118t-64.5 97.5t-97 65.5t-129.5 24.5t-129.5 -24.5t-97 -65.5t-64.5 -97.5t-37.5 -118t-11.5 -128.5z" />
    <glyph glyph-name="P" unicode="P" horiz-adv-x="1402" 
d="M131 0v1462h694q84 0 159.5 -15.5t144 -51t118 -89t78.5 -134t29 -181.5q0 -504 -529 -504h-313v-487h-381zM512 1157v-375h256q95 0 150 44t55 139q0 98 -56 145t-149 47h-256z" />
    <glyph glyph-name="Q" unicode="Q" horiz-adv-x="1593" 
d="M1511 29l-174 -181l-200 197q-149 -76 -340 -76q-169 0 -306.5 59.5t-227.5 163t-138.5 241.5t-48.5 298t48.5 298t138.5 241.5t227.5 163t306.5 59.5t306.5 -59.5t227.5 -163t138.5 -241.5t48.5 -298q0 -321 -183 -532zM758 418l170 178l143 -139q66 110 66 274
q0 67 -11.5 128.5t-37.5 118t-64.5 97.5t-97 65.5t-129.5 24.5t-129.5 -24.5t-97 -65.5t-64.5 -97.5t-37.5 -118t-11.5 -128.5t11.5 -128.5t37.5 -118t64.5 -97.5t97 -65.5t129.5 -24.5q44 0 75 8z" />
    <glyph glyph-name="R" unicode="R" horiz-adv-x="1478" 
d="M131 0v1462h746q101 0 189.5 -23.5t162.5 -71t117 -129t43 -187.5q0 -124 -59.5 -224t-170.5 -143v-4q187 -44 213 -350q0 -2 2 -33.5t3.5 -50t4.5 -54t7.5 -60.5t10.5 -53t15 -48t19 -31h-377q-9 14 -16.5 38t-12 54.5t-7 53.5t-5 53t-2.5 34q-4 52 -9 88.5t-19 79.5
t-36 69t-60 44t-89 18h-289v-532h-381zM512 1157v-330h319q86 0 131.5 44.5t45.5 127.5q0 78 -54 118t-139 40h-303z" />
    <glyph glyph-name="S" unicode="S" horiz-adv-x="1366" 
d="M47 492h381q6 -123 77 -175.5t200 -52.5q97 0 165 37t68 113q0 27 -11.5 49t-36 39.5t-50.5 30.5t-69 26t-76.5 22t-87.5 22.5t-89 23.5q-71 20 -125.5 41t-114.5 56t-98.5 77.5t-64 106.5t-25.5 141q0 92 36 168t95 126.5t137 85t160.5 49.5t167.5 15q89 0 172.5 -17
t159 -54t131.5 -91t89 -133.5t34 -175.5h-381q3 63 -33 104t-87.5 56.5t-115.5 15.5q-46 0 -85 -10.5t-69 -40t-30 -74.5q0 -24 11.5 -43t36 -34.5t52 -27t69 -23t77.5 -20t88 -21.5t90 -23q71 -20 126 -41.5t113.5 -56.5t97 -78t63 -106.5t24.5 -139.5q0 -108 -35.5 -193
t-95.5 -140t-143 -91t-172.5 -51t-190.5 -15q-103 0 -195 18t-173 58.5t-139.5 100t-92.5 148.5t-35 198z" />
    <glyph glyph-name="T" unicode="T" horiz-adv-x="1327" 
d="M1290 1462v-327h-436v-1135h-381v1135h-436v327h1253z" />
    <glyph glyph-name="U" unicode="U" horiz-adv-x="1517" 
d="M1395 1462v-858q0 -321 -154.5 -478t-482.5 -157t-482.5 157t-154.5 478v858h381v-880q0 -145 60 -215t196 -70t196 70t60 215v880h381z" />
    <glyph glyph-name="V" unicode="V" horiz-adv-x="1327" 
d="M1350 1462l-473 -1462h-439l-461 1462h398l287 -1087h4l286 1087h398z" />
    <glyph glyph-name="W" unicode="W" horiz-adv-x="1972" 
d="M1972 1462l-403 -1462h-381l-201 1008h-4l-201 -1008h-387l-395 1462h381l207 -1069h4l215 1069h358l215 -1069h4l207 1069h381z" />
    <glyph glyph-name="X" unicode="X" horiz-adv-x="1441" 
d="M-16 0l520 768l-477 694h448l246 -454l260 454h434l-473 -694l516 -768h-463l-274 487l-299 -487h-438z" />
    <glyph glyph-name="Y" unicode="Y" horiz-adv-x="1366" 
d="M1407 1462l-533 -917v-545h-380v545l-533 917h432l291 -594l291 594h432z" />
    <glyph glyph-name="Z" unicode="Z" horiz-adv-x="1366" 
d="M49 0v311l750 824h-705v327h1196v-295l-768 -839h795v-328h-1268z" />
    <glyph glyph-name="bracketleft" unicode="[" horiz-adv-x="757" 
d="M141 -356v1849h602v-295h-276v-1259h276v-295h-602z" />
    <glyph glyph-name="backslash" unicode="\" horiz-adv-x="833" 
d="M301 1493l551 -1524h-320l-550 1524h319z" />
    <glyph glyph-name="bracketright" unicode="]" horiz-adv-x="757" 
d="M616 1493v-1849h-602v295h277v1259h-277v295h602z" />
    <glyph glyph-name="asciicircum" unicode="^" horiz-adv-x="1228" 
d="M422 680h-326l332 747h373l332 -747h-328l-191 487z" />
    <glyph glyph-name="underscore" unicode="_" horiz-adv-x="1024" 
d="M1024 -256h-1024v102h1024v-102z" />
    <glyph glyph-name="grave" unicode="`" horiz-adv-x="606" 
d="M297 1483l199 -305h-246l-322 305h369z" />
    <glyph glyph-name="a" unicode="a" horiz-adv-x="1214" 
d="M408 305q0 -61 41 -91t104 -30q123 0 171 73.5t42 240.5q-22 -14 -56.5 -23.5t-84 -18.5t-74.5 -16q-67 -15 -105 -46t-38 -89zM428 735h-326q8 193 166 285q131 74 338 74q83 0 149.5 -8t133.5 -31.5t112 -61.5t73 -103.5t28 -152.5v-465q0 -61 1.5 -95t11 -86t28.5 -91
h-350q-14 38 -21 100q-64 -67 -156 -99t-194 -32q-161 0 -262 82.5t-101 239.5q0 63 17 113t45 83.5t70.5 59t85.5 40t99.5 26t102 17t104 13.5t95.5 16q48 10 70 31t22 68q0 37 -28 63.5t-64.5 36.5t-75.5 10q-150 0 -174 -133z" />
    <glyph glyph-name="b" unicode="b" 
d="M117 0v1462h348v-516h4q109 148 303 148q109 0 196.5 -45t141.5 -121.5t82.5 -171.5t28.5 -201q0 -116 -28 -218.5t-84 -186t-149.5 -132.5t-214.5 -49q-187 0 -292 154h-4v-123h-332zM666 827q-38 0 -73.5 -14t-68 -45t-52 -89t-19.5 -136q0 -148 49 -227.5t162 -79.5
q74 0 122.5 48t67 114t18.5 145q0 54 -11 102t-34 90t-64.5 67t-96.5 25z" />
    <glyph glyph-name="c" unicode="c" horiz-adv-x="1214" 
d="M1147 674h-338q-1 66 -51.5 109.5t-118.5 43.5q-56 0 -98 -19t-65.5 -48.5t-38 -72.5t-19 -83.5t-4.5 -89.5q0 -73 20 -133.5t68.5 -102.5t118.5 -42q172 0 198 182h338q-23 -210 -170 -329.5t-364 -119.5q-242 0 -399.5 151.5t-157.5 393.5q0 257 152 418.5t405 161.5
q100 0 190 -26.5t161.5 -77.5t117.5 -132.5t55 -183.5z" />
    <glyph glyph-name="d" unicode="d" 
d="M627 827q-57 0 -100 -25t-67 -67t-35 -90t-11 -102q0 -58 11 -110t35 -97.5t67 -72.5t100 -27q61 0 103.5 26.5t64 72t30.5 93.5t9 104q0 60 -11.5 111.5t-35 93.5t-64.5 66t-96 24zM1169 1462v-1462h-331v123h-4q-105 -154 -293 -154q-97 0 -177 32.5t-134.5 87.5
t-92 130.5t-54.5 159.5t-17 176q0 106 28.5 201t82 171.5t141 121.5t196.5 45q194 0 303 -146h4v514h348z" />
    <glyph glyph-name="e" unicode="e" horiz-adv-x="1251" 
d="M414 641h432q-5 91 -63 154t-144 63q-91 0 -150.5 -59t-74.5 -158zM1194 446h-780q5 -111 67 -176t170 -65q66 0 120.5 30.5t78.5 86.5h326q-30 -118 -112 -199.5t-187.5 -117.5t-229.5 -36q-263 0 -422 151t-159 415q0 159 78 288t208.5 200t286.5 71q139 0 249 -50.5
t178 -138.5t101 -205.5t27 -253.5z" />
    <glyph glyph-name="f" unicode="f" horiz-adv-x="757" 
d="M193 0v838h-168v225h168q0 227 89 313t314 86q3 0 168 -6v-246q-58 7 -94 7q-68 0 -98.5 -20t-30.5 -87v-47h209v-225h-209v-838h-348z" />
    <glyph glyph-name="g" unicode="g" horiz-adv-x="1251" 
d="M815 559q0 53 -11 99t-34.5 85t-65.5 61.5t-98 22.5q-73 0 -120.5 -40.5t-65 -97.5t-17.5 -128q0 -104 50.5 -177t150.5 -73q104 0 157.5 70.5t53.5 177.5zM1145 1063v-934q0 -45 -3 -83t-15.5 -92t-33.5 -96.5t-61 -87.5t-94.5 -74.5t-137.5 -49t-186 -19.5
q-81 0 -146.5 8t-132 30t-114 59t-82.5 98.5t-47 144.5h348q12 -69 60 -92q43 -22 127 -22q60 0 98 19t55.5 57t23 76t5.5 95v101h-4q-47 -73 -122.5 -114.5t-160.5 -41.5q-118 0 -208.5 40t-146.5 112t-84 167t-28 209q0 144 53 260.5t160.5 188.5t253.5 72q193 0 285 -164
h4v133h334z" />
    <glyph glyph-name="h" unicode="h" 
d="M117 0v1462h348v-544h4q38 79 131.5 127.5t192.5 48.5q101 0 175 -29t113 -70.5t61.5 -102.5t28 -107t5.5 -103v-682h-349v514v31v58t-3 52t-9.5 50.5t-19 40t-31 34t-46.5 19.5t-65 8q-93 0 -140.5 -65.5t-47.5 -161.5v-580h-348z" />
    <glyph glyph-name="i" unicode="i" horiz-adv-x="606" 
d="M129 0v1063h348v-1063h-348zM477 1462v-266h-348v266h348z" />
    <glyph glyph-name="j" unicode="j" horiz-adv-x="606" 
d="M477 1063v-1063q0 -197 -82 -276.5t-270 -79.5h-176v282h69q57 2 84 23.5t27 75.5v1038h348zM477 1462v-266h-348v266h348z" />
    <glyph glyph-name="k" unicode="k" horiz-adv-x="1214" 
d="M117 0v1462h348v-753l317 354h404l-389 -401l438 -662h-420l-260 428l-90 -88v-340h-348z" />
    <glyph glyph-name="l" unicode="l" horiz-adv-x="606" 
d="M129 0v1462h348v-1462h-348z" />
    <glyph glyph-name="m" unicode="m" horiz-adv-x="1896" 
d="M117 0v1063h338v-145h4q48 81 129 128.5t176 47.5q233 0 309 -172q128 172 332 172q70 0 127 -15t95.5 -40t67 -62.5t44.5 -75.5t25.5 -87t12.5 -89.5t3 -89.5v-635h-348v625q0 86 -39 134t-107 48q-44 0 -74.5 -14t-48 -36.5t-27 -62t-12 -77.5t-2.5 -97v-520h-348v604
q0 203 -131 203q-95 0 -136.5 -64.5t-41.5 -224.5v-518h-348z" />
    <glyph glyph-name="n" unicode="n" 
d="M117 0v1063h338v-145h4q46 80 141 128t193 48q101 0 175 -29t113 -70.5t61.5 -102.5t28 -107t5.5 -103v-682h-349v514v31v58t-3 52t-9.5 50.5t-19 40t-31 34t-46.5 19.5t-65 8q-93 0 -140.5 -65.5t-47.5 -161.5v-580h-348z" />
    <glyph glyph-name="o" unicode="o" horiz-adv-x="1251" 
d="M414 530q0 -54 10.5 -103.5t33.5 -93.5t66 -70.5t101 -26.5t101 26.5t66.5 70.5t34.5 93.5t11 103.5t-11 104t-34.5 94.5t-66.5 71.5t-101 27t-101 -27t-66 -71.5t-33.5 -94.5t-10.5 -104zM66 530q0 158 70 286.5t198.5 203t290.5 74.5q122 0 226.5 -43.5t178 -118.5
t115 -179.5t41.5 -222.5q0 -158 -71 -286t-199.5 -201.5t-290.5 -73.5q-245 0 -402 160t-157 401z" />
    <glyph glyph-name="p" unicode="p" 
d="M666 827q-38 0 -73.5 -14t-68 -45t-52 -89t-19.5 -136q0 -148 49 -227.5t162 -79.5q74 0 122.5 48t67 114t18.5 145q0 54 -11 102t-34 90t-64.5 67t-96.5 25zM117 -356v1419h332v-123h4q105 154 292 154q121 0 214.5 -49t149.5 -132.5t84 -186t28 -218.5
q0 -106 -28.5 -201t-82.5 -171.5t-141.5 -121.5t-196.5 -45q-194 0 -303 146h-4v-471h-348z" />
    <glyph glyph-name="q" unicode="q" 
d="M414 520q0 -54 11 -102t34 -90t65 -67t97 -25q38 0 73.5 14.5t68 45t52 89t19.5 137.5q0 59 -9.5 109t-31.5 96.5t-64.5 73t-101.5 26.5q-57 0 -100 -27t-67 -72.5t-35 -97.5t-11 -110zM1169 1063v-1419h-348v473h-4q-109 -148 -303 -148q-109 0 -196.5 45t-141 121.5
t-82 171.5t-28.5 201q0 92 17 176t54.5 159.5t92 130.5t134.5 87.5t177 32.5q188 0 293 -154h4v123h331z" />
    <glyph glyph-name="r" unicode="r" horiz-adv-x="872" 
d="M129 0v1063h338v-186h4q38 100 122 153t198 53q45 0 81 -8v-317q-75 20 -133 20q-123 0 -192.5 -73t-69.5 -179v-526h-348z" />
    <glyph glyph-name="s" unicode="s" horiz-adv-x="1138" 
d="M55 350h332q0 -75 57 -119q48 -36 129 -36q62 0 113 27.5t51 84.5q0 13 -3.5 24.5t-11.5 21t-15 17t-21.5 14t-22 10.5t-26 9t-24 6.5t-25 6t-21.5 4.5q-31 8 -83 19t-87 18.5t-81.5 21t-77.5 28.5t-65 39.5t-53.5 54t-32.5 72.5t-13 95q0 74 31 132t79.5 93.5t114 59
t129.5 32.5t131 9q75 0 140 -9t129.5 -33t110.5 -61.5t76.5 -99t33.5 -141.5h-322q0 64 -45 92q-42 26 -111 26q-149 0 -149 -80q0 -29 23.5 -50.5t71 -37t88.5 -25t110 -21.5t100 -19q62 -12 110.5 -38t77.5 -56t48.5 -66.5t26.5 -67t7 -59.5q0 -82 -30.5 -148.5
t-80 -108.5t-116.5 -70.5t-137.5 -40t-145.5 -11.5q-66 0 -125.5 8t-118.5 25t-107 46.5t-85.5 70.5t-59.5 100t-24 131z" />
    <glyph glyph-name="t" unicode="t" horiz-adv-x="796" 
d="M758 1063v-225h-215v-484q0 -59 31 -80.5t94 -21.5q14 0 44 2t46 2v-256q-25 -1 -90.5 -5.5t-100.5 -4.5q-114 0 -184 17.5t-113 62.5t-59 114t-16 181v473h-177v225h177v321h348v-321h215z" />
    <glyph glyph-name="u" unicode="u" 
d="M1174 1063v-1063h-338v145h-5q-49 -80 -139 -128t-184 -48q-112 0 -189.5 31t-121.5 92.5t-63 141.5t-19 190v639h348v-617q0 -102 42.5 -146t129.5 -44q32 0 62.5 11.5t60.5 36.5t48.5 74t18.5 116v569h349z" />
    <glyph glyph-name="v" unicode="v" horiz-adv-x="1099" 
d="M1106 1063l-356 -1063h-402l-354 1063h362l195 -703h4l197 703h354z" />
    <glyph glyph-name="w" unicode="w" horiz-adv-x="1705" 
d="M1706 1063l-332 -1063h-352l-168 707h-4l-166 -707h-352l-332 1063h352l178 -688h5l151 688h332l156 -686h4l174 686h354z" />
    <glyph glyph-name="x" unicode="x" horiz-adv-x="1099" 
d="M-14 0l368 557l-338 506h385l150 -254l149 254h369l-332 -500l377 -563h-385l-184 307l-174 -307h-385z" />
    <glyph glyph-name="y" unicode="y" horiz-adv-x="1099" 
d="M1116 1063l-420 -1157q-25 -69 -56.5 -116.5t-67 -76.5t-87.5 -44t-103.5 -20t-129.5 -5h-164v282h121q61 0 100 32t39 87q0 20 -11.5 61t-24.5 77t-30.5 83t-21.5 58l-274 739h368l201 -692h4l201 692h356z" />
    <glyph glyph-name="z" unicode="z" horiz-adv-x="1099" 
d="M45 0v270l530 527h-487v266h930v-264l-531 -533h570v-266h-1012z" />
    <glyph glyph-name="braceleft" unicode="{" horiz-adv-x="757" 
d="M729 1493v-246h-84q-29 0 -49.5 -9t-31.5 -21.5t-17.5 -32t-8 -35t-1.5 -35.5v-336q-1 -56 -25 -96t-62.5 -60t-74.5 -29t-74 -11v-7q24 -2 40.5 -3.5t43 -7.5t45 -14.5t40.5 -25t35 -37.5t22.5 -54t9.5 -73v-337q0 -26 3 -45t13 -41.5t33.5 -35t58.5 -12.5h84v-245h-242
q-123 0 -199.5 74.5t-76.5 228.5v354q0 45 -20.5 76t-53 44.5t-58 18t-50.5 4.5v246q25 0 50.5 4t58 15.5t53 38.5t20.5 67v385q0 155 75.5 224t200.5 69h242z" />
    <glyph glyph-name="bar" unicode="|" horiz-adv-x="454" 
d="M80 -438v2048h295v-2048h-295z" />
    <glyph glyph-name="braceright" unicode="}" horiz-adv-x="757" 
d="M29 -356v245h84q35 0 58.5 12.5t33.5 35t13 41.5t3 45v337q0 40 9.5 73t22.5 54t35 37.5t40.5 25t45 14.5t43 7.5t40.5 3.5v7q-38 2 -74 11t-74.5 29t-62.5 60t-25 96v336q0 20 -1.5 35.5t-8 35t-17.5 32t-31.5 21.5t-49.5 9h-84v246h241q125 0 201 -69t76 -224v-385
q0 -40 20.5 -67t53 -38.5t58 -15.5t50.5 -4v-246q-25 0 -50.5 -4.5t-58 -18t-53 -44.5t-20.5 -76v-354q0 -154 -77 -228.5t-200 -74.5h-241z" />
    <glyph glyph-name="asciitilde" unicode="~" horiz-adv-x="1228" 
d="M1014 743l73 -266q-23 -32 -38.5 -52t-41 -46.5t-49.5 -41t-57 -25.5t-70 -11q-52 0 -99 17t-109 51q-127 71 -236 71q-105 0 -172 -147l-74 266q92 176 256 176q83 0 228 -65q14 -6 44.5 -20t47.5 -21t40.5 -16t42 -13t34.5 -4q29 0 55 11.5t49.5 36t38 44.5t37.5 55z
" />
    <glyph glyph-name="uni00A0" unicode="&#xa0;" horiz-adv-x="645" 
 />
    <glyph glyph-name="exclamdown" unicode="&#xa1;" horiz-adv-x="606" 
d="M125 -342v362l94 617h170l94 -617v-362h-358zM494 1120v-381h-381v381h381z" />
    <glyph glyph-name="cent" unicode="&#xa2;" 
d="M612 242v579q-50 -12 -84.5 -42.5t-50.5 -75.5t-22 -89t-6 -100q0 -101 40.5 -177.5t122.5 -94.5zM612 -215v188q-226 14 -369 162.5t-143 378.5q0 244 138.5 403.5t373.5 174.5v161h95v-161q191 -13 324 -121.5t151 -296.5h-338q-1 57 -40.5 98t-96.5 49v-579
q125 23 147 176h338q-23 -197 -155 -315t-330 -130v-188h-95z" />
    <glyph glyph-name="sterling" unicode="&#xa3;" 
d="M244 -31l-140 209q90 58 157 137.5t67 165.5q0 75 -27 133h-217v215h137q-88 118 -88 232q0 87 30.5 160t82 122.5t120.5 84t144.5 50t155.5 15.5q249 0 393 -131t137 -377h-338q5 90 -36.5 151.5t-129.5 61.5q-79 0 -128.5 -42.5t-49.5 -119.5q0 -41 27 -106t55 -101
h244v-215h-183q15 -43 15 -86q0 -140 -142 -249l5 -5q58 39 153 39q35 0 118 -19.5t124 -19.5q61 0 100 21.5t82 71.5l141 -252q-82 -84 -166.5 -115t-189.5 -31q-66 0 -212.5 40t-223.5 40q-94 0 -217 -80z" />
    <glyph glyph-name="currency" unicode="&#xa4;" 
d="M242 180l-123 123l90 92q-107 142 -107 322q0 168 101 315l-92 90l122 123l93 -90q140 105 319 105q180 0 320 -105l88 90l123 -123l-91 -90q103 -144 103 -315q0 -172 -103 -316l91 -90l-123 -123l-90 91q-137 -105 -318 -105q-170 0 -311 98zM397 717
q0 -122 71.5 -199.5t176.5 -77.5t176.5 77.5t71.5 199.5t-71.5 199t-176.5 77t-176.5 -77t-71.5 -199z" />
    <glyph glyph-name="yen" unicode="&#xa5;" 
d="M1290 1462l-305 -616h211v-215h-319l-41 -84v-64h360v-215h-360v-268h-381v268h-361v215h361v64l-41 84h-320v215h213l-307 616h381l262 -616h4l262 616h381z" />
    <glyph glyph-name="brokenbar" unicode="&#xa6;" horiz-adv-x="454" 
d="M80 -182v512h295v-512h-295zM375 1354v-512h-295v512h295z" />
    <glyph glyph-name="section" unicode="&#xa7;" 
d="M451 563l383 -184q24 7 49 25t32 38q21 42 -3 85.5t-93 80.5l-309 144q-63 29 -101.5 4t-41.5 -82q-2 -26 10.5 -47t27.5 -32.5t46 -31.5zM1114 1094h-301q0 66 -43 106q-40 37 -108 37q-51 0 -88 -28.5t-37 -78.5q0 -12 3 -23.5t9.5 -22t12.5 -18.5t18 -17t19 -14.5
t22.5 -13.5t21.5 -11t22.5 -11t20.5 -10l340 -166q97 -56 146 -118t49 -160q0 -108 -56.5 -193.5t-154.5 -113.5q102 -85 102 -226q0 -96 -39 -171t-105 -121t-147.5 -69.5t-173.5 -23.5q-103 0 -188.5 24t-152 72.5t-103.5 130.5t-37 191h301q0 -73 51 -121q47 -41 123 -41
q63 0 103 34.5t40 92.5q0 42 -39.5 78.5t-102 66.5t-138.5 61t-152 69t-138.5 82.5t-102 110t-39.5 143.5q0 113 56.5 192.5t158.5 118.5q-78 90 -78 205q0 86 41 156t107 112.5t143.5 65t156.5 22.5q129 0 229.5 -43t162.5 -134.5t65 -221.5z" />
    <glyph glyph-name="dieresis" unicode="&#xa8;" horiz-adv-x="606" 
d="M676 1206h-307v256h307v-256zM-68 1206v256h308v-256h-308z" />
    <glyph glyph-name="copyright" unicode="&#xa9;" horiz-adv-x="1638" 
d="M819 -31q-155 0 -296.5 52t-252 147t-176 241t-65.5 322t65.5 322t176 241t252 147t296.5 52q123 0 239 -32.5t216 -97.5t175 -155t118 -213t43 -264t-43 -264t-118 -213t-175 -155t-216 -97.5t-239 -32.5zM819 164q108 0 205.5 42t170.5 115.5t116 180.5t43 229t-43 229
t-116 180.5t-170.5 115.5t-205.5 42q-110 0 -208 -42t-170 -116t-114 -180t-42 -229t42 -229t114 -180t170 -116t208 -42zM1022 621h192q-21 -153 -123 -237.5t-241 -84.5q-190 0 -308 125t-118 313q0 193 114.5 317t307.5 124q142 0 239.5 -82t120.5 -232h-184
q-13 62 -61 90.5t-115 28.5q-87 0 -134.5 -65t-47.5 -177q0 -107 52 -177t134 -70q75 0 121.5 31t50.5 96z" />
    <glyph glyph-name="ordfeminine" unicode="&#xaa;" horiz-adv-x="772" 
d="M489 1026v39q-41 -15 -139 -35q-94 -18 -94 -82q0 -29 27.5 -45t68.5 -16q70 0 103.5 34t33.5 105zM270 1212h-241q3 135 106 191q85 43 250 43q66 0 115.5 -5t97.5 -19.5t78.5 -39.5t49.5 -67.5t19 -100.5v-284q0 -113 27 -189h-264q-11 27 -14 60q-68 -45 -115 -60
q-52 -18 -113 -18q-125 0 -195.5 48t-70.5 144q0 85 37.5 132t105.5 71q50 17 160.5 31.5t128.5 17.5q31 6 45.5 19t14.5 41q0 26 -34.5 40.5t-74.5 14.5q-97 0 -113 -70z" />
    <glyph glyph-name="guillemotleft" unicode="&#xab;" horiz-adv-x="909" 
d="M92 397v312l326 262v-281l-176 -137l176 -135v-281zM492 397v312l325 262v-281l-176 -137l176 -135v-281z" />
    <glyph glyph-name="logicalnot" unicode="&#xac;" horiz-adv-x="1228" 
d="M836 246v379h-738v295h1032v-674h-294z" />
    <glyph glyph-name="uni00AD" unicode="&#xad;" horiz-adv-x="833" 
d="M735 410h-637v295h637v-295z" />
    <glyph glyph-name="registered" unicode="&#xae;" horiz-adv-x="1638" 
d="M709 664v-345h-201v826h309q174 0 262 -56t88 -196q0 -110 -60.5 -161t-174.5 -56l211 -357h-195l-188 345h-51zM709 809h145q59 0 86 21.5t27 82.5q0 86 -154 86h-104v-190zM819 -31q-155 0 -296.5 52t-252 147t-176 241t-65.5 322t65.5 322t176 241t252 147t296.5 52
q123 0 239 -32.5t216 -97.5t175 -155t118 -213t43 -264t-43 -264t-118 -213t-175 -155t-216 -97.5t-239 -32.5zM819 164q108 0 205.5 42t170.5 115.5t116 180.5t43 229t-43 229t-116 180.5t-170.5 115.5t-205.5 42q-110 0 -208 -42t-170 -116t-114 -180t-42 -229t42 -229
t114 -180t170 -116t208 -42z" />
    <glyph glyph-name="macron" unicode="&#xaf;" horiz-adv-x="606" 
d="M637 1237h-666v176h666v-176z" />
    <glyph glyph-name="degree" unicode="&#xb0;" horiz-adv-x="819" 
d="M82 1118q0 135 96.5 231.5t231.5 96.5t231 -96.5t96 -231.5t-96 -231t-231 -96t-231.5 96t-96.5 231zM410 936q73 0 118 52.5t45 129.5t-45 129.5t-118 52.5t-118.5 -52.5t-45.5 -129.5t45.5 -129.5t118.5 -52.5z" />
    <glyph glyph-name="plusminus" unicode="&#xb1;" horiz-adv-x="1228" 
d="M467 854v207h295v-207h368v-295h-368v-207h-295v207h-369v295h369zM98 -25v295h1032v-295h-1032z" />
    <glyph glyph-name="twosuperior" unicode="&#xb2;" horiz-adv-x="774" 
d="M760 569h-748q0 185 146 299q23 18 47.5 35t52.5 34t46.5 28t51 29t43.5 24q121 74 121 127q0 49 -31 77.5t-83 28.5q-136 0 -140 -172h-256q0 173 99 267q100 100 294 100q165 0 269 -72t104 -211q0 -53 -18.5 -95.5t-57 -77.5t-77 -58.5t-99.5 -54.5
q-76 -38 -109.5 -60t-52.5 -53h398v-195z" />
    <glyph glyph-name="threesuperior" unicode="&#xb3;" horiz-adv-x="774" 
d="M342 932v168q10 0 30 -1t29 -1q30 0 58.5 6t53 24.5t24.5 45.5q0 34 -36 55.5t-81 21.5q-58 0 -93 -31t-34 -83h-256q6 154 108 233q98 76 273 76q75 0 139.5 -13.5t119 -42t85.5 -79t31 -119.5q0 -63 -36.5 -108.5t-105.5 -55.5v-4q158 -21 158 -195q0 -72 -32.5 -127
t-88 -87t-124 -48t-146.5 -16q-180 0 -289.5 72t-118.5 219v47h256q0 -71 39 -107q40 -37 111 -37q52 0 94.5 23.5t42.5 60.5q0 105 -152 105q-9 0 -29 -1t-30 -1z" />
    <glyph glyph-name="acute" unicode="&#xb4;" horiz-adv-x="606" 
d="M291 1483h368l-321 -305h-246z" />
    <glyph glyph-name="mu" unicode="&#xb5;" 
d="M1174 1063v-1063h-338v145h-5q-49 -80 -139 -128t-184 -48q-26 0 -45 13v-338h-348v1419h348v-617q0 -102 42.5 -146t129.5 -44q32 0 62.5 11.5t60.5 36.5t48.5 74t18.5 116v569h349z" />
    <glyph glyph-name="paragraph" unicode="&#xb6;" horiz-adv-x="1269" 
d="M422 -346v1094q-221 0 -339 92t-118 258q0 107 37.5 180.5t109 112.5t157 55t200.5 16h643v-1808h-246v1624h-198v-1624h-246z" />
    <glyph glyph-name="periodcentered" unicode="&#xb7;" horiz-adv-x="645" 
d="M133 586q0 78 56.5 134t134.5 56t134 -56t56 -134t-56 -134.5t-134 -56.5t-134.5 56.5t-56.5 134.5z" />
    <glyph glyph-name="cedilla" unicode="&#xb8;" horiz-adv-x="606" 
d="M272 0h113l-82 -123l4 -4q34 10 82 10q69 0 121.5 -40t52.5 -124q0 -104 -72.5 -151t-189.5 -47q-104 0 -242 63l39 92q92 -30 168 -38q44 -5 74.5 14.5t30.5 56.5q0 78 -88 78q-35 0 -82 -14l-45 39z" />
    <glyph glyph-name="onesuperior" unicode="&#xb9;" horiz-adv-x="774" 
d="M334 1071h-223v184q111 -2 189.5 39.5t84.5 132.5h205v-858h-256v502z" />
    <glyph glyph-name="ordmasculine" unicode="&#xba;" horiz-adv-x="792" 
d="M395 918q40 0 70 15.5t45.5 41t23 52.5t7.5 56q0 41 -12 76.5t-46.5 63.5t-87.5 28q-75 0 -109 -51t-34 -117q0 -64 34 -114.5t109 -50.5zM395 723q-185 0 -292 98.5t-107 261.5q0 165 107 264t292 99q187 0 294.5 -99t107.5 -264q0 -163 -107.5 -261.5t-294.5 -98.5z
" />
    <glyph glyph-name="guillemotright" unicode="&#xbb;" horiz-adv-x="909" 
d="M817 711v-312l-325 -262v281l176 137l-176 135v281zM418 711v-312l-326 -262v281l176 137l-176 135v281z" />
    <glyph glyph-name="onequarter" unicode="&#xbc;" horiz-adv-x="1935" 
d="M1751 367h131v-185h-131v-182h-258v182h-408v203l416 473h250v-491zM1278 367h217v251zM610 -55h-202l841 1538h203zM276 1071h-223v184q111 -2 190 39.5t85 132.5h204v-858h-256v502z" />
    <glyph glyph-name="onehalf" unicode="&#xbd;" horiz-adv-x="1935" 
d="M559 -55h-203l842 1538h203zM254 1071h-223v184q111 -2 189.5 39.5t84.5 132.5h205v-858h-256v502zM1888 0h-747q0 186 145 299q28 22 64.5 46t56.5 36t66.5 38t54.5 30q121 74 121 126q0 49 -31.5 78t-83.5 29q-135 0 -139 -172h-256q0 172 98 266q101 101 295 101
q165 0 269 -72t104 -211q0 -53 -18.5 -96t-57 -77.5t-77 -58.5t-99.5 -55q-54 -27 -77 -39.5t-47.5 -32t-37.5 -40.5h397v-195z" />
    <glyph glyph-name="threequarters" unicode="&#xbe;" horiz-adv-x="1935" 
d="M1774 367h131v-185h-131v-182h-258v182h-408v203l416 473h250v-491zM1300 367h218v251zM362 928v168q10 0 30.5 -1t29.5 -1q50 0 92.5 19t42.5 61q0 34 -36 55.5t-81 21.5q-58 0 -93 -31t-34 -83h-256q6 153 109 233q98 76 272 76q75 0 139.5 -13.5t119 -42t85.5 -79
t31 -119.5q0 -63 -36 -108.5t-105 -55.5v-4q157 -21 157 -195q0 -72 -32.5 -127t-88 -87t-124 -48t-146.5 -16q-179 0 -288.5 72t-118.5 219v47h256q0 -71 39 -107q40 -37 110 -37q52 0 94.5 23.5t42.5 60.5q0 101 -151 101q-9 0 -29.5 -1t-30.5 -1zM721 -55h-203l842 1538
h203z" />
    <glyph glyph-name="questiondown" unicode="&#xbf;" horiz-adv-x="1175" 
d="M754 137h358q-3 -240 -148.5 -375t-388.5 -135q-78 0 -151.5 16t-139 50t-115 82.5t-78 118t-28.5 151.5q0 58 12 105.5t30.5 81.5t54.5 68t68 57t87 57q58 38 83.5 63t38.5 61.5t14 98.5h323v-102q0 -57 -14 -103t-42 -80.5t-50.5 -54.5t-59.5 -47q-5 -3 -27 -18
t-28 -19.5t-24.5 -17.5t-24 -20t-19 -20t-18 -23t-11.5 -24.5t-9.5 -29t-2.5 -31.5q0 -57 38.5 -91t95.5 -34q83 0 127 46t49 130v39zM803 1120v-381h-381v381h381z" />
    <glyph glyph-name="Agrave" unicode="&#xc0;" horiz-adv-x="1441" 
d="M719 1057l-166 -512h332l-162 512h-4zM-18 0l546 1462h387l547 -1462h-397l-90 262h-510l-92 -262h-391zM715 1858l198 -306h-245l-322 306h369z" />
    <glyph glyph-name="Aacute" unicode="&#xc1;" horiz-adv-x="1441" 
d="M719 1057l-166 -512h332l-162 512h-4zM-18 0l546 1462h387l547 -1462h-397l-90 262h-510l-92 -262h-391zM709 1858h368l-321 -306h-246z" />
    <glyph glyph-name="Acircumflex" unicode="&#xc2;" horiz-adv-x="1441" 
d="M719 1057l-166 -512h332l-162 512h-4zM-18 0l546 1462h387l547 -1462h-397l-90 262h-510l-92 -262h-391zM721 1716l-123 -164h-262l229 306h312l229 -306h-262z" />
    <glyph glyph-name="Atilde" unicode="&#xc3;" horiz-adv-x="1441" 
d="M719 1057l-166 -512h332l-162 512h-4zM-18 0l546 1462h387l547 -1462h-397l-90 262h-510l-92 -262h-391zM965 1837h145q-15 -115 -74.5 -187.5t-169.5 -72.5q-65 0 -166 37q-6 2 -27.5 10t-29.5 11t-24 8t-27.5 6.5t-22.5 1.5q-34 0 -59 -27.5t-31 -64.5h-145
q13 109 76 188q70 90 172 90q54 0 163 -41q95 -43 134 -43q32 0 56.5 25.5t29.5 58.5z" />
    <glyph glyph-name="Adieresis" unicode="&#xc4;" horiz-adv-x="1441" 
d="M719 1057l-166 -512h332l-162 512h-4zM-18 0l546 1462h387l547 -1462h-397l-90 262h-510l-92 -262h-391zM1094 1581h-308v256h308v-256zM350 1581v256h307v-256h-307z" />
    <glyph glyph-name="Aring" unicode="&#xc5;" horiz-adv-x="1441" 
d="M719 1057l-166 -512h332l-162 512h-4zM-18 0l546 1462h387l547 -1462h-397l-90 262h-510l-92 -262h-391zM721 1509q-90 0 -154.5 65.5t-64.5 154.5q0 90 64.5 154.5t154.5 64.5t154.5 -63.5t64.5 -155.5q0 -90 -64.5 -155t-154.5 -65zM721 1622q44 0 75 32t31 75
q0 45 -30.5 75.5t-75.5 30.5t-76 -30.5t-31 -75.5q0 -43 31.5 -75t75.5 -32z" />
    <glyph glyph-name="AE" unicode="&#xc6;" horiz-adv-x="2086" 
d="M877 1157l-267 -612h332v612h-65zM-29 0l684 1462h1327v-305h-671v-256h626v-295h-626v-278h690v-328h-1059v262h-446l-119 -262h-406z" />
    <glyph glyph-name="Ccedilla" unicode="&#xc7;" horiz-adv-x="1554" 
d="M1102 567h381q-15 -272 -192 -431t-451 -165l-64 -94l4 -4q34 10 82 10q69 0 121.5 -40t52.5 -124q0 -104 -72.5 -151t-189.5 -47q-104 0 -242 63l39 92q92 -30 168 -38q44 -5 74.5 14.5t30.5 56.5q0 78 -88 78q-35 0 -82 -14l-45 39l100 161q-193 20 -340 126
t-225 270.5t-78 361.5q0 158 52.5 297.5t146 242.5t231 162.5t299.5 59.5q95 0 189.5 -23.5t179 -70.5t150.5 -112t106 -155t43 -192h-381q-15 108 -94 166.5t-201 58.5q-71 0 -129.5 -24.5t-97 -65.5t-64.5 -97.5t-37.5 -118t-11.5 -128.5t11.5 -128.5t37.5 -118
t64.5 -97.5t97 -65.5t129.5 -24.5q132 0 208 71t87 199z" />
    <glyph glyph-name="Egrave" unicode="&#xc8;" horiz-adv-x="1402" 
d="M131 0v1462h1165v-305h-784v-256h717v-295h-717v-278h805v-328h-1186zM696 1858l199 -306h-246l-321 306h368z" />
    <glyph glyph-name="Eacute" unicode="&#xc9;" horiz-adv-x="1402" 
d="M131 0v1462h1165v-305h-784v-256h717v-295h-717v-278h805v-328h-1186zM690 1858h369l-322 -306h-245z" />
    <glyph glyph-name="Ecircumflex" unicode="&#xca;" horiz-adv-x="1402" 
d="M131 0v1462h1165v-305h-784v-256h717v-295h-717v-278h805v-328h-1186zM702 1716l-122 -164h-263l230 306h311l229 -306h-262z" />
    <glyph glyph-name="Edieresis" unicode="&#xcb;" horiz-adv-x="1402" 
d="M131 0v1462h1165v-305h-784v-256h717v-295h-717v-278h805v-328h-1186zM1075 1581h-307v256h307v-256zM332 1581v256h307v-256h-307z" />
    <glyph glyph-name="Igrave" unicode="&#xcc;" horiz-adv-x="645" 
d="M131 0v1462h381v-1462h-381zM317 1858l199 -306h-246l-321 306h368z" />
    <glyph glyph-name="Iacute" unicode="&#xcd;" horiz-adv-x="645" 
d="M131 0v1462h381v-1462h-381zM311 1858h369l-322 -306h-245z" />
    <glyph glyph-name="Icircumflex" unicode="&#xce;" horiz-adv-x="645" 
d="M131 0v1462h381v-1462h-381zM324 1716l-123 -164h-262l229 306h311l230 -306h-263z" />
    <glyph glyph-name="Idieresis" unicode="&#xcf;" horiz-adv-x="645" 
d="M131 0v1462h381v-1462h-381zM696 1581h-307v256h307v-256zM-47 1581v256h307v-256h-307z" />
    <glyph glyph-name="Eth" unicode="&#xd0;" horiz-adv-x="1554" 
d="M512 1135v-234h324v-295h-324v-278h180q218 5 311 98.5t93 312.5q0 197 -103.5 296.5t-300.5 99.5h-180zM131 0v606h-147v295h147v561h629q337 0 527 -192.5t190 -532.5q0 -355 -190 -546t-527 -191h-629z" />
    <glyph glyph-name="Ntilde" unicode="&#xd1;" horiz-adv-x="1517" 
d="M127 0v1462h391l508 -901h4v901h359v-1462h-392l-508 911h-4v-911h-358zM1004 1837h145q-15 -115 -74.5 -187.5t-169.5 -72.5q-65 0 -166 37q-6 2 -27.5 10t-29.5 11t-24 8t-27.5 6.5t-22.5 1.5q-34 0 -59 -27.5t-31 -64.5h-145q13 109 76 188q70 90 172 90q54 0 163 -41
q95 -43 134 -43q32 0 56.5 25.5t29.5 58.5z" />
    <glyph glyph-name="Ograve" unicode="&#xd2;" horiz-adv-x="1593" 
d="M76 731q0 160 48.5 298t138.5 241.5t227.5 163t306.5 59.5t306.5 -59.5t227.5 -163t138.5 -241.5t48.5 -298t-48.5 -298t-138.5 -241.5t-227.5 -163t-306.5 -59.5t-306.5 59.5t-227.5 163t-138.5 241.5t-48.5 298zM457 731q0 -67 11.5 -128.5t37.5 -118t64.5 -97.5
t97 -65.5t129.5 -24.5t129.5 24.5t97 65.5t64.5 97.5t37.5 118t11.5 128.5t-11.5 128.5t-37.5 118t-64.5 97.5t-97 65.5t-129.5 24.5t-129.5 -24.5t-97 -65.5t-64.5 -97.5t-37.5 -118t-11.5 -128.5zM791 1858l198 -306h-246l-321 306h369z" />
    <glyph glyph-name="Oacute" unicode="&#xd3;" horiz-adv-x="1593" 
d="M76 731q0 160 48.5 298t138.5 241.5t227.5 163t306.5 59.5t306.5 -59.5t227.5 -163t138.5 -241.5t48.5 -298t-48.5 -298t-138.5 -241.5t-227.5 -163t-306.5 -59.5t-306.5 59.5t-227.5 163t-138.5 241.5t-48.5 298zM457 731q0 -67 11.5 -128.5t37.5 -118t64.5 -97.5
t97 -65.5t129.5 -24.5t129.5 24.5t97 65.5t64.5 97.5t37.5 118t11.5 128.5t-11.5 128.5t-37.5 118t-64.5 97.5t-97 65.5t-129.5 24.5t-129.5 -24.5t-97 -65.5t-64.5 -97.5t-37.5 -118t-11.5 -128.5zM784 1858h369l-322 -306h-245z" />
    <glyph glyph-name="Ocircumflex" unicode="&#xd4;" horiz-adv-x="1593" 
d="M76 731q0 160 48.5 298t138.5 241.5t227.5 163t306.5 59.5t306.5 -59.5t227.5 -163t138.5 -241.5t48.5 -298t-48.5 -298t-138.5 -241.5t-227.5 -163t-306.5 -59.5t-306.5 59.5t-227.5 163t-138.5 241.5t-48.5 298zM457 731q0 -67 11.5 -128.5t37.5 -118t64.5 -97.5
t97 -65.5t129.5 -24.5t129.5 24.5t97 65.5t64.5 97.5t37.5 118t11.5 128.5t-11.5 128.5t-37.5 118t-64.5 97.5t-97 65.5t-129.5 24.5t-129.5 -24.5t-97 -65.5t-64.5 -97.5t-37.5 -118t-11.5 -128.5zM797 1716l-123 -164h-262l229 306h311l230 -306h-262z" />
    <glyph glyph-name="Otilde" unicode="&#xd5;" horiz-adv-x="1593" 
d="M76 731q0 160 48.5 298t138.5 241.5t227.5 163t306.5 59.5t306.5 -59.5t227.5 -163t138.5 -241.5t48.5 -298t-48.5 -298t-138.5 -241.5t-227.5 -163t-306.5 -59.5t-306.5 59.5t-227.5 163t-138.5 241.5t-48.5 298zM457 731q0 -67 11.5 -128.5t37.5 -118t64.5 -97.5
t97 -65.5t129.5 -24.5t129.5 24.5t97 65.5t64.5 97.5t37.5 118t11.5 128.5t-11.5 128.5t-37.5 118t-64.5 97.5t-97 65.5t-129.5 24.5t-129.5 -24.5t-97 -65.5t-64.5 -97.5t-37.5 -118t-11.5 -128.5zM1040 1837h146q-15 -115 -74.5 -187.5t-169.5 -72.5q-65 0 -166 37
q-6 2 -27.5 10t-29.5 11t-24 8t-27.5 6.5t-22.5 1.5q-34 0 -59 -27.5t-31 -64.5h-145q13 111 75 188q70 90 172 90q55 0 164 -41q95 -43 133 -43q32 0 56.5 25.5t29.5 58.5z" />
    <glyph glyph-name="Odieresis" unicode="&#xd6;" horiz-adv-x="1593" 
d="M76 731q0 160 48.5 298t138.5 241.5t227.5 163t306.5 59.5t306.5 -59.5t227.5 -163t138.5 -241.5t48.5 -298t-48.5 -298t-138.5 -241.5t-227.5 -163t-306.5 -59.5t-306.5 59.5t-227.5 163t-138.5 241.5t-48.5 298zM457 731q0 -67 11.5 -128.5t37.5 -118t64.5 -97.5
t97 -65.5t129.5 -24.5t129.5 24.5t97 65.5t64.5 97.5t37.5 118t11.5 128.5t-11.5 128.5t-37.5 118t-64.5 97.5t-97 65.5t-129.5 24.5t-129.5 -24.5t-97 -65.5t-64.5 -97.5t-37.5 -118t-11.5 -128.5zM1169 1581h-307v256h307v-256zM426 1581v256h307v-256h-307z" />
    <glyph glyph-name="multiply" unicode="&#xd7;" horiz-adv-x="1228" 
d="M406 518l-295 295l208 209l295 -295l295 295l209 -209l-295 -295l295 -295l-209 -209l-295 295l-295 -295l-208 209z" />
    <glyph glyph-name="Oslash" unicode="&#xd8;" horiz-adv-x="1593" 
d="M494 514l520 569q-82 82 -217 82q-71 0 -129.5 -24.5t-97 -65.5t-64.5 -97.5t-37.5 -118t-11.5 -128.5q0 -119 37 -217zM1100 946l-518 -567q85 -82 215 -82q71 0 129.5 24.5t97 65.5t64.5 97.5t37.5 118t11.5 128.5q0 122 -37 215zM1419 1530l119 -103l-178 -194
q158 -202 158 -502q0 -160 -48.5 -298t-138.5 -241.5t-227.5 -163t-306.5 -59.5q-269 0 -453 148l-182 -199l-117 102l188 207q-157 202 -157 504q0 160 48.5 298t138.5 241.5t227.5 163t306.5 59.5q268 0 454 -147z" />
    <glyph glyph-name="Ugrave" unicode="&#xd9;" horiz-adv-x="1517" 
d="M1395 1462v-858q0 -321 -154.5 -478t-482.5 -157t-482.5 157t-154.5 478v858h381v-880q0 -145 60 -215t196 -70t196 70t60 215v880h381zM754 1858l198 -306h-245l-322 306h369z" />
    <glyph glyph-name="Uacute" unicode="&#xda;" horiz-adv-x="1517" 
d="M1395 1462v-858q0 -321 -154.5 -478t-482.5 -157t-482.5 157t-154.5 478v858h381v-880q0 -145 60 -215t196 -70t196 70t60 215v880h381zM748 1858h368l-321 -306h-246z" />
    <glyph glyph-name="Ucircumflex" unicode="&#xdb;" horiz-adv-x="1517" 
d="M1395 1462v-858q0 -321 -154.5 -478t-482.5 -157t-482.5 157t-154.5 478v858h381v-880q0 -145 60 -215t196 -70t196 70t60 215v880h381zM760 1716l-123 -164h-262l229 306h311l230 -306h-262z" />
    <glyph glyph-name="Udieresis" unicode="&#xdc;" horiz-adv-x="1517" 
d="M1395 1462v-858q0 -321 -154.5 -478t-482.5 -157t-482.5 157t-154.5 478v858h381v-880q0 -145 60 -215t196 -70t196 70t60 215v880h381zM1133 1581h-308v256h308v-256zM389 1581v256h307v-256h-307z" />
    <glyph glyph-name="Yacute" unicode="&#xdd;" horiz-adv-x="1366" 
d="M1407 1462l-533 -917v-545h-380v545l-533 917h432l291 -594l291 594h432zM672 1858h368l-321 -306h-246z" />
    <glyph glyph-name="Thorn" unicode="&#xde;" horiz-adv-x="1402" 
d="M131 1462h381v-188h313q84 0 159.5 -15.5t144 -51t118 -89t78.5 -134t29 -181.5q0 -504 -529 -504h-313v-299h-381v1462zM512 969v-375h256q205 0 205 182q0 98 -56 145.5t-149 47.5h-256z" />
    <glyph glyph-name="germandbls" unicode="&#xdf;" 
d="M117 0v1028q0 96 30.5 178.5t91 147.5t161 102t231.5 37q75 0 145.5 -14t135.5 -45.5t113 -77t76.5 -113t28.5 -149.5q0 -93 -48 -172t-130 -109v-4q120 -25 190 -127.5t70 -230.5q0 -209 -131 -335t-342 -126q-29 0 -172 10v264q58 -8 88 -8q98 0 153.5 62t55.5 161
q0 64 -23.5 110t-65 69.5t-92.5 32t-112 3.5v207q61 -5 111 6.5t86.5 51.5t36.5 106q0 76 -45 119t-117 43q-49 0 -83 -13.5t-52.5 -33.5t-28 -57.5t-12 -70.5t-2.5 -87v-965h-348z" />
    <glyph glyph-name="agrave" unicode="&#xe0;" horiz-adv-x="1214" 
d="M408 305q0 -61 41 -91t104 -30q123 0 171 73.5t42 240.5q-22 -14 -56.5 -23.5t-84 -18.5t-74.5 -16q-67 -15 -105 -46t-38 -89zM428 735h-326q8 193 166 285q131 74 338 74q83 0 149.5 -8t133.5 -31.5t112 -61.5t73 -103.5t28 -152.5v-465q0 -61 1.5 -95t11 -86t28.5 -91
h-350q-14 38 -21 100q-64 -67 -156 -99t-194 -32q-161 0 -262 82.5t-101 239.5q0 63 17 113t45 83.5t70.5 59t85.5 40t99.5 26t102 17t104 13.5t95.5 16q48 10 70 31t22 68q0 37 -28 63.5t-64.5 36.5t-75.5 10q-150 0 -174 -133zM602 1483l199 -305h-246l-322 305h369z" />
    <glyph glyph-name="aacute" unicode="&#xe1;" horiz-adv-x="1214" 
d="M408 305q0 -61 41 -91t104 -30q123 0 171 73.5t42 240.5q-22 -14 -56.5 -23.5t-84 -18.5t-74.5 -16q-67 -15 -105 -46t-38 -89zM428 735h-326q8 193 166 285q131 74 338 74q83 0 149.5 -8t133.5 -31.5t112 -61.5t73 -103.5t28 -152.5v-465q0 -61 1.5 -95t11 -86t28.5 -91
h-350q-14 38 -21 100q-64 -67 -156 -99t-194 -32q-161 0 -262 82.5t-101 239.5q0 63 17 113t45 83.5t70.5 59t85.5 40t99.5 26t102 17t104 13.5t95.5 16q48 10 70 31t22 68q0 37 -28 63.5t-64.5 36.5t-75.5 10q-150 0 -174 -133zM596 1483h369l-322 -305h-246z" />
    <glyph glyph-name="acircumflex" unicode="&#xe2;" horiz-adv-x="1214" 
d="M408 305q0 -61 41 -91t104 -30q123 0 171 73.5t42 240.5q-22 -14 -56.5 -23.5t-84 -18.5t-74.5 -16q-67 -15 -105 -46t-38 -89zM428 735h-326q8 193 166 285q131 74 338 74q83 0 149.5 -8t133.5 -31.5t112 -61.5t73 -103.5t28 -152.5v-465q0 -61 1.5 -95t11 -86t28.5 -91
h-350q-14 38 -21 100q-64 -67 -156 -99t-194 -32q-161 0 -262 82.5t-101 239.5q0 63 17 113t45 83.5t70.5 59t85.5 40t99.5 26t102 17t104 13.5t95.5 16q48 10 70 31t22 68q0 37 -28 63.5t-64.5 36.5t-75.5 10q-150 0 -174 -133zM608 1341l-123 -163h-262l230 305h311
l229 -305h-262z" />
    <glyph glyph-name="atilde" unicode="&#xe3;" horiz-adv-x="1214" 
d="M408 305q0 -61 41 -91t104 -30q123 0 171 73.5t42 240.5q-22 -14 -56.5 -23.5t-84 -18.5t-74.5 -16q-67 -15 -105 -46t-38 -89zM428 735h-326q8 193 166 285q131 74 338 74q83 0 149.5 -8t133.5 -31.5t112 -61.5t73 -103.5t28 -152.5v-465q0 -61 1.5 -95t11 -86t28.5 -91
h-350q-14 38 -21 100q-64 -67 -156 -99t-194 -32q-161 0 -262 82.5t-101 239.5q0 63 17 113t45 83.5t70.5 59t85.5 40t99.5 26t102 17t104 13.5t95.5 16q48 10 70 31t22 68q0 37 -28 63.5t-64.5 36.5t-75.5 10q-150 0 -174 -133zM852 1462h145q-15 -115 -74.5 -187.5
t-168.5 -72.5q-65 0 -166 37q-6 2 -27.5 10t-29.5 11t-24 8t-27.5 6.5t-22.5 1.5q-34 0 -59 -27.5t-31 -64.5h-146q13 109 76 188q70 90 172 90q55 0 164 -41q95 -43 133 -43q32 0 56.5 25.5t29.5 58.5z" />
    <glyph glyph-name="adieresis" unicode="&#xe4;" horiz-adv-x="1214" 
d="M408 305q0 -61 41 -91t104 -30q123 0 171 73.5t42 240.5q-22 -14 -56.5 -23.5t-84 -18.5t-74.5 -16q-67 -15 -105 -46t-38 -89zM428 735h-326q8 193 166 285q131 74 338 74q83 0 149.5 -8t133.5 -31.5t112 -61.5t73 -103.5t28 -152.5v-465q0 -61 1.5 -95t11 -86t28.5 -91
h-350q-14 38 -21 100q-64 -67 -156 -99t-194 -32q-161 0 -262 82.5t-101 239.5q0 63 17 113t45 83.5t70.5 59t85.5 40t99.5 26t102 17t104 13.5t95.5 16q48 10 70 31t22 68q0 37 -28 63.5t-64.5 36.5t-75.5 10q-150 0 -174 -133zM981 1206h-307v256h307v-256zM238 1206v256
h307v-256h-307z" />
    <glyph glyph-name="aring" unicode="&#xe5;" horiz-adv-x="1214" 
d="M408 305q0 -61 41 -91t104 -30q123 0 171 73.5t42 240.5q-22 -14 -56.5 -23.5t-84 -18.5t-74.5 -16q-67 -15 -105 -46t-38 -89zM428 735h-326q8 193 166 285q131 74 338 74q83 0 149.5 -8t133.5 -31.5t112 -61.5t73 -103.5t28 -152.5v-465q0 -61 1.5 -95t11 -86t28.5 -91
h-350q-14 38 -21 100q-64 -67 -156 -99t-194 -32q-161 0 -262 82.5t-101 239.5q0 63 17 113t45 83.5t70.5 59t85.5 40t99.5 26t102 17t104 13.5t95.5 16q48 10 70 31t22 68q0 37 -28 63.5t-64.5 36.5t-75.5 10q-150 0 -174 -133zM608 1147q-90 0 -154.5 65.5t-64.5 153.5
q0 90 64.5 154.5t154.5 64.5t154.5 -63.5t64.5 -155.5q0 -90 -64.5 -154.5t-154.5 -64.5zM608 1260q44 0 75.5 31.5t31.5 74.5q0 45 -31 76t-76 31q-44 0 -75 -30.5t-31 -76.5q0 -43 31 -74.5t75 -31.5z" />
    <glyph glyph-name="ae" unicode="&#xe6;" horiz-adv-x="1933" 
d="M1100 641h416q0 94 -54 155.5t-149 61.5q-91 0 -147 -63t-66 -154zM573 184q45 0 81 9.5t58.5 26.5t40 39t25 47.5t13 52t5.5 51.5t1 48t0 40q-16 -14 -45 -24t-54 -14.5t-67 -11.5t-64 -12q-75 -14 -117 -43t-42 -90q0 -44 28 -72t62.5 -37.5t74.5 -9.5zM1520 322h327
q-43 -161 -188 -259q-139 -94 -316 -94q-123 0 -232.5 38.5t-176.5 123.5q-110 -89 -222 -125.5t-270 -36.5q-174 0 -278.5 81.5t-104.5 240.5q0 63 17 113t45 83.5t70.5 59t85.5 40t99.5 26t102 17t104 13.5t95.5 16q76 22 98.5 41.5t22.5 51.5q0 47 -28 73.5t-68 34.5
t-101 8q-150 0 -174 -133h-326q8 193 166 285q131 74 338 74q277 0 387 -133q127 133 332 133q132 0 240 -53t176 -142t100.5 -206.5t22.5 -246.5h-764q2 -102 56 -171.5t159 -69.5q80 0 127.5 28t77.5 89z" />
    <glyph glyph-name="ccedilla" unicode="&#xe7;" horiz-adv-x="1214" 
d="M819 418h338q-21 -197 -154.5 -315.5t-332.5 -129.5l-64 -96l4 -4q34 10 82 10q69 0 121.5 -40t52.5 -124q0 -104 -72.5 -151t-189.5 -47q-104 0 -242 63l39 92q92 -30 168 -38q44 -5 74.5 14.5t30.5 56.5q0 78 -88 78q-35 0 -82 -14l-45 39l100 163q-219 20 -356 167
t-137 372q0 257 152 418.5t405 161.5q100 0 190 -26.5t161.5 -77.5t117.5 -132.5t55 -183.5h-338q-1 66 -51.5 109.5t-118.5 43.5q-56 0 -98 -19t-65.5 -48.5t-38 -72.5t-19 -83.5t-4.5 -89.5q0 -73 20 -133.5t68.5 -102.5t118.5 -42q172 0 198 182z" />
    <glyph glyph-name="egrave" unicode="&#xe8;" horiz-adv-x="1251" 
d="M414 641h432q-5 91 -63 154t-144 63q-91 0 -150.5 -59t-74.5 -158zM1194 446h-780q5 -111 67 -176t170 -65q66 0 120.5 30.5t78.5 86.5h326q-30 -118 -112 -199.5t-187.5 -117.5t-229.5 -36q-263 0 -422 151t-159 415q0 159 78 288t208.5 200t286.5 71q139 0 249 -50.5
t178 -138.5t101 -205.5t27 -253.5zM621 1483l198 -305h-246l-321 305h369z" />
    <glyph glyph-name="eacute" unicode="&#xe9;" horiz-adv-x="1251" 
d="M414 641h432q-5 91 -63 154t-144 63q-91 0 -150.5 -59t-74.5 -158zM1194 446h-780q5 -111 67 -176t170 -65q66 0 120.5 30.5t78.5 86.5h326q-30 -118 -112 -199.5t-187.5 -117.5t-229.5 -36q-263 0 -422 151t-159 415q0 159 78 288t208.5 200t286.5 71q139 0 249 -50.5
t178 -138.5t101 -205.5t27 -253.5zM614 1483h369l-321 -305h-246z" />
    <glyph glyph-name="ecircumflex" unicode="&#xea;" horiz-adv-x="1251" 
d="M414 641h432q-5 91 -63 154t-144 63q-91 0 -150.5 -59t-74.5 -158zM1194 446h-780q5 -111 67 -176t170 -65q66 0 120.5 30.5t78.5 86.5h326q-30 -118 -112 -199.5t-187.5 -117.5t-229.5 -36q-263 0 -422 151t-159 415q0 159 78 288t208.5 200t286.5 71q139 0 249 -50.5
t178 -138.5t101 -205.5t27 -253.5zM627 1341l-123 -163h-262l229 305h311l230 -305h-262z" />
    <glyph glyph-name="edieresis" unicode="&#xeb;" horiz-adv-x="1251" 
d="M414 641h432q-5 91 -63 154t-144 63q-91 0 -150.5 -59t-74.5 -158zM1194 446h-780q5 -111 67 -176t170 -65q66 0 120.5 30.5t78.5 86.5h326q-30 -118 -112 -199.5t-187.5 -117.5t-229.5 -36q-263 0 -422 151t-159 415q0 159 78 288t208.5 200t286.5 71q139 0 249 -50.5
t178 -138.5t101 -205.5t27 -253.5zM999 1206h-307v256h307v-256zM256 1206v256h307v-256h-307z" />
    <glyph glyph-name="igrave" unicode="&#xec;" horiz-adv-x="606" 
d="M477 0h-348v1063h348v-1063zM297 1483l199 -305h-246l-322 305h369z" />
    <glyph glyph-name="iacute" unicode="&#xed;" horiz-adv-x="606" 
d="M477 0h-348v1063h348v-1063zM291 1483h368l-321 -305h-246z" />
    <glyph glyph-name="icircumflex" unicode="&#xee;" horiz-adv-x="606" 
d="M477 0h-348v1063h348v-1063zM303 1341l-123 -163h-262l229 305h312l229 -305h-262z" />
    <glyph glyph-name="idieresis" unicode="&#xef;" horiz-adv-x="606" 
d="M477 0h-348v1063h348v-1063zM676 1206h-307v256h307v-256zM-68 1206v256h308v-256h-308z" />
    <glyph glyph-name="eth" unicode="&#xf0;" horiz-adv-x="1251" 
d="M414 496q0 -45 10.5 -88t33.5 -83t66 -64.5t101 -24.5q47 0 84.5 16.5t61 43t39 61.5t22 69.5t6.5 69.5t-6.5 69t-22 69.5t-39 62t-61 43t-84.5 16.5t-84 -16.5t-60.5 -43t-39 -62t-21.5 -69.5t-6 -69zM188 1192l248 135q-121 79 -209 107l232 159q69 -24 133.5 -59.5
t97.5 -65.5l254 140l139 -125l-243 -133q152 -128 249 -338t97 -434q0 -283 -154.5 -446t-406.5 -163q-162 0 -290 68.5t-198.5 189t-70.5 269.5q0 146 68 267.5t182 190t247 68.5t199 -43l4 4q-55 113 -178 229l-262 -143z" />
    <glyph glyph-name="ntilde" unicode="&#xf1;" 
d="M117 0v1063h338v-145h4q46 80 141 128t193 48q101 0 175 -29t113 -70.5t61.5 -102.5t28 -107t5.5 -103v-682h-349v514v31v58t-3 52t-9.5 50.5t-19 40t-31 34t-46.5 19.5t-65 8q-93 0 -140.5 -65.5t-47.5 -161.5v-580h-348zM889 1462h145q-15 -115 -74.5 -187.5
t-168.5 -72.5q-65 0 -166 37q-6 2 -27.5 10t-29.5 11t-24 8t-27.5 6.5t-22.5 1.5q-34 0 -59.5 -27.5t-31.5 -64.5h-145q13 109 76 188q70 90 172 90q55 0 164 -41q95 -43 133 -43q32 0 56.5 25.5t29.5 58.5z" />
    <glyph glyph-name="ograve" unicode="&#xf2;" horiz-adv-x="1251" 
d="M414 530q0 -54 10.5 -103.5t33.5 -93.5t66 -70.5t101 -26.5t101 26.5t66.5 70.5t34.5 93.5t11 103.5t-11 104t-34.5 94.5t-66.5 71.5t-101 27t-101 -27t-66 -71.5t-33.5 -94.5t-10.5 -104zM66 530q0 158 70 286.5t198.5 203t290.5 74.5q122 0 226.5 -43.5t178 -118.5
t115 -179.5t41.5 -222.5q0 -158 -71 -286t-199.5 -201.5t-290.5 -73.5q-245 0 -402 160t-157 401zM621 1483l198 -305h-246l-321 305h369z" />
    <glyph glyph-name="oacute" unicode="&#xf3;" horiz-adv-x="1251" 
d="M414 530q0 -54 10.5 -103.5t33.5 -93.5t66 -70.5t101 -26.5t101 26.5t66.5 70.5t34.5 93.5t11 103.5t-11 104t-34.5 94.5t-66.5 71.5t-101 27t-101 -27t-66 -71.5t-33.5 -94.5t-10.5 -104zM66 530q0 158 70 286.5t198.5 203t290.5 74.5q122 0 226.5 -43.5t178 -118.5
t115 -179.5t41.5 -222.5q0 -158 -71 -286t-199.5 -201.5t-290.5 -73.5q-245 0 -402 160t-157 401zM614 1483h369l-321 -305h-246z" />
    <glyph glyph-name="ocircumflex" unicode="&#xf4;" horiz-adv-x="1251" 
d="M414 530q0 -54 10.5 -103.5t33.5 -93.5t66 -70.5t101 -26.5t101 26.5t66.5 70.5t34.5 93.5t11 103.5t-11 104t-34.5 94.5t-66.5 71.5t-101 27t-101 -27t-66 -71.5t-33.5 -94.5t-10.5 -104zM66 530q0 158 70 286.5t198.5 203t290.5 74.5q122 0 226.5 -43.5t178 -118.5
t115 -179.5t41.5 -222.5q0 -158 -71 -286t-199.5 -201.5t-290.5 -73.5q-245 0 -402 160t-157 401zM627 1341l-123 -163h-262l229 305h311l230 -305h-262z" />
    <glyph glyph-name="otilde" unicode="&#xf5;" horiz-adv-x="1251" 
d="M414 530q0 -54 10.5 -103.5t33.5 -93.5t66 -70.5t101 -26.5t101 26.5t66.5 70.5t34.5 93.5t11 103.5t-11 104t-34.5 94.5t-66.5 71.5t-101 27t-101 -27t-66 -71.5t-33.5 -94.5t-10.5 -104zM66 530q0 158 70 286.5t198.5 203t290.5 74.5q122 0 226.5 -43.5t178 -118.5
t115 -179.5t41.5 -222.5q0 -158 -71 -286t-199.5 -201.5t-290.5 -73.5q-245 0 -402 160t-157 401zM870 1462h146q-15 -115 -74.5 -187.5t-169.5 -72.5q-65 0 -166 37q-6 2 -27.5 10t-29.5 11t-24 8t-27.5 6.5t-22.5 1.5q-34 0 -59 -27.5t-31 -64.5h-145q13 111 75 188
q70 90 172 90q55 0 164 -41q95 -43 133 -43q32 0 56.5 25.5t29.5 58.5z" />
    <glyph glyph-name="odieresis" unicode="&#xf6;" horiz-adv-x="1251" 
d="M414 530q0 -54 10.5 -103.5t33.5 -93.5t66 -70.5t101 -26.5t101 26.5t66.5 70.5t34.5 93.5t11 103.5t-11 104t-34.5 94.5t-66.5 71.5t-101 27t-101 -27t-66 -71.5t-33.5 -94.5t-10.5 -104zM66 530q0 158 70 286.5t198.5 203t290.5 74.5q122 0 226.5 -43.5t178 -118.5
t115 -179.5t41.5 -222.5q0 -158 -71 -286t-199.5 -201.5t-290.5 -73.5q-245 0 -402 160t-157 401zM999 1206h-307v256h307v-256zM256 1206v256h307v-256h-307z" />
    <glyph glyph-name="divide" unicode="&#xf7;" horiz-adv-x="1228" 
d="M1130 371h-1032v295h1032v-295zM412 942q0 85 58.5 144t143.5 59t144 -59t59 -144q0 -84 -59.5 -143.5t-143.5 -59.5t-143 59.5t-59 143.5zM412 94q0 85 58.5 144t143.5 59t144 -59t59 -144q0 -84 -59.5 -143.5t-143.5 -59.5t-143 59.5t-59 143.5z" />
    <glyph glyph-name="oslash" unicode="&#xf8;" horiz-adv-x="1251" 
d="M434 393l326 379q-55 55 -135 55q-58 0 -101 -27t-66 -71.5t-33.5 -94.5t-10.5 -104q0 -76 20 -137zM819 664l-325 -375q47 -53 131 -53q58 0 101 26.5t66.5 70.5t34.5 93.5t11 103.5q0 66 -19 134zM180 -70l-86 66l121 141q-149 155 -149 393q0 158 70 286.5t198.5 203
t290.5 74.5q186 0 327 -99l105 123l90 -78l-107 -122q146 -155 146 -388q0 -158 -71 -286t-199.5 -201.5t-290.5 -73.5q-183 0 -326 97z" />
    <glyph glyph-name="ugrave" unicode="&#xf9;" 
d="M1174 1063v-1063h-338v145h-5q-49 -80 -139 -128t-184 -48q-112 0 -189.5 31t-121.5 92.5t-63 141.5t-19 190v639h348v-617q0 -102 42.5 -146t129.5 -44q32 0 62.5 11.5t60.5 36.5t48.5 74t18.5 116v569h349zM639 1483l199 -305h-246l-322 305h369z" />
    <glyph glyph-name="uacute" unicode="&#xfa;" 
d="M1174 1063v-1063h-338v145h-5q-49 -80 -139 -128t-184 -48q-112 0 -189.5 31t-121.5 92.5t-63 141.5t-19 190v639h348v-617q0 -102 42.5 -146t129.5 -44q32 0 62.5 11.5t60.5 36.5t48.5 74t18.5 116v569h349zM633 1483h368l-321 -305h-246z" />
    <glyph glyph-name="ucircumflex" unicode="&#xfb;" 
d="M1174 1063v-1063h-338v145h-5q-49 -80 -139 -128t-184 -48q-112 0 -189.5 31t-121.5 92.5t-63 141.5t-19 190v639h348v-617q0 -102 42.5 -146t129.5 -44q32 0 62.5 11.5t60.5 36.5t48.5 74t18.5 116v569h349zM645 1341l-123 -163h-262l229 305h312l229 -305h-262z" />
    <glyph glyph-name="udieresis" unicode="&#xfc;" 
d="M1174 1063v-1063h-338v145h-5q-49 -80 -139 -128t-184 -48q-112 0 -189.5 31t-121.5 92.5t-63 141.5t-19 190v639h348v-617q0 -102 42.5 -146t129.5 -44q32 0 62.5 11.5t60.5 36.5t48.5 74t18.5 116v569h349zM1018 1206h-307v256h307v-256zM274 1206v256h308v-256h-308z
" />
    <glyph glyph-name="yacute" unicode="&#xfd;" horiz-adv-x="1099" 
d="M1116 1063l-420 -1157q-25 -69 -56.5 -116.5t-67 -76.5t-87.5 -44t-103.5 -20t-129.5 -5h-164v282h121q61 0 100 32t39 87q0 20 -11.5 61t-24.5 77t-30.5 83t-21.5 58l-274 739h368l201 -692h4l201 692h356zM539 1483h368l-321 -305h-246z" />
    <glyph glyph-name="thorn" unicode="&#xfe;" 
d="M465 1462v-516h4q109 148 303 148q89 0 164 -32.5t127 -88t88 -130.5t53 -159.5t17 -175.5q0 -106 -28.5 -201t-82.5 -171.5t-141.5 -121.5t-196.5 -45q-194 0 -303 146h-4v-471h-348v1818h348zM666 827q-38 0 -73.5 -14t-68 -45t-52 -89t-19.5 -136q0 -148 49 -227.5
t162 -79.5q74 0 122.5 48t67 114t18.5 145q0 54 -11 102t-34 90t-64.5 67t-96.5 25z" />
    <glyph glyph-name="ydieresis" unicode="&#xff;" horiz-adv-x="1099" 
d="M1116 1063l-420 -1157q-25 -69 -56.5 -116.5t-67 -76.5t-87.5 -44t-103.5 -20t-129.5 -5h-164v282h121q61 0 100 32t39 87q0 20 -11.5 61t-24.5 77t-30.5 83t-21.5 58l-274 739h368l201 -692h4l201 692h356zM924 1206h-308v256h308v-256zM180 1206v256h307v-256h-307z
" />
    <glyph glyph-name="dotlessi" unicode="&#x131;" horiz-adv-x="606" 
d="M477 0h-348v1063h348v-1063z" />
    <glyph glyph-name="Lslash" unicode="&#x141;" horiz-adv-x="1251" 
d="M131 0v389l-135 -92v244l135 92v829h381v-565l369 254v-244l-369 -254v-325h682v-328h-1063z" />
    <glyph glyph-name="lslash" unicode="&#x142;" horiz-adv-x="606" 
d="M129 0v553l-160 -121v230l160 120v680h348v-413l160 120v-229l-160 -121v-819h-348z" />
    <glyph glyph-name="OE" unicode="&#x152;" horiz-adv-x="2275" 
d="M2169 1462v-305h-711v-256h649v-295h-649v-278h727v-328h-1083v92q-59 -66 -149 -94.5t-183 -28.5q-127 0 -238.5 41t-194 113.5t-142 168.5t-89.5 208t-30 231t30 231t89.5 208t142 168.5t194 113.5t238.5 41q230 0 328 -127h4v96h1067zM811 1165q-96 0 -167 -36.5
t-110.5 -99.5t-58 -137t-18.5 -161t18.5 -161t58 -137t110.5 -99.5t167 -36.5q88 0 155 49t99.5 124.5t32.5 162.5v196q0 87 -32.5 162.5t-99.5 124.5t-155 49z" />
    <glyph glyph-name="oe" unicode="&#x153;" horiz-adv-x="1972" 
d="M1133 641h434q-24 217 -213 217q-93 0 -154 -62.5t-67 -154.5zM414 537q0 -301 221 -301q56 0 97.5 27.5t63 73.5t31 94t9.5 99q0 43 -4.5 81t-18 79t-34.5 70t-57 48t-83 19q-62 0 -107.5 -24.5t-70 -67.5t-36 -92t-11.5 -106zM1915 446h-778q-1 -107 67 -174t176 -67
q74 0 118 26.5t75 90.5h332q-33 -116 -115.5 -197t-190 -118.5t-233.5 -37.5q-253 0 -381 156q-123 -156 -383 -156q-243 0 -389.5 150.5t-146.5 396.5q0 169 68 300t196 204.5t297 73.5q260 0 372 -158q58 73 161 115.5t204 42.5q141 0 249.5 -50t174.5 -139t98 -205.5
t29 -253.5z" />
    <glyph glyph-name="Scaron" unicode="&#x160;" horiz-adv-x="1366" 
d="M47 492h381q6 -123 77 -175.5t200 -52.5q97 0 165 37t68 113q0 27 -11.5 49t-36 39.5t-50.5 30.5t-69 26t-76.5 22t-87.5 22.5t-89 23.5q-71 20 -125.5 41t-114.5 56t-98.5 77.5t-64 106.5t-25.5 141q0 92 36 168t95 126.5t137 85t160.5 49.5t167.5 15q89 0 172.5 -17
t159 -54t131.5 -91t89 -133.5t34 -175.5h-381q3 63 -33 104t-87.5 56.5t-115.5 15.5q-46 0 -85 -10.5t-69 -40t-30 -74.5q0 -24 11.5 -43t36 -34.5t52 -27t69 -23t77.5 -20t88 -21.5t90 -23q71 -20 126 -41.5t113.5 -56.5t97 -78t63 -106.5t24.5 -139.5q0 -108 -35.5 -193
t-95.5 -140t-143 -91t-172.5 -51t-190.5 -15q-103 0 -195 18t-173 58.5t-139.5 100t-92.5 148.5t-35 198zM840 1552h-312l-229 306h262l123 -164l123 164h262z" />
    <glyph glyph-name="scaron" unicode="&#x161;" horiz-adv-x="1138" 
d="M55 350h332q0 -75 57 -119q48 -36 129 -36q62 0 113 27.5t51 84.5q0 13 -3.5 24.5t-11.5 21t-15 17t-21.5 14t-22 10.5t-26 9t-24 6.5t-25 6t-21.5 4.5q-31 8 -83 19t-87 18.5t-81.5 21t-77.5 28.5t-65 39.5t-53.5 54t-32.5 72.5t-13 95q0 74 31 132t79.5 93.5t114 59
t129.5 32.5t131 9q75 0 140 -9t129.5 -33t110.5 -61.5t76.5 -99t33.5 -141.5h-322q0 64 -45 92q-42 26 -111 26q-149 0 -149 -80q0 -29 23.5 -50.5t71 -37t88.5 -25t110 -21.5t100 -19q62 -12 110.5 -38t77.5 -56t48.5 -66.5t26.5 -67t7 -59.5q0 -82 -30.5 -148.5
t-80 -108.5t-116.5 -70.5t-137.5 -40t-145.5 -11.5q-66 0 -125.5 8t-118.5 25t-107 46.5t-85.5 70.5t-59.5 100t-24 131zM725 1178h-311l-230 305h262l123 -164l123 164h262z" />
    <glyph glyph-name="Ydieresis" unicode="&#x178;" horiz-adv-x="1366" 
d="M1407 1462l-533 -917v-545h-380v545l-533 917h432l291 -594l291 594h432zM1057 1581h-307v256h307v-256zM313 1581v256h308v-256h-308z" />
    <glyph glyph-name="Zcaron" unicode="&#x17d;" horiz-adv-x="1366" 
d="M49 0v311l750 824h-705v327h1196v-295l-768 -839h795v-328h-1268zM840 1552h-312l-229 306h262l123 -164l123 164h262z" />
    <glyph glyph-name="zcaron" unicode="&#x17e;" horiz-adv-x="1099" 
d="M45 0v270l530 527h-487v266h930v-264l-531 -533h570v-266h-1012zM707 1178h-312l-229 305h262l123 -164l123 164h262z" />
    <glyph glyph-name="florin" unicode="&#x192;" 
d="M322 862h198l53 283q36 192 144.5 270t308.5 78q3 0 162 -6l-47 -256q-56 6 -94 6q-56 0 -84 -32t-43 -111l-43 -232h196l-41 -225h-196l-117 -625q-39 -209 -140 -288.5t-315 -79.5q-26 0 -79 3t-79 3l39 256q49 -6 86 -6q56 0 86.5 27t44.5 100l117 610h-198z" />
    <glyph glyph-name="circumflex" unicode="&#x2c6;" horiz-adv-x="606" 
d="M303 1341l-123 -163h-262l229 305h312l229 -305h-262z" />
    <glyph glyph-name="caron" unicode="&#x2c7;" horiz-adv-x="606" 
d="M459 1178h-312l-229 305h262l123 -164l123 164h262z" />
    <glyph glyph-name="uni02C9" unicode="&#x2c9;" horiz-adv-x="606" 
d="M637 1237h-666v176h666v-176z" />
    <glyph glyph-name="breve" unicode="&#x2d8;" horiz-adv-x="606" 
d="M-53 1491h145q17 -139 211 -139t211 139h145q0 -141 -99.5 -228t-256.5 -87t-256.5 87t-99.5 228z" />
    <glyph glyph-name="dotaccent" unicode="&#x2d9;" horiz-adv-x="606" 
d="M457 1206h-307v256h307v-256z" />
    <glyph glyph-name="ring" unicode="&#x2da;" horiz-adv-x="606" 
d="M303 1147q-90 0 -154.5 65.5t-64.5 153.5q0 90 64.5 154.5t154.5 64.5t154.5 -63.5t64.5 -155.5q0 -90 -64.5 -154.5t-154.5 -64.5zM303 1260q44 0 75.5 31.5t31.5 74.5q0 45 -31 76t-76 31t-75.5 -30.5t-30.5 -76.5q0 -43 31 -74.5t75 -31.5z" />
    <glyph glyph-name="ogonek" unicode="&#x2db;" horiz-adv-x="606" 
d="M287 6h151q-104 -101 -147 -156t-43 -104q0 -38 19.5 -61t45.5 -23q37 0 65 21.5t60 62.5l90 -33q-55 -90 -122.5 -135t-163.5 -45q-22 0 -44 3.5t-49 14t-47 27.5t-33.5 48t-13.5 71q0 45 14 85t68 99.5t150 124.5z" />
    <glyph glyph-name="tilde" unicode="&#x2dc;" horiz-adv-x="606" 
d="M547 1462h145q-15 -115 -74.5 -187.5t-168.5 -72.5q-65 0 -166 37q-6 2 -27.5 10t-29.5 11t-24 8t-27.5 6.5t-22.5 1.5q-34 0 -59.5 -27.5t-31.5 -64.5h-145q13 109 76 188q70 90 172 90q55 0 164 -41q95 -43 133 -43q32 0 56.5 25.5t29.5 58.5z" />
    <glyph glyph-name="hungarumlaut" unicode="&#x2dd;" horiz-adv-x="606" 
d="M131 1483h256l-246 -305h-176zM469 1483h256l-246 -305h-176z" />
    <glyph glyph-name="uni03A9" unicode="&#x3a9;" horiz-adv-x="1650" 
d="M401 227v6q-56 41 -104 93.5t-89.5 121t-66 155.5t-24.5 181q0 132 52 251t143.5 207t225.5 140t289 52q130 0 244 -36.5t196.5 -98.5t142.5 -144t90 -174.5t30 -187.5q0 -182 -82 -323.5t-207 -236.5v-6h318v-227h-627v172q295 168 295 563q0 125 -46 230.5t-138 172
t-214 66.5q-181 0 -295 -134.5t-114 -344.5q0 -196 84 -342.5t211 -210.5v-172h-627v227h313z" />
    <glyph glyph-name="uni03BC" unicode="&#x3bc;" 
d="M1174 1063v-1063h-338v145h-5q-49 -80 -139 -128t-184 -48q-26 0 -45 13v-338h-348v1419h348v-617q0 -102 42.5 -146t129.5 -44q32 0 62.5 11.5t60.5 36.5t48.5 74t18.5 116v569h349z" />
    <glyph glyph-name="pi" unicode="&#x3c0;" horiz-adv-x="1376" 
d="M1321 823h-158v-499q0 -204 29 -324h-293q-39 59 -39 305v518h-301q-8 -193 -47.5 -444.5t-91.5 -378.5h-293q54 165 93.5 409.5t41.5 413.5q-159 0 -223 -20l-33 186q90 70 377 70h963z" />
    <glyph glyph-name="endash" unicode="&#x2013;" horiz-adv-x="1024" 
d="M0 410v295h1024v-295h-1024z" />
    <glyph glyph-name="emdash" unicode="&#x2014;" horiz-adv-x="2048" 
d="M266 410v295h1516v-295h-1516z" />
    <glyph glyph-name="quoteleft" unicode="&#x2018;" horiz-adv-x="606" 
d="M467 1106v-381h-326v340q2 160 83 265t243 132v-164q-68 -12 -110 -67t-38 -125h148z" />
    <glyph glyph-name="quoteright" unicode="&#x2019;" horiz-adv-x="606" 
d="M141 1081v381h326v-340q-2 -160 -83 -265t-243 -132v164q68 12 110 67t38 125h-148z" />
    <glyph glyph-name="quotesinglbase" unicode="&#x201a;" horiz-adv-x="606" 
d="M141 0v381h326v-340q-2 -160 -83 -265t-243 -132v163q68 12 110 67.5t38 125.5h-148z" />
    <glyph glyph-name="quotedblleft" unicode="&#x201c;" horiz-adv-x="1024" 
d="M438 1106v-381h-325v340q2 160 82.5 265t242.5 132v-164q-68 -12 -109.5 -67t-37.5 -125h147zM911 1106v-381h-325v340q2 160 82.5 265t242.5 132v-164q-68 -12 -109.5 -67t-37.5 -125h147z" />
    <glyph glyph-name="quotedblright" unicode="&#x201d;" horiz-adv-x="1024" 
d="M586 1081v381h325v-340q-2 -160 -82.5 -265t-242.5 -132v164q68 12 109.5 67t37.5 125h-147zM113 1081v381h325v-340q-2 -160 -82.5 -265t-242.5 -132v164q68 12 109.5 67t37.5 125h-147z" />
    <glyph glyph-name="quotedblbase" unicode="&#x201e;" horiz-adv-x="1024" 
d="M586 0v381h325v-340q-2 -160 -82.5 -265t-242.5 -132v163q67 12 109.5 67t37.5 126h-147zM113 0v381h325v-340q-2 -160 -82.5 -265t-242.5 -132v163q67 12 109.5 67t37.5 126h-147z" />
    <glyph glyph-name="dagger" unicode="&#x2020;" 
d="M477 770h-371v295h371v397h336v-397h371v-295h-371v-1126h-336v1126z" />
    <glyph glyph-name="daggerdbl" unicode="&#x2021;" 
d="M813 -356h-336v397h-373v295h373v434h-373v295h373v397h336v-397h371v-295h-371v-434h373v-295h-373v-397z" />
    <glyph glyph-name="bullet" unicode="&#x2022;" horiz-adv-x="1024" 
d="M147 731q0 152 106.5 258.5t258.5 106.5t259.5 -106.5t107.5 -258.5t-107.5 -259t-259.5 -107t-258.5 107t-106.5 259z" />
    <glyph glyph-name="ellipsis" unicode="&#x2026;" horiz-adv-x="2048" 
d="M532 0h-380v381h380v-381zM1214 0h-380v381h380v-381zM1896 0h-380v381h380v-381z" />
    <glyph glyph-name="perthousand" unicode="&#x2030;" horiz-adv-x="2390" 
d="M145 1090q0 75 16.5 137.5t50.5 112.5t92.5 78t137.5 28q83 0 142.5 -26.5t92.5 -76t47.5 -111.5t14.5 -142q0 -160 -73 -256.5t-226 -96.5q-64 0 -114.5 18t-84 49.5t-55.5 77t-31.5 97t-9.5 111.5zM346 1090q0 -28 0.5 -46.5t5.5 -52.5t14 -54.5t28 -37t46 -16.5
q99 0 99 207v33t-2 37t-5.5 41t-10.5 36.5t-17 33t-26 21t-36 8.5q-96 0 -96 -210zM938 322q0 75 16.5 137.5t50.5 112.5t92.5 78t137.5 28q83 0 142.5 -26.5t92.5 -76t47.5 -111.5t14.5 -142q0 -160 -73 -256.5t-226 -96.5q-64 0 -114.5 18t-84 49.5t-55.5 77t-31.5 97
t-9.5 111.5zM1139 322q0 -28 0.5 -46.5t5.5 -52.5t14 -54.5t28 -37t46 -16.5q98 0 98 207v33t-2 36.5t-5 41.5t-10 36.5t-17 33t-26 20.5t-36 9q-96 0 -96 -210zM1651 322q0 75 16.5 137.5t50.5 112.5t92.5 78t137.5 28q83 0 142.5 -26.5t92.5 -76t47.5 -111.5t14.5 -142
q0 -160 -73 -256.5t-226 -96.5q-64 0 -114.5 18t-84 49.5t-55.5 77t-31.5 97t-9.5 111.5zM1851 322q0 -207 95 -207q98 0 98 207v33t-2 36.5t-5 41.5t-10 36.5t-17 33t-26 20.5t-36 9q-97 0 -97 -210zM530 -55h-202l827 1538h203z" />
    <glyph glyph-name="guilsinglleft" unicode="&#x2039;" horiz-adv-x="493" 
d="M84 397v312l326 262v-281l-177 -137l177 -135v-281z" />
    <glyph glyph-name="guilsinglright" unicode="&#x203a;" horiz-adv-x="493" 
d="M410 711v-312l-326 -262v281l176 137l-176 135v281z" />
    <glyph glyph-name="fraction" unicode="&#x2044;" horiz-adv-x="342" 
d="M-143 -55h-203l842 1538h202z" />
    <glyph glyph-name="Euro" unicode="&#x20ac;" 
d="M1221 1309l-121 -260q-47 66 -119 98.5t-152 32.5q-105 0 -173.5 -66t-82.5 -164h486l-82 -184h-426q-5 -64 4 -135h365l-82 -185h-254q9 -52 37 -90t58.5 -55.5t70 -27.5t57.5 -11.5t35 -1.5q116 0 207.5 51.5t150.5 143.5v-342q-158 -119 -389 -119q-233 0 -379 137
q-80 75 -133 201q-25 67 -35 114h-231l82 185h123q-7 83 -5 135h-200l82 184h141q11 64 41 144q48 120 121 198q147 154 403 154q258 0 400 -137z" />
    <glyph glyph-name="afii61289" unicode="&#x2113;" horiz-adv-x="1191" 
d="M1020 412l125 -125q-60 -106 -143 -174.5t-168.5 -96.5t-180.5 -28q-178 0 -277.5 86t-129.5 233v21q-19 -14 -56.5 -40t-56.5 -40l-78 151q23 18 88 65t97 73v477q0 274 111.5 408t297.5 134q164 0 249 -104t85 -262q0 -177 -114.5 -344.5t-342.5 -362.5l2 -61
q4 -94 59 -147.5t136 -53.5q86 0 163 55t134 136zM526 1057v-320q118 119 186 237.5t68 219.5q0 166 -116 166q-58 0 -98 -70.5t-40 -232.5z" />
    <glyph glyph-name="trademark" unicode="&#x2122;" horiz-adv-x="2048" 
d="M791 1462v-194h-226v-650h-256v650h-225v194h707zM1280 1462l182 -489l183 489h319v-844h-225v553h-4l-183 -553h-180l-182 553h-4v-553h-225v844h319z" />
    <glyph glyph-name="Omega" unicode="&#x2126;" horiz-adv-x="1650" 
d="M401 227v6q-56 41 -104 93.5t-89.5 121t-66 155.5t-24.5 181q0 132 52 251t143.5 207t225.5 140t289 52q130 0 244 -36.5t196.5 -98.5t142.5 -144t90 -174.5t30 -187.5q0 -182 -82 -323.5t-207 -236.5v-6h318v-227h-627v172q295 168 295 563q0 125 -46 230.5t-138 172
t-214 66.5q-181 0 -295 -134.5t-114 -344.5q0 -196 84 -342.5t211 -210.5v-172h-627v227h313z" />
    <glyph glyph-name="estimated" unicode="&#x212e;" horiz-adv-x="1765" 
d="M1696 692h-1317q-12 0 -12 -8v-397q0 -26 18 -47q98 -101 226.5 -158t271.5 -57q155 0 290.5 64t233.5 177h117q-111 -130 -280.5 -206t-362.5 -76q-221 0 -408 97.5t-296 265.5t-109 366q0 200 109 368.5t296 266.5t408 98q222 0 409.5 -98t296.5 -266.5t109 -368.5v-21
zM1397 745v402q0 26 -21 47q-98 97 -225 152t-268 55t-269.5 -56.5t-226.5 -156.5q-20 -20 -20 -51v-392q0 -12 12 -12h1007q11 0 11 12z" />
    <glyph glyph-name="partialdiff" unicode="&#x2202;" horiz-adv-x="1304" 
d="M225 1272l-86 201q174 124 428 124q132 0 247.5 -53t202.5 -150t137 -245.5t50 -329.5q0 -243 -78.5 -430.5t-226.5 -293t-344 -105.5q-95 0 -176 30.5t-135.5 80.5t-93.5 114t-56.5 130t-17.5 130q0 232 138 379t351 147q55 0 106.5 -13.5t88.5 -33.5t69 -46t50.5 -47
t29.5 -40h4v62q0 131 -46 240t-135 176t-204 67q-170 0 -303 -94zM586 219h2q78 0 143.5 59t102.5 143t49 175q-19 62 -88.5 122t-165.5 60q-111 0 -184.5 -90.5t-73.5 -218.5q0 -106 60.5 -178t154.5 -72z" />
    <glyph glyph-name="Delta" unicode="&#x2206;" horiz-adv-x="1499" 
d="M53 0v160l522 1282h359l510 -1280v-162h-1391zM369 227h741l-246 602q-13 40 -60 168.5t-61 176.5h-8q-10 -36 -52 -153t-56 -161z" />
    <glyph glyph-name="product" unicode="&#x220f;" horiz-adv-x="1626" 
d="M1577 1157h-234v-1352h-290v1352h-482v-1352h-288v1352h-236v252h1530v-252z" />
    <glyph glyph-name="summation" unicode="&#x2211;" horiz-adv-x="1271" 
d="M1233 -195h-1186v172l539 627l-514 613v192h1120v-242h-715v-8l445 -518l-492 -573v-9h803v-254z" />
    <glyph glyph-name="minus" unicode="&#x2212;" horiz-adv-x="1228" 
d="M1130 371h-1032v295h1032v-295z" />
    <glyph glyph-name="uni2215" unicode="&#x2215;" horiz-adv-x="342" 
d="M-143 -55h-203l842 1538h202z" />
    <glyph glyph-name="uni2219" unicode="&#x2219;" horiz-adv-x="645" 
d="M133 586q0 78 56.5 134t134.5 56t134 -56t56 -134t-56 -134.5t-134 -56.5t-134.5 56.5t-56.5 134.5z" />
    <glyph glyph-name="radical" unicode="&#x221a;" horiz-adv-x="1337" 
d="M1370 1686l-516 -1977h-233l-345 881l-161 -66l-52 152l388 155l239 -659q7 -25 23.5 -83.5t23.5 -84.5l4 -2q0 2 37 180l383 1504h209z" />
    <glyph glyph-name="infinity" unicode="&#x221e;" horiz-adv-x="1667" 
d="M1565 584v-2q0 -167 -103 -269t-243 -102q-97 0 -190.5 54t-194.5 186q-94 -117 -184.5 -178.5t-209.5 -61.5q-138 0 -239 101.5t-101 258.5q0 161 102.5 264t256.5 103q113 0 204.5 -59.5t182.5 -173.5q2 3 26 30t30 33t29.5 30.5t34 32t34.5 27.5t39.5 27.5t40.5 21
t47 18.5t49 9t55 4q144 0 239 -97.5t95 -256.5zM459 365h4q42 0 81.5 16.5t79 51t63 60t63.5 72.5q-81 108 -117 143q-82 80 -180 80q-87 0 -141 -61t-54 -158q0 -84 58 -144t143 -60zM1214 788h-2q-30 0 -61.5 -11t-54 -25t-51.5 -40.5t-43.5 -42.5t-42 -48t-35.5 -41
q97 -122 160.5 -168.5t138.5 -46.5q83 0 133.5 64t50.5 140q0 97 -53.5 158t-139.5 61z" />
    <glyph glyph-name="integral" unicode="&#x222b;" horiz-adv-x="851" 
d="M819 1720l-28 -186q-37 16 -82 16q-76 0 -115 -53q-32 -41 -44.5 -121t-12.5 -213q0 -161 17 -468t17 -492q0 -269 -79 -400q-43 -80 -119.5 -117.5t-167.5 -37.5q-49 0 -98.5 10.5t-77.5 24.5l34 194q51 -22 101 -22q65 0 98 41q33 40 48.5 110.5t15.5 198.5
q0 188 -17.5 503t-17.5 484q0 177 31.5 283.5t103.5 177.5q45 47 114 70.5t144 23.5q79 0 135 -27z" />
    <glyph glyph-name="approxequal" unicode="&#x2248;" horiz-adv-x="1228" 
d="M1040 938l103 -100q-61 -102 -139.5 -158.5t-165.5 -56.5q-64 0 -115.5 19t-134.5 65q-38 23 -61.5 35.5t-59 23t-70.5 10.5t-66 -11.5t-58.5 -36t-46.5 -46t-46 -57.5l-102 100q53 94 142.5 154.5t187.5 60.5q48 0 96 -14t71.5 -26.5t65.5 -37.5q9 -5 28.5 -16.5
t27 -15.5t23 -12.5t23 -11.5t21 -8t23 -7t22 -3.5t25.5 -1.5q59 0 107 38t99 114zM1040 537l103 -103q-129 -213 -307 -213q-64 0 -115.5 19t-132.5 65q-42 25 -64.5 37t-57.5 22.5t-69 10.5q-36 0 -66.5 -11.5t-58.5 -36.5t-46 -46t-46 -58l-102 101q53 94 142.5 154.5
t187.5 60.5q48 0 96 -14t70 -25.5t65 -36.5q11 -6 46 -26.5t50.5 -27.5t43.5 -15.5t55 -8.5q60 0 104.5 36t101.5 116z" />
    <glyph glyph-name="notequal" unicode="&#x2260;" horiz-adv-x="1228" 
d="M905 1061l-84 -184h301v-164h-368l-127 -281h495v-164h-563l-113 -248l-131 60l86 188h-297v164h365l127 281h-492v164h560l108 241z" />
    <glyph glyph-name="lessequal" unicode="&#x2264;" horiz-adv-x="1228" 
d="M1118 213l-1003 467v176l1001 465v-184l-831 -365v-6l833 -367v-186zM1124 -29h-1018v166h1018v-166z" />
    <glyph glyph-name="greaterequal" unicode="&#x2265;" horiz-adv-x="1228" 
d="M117 1321l1003 -465v-176l-1003 -467v186l831 367v4l-831 367v184zM1118 -29h-1009v166h1009v-166z" />
    <glyph glyph-name="lozenge" unicode="&#x25ca;" horiz-adv-x="1337" 
d="M1229 702l-451 -804h-229l-443 804l449 807h229zM973 696l-264 490q-34 80 -39 106h-6q-4 -14 -41 -106l-263 -477l267 -496q33 -81 37 -100h8q12 40 37 98z" />
    </font>
</defs>
</svg>
