<?xml version="1.0" standalone="no"?>
<!DOCTYPE svg PUBLIC "-//W3C//DTD SVG 1.1//EN" "http://www.w3.org/Graphics/SVG/1.1/DTD/svg11.dtd" >
<svg xmlns="http://www.w3.org/2000/svg" xmlns:xlink="http://www.w3.org/1999/xlink" version="1.1">
<metadata>
Created by FontForge 20170731 at Tue Jan  3 13:57:49 2023
 By Aleksey,,,
Copyright (c) 1990, 2002 Adobe Systems Incorporated.  All Rights Reserved. (c) 1981, 2002 Heidelberger Druckmaschinen AG. All rights reserved.
</metadata>
<defs>
<font id="HelveticaNeueLTStd-BlkCn" horiz-adv-x="1064" >
  <font-face 
    font-family="HelveticaNeueLT Std Blk Cn"
    font-weight="900"
    font-stretch="condensed"
    units-per-em="2048"
    panose-1="2 11 8 6 3 7 2 4 2 4"
    ascent="1462"
    descent="-586"
    x-height="1108"
    cap-height="1462"
    bbox="-338 -471 2251 1991"
    underline-thickness="102"
    underline-position="-307"
    unicode-range="U+0020-FB02"
  />
<missing-glyph horiz-adv-x="1024" 
d="M0 0v1434h1024v-1434h-1024zM512 809l348 522h-696zM573 717l349 -522v1044zM164 102h696l-348 523zM102 1239v-1044l349 522z" />
    <glyph glyph-name="fi" unicode="fi" horiz-adv-x="1138" 
d="M690 0v1108h369v-1108h-369zM690 1188v274h369v-274h-369zM127 0v860h-127v248h127v80q0 167 75.5 235t266.5 68q91 0 176 -12v-232q-27 6 -61 6q-37 0 -62.5 -19t-25.5 -58v-68h149v-248h-149v-860h-369z" />
    <glyph glyph-name="fl" unicode="fl" horiz-adv-x="1138" 
d="M690 0v1462h369v-1462h-369zM127 0v860h-127v248h127v80q0 167 75.5 235t266.5 68q91 0 176 -12v-232q-27 6 -61 6q-37 0 -62.5 -19t-25.5 -58v-68h149v-248h-149v-860h-369z" />
    <glyph glyph-name=".notdef" horiz-adv-x="1024" 
d="M0 0v1434h1024v-1434h-1024zM512 809l348 522h-696zM573 717l349 -522v1044zM164 102h696l-348 523zM102 1239v-1044l349 522z" />
    <glyph glyph-name=".null" horiz-adv-x="0" 
 />
    <glyph glyph-name="nonmarkingreturn" horiz-adv-x="682" 
 />
    <glyph glyph-name="space" unicode=" " horiz-adv-x="532" 
 />
    <glyph glyph-name="exclam" unicode="!" horiz-adv-x="643" 
d="M152 0v324h344v-324h-344zM182 424l-39 549v489h357v-489l-43 -549h-275z" />
    <glyph glyph-name="quotedbl" unicode="&#x22;" horiz-adv-x="985" 
d="M586 696v766h286v-766h-286zM113 696v766h286v-766h-286z" />
    <glyph glyph-name="numbersign" unicode="#" 
d="M455 829l-29 -237h182l31 237h-184zM535 0l45 354h-185l-45 -354h-225l45 354h-150v238h181l28 237h-149v238h180l45 354h225l-45 -354h183l45 354h225l-45 -354h151v-238h-180l-30 -237h151v-238h-180l-45 -354h-225z" />
    <glyph glyph-name="dollar" unicode="$" 
d="M422 -213v184q-200 22 -297.5 116t-97.5 284v55h368v-39q0 -162 127 -162q57 0 90 38t33 95q0 45 -20.5 80t-55 58.5t-79.5 43t-94.5 39.5t-99 42.5t-94.5 56t-79.5 76t-55 107t-20.5 145.5q0 383 375 444v119h188v-119q204 -20 296.5 -124.5t92.5 -313.5h-356v30
q0 66 -27.5 110t-80.5 44q-58 0 -88.5 -37.5t-30.5 -89.5q0 -58 34.5 -99.5t89 -66.5t121 -48.5t133 -56t121 -77.5t89 -124.5t34.5 -186.5q0 -204 -107.5 -310.5t-320.5 -128.5v-184h-188z" />
    <glyph glyph-name="percent" unicode="%" horiz-adv-x="1593" 
d="M1165 365q0 -141 14 -185.5t58 -44.5t58 44.5t14 185.5t-14 185t-58 44t-58 -44t-14 -185zM358 -29l650 1479h225l-649 -1479h-226zM285 1057q0 -142 13.5 -186t57.5 -44t58 44.5t14 185.5t-14 185t-58 44t-57.5 -44t-13.5 -185zM915 365q0 216 71 304.5t251 88.5
t251 -88.5t71 -304.5t-71 -305t-251 -89t-251 89t-71 305zM35 1057q0 216 70.5 304.5t250.5 88.5t251 -88.5t71 -304.5t-71 -304.5t-251 -88.5t-250.5 88.5t-70.5 304.5z" />
    <glyph glyph-name="ampersand" unicode="&#x26;" horiz-adv-x="1251" 
d="M1081 274l197 -274h-406l-63 86q-53 -30 -82 -45.5t-75.5 -34.5t-94 -27t-102.5 -8q-93 0 -173.5 26.5t-142.5 76.5t-97.5 129.5t-35.5 179.5q0 130 69.5 240.5t205.5 183.5q-140 189 -140 332q0 153 113.5 246.5t300.5 93.5q190 0 304 -93.5t114 -246.5
q0 -105 -66 -201.5t-188 -173.5l166 -223q42 67 49 172h319q-14 -284 -172 -439zM449 1163q0 -59 96 -180q121 110 121 180q0 44 -31 73.5t-78 29.5t-77.5 -29.5t-30.5 -73.5zM647 307l-194 264q-43 -33 -67 -73t-24 -74q0 -69 48 -117.5t110 -48.5q31 0 66.5 14.5
t60.5 34.5z" />
    <glyph glyph-name="quotesingle" unicode="'" horiz-adv-x="532" 
d="M123 696v766h287v-766h-287z" />
    <glyph glyph-name="parenleft" unicode="(" horiz-adv-x="643" 
d="M651 -377h-299q-291 456 -291 920q0 463 291 919h299q-245 -407 -245 -919q0 -513 245 -920z" />
    <glyph glyph-name="parenright" unicode=")" horiz-adv-x="643" 
d="M-8 1462h299q291 -456 291 -919q0 -464 -291 -920h-299q246 409 246 920q0 510 -246 919z" />
    <glyph glyph-name="asterisk" unicode="*" horiz-adv-x="831" 
d="M569 659l-153 222l-154 -222l-164 119l156 219l-262 84l63 191l260 -84v274h201v-274l260 84l64 -191l-262 -84l155 -219z" />
    <glyph glyph-name="plus" unicode="+" horiz-adv-x="1228" 
d="M471 662v374h287v-374h375v-287h-375v-375h-287v375h-375v287h375z" />
    <glyph glyph-name="comma" unicode="," horiz-adv-x="532" 
d="M94 12v394h344v-369q0 -200 -82 -297t-262 -100v176q72 7 101.5 47.5t29.5 124.5v24h-131z" />
    <glyph glyph-name="hyphen" unicode="-" horiz-adv-x="753" 
d="M57 436v312h639v-312h-639z" />
    <glyph glyph-name="period" unicode="." horiz-adv-x="532" 
d="M94 0v406h344v-406h-344z" />
    <glyph glyph-name="slash" unicode="/" horiz-adv-x="681" 
d="M-45 -29l465 1520h307l-465 -1520h-307z" />
    <glyph glyph-name="zero" unicode="0" 
d="M39 711q0 176 19 302t56 211t98 135t137.5 70.5t182.5 20.5t182.5 -20.5t138 -70.5t98 -135t56 -211t19.5 -302t-19 -302.5t-56 -211t-98.5 -134.5t-138 -71t-182.5 -21t-182.5 21t-137.5 71t-98 134.5t-56 211t-19 302.5zM420 950v-479q0 -151 25 -206.5t87 -55.5
t87.5 55.5t25.5 206.5v479q0 151 -25.5 206.5t-87.5 55.5t-87 -55.5t-25 -206.5z" />
    <glyph glyph-name="one" unicode="1" 
d="M756 0h-381v987h-275v238q179 2 262 49t119 176h275v-1450z" />
    <glyph glyph-name="two" unicode="2" 
d="M408 958h-357q2 123 21.5 209.5t68.5 147.5q110 135 385 135q111 0 194.5 -20.5t135 -55.5t83 -87t43 -107.5t11.5 -124.5q0 -140 -45.5 -240.5t-134.5 -189.5l-225 -219q-2 -2 -14.5 -14t-16.5 -16.5t-15 -16t-16 -18.5t-12.5 -17t-12 -19t-7.5 -18h499v-287h-954
q0 162 49.5 298t167.5 257l254 258q57 57 79.5 107.5t22.5 130.5q0 88 -25.5 124.5t-72.5 36.5q-48 0 -77 -40t-29 -152v-62z" />
    <glyph glyph-name="three" unicode="3" 
d="M399 1012h-344q6 227 119 331q113 107 336 107q131 0 221 -26t141.5 -79.5t73 -124.5t21.5 -171q0 -64 -18 -120.5t-65.5 -104t-119.5 -64.5v-4q229 -41 229 -318q0 -241 -117.5 -354t-355.5 -113q-127 0 -215 23t-149 77t-89 143t-28 220h356q0 -110 27 -172
q23 -53 86 -53q65 0 84.5 43.5t19.5 181.5q0 104 -32 142t-107 38h-96v238h55q90 0 128 42t38 163q0 87 -22.5 121t-73.5 34q-57 0 -80 -43.5t-23 -156.5z" />
    <glyph glyph-name="four" unicode="4" 
d="M319 545h242v483h-4zM33 270v287l459 864h413v-876h127v-275h-127v-270h-356v270h-516z" />
    <glyph glyph-name="five" unicode="5" 
d="M51 616l33 805h842v-286h-551l-17 -244q112 106 269 106q177 0 269.5 -115.5t92.5 -344.5q0 -146 -24 -248.5t-78.5 -175.5t-146.5 -107.5t-226 -34.5q-475 0 -475 416v47h356v-49q0 -98 26 -137t79 -39q41 0 62 19t33.5 87.5t12.5 204.5q0 118 -27 168.5t-81 50.5
q-49 0 -77 -30.5t-28 -92.5h-344z" />
    <glyph glyph-name="six" unicode="6" 
d="M997 1077h-356q-3 74 -29 107q-22 28 -75 28q-44 0 -74.5 -35.5t-30.5 -101.5v-231h4q24 52 92 83t152 31q81 0 142 -21.5t108 -70.5t71.5 -136.5t24.5 -211.5q0 -287 -122 -417t-363 -130q-129 0 -219.5 30t-155.5 100.5t-96 190.5t-31 296v162q0 102 5 179.5
t18.5 153.5t37 130t61 101t90 75.5t124.5 44.5t164 16q109 0 191 -21t132 -54.5t81 -83.5t42 -101t12 -113zM432 446q0 -138 23 -187.5t84 -49.5q56 0 81 51t25 186q0 138 -22.5 188t-83.5 50q-56 0 -81.5 -51.5t-25.5 -186.5z" />
    <glyph glyph-name="seven" unicode="7" 
d="M51 1110v311h946v-284q-150 -233 -253.5 -546t-125.5 -591h-393q29 293 132.5 583t277.5 527h-584z" />
    <glyph glyph-name="eight" unicode="8" 
d="M532 -29q-121 0 -208 22t-153.5 73t-99 141.5t-32.5 222.5q0 137 62.5 228t179.5 106v4q-215 52 -215 293q0 183 112.5 286t353.5 103q242 0 354.5 -103t112.5 -286q0 -241 -215 -293v-4q124 -22 183 -112.5t59 -221.5q0 -132 -32.5 -222.5t-98.5 -141.5t-153.5 -73
t-209.5 -22zM434 1038q0 -99 26.5 -137.5t71.5 -38.5q99 0 99 176q0 174 -99 174q-45 0 -71.5 -38t-26.5 -136zM420 424q0 -122 27.5 -168.5t84.5 -46.5t85 46.5t28 168.5q0 121 -28 167t-85 46t-84.5 -46t-27.5 -167z" />
    <glyph glyph-name="nine" unicode="9" 
d="M68 344h356q3 -73 29 -106q23 -29 75 -29q44 0 74.5 35.5t30.5 99.5v231h-4q-25 -51 -92.5 -81.5t-151.5 -30.5q-81 0 -142 21.5t-108 70.5t-71.5 136.5t-24.5 211.5q0 287 122 417t363 130q129 0 219.5 -30.5t155.5 -101.5t96 -191t31 -296v-159q0 -102 -5 -179.5
t-18.5 -154t-37 -130.5t-61 -101t-90 -75.5t-124.5 -44.5t-164 -16q-109 0 -191 21t-132 54.5t-81 83.5t-42 101t-12 113zM420 975q0 -138 22.5 -188t83.5 -50q56 0 81.5 51.5t25.5 186.5q0 138 -23 187.5t-84 49.5q-56 0 -81 -51t-25 -186z" />
    <glyph glyph-name="colon" unicode=":" horiz-adv-x="532" 
d="M94 702v406h344v-406h-344zM94 0v406h344v-406h-344z" />
    <glyph glyph-name="semicolon" unicode=";" horiz-adv-x="532" 
d="M94 12v394h344v-369q0 -200 -82 -297t-262 -100v176q72 7 101.5 47.5t29.5 124.5v24h-131zM94 702v406h344v-406h-344z" />
    <glyph glyph-name="less" unicode="&#x3c;" horiz-adv-x="1228" 
d="M96 389v258l1037 426v-274l-693 -281l693 -280v-275z" />
    <glyph glyph-name="equal" unicode="=" horiz-adv-x="1228" 
d="M96 604v287h1037v-287h-1037zM96 145v287h1037v-287h-1037z" />
    <glyph glyph-name="greater" unicode="&#x3e;" horiz-adv-x="1228" 
d="M96 -37v275l692 280l-692 281v274l1037 -426v-258z" />
    <glyph glyph-name="question" unicode="?" horiz-adv-x="1024" 
d="M410 999h-344q0 265 116 381q111 111 342 111q217 0 325.5 -107.5t108.5 -298.5q0 -183 -96 -290l-149 -170q-47 -55 -47 -201h-332v57q0 119 19 192t69 130l121 137q59 65 59 180q0 62 -23.5 97.5t-68.5 35.5q-35 0 -55 -17t-32.5 -74t-12.5 -163zM328 0v324h344v-324
h-344z" />
    <glyph glyph-name="at" unicode="@" horiz-adv-x="1638" 
d="M643 709q0 -68 41 -115t107 -47q91 0 149.5 61.5t58.5 147.5q0 71 -44 116.5t-117 45.5q-79 0 -137 -65.5t-58 -143.5zM1083 1094h189l-82 -432q-14 -72 -14 -95q0 -45 34 -45q28 0 58 19t58.5 55.5t46.5 101.5t18 146q0 143 -70.5 248t-191.5 158t-279 53
q-256 0 -410.5 -160t-154.5 -414q0 -263 166 -416t434 -153q231 0 393 121h225q-112 -155 -277.5 -232.5t-406.5 -77.5q-155 0 -295.5 60t-242.5 162t-162 242.5t-60 295.5t60 295.5t162 242.5t242.5 162t295.5 60q202 0 374 -74t279 -217t107 -326q0 -100 -33 -190
t-87.5 -154.5t-123 -112.5t-140.5 -71.5t-138 -23.5q-47 0 -80 24t-39 66h-8q-77 -90 -217 -90q-131 0 -225.5 100t-94.5 254q0 121 51 227t147.5 173t217.5 67q161 0 258 -125z" />
    <glyph glyph-name="A" unicode="A" horiz-adv-x="1138" 
d="M-27 0l357 1462h479l356 -1462h-405l-39 256h-303l-39 -256h-406zM676 543l-105 620h-4l-104 -620h213z" />
    <glyph glyph-name="B" unicode="B" horiz-adv-x="1175" 
d="M102 0v1462h576q198 0 298.5 -97t100.5 -267q0 -125 -57 -214.5t-172 -113.5v-4q56 -5 102 -27t76.5 -54.5t51.5 -74.5t30.5 -86.5t9.5 -91.5q0 -202 -106.5 -317t-333.5 -115h-576zM483 1188v-299h92q56 0 88.5 42.5t32.5 104.5q0 64 -32.5 108t-88.5 44h-92zM483 631
v-357h107q56 0 95.5 48t39.5 133q0 81 -39.5 128.5t-95.5 47.5h-107z" />
    <glyph glyph-name="C" unicode="C" horiz-adv-x="1099" 
d="M674 936v82q0 122 -24 168.5t-81 46.5q-30 0 -50.5 -9t-35 -34.5t-23 -58.5t-13 -95.5t-6 -129.5t-1.5 -175t1.5 -175t6 -129.5t13 -95.5t23 -58.5t35 -34.5t50.5 -9q69 0 92 74t23 285h369v-109q0 -508 -484 -508q-108 0 -187.5 18t-138 58.5t-96 98.5t-60 146.5
t-31.5 192.5t-9 246q0 214 25.5 355t87.5 233.5t160.5 132t248.5 39.5q248 0 360.5 -120t112.5 -343v-92h-368z" />
    <glyph glyph-name="D" unicode="D" horiz-adv-x="1175" 
d="M471 1188v-914h76q39 0 63.5 5.5t44.5 25.5t30.5 48.5t17 84.5t8.5 121.5t2 171.5t-2 171.5t-8.5 121.5t-17 84.5t-30.5 48.5t-44.5 25.5t-63.5 5.5h-76zM90 0v1462h553q72 0 131.5 -13t104.5 -34.5t80 -57.5t58.5 -73t40.5 -91t26 -101.5t14 -114.5t6.5 -119.5
t1.5 -126.5t-1.5 -126.5t-6.5 -119.5t-14 -114.5t-26 -101.5t-40.5 -91t-58.5 -73t-80 -57.5t-104.5 -34.5t-131.5 -13h-553z" />
    <glyph glyph-name="E" unicode="E" horiz-adv-x="1024" 
d="M90 0v1462h866v-311h-485v-250h455v-299h-455v-291h504v-311h-885z" />
    <glyph glyph-name="F" unicode="F" horiz-adv-x="985" 
d="M90 0v1462h866v-311h-485v-250h455v-299h-455v-602h-381z" />
    <glyph glyph-name="G" unicode="G" horiz-adv-x="1138" 
d="M582 537v258h491v-795h-258l-8 129h-4q-64 -158 -316 -158q-64 0 -116.5 10.5t-93 29t-71.5 50.5t-53.5 67t-38 87.5t-25 103t-15 122t-7 136.5t-1.5 154q0 156 13 268t48.5 209.5t96 157t156.5 92.5t230 33q104 0 186.5 -27.5t145.5 -85t97 -153.5t34 -226h-368
q0 111 -21 170q-22 64 -88 64q-32 0 -53.5 -9t-37.5 -34.5t-24.5 -58.5t-13.5 -95.5t-6.5 -129t-1.5 -175.5q0 -108 1.5 -175t6 -129.5t13 -95.5t23 -58.5t35 -34.5t50.5 -9q43 0 69 22.5t42.5 92t17.5 193.5h-135z" />
    <glyph glyph-name="H" unicode="H" horiz-adv-x="1175" 
d="M90 0v1462h381v-536h234v536h380v-1462h-380v602h-234v-602h-381z" />
    <glyph glyph-name="I" unicode="I" horiz-adv-x="532" 
d="M76 0v1462h381v-1462h-381z" />
    <glyph glyph-name="J" unicode="J" horiz-adv-x="985" 
d="M543 1462h381v-1005q0 -258 -118.5 -372t-359.5 -114q-233 0 -338.5 118.5t-105.5 354.5v31h344v-72q0 -98 25.5 -136t72.5 -38t73 38.5t26 135.5v1059z" />
    <glyph glyph-name="K" unicode="K" horiz-adv-x="1138" 
d="M76 0v1462h381v-561h4l282 561h406l-369 -639l414 -823h-434l-223 510l-80 -123v-387h-381z" />
    <glyph glyph-name="L" unicode="L" horiz-adv-x="948" 
d="M90 0v1462h381v-1151h469v-311h-850z" />
    <glyph glyph-name="M" unicode="M" horiz-adv-x="1552" 
d="M76 0v1462h545l153 -866h4l154 866h545v-1462h-357v1090h-4l-203 -1090h-274l-203 1090h-4v-1090h-356z" />
    <glyph glyph-name="N" unicode="N" horiz-adv-x="1212" 
d="M90 0v1462h426l246 -901h4v901h356v-1462h-417l-254 903h-5v-903h-356z" />
    <glyph glyph-name="O" unicode="O" horiz-adv-x="1138" 
d="M47 731q0 209 26.5 350t88.5 234.5t161 134.5t246 41q289 0 406 -173t117 -587t-117 -587t-406 -173q-147 0 -246 41t-161 134.5t-88.5 234.5t-26.5 350zM440 731q0 -108 1.5 -175t6 -129.5t13 -95.5t23 -58.5t35 -34.5t50.5 -9t50.5 9t35 34.5t23 58.5t13 95.5t6 129.5
t1.5 175t-1.5 175t-6 129.5t-13 95.5t-23 58.5t-35 34.5t-50.5 9t-50.5 -9t-35 -34.5t-23 -58.5t-13 -95.5t-6 -129.5t-1.5 -175z" />
    <glyph glyph-name="P" unicode="P" horiz-adv-x="1099" 
d="M76 0v1462h571q209 0 315.5 -124t106.5 -326q0 -223 -123 -339t-356 -116h-133v-557h-381zM457 1188v-357h71q148 0 148 179q0 178 -148 178h-71z" />
    <glyph glyph-name="Q" unicode="Q" horiz-adv-x="1138" 
d="M440 731q0 -108 1.5 -175t6 -129.5t13 -95.5t23 -58.5t35 -34.5t50.5 -9t50.5 9t35 34.5t23 58.5t13 95.5t6 129.5t1.5 175t-1.5 175t-6 129.5t-13 95.5t-23 58.5t-35 34.5t-50.5 9t-50.5 -9t-35 -34.5t-23 -58.5t-13 -95.5t-6 -129.5t-1.5 -175zM1145 -45l-230 -199
l-208 226q-9 -1 -31.5 -4.5t-34.5 -4.5q-23 -2 -72 -2q-147 0 -246 41t-161 134.5t-88.5 234.5t-26.5 350t26.5 350t88.5 234.5t161 134.5t246 41q289 0 406 -173t117 -587q0 -425 -123 -594z" />
    <glyph glyph-name="R" unicode="R" horiz-adv-x="1175" 
d="M90 0v1462h596q208 0 304.5 -104.5t96.5 -284.5q0 -309 -249 -348v-4q132 -11 185.5 -92t53.5 -236v-125q0 -171 19 -202l6 -9q5 -9 6.5 -11t7 -8.5t11 -10.5t12.5 -7v-20h-406q-37 78 -37 279v98q0 122 -27 165.5t-98 43.5h-100v-586h-381zM471 1188v-344h76
q79 0 119.5 46.5t40.5 127.5q0 90 -38 130t-124 40h-74z" />
    <glyph glyph-name="S" unicode="S" horiz-adv-x="1099" 
d="M1016 1040h-357v35q0 69 -27.5 113.5t-80.5 44.5q-58 0 -88.5 -37.5t-30.5 -91.5q0 -58 34.5 -100t89.5 -68.5t121 -52t132.5 -60t121.5 -82t89.5 -129t34.5 -190.5q0 -451 -518 -451q-246 0 -369 96t-123 316v51h369v-35q0 -170 125 -170q57 0 90 40t33 102
q0 46 -20.5 81.5t-55 59.5t-79.5 44t-95 40t-99.5 43t-94.5 57.5t-79.5 78t-55 110t-20.5 149.5q0 223 120.5 340t359.5 117q248 0 360.5 -108t112.5 -343z" />
    <glyph glyph-name="T" unicode="T" horiz-adv-x="946" 
d="M283 0v1139h-287v323h954v-323h-286v-1139h-381z" />
    <glyph glyph-name="U" unicode="U" horiz-adv-x="1138" 
d="M74 1462h381v-1054q0 -101 28 -140t86 -39t86.5 39.5t28.5 139.5v1054h381v-958q0 -152 -32 -256t-97.5 -164.5t-154 -86.5t-212.5 -26t-212.5 26t-154 86.5t-97 164.5t-31.5 256v958z" />
    <glyph glyph-name="V" unicode="V" 
d="M287 0l-316 1462h406l153 -1102h5l153 1102h406l-316 -1462h-491z" />
    <glyph glyph-name="W" unicode="W" horiz-adv-x="1593" 
d="M487 451l138 1011h344l149 -1011h4l103 1011h368l-250 -1462h-417l-127 983h-4l-127 -983h-418l-250 1462h369l114 -1011h4z" />
    <glyph glyph-name="X" unicode="X" horiz-adv-x="1097" 
d="M322 741l-322 721h426l121 -424h4l121 424h426l-318 -721l342 -741h-426l-145 440h-4l-146 -440h-426z" />
    <glyph glyph-name="Y" unicode="Y" 
d="M342 0v575l-373 887h418l143 -510h5l143 510h418l-373 -887v-575h-381z" />
    <glyph glyph-name="Z" unicode="Z" horiz-adv-x="985" 
d="M41 0v274l459 877h-428v311h872v-274l-467 -877h467v-311h-903z" />
    <glyph glyph-name="bracketleft" unicode="[" horiz-adv-x="643" 
d="M90 -377v1839h553v-258h-209v-1323h209v-258h-553z" />
    <glyph glyph-name="backslash" unicode="\" horiz-adv-x="681" 
d="M420 -29l-465 1520h307l465 -1520h-307z" />
    <glyph glyph-name="bracketright" unicode="]" horiz-adv-x="643" 
d="M209 -119v1323h-209v258h553v-1839h-553v258h209z" />
    <glyph glyph-name="asciicircum" unicode="^" horiz-adv-x="1228" 
d="M96 674l359 747h319l359 -747h-287l-232 489l-231 -489h-287z" />
    <glyph glyph-name="underscore" unicode="_" horiz-adv-x="1024" 
d="M0 -256v102h1024v-102h-1024z" />
    <glyph glyph-name="grave" unicode="`" horiz-adv-x="532" 
d="M199 1210l-197 299h344l90 -299h-237z" />
    <glyph glyph-name="a" unicode="a" horiz-adv-x="1024" 
d="M969 0h-357q-9 31 -22 125h-4q-30 -72 -97.5 -113t-152.5 -41q-158 0 -232.5 87.5t-74.5 238.5q0 157 66.5 236t240.5 120l145 35q59 13 84 41t25 80q0 102 -94 102q-55 0 -79.5 -31t-25.5 -116h-319q0 91 28.5 160t71.5 108.5t102.5 64t112 32.5t109.5 8
q103 0 178 -15.5t136.5 -54t92.5 -110.5t31 -177v-540q0 -176 35 -240zM475 219q60 0 87.5 45t27.5 137v134h-4q-9 -13 -27.5 -20t-48 -14.5t-49.5 -17.5q-42 -20 -59 -53t-17 -90q0 -55 24.5 -88t65.5 -33z" />
    <glyph glyph-name="b" unicode="b" 
d="M80 0v1462h369v-479h4q50 154 231 154q83 0 143.5 -27.5t106 -91t68 -173t22.5 -267.5q0 -316 -75 -461.5t-257 -145.5q-97 0 -157.5 44t-94.5 137h-4v-152h-356zM449 553q0 -182 20 -244.5t82 -62.5q63 0 83.5 62.5t20.5 244.5q0 183 -20.5 246t-83.5 63q-62 0 -82 -63
t-20 -246z" />
    <glyph glyph-name="c" unicode="c" horiz-adv-x="985" 
d="M956 674h-331q0 123 -25 178q-21 47 -82 47q-43 0 -65.5 -30.5t-32.5 -103.5t-10 -212t10 -211.5t32.5 -102.5t65.5 -30q54 0 80.5 41t26.5 141v72h331q0 -135 -22.5 -226t-75.5 -149q-105 -117 -340 -117q-92 0 -159.5 12.5t-130 49t-102 98t-62.5 163t-23 241.5
q0 110 13.5 198t36.5 150.5t59 108.5t75.5 73.5t92.5 44t104 22t115 5.5q96 0 169 -22t120 -61t76.5 -98t41.5 -127.5t12 -154.5z" />
    <glyph glyph-name="d" unicode="d" 
d="M616 983v479h369v-1462h-356v152h-4q-34 -93 -94.5 -137t-157.5 -44q-182 0 -257 145.5t-75 461.5q0 153 24 263t69.5 174t106 93t140.5 29q181 0 231 -154h4zM410 553q0 -182 20.5 -244.5t83.5 -62.5q62 0 82 62.5t20 244.5q0 183 -20 246t-82 63q-63 0 -83.5 -63
t-20.5 -246z" />
    <glyph glyph-name="e" unicode="e" horiz-adv-x="985" 
d="M956 492h-546v-146q0 -149 100 -149q53 0 78.5 42t25.5 150h332q-3 -205 -104 -309q-106 -109 -330 -109q-135 0 -224 31t-144.5 102.5t-79 179t-23.5 269.5q0 316 110 450t361 134q114 0 194.5 -27t137.5 -89t84.5 -165t27.5 -252v-112zM612 692v49q0 90 -22.5 130
t-79.5 40q-56 0 -78 -40t-22 -130v-49h202z" />
    <glyph glyph-name="f" unicode="f" horiz-adv-x="645" 
d="M127 0v860h-127v248h127v80q0 167 75.5 235t266.5 68q91 0 176 -12v-232q-27 6 -61 6q-37 0 -62.5 -19t-25.5 -58v-68h149v-248h-149v-860h-369z" />
    <glyph glyph-name="g" unicode="g" 
d="M420 584q0 -114 12.5 -176t34 -82.5t59.5 -20.5q37 0 58 20.5t33 82.5t12 176q0 113 -12 175t-33 82.5t-58 20.5q-38 0 -59.5 -20.5t-34 -82.5t-12.5 -175zM641 954v154h344v-1090q0 -395 -463 -395q-96 0 -168 13.5t-133 47t-94 96.5t-35 154h332q0 -41 24.5 -63.5
t67.5 -22.5q52 0 82.5 27.5t30.5 110.5v211h-4q-61 -166 -250 -166q-324 0 -324 547q0 158 22.5 267.5t68 173t106.5 91t145 27.5q83 0 149 -44.5t95 -138.5h4z" />
    <glyph glyph-name="h" unicode="h" 
d="M74 0v1462h368v-477h4q42 81 110.5 116.5t145.5 35.5q60 0 109.5 -15t91.5 -48.5t65 -94t23 -143.5v-836h-368v731q0 70 -21 100.5t-70 30.5t-69.5 -30.5t-20.5 -100.5v-731h-368z" />
    <glyph glyph-name="i" unicode="i" horiz-adv-x="528" 
d="M80 0v1108h369v-1108h-369zM80 1188v274h369v-274h-369z" />
    <glyph glyph-name="j" unicode="j" horiz-adv-x="528" 
d="M80 -25v1133h369v-1180q0 -75 -18 -128.5t-46.5 -84.5t-75.5 -48t-92.5 -22t-110.5 -5q-77 0 -165 10v248q75 0 107 15t32 62zM80 1188v274h369v-274h-369z" />
    <glyph glyph-name="k" unicode="k" horiz-adv-x="1024" 
d="M63 0v1462h369v-737h4l205 383h393l-307 -457l346 -651h-393l-186 381l-62 -96v-285h-369z" />
    <glyph glyph-name="l" unicode="l" horiz-adv-x="528" 
d="M80 0v1462h369v-1462h-369z" />
    <glyph glyph-name="m" unicode="m" horiz-adv-x="1593" 
d="M612 0v731q0 70 -20.5 100.5t-69.5 30.5t-69.5 -30.5t-20.5 -100.5v-731h-369v1108h357v-135h4q71 164 268 164q111 0 173.5 -41t97.5 -129q78 170 278 170q51 0 92.5 -8.5t79 -29.5t62.5 -54.5t40 -86t15 -122.5v-836h-369v731q0 70 -20.5 100.5t-69.5 30.5t-69.5 -30.5
t-20.5 -100.5v-731h-369z" />
    <glyph glyph-name="n" unicode="n" 
d="M74 0v1108h356v-135h4q71 164 268 164q51 0 92.5 -8.5t79 -29.5t62.5 -54.5t40 -86t15 -122.5v-836h-368v731q0 70 -21 100.5t-70 30.5t-69.5 -30.5t-20.5 -100.5v-731h-368z" />
    <glyph glyph-name="o" unicode="o" horiz-adv-x="1024" 
d="M983 553q0 -69 -4 -124.5t-16.5 -117.5t-33.5 -109.5t-57 -92.5t-84.5 -74t-118.5 -46.5t-157 -17.5q-91 0 -162 16.5t-120 43t-84.5 70.5t-55.5 89.5t-31 110t-14.5 121t-3.5 133.5q0 69 4 124.5t16.5 117.5t33.5 109.5t57 92.5t84.5 74t118.5 46.5t157 17.5
q91 0 162 -16.5t120 -43t84.5 -70.5t55.5 -89.5t31 -110t14.5 -121t3.5 -133.5zM410 553q0 -143 8.5 -214.5t30 -100.5t63.5 -29q43 0 64 29t29.5 99.5t8.5 215.5q0 146 -8.5 217t-29.5 100t-64 29q-42 0 -63.5 -29t-30 -101t-8.5 -216z" />
    <glyph glyph-name="p" unicode="p" 
d="M80 -360v1468h356v-152h4q66 181 252 181q182 0 257 -145.5t75 -461.5q0 -125 -16 -221t-44.5 -159.5t-71.5 -104t-93.5 -57.5t-114.5 -17q-181 0 -231 154h-4v-485h-369zM449 555q0 -183 20 -246t82 -63q63 0 83.5 63t20.5 246q0 182 -20.5 244.5t-83.5 62.5
q-62 0 -82 -62.5t-20 -244.5z" />
    <glyph glyph-name="q" unicode="q" 
d="M616 -360v485h-4q-50 -154 -231 -154q-83 0 -143.5 27.5t-106 91t-68 173t-22.5 267.5q0 316 75 461.5t257 145.5q97 0 157.5 -44t94.5 -137h4v152h356v-1468h-369zM616 555q0 182 -20 244.5t-82 62.5q-63 0 -83.5 -62.5t-20.5 -244.5q0 -183 20.5 -246t83.5 -63
q62 0 82 63t20 246z" />
    <glyph glyph-name="r" unicode="r" horiz-adv-x="720" 
d="M63 0v1108h357v-176h4q30 98 97 151.5t151 53.5h59v-344q-44 8 -92 8q-102 0 -154.5 -46t-52.5 -151v-604h-369z" />
    <glyph glyph-name="s" unicode="s" horiz-adv-x="948" 
d="M35 344h323q0 -70 27 -108q28 -39 78 -39q44 0 75 25.5t31 68.5q0 39 -29.5 67t-76.5 45.5t-104 34.5t-114 42.5t-104 61.5t-76.5 100t-29.5 149q0 154 112.5 250t327.5 96q416 0 416 -349h-320q0 67 -24.5 95t-73.5 28q-42 0 -68 -23.5t-26 -62.5q0 -36 29.5 -61
t76.5 -40.5t104 -31t114 -40.5t104 -60.5t76.5 -99.5t29.5 -150q0 -165 -119.5 -268t-324.5 -103q-227 0 -330.5 93.5t-103.5 279.5z" />
    <glyph glyph-name="t" unicode="t" horiz-adv-x="645" 
d="M4 860v248h123v326h369v-326h145v-248h-145v-528q0 -46 21.5 -66t66.5 -20h57v-246q-102 -12 -201 -12q-60 0 -101.5 4t-79 14.5t-60.5 30t-40.5 51t-24.5 76t-7 106.5v590h-123z" />
    <glyph glyph-name="u" unicode="u" 
d="M74 272v836h368v-731q0 -70 20.5 -100.5t69.5 -30.5t70 30.5t21 100.5v731h368v-1108h-356v135h-4q-71 -164 -269 -164q-65 0 -114 14t-90 47t-62.5 93.5t-21.5 146.5z" />
    <glyph glyph-name="v" unicode="v" horiz-adv-x="948" 
d="M256 0l-268 1108h381l104 -797h4l103 797h381l-271 -1108h-434z" />
    <glyph glyph-name="w" unicode="w" horiz-adv-x="1515" 
d="M225 0l-225 1108h356l93 -797h4l108 797h393l109 -797h4l92 797h357l-226 -1108h-418l-112 784h-4l-113 -784h-418z" />
    <glyph glyph-name="x" unicode="x" horiz-adv-x="985" 
d="M285 571l-281 537h369l110 -297l127 297h369l-279 -537l293 -571h-368l-129 334l-136 -334h-368z" />
    <glyph glyph-name="y" unicode="y" horiz-adv-x="948" 
d="M102 -352v258q36 -8 82 -8q61 0 92 29.5t31 54.5q0 23 -16 81l-293 1045h381l113 -748h4l106 748h369l-297 -1145q-48 -186 -129.5 -254.5t-235.5 -68.5q-126 0 -207 8z" />
    <glyph glyph-name="z" unicode="z" horiz-adv-x="909" 
d="M47 821v287h823v-274l-413 -547h424v-287h-852v287l397 534h-379z" />
    <glyph glyph-name="braceleft" unicode="{" horiz-adv-x="681" 
d="M129 -96v364q0 35 -10 61.5t-25 40.5t-35 22.5t-36 11t-33 2.5v274q22 0 42.5 4t44 15t38 37t14.5 63v383q0 139 78.5 209.5t228.5 70.5h246v-258h-115q-30 0 -50.5 -11.5t-29 -32.5t-11.5 -40t-3 -43v-344q0 -53 -23.5 -92t-61 -58t-70.5 -27.5t-66 -10.5v-4
q31 -3 52 -6t56 -16t57 -33.5t39 -59.5t17 -92v-326q0 -24 3 -43t11.5 -40t29 -32.5t50.5 -11.5h115v-258h-246q-150 0 -228.5 71t-78.5 210z" />
    <glyph glyph-name="bar" unicode="|" horiz-adv-x="454" 
d="M84 -29v1520h287v-1520h-287z" />
    <glyph glyph-name="braceright" unicode="}" horiz-adv-x="681" 
d="M0 -377v258h115q30 0 50.5 11.5t29 32.5t11.5 40t3 43v344q0 53 23.5 92t61 58.5t70.5 28t66 10.5v4q-31 3 -52 6t-56 16t-57 33.5t-39 59.5t-17 92v325q0 24 -3 43t-11.5 40t-29 32.5t-50.5 11.5h-115v258h246q150 0 228.5 -70.5t78.5 -209.5v-365q0 -43 14.5 -72.5
t38.5 -42.5t44 -17.5t42 -4.5v-274q-22 0 -42.5 -4t-44 -15t-38 -37t-14.5 -63v-383q0 -139 -78.5 -210t-228.5 -71h-246z" />
    <glyph glyph-name="asciitilde" unicode="~" horiz-adv-x="1228" 
d="M215 299l-74 256q37 81 102.5 128.5t153.5 47.5q52 0 117.5 -21.5t117 -48t108.5 -48t94 -21.5q49 0 91.5 36.5t88.5 108.5l73 -256q-114 -176 -256 -176q-54 0 -112 21.5t-101 48t-105.5 48t-125.5 21.5q-53 0 -98 -37t-74 -108z" />
    <glyph glyph-name="uni00A0" unicode="&#xa0;" horiz-adv-x="532" 
 />
    <glyph glyph-name="exclamdown" unicode="&#xa1;" horiz-adv-x="643" 
d="M147 791v323h345v-323h-345zM143 -348v489l39 549h275l43 -549v-489h-357z" />
    <glyph glyph-name="cent" unicode="&#xa2;" 
d="M469 -209v180q-209 18 -301 150q-92 134 -92 407q0 162 25.5 275.5t78 182.5t122 104t167.5 47v155h164v-155q88 -8 152 -35.5t103 -67t62 -98.5t31 -120.5t8 -141.5h-332q0 126 -24 178q-21 47 -82 47q-62 0 -84.5 -71.5t-22.5 -274.5q0 -138 10 -211t32.5 -103
t64.5 -30q54 0 80 41t26 141v72h332q0 -135 -22.5 -226t-75.5 -149q-84 -93 -258 -117v-180h-164z" />
    <glyph glyph-name="sterling" unicode="&#xa3;" 
d="M25 602v213h139q-88 131 -88 258q0 183 124 280t328 97q255 0 366 -105t114 -313h-332v33q0 75 -33 111t-84 36q-54 0 -84.5 -34.5t-30.5 -83.5q0 -89 101 -279h350v-213h-283q11 -46 11 -61q0 -65 -51.5 -141t-139.5 -140l4 -4q40 14 68 14q39 0 111 -25.5t110 -25.5
q37 0 84 18t129 62l102 -229q-138 -99 -329 -99q-63 0 -190 37t-191 37q-99 0 -221 -61l-84 215q100 66 164.5 157t64.5 187q0 17 -10 59h-219z" />
    <glyph glyph-name="currency" unicode="&#xa4;" 
d="M166 199l-148 157l107 105q-74 117 -74 250q0 132 78 258l-111 108l148 146l113 -105q117 74 253 74q137 0 254 -74l113 105l148 -146l-111 -108q78 -126 78 -258q0 -133 -74 -250l107 -105l-148 -157l-106 110q-116 -80 -261 -80q-144 0 -260 80zM326 711
q0 -109 53.5 -166.5t152.5 -57.5t153 57.5t54 166.5t-54 166t-153 57t-152.5 -57t-53.5 -166z" />
    <glyph glyph-name="yen" unicode="&#xa5;" 
d="M348 0v252h-256v213h256v94l-12 35h-244v213h154l-256 614h393l147 -532h5l147 532h393l-256 -614h154v-213h-244l-12 -35v-94h256v-213h-256v-252h-369z" />
    <glyph glyph-name="brokenbar" unicode="&#xa6;" horiz-adv-x="454" 
d="M84 -29v594h287v-594h-287zM84 897v594h287v-594h-287z" />
    <glyph glyph-name="section" unicode="&#xa7;" 
d="M969 1130h-320q0 123 -108 123q-40 0 -68.5 -24t-28.5 -60q0 -34 25 -60t65.5 -42t93 -35.5t106.5 -37.5t106.5 -50t93 -72t65.5 -104t25 -145q0 -180 -147 -295q112 -87 112 -277q0 -97 -35.5 -169t-99.5 -114.5t-146 -62.5t-184 -20q-445 0 -448 372v33h344
q0 -88 25.5 -128t76.5 -40q50 0 74.5 32.5t24.5 82.5q0 43 -25 76t-65.5 52.5t-93 40t-106.5 38t-106.5 48t-93 68.5t-65.5 101t-25 143q0 88 48.5 172.5t121.5 122.5q-59 38 -91 104.5t-32 133.5q0 166 113.5 260t333.5 94q434 0 434 -322v-39zM408 553l241 -111
q53 38 70.5 69t17.5 69q0 42 -37 74.5t-84 49t-106.5 39.5t-87.5 43q-94 -79 -94 -139q0 -29 17.5 -51t62.5 -43z" />
    <glyph glyph-name="dieresis" unicode="&#xa8;" horiz-adv-x="532" 
d="M-57 1204v287h274v-287h-274zM315 1204v287h275v-287h-275z" />
    <glyph glyph-name="copyright" unicode="&#xa9;" horiz-adv-x="1638" 
d="M985 612h225q-15 -100 -68 -172.5t-127.5 -107.5t-162.5 -35q-184 0 -300 121t-116 303q0 189 112 315.5t292 126.5q141 0 237.5 -79.5t120.5 -227.5h-213q-13 58 -51 88.5t-94 30.5q-91 0 -141 -65t-50 -177q0 -113 53.5 -180.5t143.5 -67.5q57 0 94.5 32t44.5 95z
M59 731q0 155 60 295.5t162 242.5t242.5 162t295.5 60t295.5 -60t242.5 -162t162 -242.5t60 -295.5t-60 -295.5t-162 -242.5t-242.5 -162t-295.5 -60t-295.5 60t-242.5 162t-162 242.5t-60 295.5zM322 731q0 -258 130.5 -396t366.5 -138t367 138t131 396t-131 396.5
t-367 138.5t-366.5 -138t-130.5 -397z" />
    <glyph glyph-name="ordfeminine" unicode="&#xaa;" horiz-adv-x="720" 
d="M287 1237h-238q0 56 16.5 97.5t43 65.5t68 38.5t82.5 19t95 4.5q129 0 200 -22.5t97.5 -67t26.5 -123.5v-325q0 -101 22 -146h-268q-8 20 -16 78h-4q-19 -46 -62 -68q-43 -24 -98 -24q-125 0 -178.5 50.5t-53.5 143.5q0 92 48 136.5t184 76.5l94 23q38 9 54 25t16 47
q0 20 -16 32.5t-46 12.5q-34 0 -50 -16.5t-17 -57.5zM416 1038v66h-4q-5 -9 -16.5 -14t-31.5 -9.5t-32 -9.5q-49 -21 -49 -86q0 -23 16 -40t43 -17q39 0 56.5 27t17.5 83z" />
    <glyph glyph-name="guillemotleft" unicode="&#xab;" horiz-adv-x="909" 
d="M489 367v450l320 213v-323l-172 -115l172 -115v-323zM100 367v450l320 213v-323l-172 -115l172 -115v-323z" />
    <glyph glyph-name="logicalnot" unicode="&#xac;" horiz-adv-x="1228" 
d="M846 223v381h-750v287h1037v-668h-287z" />
    <glyph glyph-name="uni00AD" unicode="&#xad;" horiz-adv-x="753" 
d="M57 436v312h639v-312h-639z" />
    <glyph glyph-name="registered" unicode="&#xae;" horiz-adv-x="1638" 
d="M59 731q0 155 60 295.5t162 242.5t242.5 162t295.5 60t295.5 -60t242.5 -162t162 -242.5t60 -295.5t-60 -295.5t-162 -242.5t-242.5 -162t-295.5 -60t-295.5 60t-242.5 162t-162 242.5t-60 295.5zM322 731q0 -258 130.5 -396t366.5 -138t367 138t131 396t-131 396.5
t-367 138.5t-366.5 -138t-130.5 -397zM530 371v774h256q174 0 262.5 -56.5t88.5 -195.5q0 -101 -47.5 -151t-106.5 -58l174 -313h-209l-164 293h-65v-293h-189zM719 815h100q56 0 86.5 23.5t30.5 68.5q0 86 -117 86h-100v-178z" />
    <glyph glyph-name="macron" unicode="&#xaf;" horiz-adv-x="532" 
d="M-57 1262v200h647v-200h-647z" />
    <glyph glyph-name="degree" unicode="&#xb0;" horiz-adv-x="819" 
d="M82 1122q0 135 96.5 231.5t231.5 96.5t231 -96.5t96 -231.5t-96 -231t-231 -96t-231.5 96t-96.5 231zM270 1122q0 -58 40.5 -98.5t99.5 -40.5q58 0 98.5 40.5t40.5 98.5q0 59 -40.5 99.5t-98.5 40.5t-99 -41t-41 -99z" />
    <glyph glyph-name="plusminus" unicode="&#xb1;" horiz-adv-x="1228" 
d="M471 856v180h287v-180h375v-287h-375v-180h-287v180h-375v287h375zM96 0v287h1037v-287h-1037z" />
    <glyph glyph-name="twosuperior" unicode="&#xb2;" horiz-adv-x="757" 
d="M301 1139h-262q0 84 12.5 138t44.5 91q35 41 100.5 61.5t178.5 20.5q104 0 174.5 -18t106 -53t49.5 -75t14 -94q0 -132 -119 -241l-145 -133q-51 -44 -62 -74h326v-189h-660q0 203 142 336l164 156q38 35 52.5 65t14.5 78q0 39 -17.5 58.5t-47.5 19.5q-66 0 -66 -119v-28
z" />
    <glyph glyph-name="threesuperior" unicode="&#xb3;" horiz-adv-x="757" 
d="M299 1192h-250q0 131 78 197q72 61 246 61q79 0 136.5 -10.5t94.5 -29.5t59 -49.5t30.5 -67t8.5 -85.5q0 -61 -31.5 -110.5t-99.5 -65.5v-4q154 -21 154 -188q0 -147 -82.5 -214t-263.5 -67q-187 0 -266 61t-80 214h262q0 -40 20 -78q17 -33 56 -33q42 0 54.5 23t12.5 90
q0 63 -21 85.5t-69 22.5h-63v152h37q58 0 82 24t24 92q0 38 -14.5 56t-46.5 18q-35 0 -51.5 -22.5t-16.5 -71.5z" />
    <glyph glyph-name="acute" unicode="&#xb4;" horiz-adv-x="532" 
d="M117 1210l90 299h344l-197 -299h-237z" />
    <glyph glyph-name="mu" unicode="&#xb5;" 
d="M74 -360v1468h368v-731q0 -70 20.5 -100.5t69.5 -30.5t70 30.5t21 100.5v731h368v-1108h-356v135h-4q-71 -164 -158 -164q-19 0 -31 6v-337h-368z" />
    <glyph glyph-name="paragraph" unicode="&#xb6;" horiz-adv-x="1363" 
d="M422 -287v963q-67 0 -129 25t-113 72t-81.5 122.5t-30.5 167.5q0 96 28 168t74 115.5t115.5 70t142 36t164.5 9.5h598v-1749h-287v1524h-194v-1524h-287z" />
    <glyph glyph-name="periodcentered" unicode="&#xb7;" horiz-adv-x="532" 
d="M63 561q0 85 59 144t144 59t144 -59t59 -144t-59 -144t-144 -59t-144 59t-59 144z" />
    <glyph glyph-name="cedilla" unicode="&#xb8;" horiz-adv-x="532" 
d="M229 12h123l-67 -129q29 11 59 11q79 0 133.5 -41.5t54.5 -120.5q0 -99 -71.5 -151t-194.5 -52q-130 0 -233 41l45 115q74 -33 139 -33q46 0 74 19.5t28 49.5q0 36 -25 51t-58 15q-28 0 -60 -14l-51 43z" />
    <glyph glyph-name="onesuperior" unicode="&#xb9;" horiz-adv-x="681" 
d="M223 573v578h-178v164q116 2 170.5 30t81.5 105h213v-877h-287z" />
    <glyph glyph-name="ordmasculine" unicode="&#xba;" horiz-adv-x="720" 
d="M20 1112q0 195 72 272.5t268 77.5t268 -77.5t72 -272.5q0 -98 -15.5 -162t-55 -107t-104 -61t-165.5 -18t-165.5 18t-104 61t-55 107t-15.5 162zM295 1112q0 -109 13.5 -146.5t51.5 -37.5q40 0 53 37.5t13 146.5q0 111 -13 148.5t-53 37.5q-38 0 -51.5 -38t-13.5 -148z
" />
    <glyph glyph-name="guillemotright" unicode="&#xbb;" horiz-adv-x="909" 
d="M100 154v323l172 115l-172 115v323l320 -213v-450zM489 154v323l173 115l-173 115v323l320 -213v-450z" />
    <glyph glyph-name="onequarter" unicode="&#xbc;" horiz-adv-x="1667" 
d="M1147 336h158v268h-5zM934 147v189l299 526h321v-526h82v-189h-82v-147h-249v147h-371zM299 -63l793 1548h225l-793 -1548h-225zM199 573v578h-179v164q116 2 170.5 30t81.5 105h213v-877h-286z" />
    <glyph glyph-name="onehalf" unicode="&#xbd;" horiz-adv-x="1667" 
d="M229 -63l793 1548h225l-792 -1548h-226zM199 573v578h-179v164q116 2 170.5 30t81.5 105h213v-877h-286zM1227 565h-262q0 85 12.5 139.5t44.5 90.5q35 41 100 61.5t178 20.5q104 0 174.5 -18t106.5 -53t50 -75t14 -94q0 -133 -119 -242l-146 -133q-50 -43 -61 -74h326
v-188h-660q0 204 141 336l164 156q38 35 53 65t15 78q0 39 -18 58.5t-48 19.5q-65 0 -65 -119v-29z" />
    <glyph glyph-name="threequarters" unicode="&#xbe;" horiz-adv-x="1667" 
d="M1122 336h158v268h-4zM934 147v189l299 526h321v-526h82v-189h-82v-147h-249v147h-371zM375 -63l792 1548h226l-793 -1548h-225zM297 1192h-250q0 131 78 197q72 61 246 61q79 0 136.5 -10.5t94.5 -29.5t59 -49.5t30.5 -67t8.5 -85.5q0 -61 -31.5 -110.5t-99.5 -65.5v-4
q154 -21 154 -188q0 -147 -82.5 -214t-263.5 -67q-187 0 -266 61t-80 214h262q0 -40 20 -78q17 -33 56 -33q42 0 54.5 23t12.5 90q0 63 -21 85.5t-69 22.5h-63v152h36q58 0 82.5 24t24.5 92q0 38 -14.5 56t-46.5 18q-35 0 -51.5 -22.5t-16.5 -71.5z" />
    <glyph glyph-name="questiondown" unicode="&#xbf;" horiz-adv-x="1024" 
d="M614 115h344q0 -265 -116 -381q-111 -111 -342 -111q-217 0 -325.5 107.5t-108.5 298.5q0 183 96 290l149 170q47 55 47 201h332v-57q0 -119 -19 -192t-69 -130l-121 -137q-59 -65 -59 -180q0 -62 23.5 -97.5t68.5 -35.5q35 0 55 17t32.5 74t12.5 163zM352 791v323h344
v-323h-344z" />
    <glyph glyph-name="Agrave" unicode="&#xc0;" horiz-adv-x="1138" 
d="M-27 0l357 1462h479l356 -1462h-405l-39 256h-303l-39 -256h-406zM676 543l-105 620h-4l-104 -620h213zM489 1565l-196 299h344l90 -299h-238z" />
    <glyph glyph-name="Aacute" unicode="&#xc1;" horiz-adv-x="1138" 
d="M-27 0l357 1462h479l356 -1462h-405l-39 256h-303l-39 -256h-406zM676 543l-105 620h-4l-104 -620h213zM408 1565l90 299h344l-197 -299h-237z" />
    <glyph glyph-name="Acircumflex" unicode="&#xc2;" horiz-adv-x="1138" 
d="M-27 0l357 1462h479l356 -1462h-405l-39 256h-303l-39 -256h-406zM676 543l-105 620h-4l-104 -620h213zM233 1565l127 299h394l127 -299h-250l-74 164l-74 -164h-250z" />
    <glyph glyph-name="Atilde" unicode="&#xc3;" horiz-adv-x="1138" 
d="M-27 0l357 1462h479l356 -1462h-405l-39 256h-303l-39 -256h-406zM676 543l-105 620h-4l-104 -620h213zM719 1864h176q-14 -145 -70 -216t-135 -71q-62 0 -143.5 30.5t-104.5 30.5q-21 0 -34 -17t-13 -44h-176q19 144 67 215.5t134 71.5q50 0 133 -31q11 -3 31 -10
t31 -11t25 -7t24 -3q47 0 55 62z" />
    <glyph glyph-name="Adieresis" unicode="&#xc4;" horiz-adv-x="1138" 
d="M-27 0l357 1462h479l356 -1462h-405l-39 256h-303l-39 -256h-406zM676 543l-105 620h-4l-104 -620h213zM233 1559v286h275v-286h-275zM606 1559v286h275v-286h-275z" />
    <glyph glyph-name="Aring" unicode="&#xc5;" horiz-adv-x="1138" 
d="M-27 0l357 1462h479l356 -1462h-405l-39 256h-303l-39 -256h-406zM676 543l-105 620h-4l-104 -620h213zM342 1763q0 94 66.5 161t160.5 67t161 -67t67 -161t-67 -160.5t-161 -66.5t-160.5 66.5t-66.5 160.5zM477 1763q0 -38 27 -65t65 -27t65.5 27t27.5 65t-27.5 65
t-65.5 27t-65 -27t-27 -65z" />
    <glyph glyph-name="AE" unicode="&#xc6;" horiz-adv-x="1593" 
d="M541 543h207v661h-5zM-27 0l553 1462h1012v-311h-434v-250h401v-299h-401v-291h457v-311h-813v244h-295l-74 -244h-406z" />
    <glyph glyph-name="Ccedilla" unicode="&#xc7;" horiz-adv-x="1099" 
d="M410 -184l84 159q-110 8 -187 41t-128 89.5t-80 149t-40.5 204.5t-11.5 272q0 214 25.5 355t87.5 233.5t160.5 132t248.5 39.5q248 0 360.5 -120t112.5 -343v-92h-368v82q0 122 -24 168.5t-81 46.5q-30 0 -50.5 -9t-35 -34.5t-23 -58.5t-13 -95.5t-6 -129.5t-1.5 -175
t1.5 -175t6 -129.5t13 -95.5t23 -58.5t35 -34.5t50.5 -9q69 0 92 74t23 285h369v-109q0 -481 -437 -508l-47 -88q29 11 60 11q79 0 133.5 -41.5t54.5 -120.5q0 -99 -71.5 -151t-194.5 -52q-131 0 -234 41l45 115q74 -33 140 -33q46 0 74 19.5t28 49.5q0 36 -25.5 51
t-58.5 15q-28 0 -59 -14z" />
    <glyph glyph-name="Egrave" unicode="&#xc8;" horiz-adv-x="1024" 
d="M90 0v1462h866v-311h-485v-250h455v-299h-455v-291h504v-311h-885zM444 1565l-196 299h344l90 -299h-238z" />
    <glyph glyph-name="Eacute" unicode="&#xc9;" horiz-adv-x="1024" 
d="M90 0v1462h866v-311h-485v-250h455v-299h-455v-291h504v-311h-885zM362 1565l91 299h344l-197 -299h-238z" />
    <glyph glyph-name="Ecircumflex" unicode="&#xca;" horiz-adv-x="1024" 
d="M90 0v1462h866v-311h-485v-250h455v-299h-455v-291h504v-311h-885zM188 1565l127 299h394l127 -299h-250l-74 164l-74 -164h-250z" />
    <glyph glyph-name="Edieresis" unicode="&#xcb;" horiz-adv-x="1024" 
d="M90 0v1462h866v-311h-485v-250h455v-299h-455v-291h504v-311h-885zM188 1559v286h275v-286h-275zM561 1559v286h275v-286h-275z" />
    <glyph glyph-name="Igrave" unicode="&#xcc;" horiz-adv-x="532" 
d="M76 0v1462h381v-1462h-381zM186 1565l-196 299h344l90 -299h-238z" />
    <glyph glyph-name="Iacute" unicode="&#xcd;" horiz-adv-x="532" 
d="M76 0v1462h381v-1462h-381zM104 1565l91 299h344l-197 -299h-238z" />
    <glyph glyph-name="Icircumflex" unicode="&#xce;" horiz-adv-x="532" 
d="M76 0v1462h381v-1462h-381zM-70 1565l127 299h394l127 -299h-250l-74 164l-74 -164h-250z" />
    <glyph glyph-name="Idieresis" unicode="&#xcf;" horiz-adv-x="532" 
d="M76 0v1462h381v-1462h-381zM-70 1559v286h275v-286h-275zM303 1559v286h275v-286h-275z" />
    <glyph glyph-name="Eth" unicode="&#xd0;" horiz-adv-x="1175" 
d="M90 0v631h-108v258h108v573h553q72 0 131.5 -13t104.5 -34.5t80 -57.5t58.5 -73t40.5 -91t26 -101.5t14 -114.5t6.5 -119.5t1.5 -126.5t-1.5 -126.5t-6.5 -119.5t-14 -114.5t-26 -101.5t-40.5 -91t-58.5 -73t-80 -57.5t-104.5 -34.5t-131.5 -13h-553zM471 889h107v-258
h-107v-357h76q39 0 63.5 5.5t44.5 25.5t30.5 48.5t17 84.5t8.5 121.5t2 171.5t-2 171.5t-8.5 121.5t-17 84.5t-30.5 48.5t-44.5 25.5t-63.5 5.5h-76v-299z" />
    <glyph glyph-name="Ntilde" unicode="&#xd1;" horiz-adv-x="1212" 
d="M90 0v1462h426l246 -901h4v901h356v-1462h-417l-254 903h-5v-903h-356zM768 1864h176q-14 -145 -70 -216t-135 -71q-62 0 -143 30.5t-104 30.5q-21 0 -34.5 -17t-13.5 -44h-176q19 144 67 215.5t134 71.5q50 0 133 -31q11 -3 31 -10t31 -11t25 -7t24 -3q47 0 55 62z" />
    <glyph glyph-name="Ograve" unicode="&#xd2;" horiz-adv-x="1138" 
d="M47 731q0 209 26.5 350t88.5 234.5t161 134.5t246 41q289 0 406 -173t117 -587t-117 -587t-406 -173q-147 0 -246 41t-161 134.5t-88.5 234.5t-26.5 350zM440 731q0 -108 1.5 -175t6 -129.5t13 -95.5t23 -58.5t35 -34.5t50.5 -9t50.5 9t35 34.5t23 58.5t13 95.5t6 129.5
t1.5 175t-1.5 175t-6 129.5t-13 95.5t-23 58.5t-35 34.5t-50.5 9t-50.5 -9t-35 -34.5t-23 -58.5t-13 -95.5t-6 -129.5t-1.5 -175zM502 1565l-197 299h344l90 -299h-237z" />
    <glyph glyph-name="Oacute" unicode="&#xd3;" horiz-adv-x="1138" 
d="M47 731q0 209 26.5 350t88.5 234.5t161 134.5t246 41q289 0 406 -173t117 -587t-117 -587t-406 -173q-147 0 -246 41t-161 134.5t-88.5 234.5t-26.5 350zM440 731q0 -108 1.5 -175t6 -129.5t13 -95.5t23 -58.5t35 -34.5t50.5 -9t50.5 9t35 34.5t23 58.5t13 95.5t6 129.5
t1.5 175t-1.5 175t-6 129.5t-13 95.5t-23 58.5t-35 34.5t-50.5 9t-50.5 -9t-35 -34.5t-23 -58.5t-13 -95.5t-6 -129.5t-1.5 -175zM420 1565l90 299h344l-197 -299h-237z" />
    <glyph glyph-name="Ocircumflex" unicode="&#xd4;" horiz-adv-x="1138" 
d="M47 731q0 209 26.5 350t88.5 234.5t161 134.5t246 41q289 0 406 -173t117 -587t-117 -587t-406 -173q-147 0 -246 41t-161 134.5t-88.5 234.5t-26.5 350zM440 731q0 -108 1.5 -175t6 -129.5t13 -95.5t23 -58.5t35 -34.5t50.5 -9t50.5 9t35 34.5t23 58.5t13 95.5t6 129.5
t1.5 175t-1.5 175t-6 129.5t-13 95.5t-23 58.5t-35 34.5t-50.5 9t-50.5 -9t-35 -34.5t-23 -58.5t-13 -95.5t-6 -129.5t-1.5 -175zM246 1565l127 299h393l127 -299h-250l-74 164l-73 -164h-250z" />
    <glyph glyph-name="Otilde" unicode="&#xd5;" horiz-adv-x="1138" 
d="M47 731q0 209 26.5 350t88.5 234.5t161 134.5t246 41q289 0 406 -173t117 -587t-117 -587t-406 -173q-147 0 -246 41t-161 134.5t-88.5 234.5t-26.5 350zM440 731q0 -108 1.5 -175t6 -129.5t13 -95.5t23 -58.5t35 -34.5t50.5 -9t50.5 9t35 34.5t23 58.5t13 95.5t6 129.5
t1.5 175t-1.5 175t-6 129.5t-13 95.5t-23 58.5t-35 34.5t-50.5 9t-50.5 -9t-35 -34.5t-23 -58.5t-13 -95.5t-6 -129.5t-1.5 -175zM731 1864h176q-14 -145 -70 -216t-135 -71q-62 0 -143 30.5t-104 30.5q-21 0 -34 -17t-13 -44h-177q19 144 67 215.5t134 71.5q50 0 133 -31
q11 -3 31 -10t31 -11t25 -7t24 -3q47 0 55 62z" />
    <glyph glyph-name="Odieresis" unicode="&#xd6;" horiz-adv-x="1138" 
d="M47 731q0 209 26.5 350t88.5 234.5t161 134.5t246 41q289 0 406 -173t117 -587t-117 -587t-406 -173q-147 0 -246 41t-161 134.5t-88.5 234.5t-26.5 350zM440 731q0 -108 1.5 -175t6 -129.5t13 -95.5t23 -58.5t35 -34.5t50.5 -9t50.5 9t35 34.5t23 58.5t13 95.5t6 129.5
t1.5 175t-1.5 175t-6 129.5t-13 95.5t-23 58.5t-35 34.5t-50.5 9t-50.5 -9t-35 -34.5t-23 -58.5t-13 -95.5t-6 -129.5t-1.5 -175zM246 1559v286h274v-286h-274zM618 1559v286h275v-286h-275z" />
    <glyph glyph-name="multiply" unicode="&#xd7;" horiz-adv-x="1228" 
d="M412 518l-293 293l203 203l292 -293l293 293l203 -203l-293 -293l293 -293l-203 -202l-293 292l-292 -292l-203 202z" />
    <glyph glyph-name="Oslash" unicode="&#xd8;" horiz-adv-x="1138" 
d="M444 600l222 565q-25 68 -97 68q-30 0 -50.5 -9t-35 -34.5t-23 -58.5t-13 -95.5t-6 -129.5t-1.5 -175v-131h4zM694 862l-221 -563q25 -70 96 -70q30 0 50.5 9t35 34.5t23 58.5t13 95.5t6 129.5t1.5 175v131h-4zM178 -68l55 140q-99 80 -142.5 239t-43.5 420
q0 209 26.5 350t88.5 234.5t161 134.5t246 41q118 0 213 -29l47 119l132 -51l-54 -135q98 -82 141.5 -242.5t43.5 -421.5q0 -414 -117 -587t-406 -173q-118 0 -213 29l-47 -119z" />
    <glyph glyph-name="Ugrave" unicode="&#xd9;" horiz-adv-x="1138" 
d="M74 1462h381v-1054q0 -101 28 -140t86 -39t86.5 39.5t28.5 139.5v1054h381v-958q0 -152 -32 -256t-97.5 -164.5t-154 -86.5t-212.5 -26t-212.5 26t-154 86.5t-97 164.5t-31.5 256v958zM489 1565l-196 299h344l90 -299h-238z" />
    <glyph glyph-name="Uacute" unicode="&#xda;" horiz-adv-x="1138" 
d="M74 1462h381v-1054q0 -101 28 -140t86 -39t86.5 39.5t28.5 139.5v1054h381v-958q0 -152 -32 -256t-97.5 -164.5t-154 -86.5t-212.5 -26t-212.5 26t-154 86.5t-97 164.5t-31.5 256v958zM408 1565l90 299h344l-197 -299h-237z" />
    <glyph glyph-name="Ucircumflex" unicode="&#xdb;" horiz-adv-x="1138" 
d="M74 1462h381v-1054q0 -101 28 -140t86 -39t86.5 39.5t28.5 139.5v1054h381v-958q0 -152 -32 -256t-97.5 -164.5t-154 -86.5t-212.5 -26t-212.5 26t-154 86.5t-97 164.5t-31.5 256v958zM233 1565l127 299h394l127 -299h-250l-74 164l-74 -164h-250z" />
    <glyph glyph-name="Udieresis" unicode="&#xdc;" horiz-adv-x="1138" 
d="M74 1462h381v-1054q0 -101 28 -140t86 -39t86.5 39.5t28.5 139.5v1054h381v-958q0 -152 -32 -256t-97.5 -164.5t-154 -86.5t-212.5 -26t-212.5 26t-154 86.5t-97 164.5t-31.5 256v958zM233 1559v286h275v-286h-275zM606 1559v286h275v-286h-275z" />
    <glyph glyph-name="Yacute" unicode="&#xdd;" 
d="M342 0v575l-373 887h418l143 -510h5l143 510h418l-373 -887v-575h-381zM383 1565l90 299h344l-196 -299h-238z" />
    <glyph glyph-name="Thorn" unicode="&#xde;" horiz-adv-x="1099" 
d="M76 0v1462h381v-245h190q209 0 315.5 -124.5t106.5 -326.5q0 -223 -123 -339t-356 -116h-133v-311h-381zM457 942v-356h71q148 0 148 178t-148 178h-71z" />
    <glyph glyph-name="germandbls" unicode="&#xdf;" 
d="M420 0h-357v1044q0 243 119 345t367 102q446 0 446 -385q0 -107 -48.5 -188t-139.5 -91v-4q217 -36 217 -370q0 -253 -86 -359t-295 -106q-88 0 -147 12v248q32 -12 51 -12q61 0 84.5 50t23.5 199q0 107 -27.5 153t-86.5 46h-41v248h30q52 0 74.5 37.5t22.5 109.5
q0 164 -107 164q-100 0 -100 -151v-1092z" />
    <glyph glyph-name="agrave" unicode="&#xe0;" horiz-adv-x="1024" 
d="M969 0h-357q-9 31 -22 125h-4q-30 -72 -97.5 -113t-152.5 -41q-158 0 -232.5 87.5t-74.5 238.5q0 157 66.5 236t240.5 120l145 35q59 13 84 41t25 80q0 102 -94 102q-55 0 -79.5 -31t-25.5 -116h-319q0 91 28.5 160t71.5 108.5t102.5 64t112 32.5t109.5 8
q103 0 178 -15.5t136.5 -54t92.5 -110.5t31 -177v-540q0 -176 35 -240zM475 219q60 0 87.5 45t27.5 137v134h-4q-9 -13 -27.5 -20t-48 -14.5t-49.5 -17.5q-42 -20 -59 -53t-17 -90q0 -55 24.5 -88t65.5 -33zM444 1210l-196 299h344l90 -299h-238z" />
    <glyph glyph-name="aacute" unicode="&#xe1;" horiz-adv-x="1024" 
d="M969 0h-357q-9 31 -22 125h-4q-30 -72 -97.5 -113t-152.5 -41q-158 0 -232.5 87.5t-74.5 238.5q0 157 66.5 236t240.5 120l145 35q59 13 84 41t25 80q0 102 -94 102q-55 0 -79.5 -31t-25.5 -116h-319q0 91 28.5 160t71.5 108.5t102.5 64t112 32.5t109.5 8
q103 0 178 -15.5t136.5 -54t92.5 -110.5t31 -177v-540q0 -176 35 -240zM475 219q60 0 87.5 45t27.5 137v134h-4q-9 -13 -27.5 -20t-48 -14.5t-49.5 -17.5q-42 -20 -59 -53t-17 -90q0 -55 24.5 -88t65.5 -33zM362 1210l91 299h344l-197 -299h-238z" />
    <glyph glyph-name="acircumflex" unicode="&#xe2;" horiz-adv-x="1024" 
d="M969 0h-357q-9 31 -22 125h-4q-30 -72 -97.5 -113t-152.5 -41q-158 0 -232.5 87.5t-74.5 238.5q0 157 66.5 236t240.5 120l145 35q59 13 84 41t25 80q0 102 -94 102q-55 0 -79.5 -31t-25.5 -116h-319q0 91 28.5 160t71.5 108.5t102.5 64t112 32.5t109.5 8
q103 0 178 -15.5t136.5 -54t92.5 -110.5t31 -177v-540q0 -176 35 -240zM475 219q60 0 87.5 45t27.5 137v134h-4q-9 -13 -27.5 -20t-48 -14.5t-49.5 -17.5q-42 -20 -59 -53t-17 -90q0 -55 24.5 -88t65.5 -33zM188 1210l127 299h394l127 -299h-250l-74 164l-74 -164h-250z" />
    <glyph glyph-name="atilde" unicode="&#xe3;" horiz-adv-x="1024" 
d="M969 0h-357q-9 31 -22 125h-4q-30 -72 -97.5 -113t-152.5 -41q-158 0 -232.5 87.5t-74.5 238.5q0 157 66.5 236t240.5 120l145 35q59 13 84 41t25 80q0 102 -94 102q-55 0 -79.5 -31t-25.5 -116h-319q0 91 28.5 160t71.5 108.5t102.5 64t112 32.5t109.5 8
q103 0 178 -15.5t136.5 -54t92.5 -110.5t31 -177v-540q0 -176 35 -240zM475 219q60 0 87.5 45t27.5 137v134h-4q-9 -13 -27.5 -20t-48 -14.5t-49.5 -17.5q-42 -20 -59 -53t-17 -90q0 -55 24.5 -88t65.5 -33zM674 1509h176q-14 -145 -70 -215.5t-135 -70.5q-62 0 -143.5 30.5
t-104.5 30.5q-21 0 -34 -17t-13 -44h-176q19 143 67 214.5t134 71.5q52 0 133 -30q11 -4 30.5 -10.5t30.5 -10.5t25 -7t24 -3q48 0 56 61z" />
    <glyph glyph-name="adieresis" unicode="&#xe4;" horiz-adv-x="1024" 
d="M969 0h-357q-9 31 -22 125h-4q-30 -72 -97.5 -113t-152.5 -41q-158 0 -232.5 87.5t-74.5 238.5q0 157 66.5 236t240.5 120l145 35q59 13 84 41t25 80q0 102 -94 102q-55 0 -79.5 -31t-25.5 -116h-319q0 91 28.5 160t71.5 108.5t102.5 64t112 32.5t109.5 8
q103 0 178 -15.5t136.5 -54t92.5 -110.5t31 -177v-540q0 -176 35 -240zM475 219q60 0 87.5 45t27.5 137v134h-4q-9 -13 -27.5 -20t-48 -14.5t-49.5 -17.5q-42 -20 -59 -53t-17 -90q0 -55 24.5 -88t65.5 -33zM188 1204v287h275v-287h-275zM561 1204v287h275v-287h-275z" />
    <glyph glyph-name="aring" unicode="&#xe5;" horiz-adv-x="1024" 
d="M969 0h-357q-9 31 -22 125h-4q-30 -72 -97.5 -113t-152.5 -41q-158 0 -232.5 87.5t-74.5 238.5q0 157 66.5 236t240.5 120l145 35q59 13 84 41t25 80q0 102 -94 102q-55 0 -79.5 -31t-25.5 -116h-319q0 91 28.5 160t71.5 108.5t102.5 64t112 32.5t109.5 8
q103 0 178 -15.5t136.5 -54t92.5 -110.5t31 -177v-540q0 -176 35 -240zM475 219q60 0 87.5 45t27.5 137v134h-4q-9 -13 -27.5 -20t-48 -14.5t-49.5 -17.5q-42 -20 -59 -53t-17 -90q0 -55 24.5 -88t65.5 -33zM285 1440q0 94 66.5 160.5t160.5 66.5t160.5 -66.5t66.5 -160.5
t-66.5 -161t-160.5 -67t-160.5 67t-66.5 161zM420 1440q0 -38 27 -65t65 -27t65 27t27 65t-27 65t-65 27t-65 -27t-27 -65z" />
    <glyph glyph-name="ae" unicode="&#xe6;" horiz-adv-x="1515" 
d="M1145 692v49q0 90 -23 130t-80 40q-54 0 -76 -40t-22 -130v-49h201zM403 764h-319q0 92 25 160.5t64 108t97 64t114 32.5t124 8q78 0 156.5 -32t130.5 -91q48 65 115 94t173 29q142 0 229 -49.5t132 -167t45 -316.5v-112h-545v-146q0 -149 98 -149q53 0 78 41.5t25 150.5
h332q-3 -206 -103 -309q-106 -109 -305 -109q-117 0 -193 21.5t-118.5 61t-73.5 106.5q-54 -105 -134.5 -147t-201.5 -42q-158 0 -232.5 87.5t-74.5 238.5q0 157 66.5 236t240.5 120l146 35q58 13 82 41t24 80q0 102 -92 102q-55 0 -79.5 -31t-25.5 -116zM600 401v134h-4
q-8 -13 -26 -20t-47.5 -14.5t-49.5 -17.5q-42 -20 -59 -53t-17 -90q0 -55 24.5 -88t65.5 -33q59 0 86 45t27 137z" />
    <glyph glyph-name="ccedilla" unicode="&#xe7;" horiz-adv-x="985" 
d="M377 -184l84 155q-80 4 -141 21t-115.5 56t-89 100.5t-54.5 158.5t-20 228q0 110 13.5 198t36.5 150.5t59 108.5t75.5 73.5t92.5 44t104 22t115 5.5q96 0 169 -22t120 -61t76.5 -98t41.5 -127.5t12 -154.5h-331q0 123 -25 178q-21 47 -82 47q-43 0 -65.5 -30.5
t-32.5 -103.5t-10 -212t10 -211.5t32.5 -102.5t65.5 -30q54 0 80.5 41t26.5 141v72h331q0 -135 -22.5 -226t-75.5 -149q-89 -100 -274 -115l-47 -90q29 11 59 11q79 0 133.5 -41.5t54.5 -120.5q0 -99 -71.5 -151t-194.5 -52q-130 0 -233 41l45 115q74 -33 139 -33
q46 0 74 19.5t28 49.5q0 36 -25.5 51t-58.5 15q-27 0 -59 -14z" />
    <glyph glyph-name="egrave" unicode="&#xe8;" horiz-adv-x="985" 
d="M956 492h-546v-146q0 -149 100 -149q53 0 78.5 42t25.5 150h332q-3 -205 -104 -309q-106 -109 -330 -109q-135 0 -224 31t-144.5 102.5t-79 179t-23.5 269.5q0 316 110 450t361 134q114 0 194.5 -27t137.5 -89t84.5 -165t27.5 -252v-112zM612 692v49q0 90 -22.5 130
t-79.5 40q-56 0 -78 -40t-22 -130v-49h202zM426 1210l-197 299h344l91 -299h-238z" />
    <glyph glyph-name="eacute" unicode="&#xe9;" horiz-adv-x="985" 
d="M956 492h-546v-146q0 -149 100 -149q53 0 78.5 42t25.5 150h332q-3 -205 -104 -309q-106 -109 -330 -109q-135 0 -224 31t-144.5 102.5t-79 179t-23.5 269.5q0 316 110 450t361 134q114 0 194.5 -27t137.5 -89t84.5 -165t27.5 -252v-112zM612 692v49q0 90 -22.5 130
t-79.5 40q-56 0 -78 -40t-22 -130v-49h202zM344 1210l90 299h344l-196 -299h-238z" />
    <glyph glyph-name="ecircumflex" unicode="&#xea;" horiz-adv-x="985" 
d="M956 492h-546v-146q0 -149 100 -149q53 0 78.5 42t25.5 150h332q-3 -205 -104 -309q-106 -109 -330 -109q-135 0 -224 31t-144.5 102.5t-79 179t-23.5 269.5q0 316 110 450t361 134q114 0 194.5 -27t137.5 -89t84.5 -165t27.5 -252v-112zM612 692v49q0 90 -22.5 130
t-79.5 40q-56 0 -78 -40t-22 -130v-49h202zM170 1210l127 299h393l127 -299h-250l-73 164l-74 -164h-250z" />
    <glyph glyph-name="edieresis" unicode="&#xeb;" horiz-adv-x="985" 
d="M956 492h-546v-146q0 -149 100 -149q53 0 78.5 42t25.5 150h332q-3 -205 -104 -309q-106 -109 -330 -109q-135 0 -224 31t-144.5 102.5t-79 179t-23.5 269.5q0 316 110 450t361 134q114 0 194.5 -27t137.5 -89t84.5 -165t27.5 -252v-112zM612 692v49q0 90 -22.5 130
t-79.5 40q-56 0 -78 -40t-22 -130v-49h202zM170 1204v287h274v-287h-274zM543 1204v287h274v-287h-274z" />
    <glyph glyph-name="igrave" unicode="&#xec;" horiz-adv-x="528" 
d="M80 0v1108h369v-1108h-369zM184 1210l-196 299h344l90 -299h-238z" />
    <glyph glyph-name="iacute" unicode="&#xed;" horiz-adv-x="528" 
d="M80 0v1108h369v-1108h-369zM102 1210l91 299h344l-197 -299h-238z" />
    <glyph glyph-name="icircumflex" unicode="&#xee;" horiz-adv-x="528" 
d="M80 0v1108h369v-1108h-369zM-72 1210l127 299h394l126 -299h-249l-74 164l-74 -164h-250z" />
    <glyph glyph-name="idieresis" unicode="&#xef;" horiz-adv-x="528" 
d="M80 0v1108h369v-1108h-369zM-72 1204v287h275v-287h-275zM301 1204v287h274v-287h-274z" />
    <glyph glyph-name="eth" unicode="&#xf0;" horiz-adv-x="1024" 
d="M410 553q0 -143 8.5 -214.5t30 -100.5t63.5 -29q43 0 64 29t29.5 99.5t8.5 215.5q0 175 -20 235t-82 60q-61 0 -81.5 -61t-20.5 -234zM133 1296l146 78q-52 52 -103 96l223 168q102 -82 142 -122l164 88l90 -142l-133 -71q321 -362 321 -805q0 -80 -4 -142t-16.5 -128
t-33.5 -115t-57 -94.5t-84.5 -73.5t-118.5 -45t-157 -17q-263 0 -367 127t-104 430q0 127 19 225t51 160t78 101.5t94.5 55t105.5 15.5q89 0 168 -51l4 4q-40 73 -162 209l-172 -92z" />
    <glyph glyph-name="ntilde" unicode="&#xf1;" 
d="M74 0v1108h356v-135h4q71 164 268 164q51 0 92.5 -8.5t79 -29.5t62.5 -54.5t40 -86t15 -122.5v-836h-368v731q0 70 -21 100.5t-70 30.5t-69.5 -30.5t-20.5 -100.5v-731h-368zM694 1509h176q-14 -145 -69.5 -215.5t-134.5 -70.5q-62 0 -143.5 30.5t-104.5 30.5
q-21 0 -34 -17t-13 -44h-176q19 144 66.5 215t133.5 71q52 0 133 -30q11 -3 31 -10t31 -11t25 -7t24 -3q47 0 55 61z" />
    <glyph glyph-name="ograve" unicode="&#xf2;" horiz-adv-x="1024" 
d="M983 553q0 -69 -4 -124.5t-16.5 -117.5t-33.5 -109.5t-57 -92.5t-84.5 -74t-118.5 -46.5t-157 -17.5q-91 0 -162 16.5t-120 43t-84.5 70.5t-55.5 89.5t-31 110t-14.5 121t-3.5 133.5q0 69 4 124.5t16.5 117.5t33.5 109.5t57 92.5t84.5 74t118.5 46.5t157 17.5
q91 0 162 -16.5t120 -43t84.5 -70.5t55.5 -89.5t31 -110t14.5 -121t3.5 -133.5zM410 553q0 -143 8.5 -214.5t30 -100.5t63.5 -29q43 0 64 29t29.5 99.5t8.5 215.5q0 146 -8.5 217t-29.5 100t-64 29q-42 0 -63.5 -29t-30 -101t-8.5 -216zM444 1210l-196 299h344l90 -299h-238
z" />
    <glyph glyph-name="oacute" unicode="&#xf3;" horiz-adv-x="1024" 
d="M983 553q0 -69 -4 -124.5t-16.5 -117.5t-33.5 -109.5t-57 -92.5t-84.5 -74t-118.5 -46.5t-157 -17.5q-91 0 -162 16.5t-120 43t-84.5 70.5t-55.5 89.5t-31 110t-14.5 121t-3.5 133.5q0 69 4 124.5t16.5 117.5t33.5 109.5t57 92.5t84.5 74t118.5 46.5t157 17.5
q91 0 162 -16.5t120 -43t84.5 -70.5t55.5 -89.5t31 -110t14.5 -121t3.5 -133.5zM410 553q0 -143 8.5 -214.5t30 -100.5t63.5 -29q43 0 64 29t29.5 99.5t8.5 215.5q0 146 -8.5 217t-29.5 100t-64 29q-42 0 -63.5 -29t-30 -101t-8.5 -216zM362 1210l91 299h344l-197 -299h-238
z" />
    <glyph glyph-name="ocircumflex" unicode="&#xf4;" horiz-adv-x="1024" 
d="M983 553q0 -69 -4 -124.5t-16.5 -117.5t-33.5 -109.5t-57 -92.5t-84.5 -74t-118.5 -46.5t-157 -17.5q-91 0 -162 16.5t-120 43t-84.5 70.5t-55.5 89.5t-31 110t-14.5 121t-3.5 133.5q0 69 4 124.5t16.5 117.5t33.5 109.5t57 92.5t84.5 74t118.5 46.5t157 17.5
q91 0 162 -16.5t120 -43t84.5 -70.5t55.5 -89.5t31 -110t14.5 -121t3.5 -133.5zM410 553q0 -143 8.5 -214.5t30 -100.5t63.5 -29q43 0 64 29t29.5 99.5t8.5 215.5q0 146 -8.5 217t-29.5 100t-64 29q-42 0 -63.5 -29t-30 -101t-8.5 -216zM188 1210l127 299h394l127 -299h-250
l-74 164l-74 -164h-250z" />
    <glyph glyph-name="otilde" unicode="&#xf5;" horiz-adv-x="1024" 
d="M983 553q0 -69 -4 -124.5t-16.5 -117.5t-33.5 -109.5t-57 -92.5t-84.5 -74t-118.5 -46.5t-157 -17.5q-91 0 -162 16.5t-120 43t-84.5 70.5t-55.5 89.5t-31 110t-14.5 121t-3.5 133.5q0 69 4 124.5t16.5 117.5t33.5 109.5t57 92.5t84.5 74t118.5 46.5t157 17.5
q91 0 162 -16.5t120 -43t84.5 -70.5t55.5 -89.5t31 -110t14.5 -121t3.5 -133.5zM410 553q0 -143 8.5 -214.5t30 -100.5t63.5 -29q43 0 64 29t29.5 99.5t8.5 215.5q0 146 -8.5 217t-29.5 100t-64 29q-42 0 -63.5 -29t-30 -101t-8.5 -216zM674 1509h176q-14 -145 -70 -215.5
t-135 -70.5q-62 0 -143.5 30.5t-104.5 30.5q-21 0 -34 -17t-13 -44h-176q19 143 67 214.5t134 71.5q52 0 133 -30q11 -4 30.5 -10.5t30.5 -10.5t25 -7t24 -3q48 0 56 61z" />
    <glyph glyph-name="odieresis" unicode="&#xf6;" horiz-adv-x="1024" 
d="M983 553q0 -69 -4 -124.5t-16.5 -117.5t-33.5 -109.5t-57 -92.5t-84.5 -74t-118.5 -46.5t-157 -17.5q-91 0 -162 16.5t-120 43t-84.5 70.5t-55.5 89.5t-31 110t-14.5 121t-3.5 133.5q0 69 4 124.5t16.5 117.5t33.5 109.5t57 92.5t84.5 74t118.5 46.5t157 17.5
q91 0 162 -16.5t120 -43t84.5 -70.5t55.5 -89.5t31 -110t14.5 -121t3.5 -133.5zM410 553q0 -143 8.5 -214.5t30 -100.5t63.5 -29q43 0 64 29t29.5 99.5t8.5 215.5q0 146 -8.5 217t-29.5 100t-64 29q-42 0 -63.5 -29t-30 -101t-8.5 -216zM188 1204v287h275v-287h-275z
M561 1204v287h275v-287h-275z" />
    <glyph glyph-name="divide" unicode="&#xf7;" horiz-adv-x="1228" 
d="M96 375v287h1037v-287h-1037zM412 952q0 85 58.5 144t143.5 59t144 -59t59 -144t-59 -143.5t-144 -58.5t-143.5 58.5t-58.5 143.5zM412 84q0 85 58.5 144t143.5 59t144 -59t59 -144t-59 -144t-144 -59t-143.5 59t-58.5 144z" />
    <glyph glyph-name="oslash" unicode="&#xf8;" horiz-adv-x="1024" 
d="M610 594l-180 -309q10 -42 29.5 -59t52.5 -17q43 0 64 29t29.5 99.5t8.5 215.5v41h-4zM412 516l184 311q-12 40 -31.5 56t-52.5 16q-42 0 -63.5 -29t-30 -101t-8.5 -216q0 -29 2 -37zM72 -53l84 143q-69 71 -92 184.5t-23 280.5q0 69 4 124.5t16.5 117.5t33.5 109.5
t57 92.5t84.5 74t118.5 46.5t157 17.5q148 0 244 -41l82 139l114 -74l-86 -143q70 -71 93.5 -184.5t23.5 -280.5q0 -69 -4 -124.5t-16.5 -117.5t-33.5 -109.5t-57 -92.5t-84.5 -74t-118.5 -46.5t-157 -17.5q-159 0 -244 43l-86 -141z" />
    <glyph glyph-name="ugrave" unicode="&#xf9;" 
d="M74 272v836h368v-731q0 -70 20.5 -100.5t69.5 -30.5t70 30.5t21 100.5v731h368v-1108h-356v135h-4q-71 -164 -269 -164q-65 0 -114 14t-90 47t-62.5 93.5t-21.5 146.5zM465 1210l-197 299h344l90 -299h-237z" />
    <glyph glyph-name="uacute" unicode="&#xfa;" 
d="M74 272v836h368v-731q0 -70 20.5 -100.5t69.5 -30.5t70 30.5t21 100.5v731h368v-1108h-356v135h-4q-71 -164 -269 -164q-65 0 -114 14t-90 47t-62.5 93.5t-21.5 146.5zM383 1210l90 299h344l-196 -299h-238z" />
    <glyph glyph-name="ucircumflex" unicode="&#xfb;" 
d="M74 272v836h368v-731q0 -70 20.5 -100.5t69.5 -30.5t70 30.5t21 100.5v731h368v-1108h-356v135h-4q-71 -164 -269 -164q-65 0 -114 14t-90 47t-62.5 93.5t-21.5 146.5zM209 1210l127 299h393l127 -299h-250l-74 164l-73 -164h-250z" />
    <glyph glyph-name="udieresis" unicode="&#xfc;" 
d="M74 272v836h368v-731q0 -70 20.5 -100.5t69.5 -30.5t70 30.5t21 100.5v731h368v-1108h-356v135h-4q-71 -164 -269 -164q-65 0 -114 14t-90 47t-62.5 93.5t-21.5 146.5zM209 1204v287h274v-287h-274zM582 1204v287h274v-287h-274z" />
    <glyph glyph-name="yacute" unicode="&#xfd;" horiz-adv-x="948" 
d="M102 -352v258q36 -8 82 -8q61 0 92 29.5t31 54.5q0 23 -16 81l-293 1045h381l113 -748h4l106 748h369l-297 -1145q-48 -186 -129.5 -254.5t-235.5 -68.5q-126 0 -207 8zM326 1210l90 299h344l-197 -299h-237z" />
    <glyph glyph-name="thorn" unicode="&#xfe;" 
d="M80 -360v1822h369v-506h4q36 96 92 138q58 43 147 43q182 0 257 -145.5t75 -461.5q0 -158 -22.5 -267.5t-68 -173t-106 -91t-143.5 -27.5q-181 0 -231 154h-4v-485h-369zM449 555q0 -183 20 -246t82 -63q63 0 83.5 63t20.5 246q0 182 -20.5 244.5t-83.5 62.5
q-62 0 -82 -62.5t-20 -244.5z" />
    <glyph glyph-name="ydieresis" unicode="&#xff;" horiz-adv-x="948" 
d="M102 -352v258q36 -8 82 -8q61 0 92 29.5t31 54.5q0 23 -16 81l-293 1045h381l113 -748h4l106 748h369l-297 -1145q-48 -186 -129.5 -254.5t-235.5 -68.5q-126 0 -207 8zM152 1204v287h274v-287h-274zM524 1204v287h275v-287h-275z" />
    <glyph glyph-name="dotlessi" unicode="&#x131;" horiz-adv-x="528" 
d="M80 0v1108h369v-1108h-369z" />
    <glyph glyph-name="Lslash" unicode="&#x141;" horiz-adv-x="948" 
d="M90 0v440l-119 -75v237l119 76v784h381v-542l254 161v-237l-254 -162v-371h469v-311h-850z" />
    <glyph glyph-name="lslash" unicode="&#x142;" horiz-adv-x="569" 
d="M100 0v553l-118 -74v226l118 73v684h369v-458l119 73v-225l-119 -74v-778h-369z" />
    <glyph glyph-name="OE" unicode="&#x152;" horiz-adv-x="1554" 
d="M1047 602v-291h475v-311h-787v63h-4q-36 -44 -103 -68t-149 -24q-89 0 -154.5 17t-114 57t-79.5 96.5t-50 145t-26.5 194t-7.5 250.5q0 286 43.5 452t134 237t244.5 71q171 0 266 -92v63h768v-311h-456v-250h426v-299h-426zM428 731q0 -81 0.5 -135.5t3 -109t6.5 -88.5
t11 -66t16.5 -49t23.5 -30.5t31.5 -18.5t40.5 -5q30 0 50.5 9t35 34.5t23 58.5t13 95.5t6 129.5t1.5 175t-1.5 175t-6 129.5t-13 95.5t-23 58.5t-35 34.5t-50.5 9q-23 0 -40.5 -5t-31.5 -18.5t-23.5 -30.5t-16.5 -49t-11 -66t-6.5 -88.5t-3 -109t-0.5 -135.5z" />
    <glyph glyph-name="oe" unicode="&#x153;" horiz-adv-x="1515" 
d="M395 553q0 -143 9 -215t30.5 -100.5t63.5 -28.5q43 0 64 29t29.5 99.5t8.5 215.5q0 146 -8.5 217t-29.5 100t-64 29q-42 0 -63.5 -29t-30.5 -101t-9 -216zM944 741v-49h201v49q0 90 -23 130t-80 40q-54 0 -76 -40t-22 -130zM1145 389h332q-3 -206 -103 -309
q-106 -109 -305 -109q-111 0 -192 36t-113 102q-87 -138 -299 -138q-156 0 -250.5 56.5t-141 184t-46.5 341.5q0 314 107 449t360 135q91 0 172.5 -37t113.5 -88q108 125 303 125q142 0 229 -49.5t132 -167t45 -316.5v-112h-545v-146q0 -149 98 -149q53 0 78 41.5t25 150.5z
" />
    <glyph glyph-name="Scaron" unicode="&#x160;" horiz-adv-x="1099" 
d="M1016 1040h-357v35q0 69 -27.5 113.5t-80.5 44.5q-58 0 -88.5 -37.5t-30.5 -91.5q0 -58 34.5 -100t89.5 -68.5t121 -52t132.5 -60t121.5 -82t89.5 -129t34.5 -190.5q0 -451 -518 -451q-246 0 -369 96t-123 316v51h369v-35q0 -170 125 -170q57 0 90 40t33 102
q0 46 -20.5 81.5t-55 59.5t-79.5 44t-95 40t-99.5 43t-94.5 57.5t-79.5 78t-55 110t-20.5 149.5q0 223 120.5 340t359.5 117q248 0 360.5 -108t112.5 -343zM354 1565l-127 299h250l74 -164l74 164h249l-126 -299h-394z" />
    <glyph glyph-name="scaron" unicode="&#x161;" horiz-adv-x="948" 
d="M35 344h323q0 -70 27 -108q28 -39 78 -39q44 0 75 25.5t31 68.5q0 39 -29.5 67t-76.5 45.5t-104 34.5t-114 42.5t-104 61.5t-76.5 100t-29.5 149q0 154 112.5 250t327.5 96q416 0 416 -349h-320q0 67 -24.5 95t-73.5 28q-42 0 -68 -23.5t-26 -62.5q0 -36 29.5 -61
t76.5 -40.5t104 -31t114 -40.5t104 -60.5t76.5 -99.5t29.5 -150q0 -165 -119.5 -268t-324.5 -103q-227 0 -330.5 93.5t-103.5 279.5zM279 1210l-127 299h249l74 -163l74 163h250l-127 -299h-393z" />
    <glyph glyph-name="Ydieresis" unicode="&#x178;" 
d="M342 0v575l-373 887h418l143 -510h5l143 510h418l-373 -887v-575h-381zM209 1559v286h274v-286h-274zM582 1559v286h274v-286h-274z" />
    <glyph glyph-name="Zcaron" unicode="&#x17d;" horiz-adv-x="985" 
d="M41 0v274l459 877h-428v311h872v-274l-467 -877h467v-311h-903zM297 1565l-127 299h250l74 -164l73 164h250l-127 -299h-393z" />
    <glyph glyph-name="zcaron" unicode="&#x17e;" horiz-adv-x="909" 
d="M47 821v287h823v-274l-413 -547h424v-287h-852v287l397 534h-379zM258 1210l-127 299h250l74 -163l73 163h250l-127 -299h-393z" />
    <glyph glyph-name="florin" unicode="&#x192;" 
d="M123 647l41 213h219l47 246q36 186 141 271t306 85q61 0 167 -16l-47 -225q-46 4 -69 4q-63 0 -100.5 -40.5t-61.5 -148.5l-39 -176h227l-41 -213h-223l-117 -604q-25 -127 -65 -209t-99 -123.5t-122 -56t-154 -14.5q-80 0 -186 16l51 221h86q63 0 95.5 42t56.5 167
l104 561h-217z" />
    <glyph glyph-name="circumflex" unicode="&#x2c6;" horiz-adv-x="532" 
d="M-57 1210l127 299h393l127 -299h-250l-74 164l-73 -164h-250z" />
    <glyph glyph-name="caron" unicode="&#x2c7;" horiz-adv-x="532" 
d="M70 1210l-127 299h250l73 -163l74 163h250l-127 -299h-393z" />
    <glyph glyph-name="uni02C9" unicode="&#x2c9;" horiz-adv-x="532" 
d="M-57 1262v200h647v-200h-647z" />
    <glyph glyph-name="breve" unicode="&#x2d8;" horiz-adv-x="532" 
d="M-43 1509h164q6 -70 46.5 -102.5t98.5 -32.5t99 32.5t47 102.5h163q-9 -140 -87.5 -219.5t-221.5 -79.5t-221.5 79.5t-87.5 219.5z" />
    <glyph glyph-name="dotaccent" unicode="&#x2d9;" horiz-adv-x="532" 
d="M129 1204v287h274v-287h-274z" />
    <glyph glyph-name="ring" unicode="&#x2da;" horiz-adv-x="532" 
d="M39 1440q0 94 66.5 160.5t160.5 66.5t161 -66.5t67 -160.5t-67 -161t-161 -67t-160.5 67t-66.5 161zM174 1440q0 -38 27 -65t65 -27t65 27t27 65t-27 65t-65 27t-65 -27t-27 -65z" />
    <glyph glyph-name="ogonek" unicode="&#x2db;" horiz-adv-x="532" 
d="M473 -315l45 -107q-48 -23 -123 -36t-139 -13q-233 0 -233 178q0 77 52.5 144.5t147.5 113.5l96 47h164l-145 -110q-102 -81 -102 -162q0 -88 77 -88q90 0 160 33z" />
    <glyph glyph-name="tilde" unicode="&#x2dc;" horiz-adv-x="532" 
d="M428 1509h176q-14 -145 -70 -215.5t-135 -70.5q-62 0 -143 30.5t-104 30.5q-21 0 -34.5 -17t-13.5 -44h-176q19 143 67 214.5t134 71.5q52 0 133 -30q11 -3 31 -10t31 -11t25 -7t24 -3q47 0 55 61z" />
    <glyph glyph-name="hungarumlaut" unicode="&#x2dd;" horiz-adv-x="532" 
d="M-109 1210l91 299h344l-197 -299h-238zM301 1210l90 299h344l-196 -299h-238z" />
    <glyph glyph-name="uni03A9" unicode="&#x3a9;" horiz-adv-x="1320" 
d="M295 256v6q-91 101 -152 239t-61 304q0 125 41.5 240.5t115.5 205t184.5 143.5t240.5 54q112 0 207.5 -40t160.5 -104.5t111 -147.5t67 -167.5t21 -165.5q0 -169 -62 -316t-153 -245v-6h244v-256h-527v186q78 55 125 183q57 150 57 381q0 124 -27.5 220t-85.5 153
t-140 57q-122 0 -193.5 -122.5t-71.5 -320.5q0 -210 53.5 -355t131.5 -196v-186h-529v256h242z" />
    <glyph glyph-name="uni03BC" unicode="&#x3bc;" 
d="M74 -360v1468h368v-731q0 -70 20.5 -100.5t69.5 -30.5t70 30.5t21 100.5v731h368v-1108h-356v135h-4q-71 -164 -158 -164q-19 0 -31 6v-337h-368z" />
    <glyph glyph-name="pi" unicode="&#x3c0;" horiz-adv-x="1191" 
d="M1151 807h-123v-514q0 -168 25 -293h-299q-35 66 -35 287v520h-211q-7 -173 -37 -409.5t-76 -397.5h-299q45 189 76 425t33 382q-104 0 -170 -16l-31 213q83 73 340 73h827z" />
    <glyph glyph-name="endash" unicode="&#x2013;" horiz-adv-x="1024" 
d="M0 442v299h1024v-299h-1024z" />
    <glyph glyph-name="emdash" unicode="&#x2014;" horiz-adv-x="2048" 
d="M0 442v299h2048v-299h-2048z" />
    <glyph glyph-name="quoteleft" unicode="&#x2018;" horiz-adv-x="532" 
d="M94 696v369q0 200 82 297t262 100v-176q-72 -7 -101.5 -47.5t-29.5 -124.5v-24h131v-394h-344z" />
    <glyph glyph-name="quoteright" unicode="&#x2019;" horiz-adv-x="532" 
d="M94 1069v393h344v-368q0 -200 -82 -297.5t-262 -100.5v176q72 7 101.5 47.5t29.5 124.5v25h-131z" />
    <glyph glyph-name="quotesinglbase" unicode="&#x201a;" horiz-adv-x="532" 
d="M94 12v394h344v-369q0 -200 -82 -297t-262 -100v176q72 7 101.5 47.5t29.5 124.5v24h-131z" />
    <glyph glyph-name="quotedblleft" unicode="&#x201c;" horiz-adv-x="985" 
d="M555 696v369q0 200 82 297t262 100v-176q-72 -7 -101.5 -47.5t-29.5 -124.5v-24h131v-394h-344zM86 696v369q0 200 82 297t262 100v-176q-72 -7 -101.5 -47.5t-29.5 -124.5v-24h131v-394h-344z" />
    <glyph glyph-name="quotedblright" unicode="&#x201d;" horiz-adv-x="985" 
d="M86 1069v393h344v-368q0 -200 -82 -297.5t-262 -100.5v176q72 7 101.5 47.5t29.5 124.5v25h-131zM555 1069v393h344v-368q0 -200 -82 -297.5t-262 -100.5v176q72 7 101.5 47.5t29.5 124.5v25h-131z" />
    <glyph glyph-name="quotedblbase" unicode="&#x201e;" horiz-adv-x="985" 
d="M86 12v394h344v-369q0 -200 -82 -297t-262 -100v176q72 7 101.5 47.5t29.5 124.5v24h-131zM555 12v394h344v-369q0 -200 -82 -297t-262 -100v176q72 7 101.5 47.5t29.5 124.5v24h-131z" />
    <glyph glyph-name="dagger" unicode="&#x2020;" 
d="M348 1065v397h369v-397h332v-287h-332v-1065h-369v1065h-332v287h332z" />
    <glyph glyph-name="daggerdbl" unicode="&#x2021;" 
d="M16 111v286h332v381h-332v287h332v397h369v-397h332v-287h-332v-381h332v-286h-332v-398h-369v398h-332z" />
    <glyph glyph-name="bullet" unicode="&#x2022;" horiz-adv-x="1024" 
d="M147 731q0 151 107 258t258 107t258 -107t107 -258t-107 -257.5t-258 -106.5t-258 106.5t-107 257.5z" />
    <glyph glyph-name="ellipsis" unicode="&#x2026;" horiz-adv-x="2048" 
d="M170 0v406h344v-406h-344zM852 0v406h344v-406h-344zM1534 0v406h344v-406h-344z" />
    <glyph glyph-name="perthousand" unicode="&#x2030;" horiz-adv-x="2275" 
d="M1143 365q0 -142 13.5 -186t57.5 -44t58 44.5t14 185.5t-14 185t-58 44t-57.5 -44t-13.5 -185zM342 -29l649 1479h226l-650 -1479h-225zM274 1057q0 -141 14 -185.5t58 -44.5t58 44.5t14 185.5t-14 185t-58 44t-58 -44t-14 -185zM893 365q0 216 70.5 304.5t250.5 88.5
t251 -88.5t71 -304.5t-71 -305t-251 -89t-250.5 89t-70.5 305zM25 1057q0 216 70.5 304.5t250.5 88.5t251 -88.5t71 -304.5t-71 -304.5t-251 -88.5t-250.5 88.5t-70.5 304.5zM1608 365q0 216 70.5 304.5t250.5 88.5t251 -88.5t71 -304.5t-71 -305t-251 -89t-250.5 89
t-70.5 305zM1858 365q0 -142 13.5 -186t57.5 -44t58 44.5t14 185.5t-14 185t-58 44t-57.5 -44t-13.5 -185z" />
    <glyph glyph-name="guilsinglleft" unicode="&#x2039;" horiz-adv-x="491" 
d="M86 367v450l320 213v-323l-173 -115l173 -115v-323z" />
    <glyph glyph-name="guilsinglright" unicode="&#x203a;" horiz-adv-x="491" 
d="M86 154v323l172 115l-172 115v323l320 -213v-450z" />
    <glyph glyph-name="fraction" unicode="&#x2044;" horiz-adv-x="342" 
d="M-338 -63l793 1548h225l-793 -1548h-225z" />
    <glyph glyph-name="Euro" unicode="&#x20ac;" 
d="M1006 1380l-107 -323q-83 155 -201 155q-52 0 -85.5 -20t-48.5 -58t-20 -74t-5 -87h344l-56 -201h-290v-74v-28h274l-55 -201h-215q0 -8 1.5 -32t2 -35t3 -34t5.5 -35t8.5 -31.5t12.5 -30t17.5 -24t23.5 -20t30.5 -11.5t38.5 -5q156 0 287 231v-370q-75 -58 -150.5 -80.5
t-177.5 -22.5q-100 0 -175.5 23t-126 64.5t-83.5 105t-49 137.5t-21 170h-125l56 201h63v84v18h-108l55 201h61q18 248 127 367.5t351 119.5q91 0 166.5 -19t171.5 -61z" />
    <glyph glyph-name="afii61289" unicode="&#x2113;" horiz-adv-x="1015" 
d="M870 401l117 -129q-142 -295 -418 -295q-90 0 -159.5 25t-111.5 70t-65.5 99t-31.5 120v20q-8 -6 -43 -33t-54 -40l-69 161q20 18 77 66t85 76v497q0 251 105.5 388t270.5 137q142 0 212.5 -104.5t70.5 -274.5q0 -308 -358 -676v-111q3 -78 42 -124t103 -46
q114 0 227 174zM498 1022v-229q82 106 130 217t48 194q0 69 -19 102t-65 33q-94 0 -94 -317z" />
    <glyph glyph-name="trademark" unicode="&#x2122;" horiz-adv-x="2048" 
d="M233 618v631h-213v213h713v-213h-213v-631h-287zM1700 618v533h-4l-185 -533h-176l-184 533h-4v-533h-262v844h356l182 -448l183 448h356v-844h-262z" />
    <glyph glyph-name="Omega" unicode="&#x2126;" horiz-adv-x="1320" 
d="M295 256v6q-91 101 -152 239t-61 304q0 125 41.5 240.5t115.5 205t184.5 143.5t240.5 54q112 0 207.5 -40t160.5 -104.5t111 -147.5t67 -167.5t21 -165.5q0 -169 -62 -316t-153 -245v-6h244v-256h-527v186q78 55 125 183q57 150 57 381q0 124 -27.5 220t-85.5 153
t-140 57q-122 0 -193.5 -122.5t-71.5 -320.5q0 -210 53.5 -355t131.5 -196v-186h-529v256h242z" />
    <glyph glyph-name="estimated" unicode="&#x212e;" horiz-adv-x="1781" 
d="M1712 690h-1331q-10 0 -10 -8v-403q0 -28 18 -46q100 -103 229 -161t273 -58q156 0 293 65t237 179h117q-111 -131 -282.5 -208t-366.5 -77q-167 0 -318.5 58.5t-261 157t-174.5 235.5t-65 287t65 287t174.5 236t261 157.5t318.5 58.5q168 0 320 -58.5t262.5 -157.5
t175.5 -236t65 -287v-21zM1409 743v404q0 28 -18 49q-100 98 -228.5 153.5t-271.5 55.5q-142 0 -271 -58t-229 -159q-20 -17 -20 -49v-396q0 -14 10 -14h1020q8 0 8 14z" />
    <glyph glyph-name="partialdiff" unicode="&#x2202;" horiz-adv-x="1142" 
d="M205 1255l-80 242q153 117 369 117q112 0 211 -49.5t176 -143.5t121.5 -244.5t44.5 -338.5q0 -401 -149 -628.5t-413 -227.5q-81 0 -150 30t-117 79t-82 113t-50 131t-16 134q0 249 120 397t299 148q92 0 158 -42.5t94 -88.5h2q2 12 2 55q0 72 -19.5 144t-55.5 133
t-93.5 99t-125.5 38q-131 0 -246 -97zM516 248h2q42 0 79 36.5t61.5 95t39.5 122.5t21 127q-11 45 -56 88t-110 43q-54 0 -95.5 -45t-62 -114t-20.5 -148q0 -86 38.5 -145.5t102.5 -59.5z" />
    <glyph glyph-name="Delta" unicode="&#x2206;" horiz-adv-x="1265" 
d="M47 0v178l410 1274h370l390 -1268v-184h-1170zM365 254h526l-160 475q-13 53 -51 187.5t-47 179.5h-4q-7 -35 -42.5 -156t-49.5 -182z" />
    <glyph glyph-name="product" unicode="&#x220f;" horiz-adv-x="1419" 
d="M1368 1137h-182v-1334h-309v1334h-336v-1334h-310v1334h-182v288h1319v-288z" />
    <glyph glyph-name="summation" unicode="&#x2211;" horiz-adv-x="1073" 
d="M1040 -197h-993v203l430 615l-418 583v221h951v-266h-545v-6l358 -475l-407 -574v-6h624v-295z" />
    <glyph glyph-name="minus" unicode="&#x2212;" horiz-adv-x="1228" 
d="M96 375v287h1037v-287h-1037z" />
    <glyph glyph-name="uni2215" unicode="&#x2215;" horiz-adv-x="342" 
d="M-338 -63l793 1548h225l-793 -1548h-225z" />
    <glyph glyph-name="uni2219" unicode="&#x2219;" horiz-adv-x="532" 
d="M63 561q0 85 59 144t144 59t144 -59t59 -144t-59 -144t-144 -59t-144 59t-59 144z" />
    <glyph glyph-name="radical" unicode="&#x221a;" horiz-adv-x="1171" 
d="M1192 1722l-432 -1990h-242l-266 858l-143 -58l-48 175l373 153l164 -565q0 -1 41 -201l4 -2q16 128 33 221l307 1409h209z" />
    <glyph glyph-name="infinity" unicode="&#x221e;" horiz-adv-x="1542" 
d="M1450 588v-2q0 -164 -98 -263.5t-230 -99.5q-95 0 -177.5 46t-170.5 173q-83 -109 -166.5 -164t-195.5 -55q-130 0 -226 98t-96 252q0 158 96.5 257.5t243.5 99.5q105 0 188 -51t162 -158q72 84 106 114q110 96 244 95q134 0 227 -94.5t93 -247.5zM434 389h2
q69 0 124.5 44.5t123.5 131.5q-73 105 -103 137q-67 68 -151 68q-81 0 -126.5 -54t-45.5 -145q0 -75 51.5 -128.5t124.5 -53.5zM1116 770h-2q-21 0 -42 -6t-37 -12.5t-36.5 -22.5t-31 -24.5t-30.5 -31t-26 -30t-26.5 -33t-22.5 -28.5q86 -115 139 -154t125 -39q70 0 113 59
t43 125q0 82 -46 139.5t-120 57.5z" />
    <glyph glyph-name="integral" unicode="&#x222b;" horiz-adv-x="833" 
d="M774 1755l-26 -219q-35 14 -68 14q-60 0 -94 -53q-45 -62 -45 -330q0 -164 14 -459.5t14 -494.5q0 -283 -61 -408q-28 -61 -77 -100.5t-101.5 -55.5t-110.5 -16q-100 0 -164 33l35 225q40 -18 80 -18q57 0 80 37q43 62 43 297q0 201 -14.5 505.5t-14.5 483.5
q0 185 28.5 294t94.5 183q44 50 114 76.5t144 26.5q77 0 129 -21z" />
    <glyph glyph-name="approxequal" unicode="&#x2248;" horiz-adv-x="1048" 
d="M872 938l105 -96q-47 -98 -118.5 -157.5t-149.5 -59.5q-56 0 -101.5 16.5t-109.5 58.5q-34 24 -53 36t-47.5 22t-57.5 10q-28 0 -51.5 -9.5t-44.5 -32.5t-32.5 -39t-32.5 -49q-2 -2 -2.5 -3.5t-2 -3.5t-2.5 -4l-106 96q43 94 120 154.5t168 60.5q17 0 34 -2t29.5 -4.5
t28.5 -8.5t24.5 -9t24 -11t19.5 -10.5t19.5 -12t17.5 -10.5q85 -55 112 -65q24 -8 46 -8q26 0 48 10t43 32.5t35 42.5t37 56zM872 549l105 -96q-46 -99 -117.5 -159.5t-152.5 -60.5q-53 0 -98 18t-111 60q-37 25 -55 36t-46.5 21.5t-56.5 10.5q-15 0 -29.5 -4t-25 -8
t-24 -15.5t-20 -17t-19.5 -23t-16.5 -22.5t-17.5 -26.5t-16 -24.5l-106 96q44 93 121 154t165 61q17 0 34.5 -2t30.5 -4.5t29 -8.5t24 -8.5t24 -11t20 -11t20 -12t17 -10.5q9 -6 32.5 -21t34 -21t28 -15t32.5 -12.5t31 -3.5q22 0 41.5 8t33 17.5t31 32t27 37t30.5 46.5z" />
    <glyph glyph-name="notequal" unicode="&#x2260;" horiz-adv-x="1048" 
d="M788 1044l-69 -161h237v-176h-299l-104 -258h403v-177h-467l-90 -217l-137 51l70 166h-242v177h305l105 258h-410v176h473l88 213z" />
    <glyph glyph-name="lessequal" unicode="&#x2264;" horiz-adv-x="1048" 
d="M950 201l-850 444v191l850 444v-205l-686 -332v-4l686 -333v-205zM961 -49h-867v178h867v-178z" />
    <glyph glyph-name="greaterequal" unicode="&#x2265;" horiz-adv-x="1048" 
d="M106 1280l850 -444v-193l-850 -442v205l685 333v4l-685 332v205zM956 -49h-860v178h860v-178z" />
    <glyph glyph-name="lozenge" unicode="&#x25ca;" horiz-adv-x="1167" 
d="M1077 711l-377 -815h-249l-357 815l373 817h250zM805 705l-176 423q-26 85 -37 142h-8q-11 -57 -37 -142l-182 -409l180 -436q24 -87 30 -131h11q24 100 35 124z" />
    </font>
</defs>
</svg>
